<svg width="192" height="214" viewBox="0 0 192 214" fill="none" xmlns="http://www.w3.org/2000/svg">
<path d="M83.6372 212.663L96.4269 201.987V167.702V144.298V120.894V84.1456V42.6756V21.3246L83.9687 1H61.6063L48.9786 8.48836L51.1653 21.3246L39.3696 24.7905L20.9512 55.6092L24.7242 62.6963L6.83164 74.8234L1 96.8745L6.46076 106.765L1 117.61L16.772 175.088L30.6247 178.932L32.08 194.108L64.0214 212.663H83.6372Z" fill="white" stroke="white"/>
<path d="M140.703 21.1566L140.553 22.0333L141.406 22.284L152.827 25.6396L170.755 55.6376L167.247 62.2263L166.824 63.0197L167.569 63.524L185.151 75.4411L190.785 96.7423L185.518 106.282L185.263 106.744L185.5 107.215L190.788 117.716L175.268 174.276L161.962 177.968L161.299 178.152L161.234 178.836L159.827 193.501L128.563 211.663H109.579L97.4268 201.519V167.702V144.298V120.894V84.1456V42.6756V21.6067L109.445 2H130.973L142.774 8.99794L140.703 21.1566Z" fill="white" stroke="black" stroke-width="2"/>
</svg>
