<svg width="997" height="1053" viewBox="0 0 997 1053" fill="none" xmlns="http://www.w3.org/2000/svg">
<path d="M272.776 527.618L410.212 1047.67M583.568 4.73022L836.841 958.673M583.894 1048.54L652.198 794.285M652.198 794.285L676.251 704.746M652.198 794.285L520.837 566.42M652.198 794.285L912.962 863.42M676.251 704.746L693.721 639.712M676.251 704.746L980.31 622.391M693.721 639.712L724.097 526.637M693.721 639.712L521.802 538.075M676.251 350.162L763.642 373.244M763.642 373.244L980.637 430.557M763.642 373.244L806.208 218.846M17.8682 622.391L318.858 704.746M17.8682 430.557L232.442 373.244M232.442 373.244L318.858 350.162M232.442 373.244L188.451 218.586M520.821 486.44L652.198 259.964L806.208 218.846M476.212 565.17L343.695 794.285L83.8841 862.92M521.802 511.604L692.723 414.543M854.167 206.041L806.208 218.846M806.208 218.846L823.212 157.17M302.846 414.543L477.36 513.565M302.846 638.078L477.36 538.075M142.337 206.295L188.451 218.586M188.451 218.586L343.695 259.964M188.451 218.586L171.587 159.295M343.343 259.964L343.451 260.149M343.451 260.149L475.837 486.42M343.451 260.149L411.016 6.03687M343.451 260.149L158.587 955.42M476.048 995.894L412.974 1048.54H316.24L158.721 957.035L151.543 882.197L83.2287 863.242L5.44922 579.786L32.379 526.307L5.44922 477.531L34.208 368.787L122.445 308.982L103.839 274.033L194.669 122.049L252.84 104.957L242.056 41.6555L304.33 4.72656H414.608L476.048 104.957V995.894ZM521.151 995.894L584.224 1048.54H680.958L838.478 957.035L845.655 882.197L913.97 863.242L991.749 579.786L964.819 526.307L991.749 477.531L962.99 368.787L874.753 308.982L893.36 274.033L802.529 122.049L744.358 104.957L755.143 41.6555L692.868 4.72656H582.59L521.151 104.957V995.894Z" stroke="black" stroke-width="8.5"/>
</svg>
