<svg width="606" height="298" viewBox="0 0 606 298" fill="none" xmlns="http://www.w3.org/2000/svg">
<mask id="mask0_4286_1790" style="mask-type:alpha" maskUnits="userSpaceOnUse" x="0" y="0" width="606" height="298">
<path d="M586 0H20C8.9543 0 0 8.9543 0 20V278C0 289.046 8.9543 298 20 298H586C597.046 298 606 289.046 606 278V20C606 8.9543 597.046 0 586 0Z" fill="#FFE98A"/>
</mask>
<g mask="url(#mask0_4286_1790)">
<path d="M-173.8 -180.001C-184.2 -204.501 -191.7 -230.201 -197.7 -255.701C-204.4 -284.301 -205 -314.201 -206.6 -343.301C-208.1 -369.501 -202.2 -395.601 -197.8 -421.501C-182.5 -512.301 -184.8 -606.001 -153.9 -693.601M-173.8 -180.001C-178.3 -190.601 -179.5 -202.601 -177.6 -215.701C-169.6 -219.301 -152.2 -228.301 -137.9 -249.201C-131 -259.401 -125.5 -271.901 -119.3 -283.201C-117.8 -286.101 -116.1 -288.901 -114.3 -291.601C-104.5 -306.101 -91.4 -316.401 -80.5 -331.601C-71.7 -343.701 -65.3 -358.401 -60.8 -373.801C-58.7 -381.201 -57 -388.701 -55.6 -396.201C-53 -410.401 -51.3 -425.101 -46.4 -438.501C-40.2 -455.601 -29.7 -469.401 -20 -483.401C-12.7 -494.001 -5.60001 -504.901 1.29999 -516.201C4.49999 -521.501 7.69999 -527.001 10.1 -533.001C16.3 -548.701 15.4 -566.801 12.7 -583.101C10 -599.401 5.6 -615.101 0.199997 -629.501C-8.8 -653.601 -22.3 -672.401 -33.4 -690.601C-38.7 -699.301 -44.1 -707.501 -49.3 -715.301M-173.8 -180.001C-174.1 -180.701 -170.7 -182.901 -163.2 -187.101C-146.3 -179.501 -115.3 -180.701 -89.9 -202.401C-77.6 -213.001 -67.9 -227.501 -56.9 -240.101C-54.1 -243.301 -51.2 -246.401 -48.1 -249.201C-31.3 -264.701 -10 -273.001 7.3 -289.701C21.1 -303.001 30.7 -320.701 37.1 -339.601C40.2 -348.601 42.5 -357.901 44.3 -367.101C47.7 -384.701 49.7 -402.901 57.3 -419.101C66.9 -439.601 84 -454.601 99.7 -469.901C111.6 -481.501 123.1 -493.701 134.2 -506.301C139.4 -512.301 144.7 -518.501 148.4 -525.701C158.1 -544.501 155.7 -567.401 150 -587.301C144.3 -607.301 135.8 -626.001 125.1 -642.701C107.3 -670.501 81.4 -689.301 58.7 -707.201C47.7 -715.801 36.6 -723.701 25.5 -730.801M-173.8 -180.001C-168.2 -166.701 -157.5 -156.401 -143.1 -147.001C-111.4 -126.301 -63.6 -114.301 -22.7 -137.001C-2.9 -148.101 12.7 -165.501 30.3 -179.901C34.8 -183.601 39.5 -187.001 44.4 -190.101C71 -206.901 103.9 -212.401 130 -231.001C151 -245.901 165 -267.801 174.1 -291.701C178.5 -303.101 181.7 -314.801 184.1 -326.501C188.7 -348.801 191.1 -372.101 202.5 -392.101C217 -417.601 243.3 -434.101 267.4 -451.201C285.6 -464.101 303.3 -477.901 320.3 -492.501C328.4 -499.401 336.4 -506.601 342 -515.501C356.6 -538.601 352 -568.201 342.2 -593.201C332.4 -618.101 317.9 -641.201 299.9 -661.001C269.9 -694.001 226.4 -712.701 187.6 -730.301C168.8 -738.801 149.6 -746.301 130.3 -752.501M-173.8 -180.001C-160.6 -148.901 -142.6 -119.801 -117.2 -95.6008C-71.7 -52.3008 2.90001 -28.8008 63.7 -52.9008C100.6 -67.6008 127.7 -97.1008 163.5 -113.901C202.8 -132.301 250.5 -134.201 288 -155.401C332.4 -180.501 354 -228.101 363.9 -274.101C369.9 -302.401 372.9 -332.101 389.1 -357.101C409.7 -388.801 447.9 -407.401 482.8 -426.801C509.3 -441.501 534.9 -457.501 559.5 -474.601C571.1 -482.701 582.7 -491.301 590.8 -502.301C611.8 -530.901 604.5 -569.201 589.3 -600.601C574.2 -632.001 552 -660.601 524.6 -684.501C478.9 -724.301 412.8 -742.801 353.2 -759.901C324.3 -768.301 294.8 -775.201 264.9 -780.301M-139 -696.701C-140.9 -688.201 -142.4 -679.501 -143.8 -670.801C-146.7 -652.301 -148.1 -633.401 -149.6 -613.701C-150.5 -602.001 -151.2 -590.001 -152.1 -577.901C-153 -565.901 -153.9 -553.501 -155.8 -541.501C-156.5 -536.901 -157.4 -532.401 -158.2 -527.801C-160 -518.301 -161.8 -508.701 -163.6 -499.301C-166.1 -486.801 -168.7 -474.401 -170.8 -461.501C-172.5 -451.301 -173.8 -441.001 -175.4 -430.801C-176.2 -425.401 -177.2 -420.001 -178.2 -414.601C-180.4 -403.401 -183 -392.401 -185.7 -381.701C-189.1 -368.301 -192.3 -355.501 -193.6 -342.101C-193.8 -339.601 -194 -337.101 -194.1 -334.601C-194.5 -324.801 -194.9 -314.801 -195.4 -305.101C-196.5 -285.201 -197.8 -266.801 -194.7 -249.901C-190.4 -226.101 -183.2 -202.401 -173.7 -179.901M-124.1 -699.801C-124.8 -691.401 -125.2 -682.801 -125.4 -674.101C-125.9 -655.601 -124.9 -636.801 -124.6 -616.401C-124.4 -604.201 -124.3 -591.701 -124.6 -578.901C-124.9 -566.101 -125.5 -552.901 -128.1 -540.201C-129.1 -535.301 -130.4 -530.701 -131.6 -526.001C-134.2 -516.201 -136.9 -506.401 -139.7 -496.801C-143.4 -484.101 -147.3 -471.401 -150.1 -457.801C-152.3 -447.101 -153.7 -436.101 -155.5 -425.201C-156.4 -419.401 -157.5 -413.701 -158.7 -408.001C-161.2 -396.101 -164.5 -384.501 -168.2 -373.501C-172.8 -359.801 -177.7 -347.401 -180.4 -333.801C-180.9 -331.301 -181.3 -328.801 -181.7 -326.201C-183.1 -316.201 -184.3 -305.701 -185.9 -295.901C-189.2 -275.801 -193.7 -259.001 -192 -244.301C-189.4 -222.201 -182.6 -200.501 -173.9 -180.001M-173.9 -180.001C-180.1 -194.501 -183 -210.401 -183.4 -227.101C-179 -235.201 -167.1 -247.201 -157.2 -267.801C-152.4 -277.801 -148.6 -289.501 -144.3 -300.301C-143.2 -303.101 -142.1 -305.801 -140.8 -308.401C-133.8 -322.601 -124 -333.701 -115.6 -348.301C-108.9 -359.901 -103.7 -373.401 -100 -387.401C-98.2 -394.101 -96.8 -400.901 -95.6 -407.701C-93.3 -420.601 -91.7 -433.701 -87.9 -446.101C-83 -461.801 -75.2 -475.201 -67.9 -488.701C-62.4 -499.001 -57.1 -509.401 -51.9 -520.101C-49.5 -525.101 -47 -530.201 -45.2 -535.801C-40.4 -550.201 -40.7 -566.401 -42.2 -581.301C-43.7 -596.301 -46.4 -610.701 -49.7 -624.201C-55.3 -646.901 -63.7 -665.701 -70.2 -684.001C-73.3 -692.701 -76.4 -701.101 -79.2 -709.101M-173.9 -180.001C-171.7 -174.701 -165.5 -171.001 -154.7 -169.901C-132.4 -155.701 -93.2 -152.301 -61.2 -174.401C-45.7 -185.201 -33.5 -201.001 -19.6 -214.301C-16 -217.701 -12.4 -221.001 -8.5 -223.901C12.6 -239.901 38.8 -247.001 59.9 -264.501C76.9 -278.501 88.3 -298.101 95.9 -319.101C99.5 -329.101 102.3 -339.401 104.3 -349.701C108.2 -369.301 110.4 -389.701 119.6 -407.501C131.3 -430.201 152.3 -445.801 171.6 -461.901C186.2 -474.101 200.4 -486.901 214 -500.401C220.4 -506.801 226.9 -513.401 231.4 -521.301C243.2 -541.901 239.8 -567.701 232.4 -589.801C224.9 -611.901 213.8 -632.501 200 -650.501C177 -680.601 143.5 -699.301 113.9 -717.101C99.6 -725.601 85 -733.401 70.4 -740.101M-173.9 -180.001C-170.8 -172.701 -163.8 -167.101 -151.8 -164.201C-127.7 -147.701 -85.8 -142.701 -51.6 -165.001C-35 -175.801 -21.9 -192.001 -7.10001 -205.601C-3.30001 -209.001 0.599997 -212.301 4.7 -215.301C27.2 -231.501 55.1 -238.201 77.4 -256.001C95.3 -270.201 107.4 -290.401 115.4 -312.101C119.2 -322.501 122.1 -333.201 124.2 -343.801C128.3 -364.101 130.6 -385.201 140.3 -403.601C152.6 -427.001 175 -442.901 195.5 -459.201C211 -471.601 226 -484.601 240.5 -498.401C247.4 -504.901 254.2 -511.601 259 -519.801C271.5 -541.001 267.8 -567.801 259.8 -590.601C251.8 -613.401 239.8 -634.601 225 -653.101C200.3 -684.001 164.3 -702.701 132.4 -720.401C116.9 -728.901 101.2 -736.601 85.4 -743.201M-173.9 -180.001C-167.4 -164.701 -155.9 -152.301 -140.3 -141.301C-107.2 -117.901 -56.3 -104.701 -13.2 -127.601C7.7 -138.701 24.1 -156.601 42.8 -171.201C47.5 -174.901 52.4 -178.401 57.6 -181.501C85.7 -198.501 120.2 -203.601 147.6 -222.501C169.6 -237.701 184.2 -260.201 193.7 -284.801C198.3 -296.501 201.6 -308.601 204.1 -320.601C208.8 -343.501 211.3 -367.501 223.2 -388.101C238.4 -414.301 266 -431.101 291.3 -448.401C310.5 -461.601 329.1 -475.601 346.9 -490.501C355.3 -497.501 363.7 -504.901 369.6 -514.001C384.9 -537.701 380 -568.301 369.6 -594.001C359.2 -619.601 343.8 -643.301 324.8 -663.601C293.1 -697.501 247 -716.001 205.9 -733.601C186 -742.001 165.7 -749.501 145.2 -755.601M-109.1 -702.901C-108.6 -694.601 -107.8 -686.101 -107 -677.401C-105.2 -659.001 -101.7 -640.201 -99.7 -619.001C-98.5 -606.401 -97.5 -593.201 -97.2 -579.701C-96.9 -566.201 -97.2 -552.001 -100.5 -538.801C-101.8 -533.701 -103.4 -528.901 -105.1 -524.101C-108.6 -514.001 -112.1 -504.001 -115.8 -494.201C-120.7 -481.201 -125.9 -468.301 -129.4 -454.001C-132.2 -442.701 -133.6 -431.001 -135.5 -419.401C-136.5 -413.301 -137.7 -407.201 -139.1 -401.101C-142 -388.501 -145.9 -376.301 -150.6 -365.101C-156.5 -351.101 -163 -339.101 -167.1 -325.401C-167.9 -322.901 -168.5 -320.301 -169.1 -317.601C-171.4 -307.301 -173.5 -296.401 -176.2 -286.601C-181.7 -266.301 -191.8 -250.901 -189 -238.701C-184.4 -218.801 -181.6 -198.601 -173.7 -180.101C-174.8 -182.701 -172.4 -186.901 -166 -192.901C-150.9 -187.601 -122.6 -190.401 -99.4 -211.901C-88.2 -222.301 -79.3 -236.501 -69.3 -248.801C-66.8 -252.001 -64.1 -255.001 -61.3 -257.801C-45.9 -273.001 -26.2 -281.801 -10.2 -298.101C2.59999 -311.201 11.6 -328.301 17.6 -346.501C20.5 -355.201 22.7 -364.101 24.4 -373.001C27.6 -390.001 29.5 -407.501 36.6 -423.101C45.5 -442.901 61.3 -457.701 75.8 -472.701C86.8 -484.101 97.4 -495.901 107.6 -508.301C112.4 -514.101 117.2 -520.101 120.7 -527.101C129.7 -545.201 127.6 -567.201 122.5 -586.401C117.4 -605.701 109.7 -623.801 100.1 -640.001C84.1 -667.101 60.7 -685.901 40.3 -703.801C30.5 -712.501 20.5 -720.401 10.6 -727.701M-94.2 -706.001C-92.5 -697.901 -90.6 -689.401 -88.6 -680.701C-84.4 -662.301 -78.5 -643.501 -74.7 -621.601C-72.4 -608.501 -70.6 -594.701 -69.7 -580.501C-68.8 -566.301 -68.8 -551.101 -72.8 -537.301C-74.4 -532.001 -76.4 -527.001 -78.4 -522.101C-82.7 -511.701 -87.2 -501.501 -91.8 -491.401C-97.9 -478.201 -104.4 -465.001 -108.6 -450.001C-111.9 -438.201 -113.4 -425.701 -115.5 -413.501C-116.6 -407.001 -117.9 -400.601 -119.5 -394.201C-122.8 -380.901 -127.3 -368.101 -133.1 -356.601C-140.3 -342.301 -148.4 -330.701 -153.9 -316.801C-154.9 -314.201 -155.8 -311.601 -156.7 -308.901C-160 -298.301 -162.9 -287.101 -166.7 -277.101C-174.4 -256.701 -188.8 -243.101 -186.2 -232.801C-181.7 -214.801 -180.8 -196.501 -173.8 -179.901M-173.8 -179.901C-164.8 -158.801 -150.9 -140.001 -131.6 -124.101C-93.9 -93.1008 -34 -76.2008 15.7 -99.6008C39.8 -110.901 58.7 -130.101 80.3 -145.401C85.8 -149.301 91.4 -153.001 97.4 -156.201C129.7 -173.701 169.1 -177.601 200.3 -197.401C225.3 -213.301 241.8 -237.601 252.5 -264.301C257.6 -277.001 261.4 -290.101 264.1 -303.201C269.3 -328.101 272 -354.301 285.5 -376.501C302.7 -404.701 334.3 -422.201 363.2 -440.301C385.1 -454.001 406.3 -468.801 426.7 -484.501C436.4 -492.001 446 -499.801 452.7 -509.601C470.1 -535.201 464.3 -568.701 452.1 -596.501C439.9 -624.201 422 -649.801 399.8 -671.401C362.8 -707.401 309.3 -726.001 261.2 -743.401C237.9 -751.801 214.1 -759.101 190.1 -764.801M-173.8 -179.901C-162.3 -152.801 -146 -127.801 -123 -106.901C-80.7 -68.5008 -12 -47.7008 44.4 -71.5008C71.8 -83.0008 93.3 -103.401 117.7 -119.501C123.9 -123.601 130.3 -127.401 137 -130.701C173.6 -148.801 217.9 -151.401 252.9 -172.101C281 -188.701 299.4 -214.901 311.2 -243.701C316.8 -257.401 320.9 -271.601 323.9 -285.701C329.6 -312.701 332.5 -341.001 347.6 -364.901C366.8 -395.301 402.4 -413.401 434.9 -432.301C459.6 -446.601 483.4 -462.001 506.3 -478.601C517.2 -486.401 528 -494.701 535.5 -505.201C555.1 -532.601 548.4 -569.001 534.4 -599.001C520.5 -629.001 500 -656.301 474.6 -679.301C432.5 -717.501 371.4 -736.101 316.4 -753.301C289.8 -761.701 262.5 -768.801 235 -774.101M-64.2 -712.201C-60.2 -704.301 -55.9 -696.001 -51.7 -687.301C-42.9 -669.101 -32 -650.301 -24.7 -626.801C-20.3 -612.801 -16.8 -597.801 -14.7 -582.101C-12.6 -566.501 -12 -549.301 -17.5 -534.301C-19.6 -528.501 -22.4 -523.201 -25.3 -518.001C-31.3 -507.101 -37.5 -496.301 -43.9 -485.901C-52.4 -472.101 -61.6 -458.501 -67.1 -442.201C-71.5 -429.301 -73.1 -415.401 -75.5 -401.801C-76.8 -394.701 -78.3 -387.501 -80.3 -380.401C-84.4 -365.701 -90.2 -351.601 -97.9 -339.701C-107.6 -324.801 -119 -314.101 -127.4 -299.701C-128.9 -297.101 -130.4 -294.301 -131.7 -291.501C-136.9 -280.401 -141.6 -268.301 -147.4 -258.301C-159.5 -237.601 -174.2 -227.101 -180.4 -221.201C-181.2 -206.301 -179.1 -192.401 -173.7 -179.801M-34.3 -718.401C-27.9 -710.801 -21.4 -702.601 -14.9 -693.901C-1.49999 -675.801 14.4 -657.001 25.2 -632.101C31.7 -617.201 36.8 -601.001 40.1 -583.901C43.4 -566.801 44.6 -547.801 37.7 -531.501C35.1 -525.201 31.4 -519.701 27.8 -514.201C20.1 -502.701 12.1 -491.501 3.90001 -480.701C-6.99999 -466.401 -18.8 -452.401 -25.7 -434.601C-31.1 -420.601 -32.9 -405.301 -35.6 -390.301C-37 -382.501 -38.9 -374.601 -41.2 -366.901C-46.1 -350.801 -53.1 -335.501 -62.9 -323.201C-75.1 -307.701 -89.8 -297.801 -101 -283.101C-103.1 -280.401 -105 -277.501 -106.8 -274.601C-113.9 -263.001 -120.3 -250.101 -128.3 -239.901C-144.8 -218.901 -164.9 -211.401 -174.7 -210.101C-177.7 -198.801 -177.5 -188.701 -173.8 -180.101M-19.3 -721.501C-11.8 -714.001 -4.1 -705.901 3.5 -697.201C19.3 -679.201 37.7 -660.401 50.2 -634.701C57.7 -619.401 63.7 -602.501 67.6 -584.701C71.5 -567.001 73 -546.901 65.4 -530.001C62.5 -523.501 58.5 -517.801 54.4 -512.201C45.9 -500.401 37 -489.001 27.9 -478.001C15.8 -463.501 2.69999 -449.201 -4.90001 -430.701C-10.9 -416.201 -12.7 -400.101 -15.6 -384.501C-17.1 -376.301 -19.1 -368.101 -21.6 -360.101C-26.8 -343.301 -34.5 -327.401 -45.3 -314.801C-58.8 -299.101 -75.2 -289.501 -87.7 -274.601C-90 -271.901 -92.2 -268.901 -94.2 -265.901C-102.3 -254.101 -109.5 -240.701 -118.6 -230.501C-137.4 -209.301 -160.2 -203.401 -171.7 -204.301C-175.8 -194.801 -176.5 -186.701 -173.7 -180.001M-173.7 -180.001C-169 -168.801 -159.2 -160.701 -145.9 -152.801C-115.8 -134.901 -71 -123.801 -32.3 -146.401C-13.6 -157.401 1.19999 -174.401 17.9 -188.501C22.1 -192.101 26.5 -195.501 31.2 -198.501C56.5 -215.001 87.7 -221.001 112.5 -239.401C132.5 -254.101 145.9 -275.401 154.6 -298.601C158.8 -309.601 161.9 -321.001 164.2 -332.301C168.6 -354.001 171 -376.501 181.8 -396.001C195.5 -420.701 220.5 -437.101 243.4 -453.901C260.8 -466.601 277.6 -480.201 293.7 -494.501C301.3 -501.301 308.9 -508.401 314.3 -517.001C328.2 -539.501 323.9 -568.201 314.7 -592.401C305.5 -616.601 291.8 -639.001 274.9 -658.401C246.7 -690.701 205.7 -709.401 169.2 -727.001C151.5 -735.501 133.4 -743.001 115.3 -749.401M-173.7 -180.001C-165.6 -160.801 -152.4 -144.201 -134.4 -129.901C-98.3 -101.401 -41.4 -85.8007 6.10001 -109.001C29.1 -120.301 47.2 -139.001 67.6 -154.001C72.8 -157.801 78.2 -161.401 83.9 -164.601C114.8 -181.901 152.6 -186.201 182.5 -205.701C206.5 -221.401 222.4 -245.101 232.7 -271.101C237.6 -283.501 241.2 -296.301 243.9 -309.001C249 -333.301 251.6 -358.701 264.6 -380.401C281.1 -407.901 311.4 -425.201 339.1 -443.001C360.2 -456.501 380.5 -471.101 400 -486.501C409.3 -493.801 418.5 -501.401 424.9 -511.001C441.6 -536.001 436.1 -568.501 424.5 -595.601C412.9 -622.701 395.8 -647.601 374.7 -668.801C339.5 -704.101 288.4 -722.601 242.7 -740.101C220.6 -748.501 197.9 -755.801 175.1 -761.701M-4.39999 -724.601C4.30001 -717.201 13.2 -709.201 21.9 -700.501C40 -682.501 60.9 -663.701 75.2 -637.301C83.7 -621.601 90.6 -604.101 95 -585.601C99.5 -567.101 101.3 -546.101 93 -528.601C89.8 -521.901 85.4 -516.001 80.9 -510.301C71.5 -498.201 61.8 -486.601 51.7 -475.401C38.4 -460.601 24 -446.101 15.7 -426.901C9.30001 -411.701 7.4 -395.001 4.3 -378.701C2.7 -370.201 0.600009 -361.601 -2.09999 -353.201C-7.69999 -335.701 -16 -319.201 -27.9 -306.401C-42.6 -290.401 -60.7 -281.201 -74.7 -266.201C-77.3 -263.401 -79.7 -260.501 -82 -257.401C-91.1 -245.301 -99.1 -231.601 -109.2 -221.201C-130.2 -199.901 -155.7 -195.501 -169.1 -198.601C-174.3 -190.801 -175.9 -184.701 -173.9 -180.101M40.5 -733.901C52.7 -726.901 65 -719.101 77.1 -710.501C102.1 -692.701 130.6 -673.901 150 -645.301C161.7 -628.201 171.1 -608.801 177.4 -588.201C183.7 -567.601 186.4 -543.701 176 -524.301C172 -516.801 166.4 -510.501 160.7 -504.401C148.8 -491.501 136.4 -479.101 123.6 -467.301C106.7 -451.801 88.3 -436.601 78 -415.301C69.9 -398.601 67.8 -379.601 64.2 -361.301C62.3 -351.701 59.9 -342.101 56.6 -332.701C49.8 -313.101 39.6 -294.801 24.7 -281.201C6.2 -264.301 -16.8 -256.401 -35 -240.701C-38.4 -237.801 -41.5 -234.701 -44.5 -231.401C-56.4 -218.601 -67 -203.601 -80.4 -193.001C-108 -171.201 -141.7 -171.501 -160.4 -181.301C-169 -178.901 -173.3 -178.601 -173.9 -179.901C-169.9 -170.601 -161.1 -164.801 -148.9 -158.401C-120.2 -143.301 -78.5 -133.201 -42 -155.601C-24.3 -166.501 -10.4 -183.201 5.39999 -197.001C9.49999 -200.501 13.6 -203.901 18 -206.901C41.9 -223.201 71.4 -229.501 95 -247.601C113.9 -262.101 126.7 -282.901 135 -305.301C139 -316.001 142 -327.001 144.2 -338.001C148.4 -358.901 150.7 -380.801 161 -399.701C174 -423.701 197.7 -439.801 219.4 -456.401C235.9 -468.901 251.8 -482.301 267.1 -496.301C274.3 -503.001 281.5 -509.901 286.6 -518.301C299.8 -540.201 295.8 -567.901 287.2 -591.401C278.6 -615.001 265.8 -636.801 249.9 -655.701C223.5 -687.301 185 -706.001 150.7 -723.701C134.1 -732.201 117.3 -739.801 100.3 -746.301M55.5 -737.001C68.9 -730.101 82.4 -722.301 95.6 -713.801C122.8 -696.001 153.8 -677.201 175 -647.901C187.8 -630.301 198 -610.401 204.9 -589.001C211.8 -567.601 214.8 -542.801 203.7 -522.801C199.4 -515.101 193.4 -508.601 187.4 -502.401C174.6 -489.201 161.4 -476.601 147.7 -464.601C129.6 -448.801 109.9 -433.401 98.9 -411.401C90.2 -394.101 88.1 -374.401 84.4 -355.501C82.4 -345.601 79.8 -335.601 76.4 -325.901C69.2 -305.601 58.4 -286.701 42.5 -272.901C22.7 -255.701 -1.9 -248.201 -21.5 -232.401C-25.1 -229.501 -28.5 -226.301 -31.8 -223.001C-44.7 -209.901 -56.1 -194.501 -70.5 -183.901C-100.3 -161.901 -136.8 -163.801 -157.2 -175.801C-166.9 -175.101 -172.1 -176.801 -173.5 -180.201M160.2 -758.601C181.9 -752.601 203.3 -745.201 224.4 -736.801C267.8 -719.301 316.4 -700.701 349.8 -666.201C369.9 -645.501 386.1 -621.201 397.1 -594.801C408.1 -568.401 413.3 -536.801 397.3 -512.501C391.1 -503.201 382.3 -495.601 373.5 -488.501C354.8 -473.301 335.4 -459.101 315.3 -445.701C288.8 -428.101 259.8 -411.101 244 -384.201C231.6 -363.101 229 -338.401 224.1 -314.701C221.5 -302.301 218 -289.901 213.3 -277.901C203.4 -252.601 188.2 -229.501 165.1 -214.101C136.4 -194.901 100.3 -190.201 70.8 -173.101C65.4 -169.901 60.2 -166.401 55.2 -162.601C35.6 -147.801 18.3 -129.501 -3.7 -118.301C-49 -95.2007 -102.9 -109.601 -137.5 -135.601C-154.3 -148.201 -166.6 -162.801 -174 -180.001M205.1 -767.901C230.3 -762.301 255.2 -755.101 279.6 -746.701C330 -729.401 386 -710.901 424.7 -674.101C447.9 -652.001 466.7 -625.901 479.5 -597.401C492.3 -568.901 498.4 -534.401 480.2 -508.201C473.2 -498.101 463.2 -490.201 453.2 -482.601C432 -466.601 409.9 -451.601 387.1 -437.701C357 -419.401 324.1 -401.601 306.2 -372.701C292.2 -349.901 289.4 -323.101 284 -297.401C281.2 -284.001 277.3 -270.501 272.1 -257.501C261 -230.101 243.9 -205.201 217.8 -189.001C185.4 -168.901 144.3 -165.401 110.6 -147.801C104.4 -144.501 98.5 -140.801 92.8 -136.901C70.3 -121.301 50.5 -101.801 25.3 -90.4008C-26.6 -66.9008 -89.5 -85.0008 -128.7 -118.601C-149.2 -136.101 -163.9 -157.001 -173.8 -180.201M220 -771.001C246.4 -765.501 272.4 -758.401 298 -750.001C350.7 -732.701 409.3 -714.201 449.7 -676.601C474 -654.101 493.6 -627.301 507 -598.101C520.4 -568.801 526.8 -533.401 507.9 -506.601C500.6 -496.301 490.2 -488.201 479.8 -480.501C457.8 -464.201 434.8 -449.001 411 -434.901C379.7 -416.301 345.5 -398.301 326.9 -368.701C312.3 -345.401 309.5 -317.801 303.9 -291.501C301 -277.701 297 -263.901 291.6 -250.501C280.2 -222.401 262.4 -196.801 235.3 -180.501C201.6 -160.101 158.9 -157.001 123.7 -139.201C117.2 -135.901 111.1 -132.201 105.1 -128.101C81.6 -112.301 61 -92.3008 34.7 -80.8008C-19.5 -57.1008 -85.3 -76.6008 -126 -112.601C-147.7 -131.801 -163.3 -154.701 -174 -179.901C-161.6 -150.801 -144.5 -123.701 -120.3 -101.201C-76.4 -60.4008 -4.7 -38.2008 53.9 -62.2008C82.3 -73.9008 104.6 -94.6007 130 -111.001C136.5 -115.201 143.1 -119.001 150.1 -122.401C188 -140.701 234.1 -142.901 270.3 -163.901C299.5 -180.701 318.5 -207.501 330.7 -237.001C336.5 -250.901 340.7 -265.601 343.8 -280.001C349.7 -307.701 352.6 -336.701 368.3 -361.101C388.2 -392.201 425.1 -410.601 458.8 -429.701C484.4 -444.201 509.2 -459.901 532.9 -476.701C544.1 -484.601 555.3 -493.001 563.1 -503.801C583.4 -531.801 576.4 -569.101 561.8 -599.801C547.3 -630.501 526 -658.501 499.6 -681.901C455.7 -720.901 392.1 -739.401 334.8 -756.601C307 -765.001 278.6 -772.001 249.9 -777.201M865.6 -780.301C856.5 -747.301 828.9 -721.301 808.3 -692.601C795.1 -674.201 784.7 -654.301 774.1 -634.601C736.9 -565.201 694.4 -493.901 622.9 -450.901C596.1 -434.701 564.1 -421.401 550.5 -395.201C535.1 -365.501 549.9 -329.701 573.4 -304.501C601.1 -274.901 640.2 -254.601 681.8 -243.501C723.3 -232.401 767.2 -229.901 810.5 -231.601C855.8 -233.501 900.9 -239.901 944.6 -250.801C1017.3 -268.901 1086.6 -299.301 1161.5 -307.201M874.8 -776.101C865.8 -744.201 839.1 -719.101 819.1 -691.401C806.3 -673.601 796.1 -654.401 785.8 -635.301C749.6 -568.301 708.3 -499.501 639.4 -457.501C613.3 -441.601 582.3 -428.101 569.2 -402.401C568.3 -400.701 567.5 -398.901 566.9 -397.101C556.2 -369.101 570.3 -336.701 592.2 -313.701C619.3 -285.001 657.5 -265.701 697.8 -255.201C738 -244.601 780.6 -242.301 822.5 -244.101C866.4 -246.001 910 -252.401 952.3 -263.001C1022.6 -280.701 1089.7 -310.201 1162.1 -318.201M884.1 -771.901C875.2 -741.201 849.4 -716.901 830.1 -690.201C817.7 -673.001 807.8 -654.501 797.8 -636.101C762.6 -571.401 722.5 -505.201 656.3 -464.201C630.9 -448.501 601 -435.001 588.4 -409.801C587.6 -408.101 586.8 -406.401 586.2 -404.601C575.9 -377.101 589.9 -345.501 611.5 -323.201C638.1 -295.601 675.2 -277.201 714.4 -267.101C753.4 -257.101 794.5 -255.001 835 -256.901C877.4 -258.901 919.6 -265.101 960.5 -275.501C1028.5 -292.701 1093.4 -321.401 1163.3 -329.501M893.3 -767.701C884.6 -738.201 859.6 -714.801 840.9 -689.001C828.9 -672.401 819.3 -654.601 809.6 -636.901C775.5 -574.601 736.5 -510.901 672.9 -471.001C648.2 -455.501 619.4 -441.901 607.3 -417.201C606.5 -415.501 605.8 -413.801 605.1 -412.101C595.3 -385.201 609.1 -354.201 630.3 -332.601C656.4 -306.001 692.4 -288.501 730.5 -279.001C768.2 -269.601 807.9 -267.601 847.1 -269.601C888.1 -271.601 928.9 -277.801 968.4 -287.901C1034.1 -304.701 1096.7 -332.501 1164.1 -340.701M902.5 -763.501C893.9 -735.101 869.8 -712.601 851.7 -687.801C840.1 -671.901 830.8 -654.701 821.3 -637.601C788.2 -577.601 750.4 -516.401 689.5 -477.601C665.5 -462.301 637.7 -448.701 626.2 -424.401C625.4 -422.801 624.7 -421.101 624.1 -419.401C614.7 -393.001 628.4 -362.801 649.3 -341.901C674.8 -316.401 709.9 -299.701 746.8 -290.801C783.2 -282.001 821.5 -280.201 859.3 -282.201C898.9 -284.301 938.2 -290.401 976.3 -300.201C1039.7 -316.601 1100.1 -343.501 1165 -351.701M911.8 -759.301C903.3 -732.101 880.1 -710.401 862.6 -686.601C851.3 -671.301 842.3 -654.801 833.2 -638.401C801.1 -580.801 764.6 -522.101 706.3 -484.401C683 -469.301 656.3 -455.601 645.3 -431.901C644.6 -430.301 643.9 -428.701 643.3 -427.001C634.4 -401.101 647.8 -371.601 668.5 -351.401C693.5 -326.901 727.5 -311.201 763.3 -302.701C798.4 -294.401 835.3 -292.801 871.8 -294.901C909.9 -297.101 947.8 -303.001 984.5 -312.601C1045.5 -328.601 1103.7 -354.601 1166.2 -362.901M921 -755.101C912.7 -729.101 890.3 -708.301 873.4 -685.401C862.5 -670.701 853.8 -654.901 845 -639.201C814 -583.901 778.6 -527.701 722.9 -491.101C700.3 -476.201 674.7 -462.501 664.2 -439.201C663.5 -437.601 662.9 -436.001 662.3 -434.401C653.8 -409.101 667.1 -380.301 687.4 -360.701C711.8 -337.201 744.8 -322.401 779.5 -314.501C813.3 -306.801 848.9 -305.401 883.9 -307.501C920.6 -309.701 957 -315.601 992.3 -324.901C1051 -340.401 1107 -365.601 1166.9 -374.001M930.3 -750.901C922.1 -726.001 900.6 -706.101 884.3 -684.201C873.8 -670.101 865.4 -655.001 856.8 -639.901C826.8 -587.001 792.6 -533.301 739.6 -497.701C717.7 -483.001 693.1 -469.201 683.2 -446.501C682.5 -445.001 681.9 -443.401 681.4 -441.801C673.4 -417.001 686.5 -389.001 706.5 -370.101C730.3 -347.601 762.3 -333.701 795.9 -326.401C828.5 -319.301 862.6 -318.001 896.2 -320.201C931.4 -322.501 966.4 -328.301 1000.3 -337.301C1056.7 -352.401 1110.4 -376.701 1167.9 -385.201M939.5 -746.701C931.4 -723.001 910.8 -704.001 895.1 -683.001C885 -669.601 876.8 -655.101 868.6 -640.701C839.6 -590.101 806.7 -538.901 756.2 -504.501C735 -490.001 711.5 -476.201 702.1 -453.901C701.5 -452.401 700.9 -450.901 700.4 -449.301C692.9 -425.101 705.7 -397.701 725.5 -379.501C748.7 -358.101 779.7 -345.001 812.1 -338.201C843.4 -331.601 876.1 -330.601 908.4 -332.801C942.2 -335.201 975.8 -340.801 1008.3 -349.701C1062.4 -364.401 1113.9 -387.901 1168.8 -396.401M948.7 -742.501C940.7 -719.901 921 -701.801 906 -681.801C896.3 -669.001 888.4 -655.201 880.5 -641.501C852.6 -593.301 820.8 -544.501 773 -511.201C752.5 -496.901 730.1 -483.001 721.1 -461.201C720.5 -459.701 720 -458.201 719.5 -456.701C712.4 -433.001 725.1 -406.401 744.6 -388.901C767.3 -368.501 797.3 -356.301 828.5 -350.101C858.5 -344.101 889.8 -343.201 920.7 -345.501C953.1 -347.901 985.2 -353.501 1016.3 -362.101C1068 -376.401 1117.3 -399.001 1169.8 -407.601M958 -738.301C950.2 -716.901 931.3 -699.601 916.9 -680.601C907.6 -668.401 900 -655.301 892.3 -642.201C865.4 -596.401 834.8 -550.101 789.6 -518.001C769.8 -503.901 748.4 -490.001 740 -468.701C739.4 -467.301 738.9 -465.801 738.5 -464.301C731.9 -441.101 744.3 -415.301 763.5 -398.401C785.6 -379.001 814.6 -367.801 844.7 -362.101C873.4 -356.701 903.3 -356.001 932.9 -358.401C963.8 -360.901 994.5 -366.401 1024.2 -374.701C1073.6 -388.501 1120.7 -410.301 1170.6 -419.001M967.2 -734.101C959.5 -713.901 941.6 -697.501 927.7 -679.501C918.8 -667.901 911.5 -655.501 904.1 -643.101C878.2 -599.601 848.9 -555.701 806.3 -524.701C787.2 -510.801 766.9 -496.901 759 -476.001C758.5 -474.601 758 -473.201 757.6 -471.701C751.4 -449.101 763.7 -423.901 782.6 -407.701C804.1 -389.301 832.1 -379.001 861.1 -373.801C888.5 -368.901 917 -368.401 945.2 -370.901C974.7 -373.501 1003.9 -378.801 1032.2 -386.901C1079.3 -400.301 1124.1 -421.201 1171.6 -430.001M976.5 -729.901C968.9 -710.801 951.9 -695.301 938.6 -678.301C930.1 -667.301 923 -655.601 916 -643.901C891.1 -602.701 863 -561.201 823 -531.401C804.6 -517.701 785.4 -503.701 778 -483.401C777.5 -482.001 777.1 -480.601 776.7 -479.201C771 -457.101 783 -432.701 801.7 -417.201C822.6 -399.801 849.6 -390.401 877.5 -385.801C903.6 -381.501 930.8 -381.201 957.6 -383.701C985.6 -386.301 1013.4 -391.601 1040.4 -399.401C1085.2 -412.401 1127.8 -432.401 1172.7 -441.301M985.7 -725.701C978.3 -707.801 962.1 -693.101 949.4 -677.101C941.3 -666.801 934.5 -655.701 927.7 -644.601C903.9 -605.801 877 -566.701 839.6 -538.101C821.9 -524.601 803.7 -510.601 796.9 -490.701C796.4 -489.401 796 -488.001 795.7 -486.701C790.4 -465.101 802.3 -441.401 820.6 -426.601C840.9 -410.201 866.9 -401.701 893.7 -397.701C918.5 -393.901 944.3 -393.801 969.7 -396.401C996.3 -399.101 1022.7 -404.301 1048.2 -411.801C1090.6 -424.401 1131 -443.501 1173.5 -452.501M994.9 -721.501C987.6 -704.801 972.3 -691.001 960.2 -675.901C952.5 -666.201 946 -655.801 939.5 -645.401C916.7 -608.901 891.1 -572.201 856.2 -544.801C839.3 -531.501 822.1 -517.401 815.8 -498.001C815.4 -496.701 815 -495.401 814.7 -494.101C809.9 -473.101 821.5 -450.101 839.6 -436.001C859.3 -420.601 884.3 -413.001 910 -409.501C933.5 -406.301 957.9 -406.401 981.9 -409.001C1007.1 -411.801 1032 -416.801 1056.1 -424.101C1096.2 -436.201 1134.4 -454.501 1174.3 -463.601M1004.2 -717.401C997 -701.801 982.6 -688.901 971.1 -674.801C963.7 -665.701 957.6 -656.001 951.4 -646.301C929.7 -612.101 905.3 -577.801 873 -551.601C856.8 -538.501 840.7 -524.401 834.9 -505.501C834.5 -504.201 834.2 -502.901 833.9 -501.701C829.5 -481.201 840.9 -458.901 858.8 -445.501C877.9 -431.101 901.9 -424.401 926.4 -421.501C948.6 -418.801 971.6 -419.101 994.3 -421.801C1018 -424.601 1041.5 -429.601 1064.2 -436.601C1102 -448.301 1137.9 -465.701 1175.4 -474.901M1013.4 -713.201C1006.4 -698.801 992.8 -686.801 982 -673.601C975 -665.101 969.1 -656.101 963.2 -647.101C942.5 -615.301 919.5 -583.301 889.7 -558.401C874.2 -545.401 859.1 -531.301 853.8 -512.901C853.4 -511.701 853.1 -510.401 852.9 -509.201C849 -489.301 860.2 -467.701 877.7 -454.901C896.2 -441.501 919.3 -435.701 942.6 -433.401C963.5 -431.301 985.1 -431.801 1006.4 -434.501C1028.7 -437.401 1050.7 -442.301 1072 -449.001C1107.5 -460.301 1141.2 -476.801 1176.1 -486.101M1022.7 -709.001C1015.8 -695.801 1003.1 -684.601 992.9 -672.401C986.3 -664.601 980.7 -656.201 975.1 -647.801C955.4 -618.301 933.6 -588.701 906.3 -565.001C891.5 -552.201 877.5 -538.101 872.7 -520.101C872.4 -518.901 872.1 -517.701 871.9 -516.501C868.5 -497.101 879.4 -476.201 896.7 -464.201C914.5 -451.801 936.7 -446.901 958.9 -445.101C978.5 -443.501 998.8 -444.201 1018.7 -447.001C1039.5 -449.901 1060.1 -454.701 1080.1 -461.201C1113.3 -472.001 1144.7 -487.701 1177.2 -497.101M1031.9 -704.801C1025.1 -692.701 1013.3 -682.401 1003.7 -671.201C997.5 -664.001 992.2 -656.301 986.9 -648.601C968.3 -621.501 947.9 -594.101 923.1 -571.801C909 -559.001 896 -545.001 891.7 -527.501C891.4 -526.301 891.2 -525.101 891 -524.001C888 -505.101 898.7 -484.901 915.8 -473.601C933 -462.201 954.2 -458.201 975.3 -457.001C993.6 -456.001 1012.5 -456.901 1031 -459.801C1050.4 -462.801 1069.5 -467.501 1088.1 -473.701C1118.9 -484.101 1148.2 -499.001 1178.2 -508.401M1041.2 -700.601C1034.5 -689.701 1023.6 -680.301 1014.6 -670.001C1008.8 -663.401 1003.7 -656.401 998.7 -649.401C981.1 -624.601 962 -599.601 939.7 -578.501C926.4 -565.901 914.4 -551.901 910.7 -534.901C910.4 -533.801 910.2 -532.601 910.1 -531.501C907.6 -513.201 918 -493.701 934.9 -483.101C951.5 -472.701 971.7 -469.601 991.7 -469.001C1008.7 -468.501 1026.2 -469.601 1043.4 -472.601C1061.4 -475.701 1079.1 -480.201 1096.2 -486.301C1124.7 -496.301 1151.7 -510.301 1179.2 -519.801M1050.4 -696.401C1043.9 -686.701 1033.8 -678.101 1025.4 -668.801C1020 -662.801 1015.2 -656.501 1010.5 -650.101C993.9 -627.701 976.3 -604.901 956.4 -585.101C943.9 -572.701 932.9 -558.601 929.7 -542.201C929.5 -541.101 929.3 -540.001 929.2 -538.901C927.1 -521.101 937.3 -502.301 953.9 -492.401C969.8 -482.901 989.1 -480.801 1008 -480.701C1023.7 -480.701 1039.8 -482.101 1055.6 -485.101C1072.1 -488.201 1088.4 -492.701 1104.1 -498.501C1130.3 -508.101 1155.1 -521.201 1180.1 -530.801M1059.6 -692.201C1053.2 -683.601 1044 -676.001 1036.2 -667.601C1031.2 -662.301 1026.7 -656.601 1022.3 -650.901C1006.7 -630.801 990.5 -610.201 973 -591.901C961.3 -579.601 951.3 -565.601 948.6 -549.601C948.4 -548.501 948.3 -547.401 948.2 -546.401C946.6 -529.201 956.5 -511.001 972.9 -501.901C988.2 -493.401 1006.5 -492.101 1024.3 -492.701C1038.7 -493.201 1053.4 -494.801 1067.8 -497.901C1082.9 -501.101 1097.7 -505.501 1112.1 -511.001C1136 -520.101 1158.5 -532.401 1181 -542.001M1068.9 -688.001C1062.6 -680.601 1054.3 -673.801 1047.1 -666.401C1042.5 -661.701 1038.3 -656.701 1034.1 -651.701C1019.6 -634.001 1004.8 -615.601 989.7 -598.601C978.8 -586.301 969.7 -572.501 967.6 -556.901C967.5 -555.901 967.3 -554.801 967.3 -553.801C966.1 -537.101 975.8 -519.601 992 -511.201C1006.6 -503.601 1024 -503.201 1040.6 -504.501C1053.7 -505.501 1067.1 -507.401 1080.1 -510.501C1093.7 -513.801 1107.1 -518.001 1120.1 -523.301C1141.6 -532.001 1162 -543.401 1182 -553.101M1078.1 -683.801C1072 -677.601 1064.6 -671.601 1058 -665.301C1053.8 -661.201 1049.8 -656.901 1046 -652.501C1032.5 -637.101 1019.2 -620.901 1006.4 -605.301C996.4 -593.101 988.2 -579.301 986.6 -564.301C986.5 -563.301 986.4 -562.301 986.4 -561.301C985.7 -545.101 995.1 -528.201 1011 -520.601C1025 -514.001 1041.4 -514.401 1056.9 -516.301C1068.7 -517.701 1080.7 -519.901 1092.3 -523.101C1104.5 -526.401 1116.4 -530.601 1128 -535.601C1147.2 -543.901 1165.3 -554.401 1182.8 -564.201M1087.4 -679.601C1081.4 -674.501 1074.9 -669.501 1068.9 -664.101C1065 -660.601 1061.4 -657.001 1057.9 -653.301C1045.4 -640.301 1033.8 -626.201 1023.2 -612.101C1014.1 -599.901 1006.8 -586.301 1005.6 -571.701C1005.5 -570.701 1005.5 -569.701 1005.5 -568.801C1005.2 -553.201 1014.3 -536.901 1030.1 -530.101C1043.4 -524.401 1058.9 -525.701 1073.3 -528.301C1083.9 -530.201 1094.4 -532.701 1104.7 -535.901C1115.5 -539.301 1126 -543.401 1136.1 -548.101C1153 -556.001 1168.9 -565.601 1183.9 -575.501M1096.6 -675.401C1073.7 -660.101 1054.2 -640.801 1039.8 -618.801C1031.2 -605.801 1024.3 -591.301 1024.5 -576.201C1024.7 -561.101 1033.5 -545.401 1049.1 -539.401C1061.8 -534.601 1076.3 -536.801 1089.6 -540.101C1124.8 -548.901 1157.6 -564.901 1184.8 -586.701M765.2 -644.901C746.4 -606.701 724.7 -569.701 700.2 -534.101C692.3 -522.601 684 -511.201 673.9 -501.201C644.6 -471.901 602.2 -455.901 568.3 -430.801C546.9 -415.001 524.7 -394.001 497 -396.801C489.8 -397.501 481.2 -402.801 483.9 -408.801C484.9 -411.001 487.2 -412.501 489.4 -413.801C526.8 -436.101 573.4 -449.501 598.3 -482.801C613.1 -502.701 618 -527.301 616.9 -551.201C615.8 -575.001 609.2 -598.301 602.6 -621.401C599.6 -631.901 596.4 -642.901 588.4 -651.101M624.3 -625.401C630.1 -593.101 632.3 -560.401 631 -527.701C630.6 -518.701 630 -509.501 632.4 -500.701C632.9 -498.801 633.6 -496.801 635.1 -495.401C640.2 -490.501 649.4 -494.401 655.1 -498.701C700.7 -533.301 727.1 -587.001 724.6 -640.301M-40.7 37.9993C12 -10.5007 97.7 -43.9008 165.7 -73.7008C237.9 -105.401 319.9 -127.401 371.7 -182.301C406 -218.601 423.2 -265.801 456.7 -302.701C473.3 -321.001 494.9 -339.601 493.4 -363.001C493.1 -368.301 491.3 -373.801 487.1 -377.701C481 -383.401 470.8 -384.301 462.4 -381.801C454 -379.301 447.2 -373.901 441.1 -368.101C407 -335.801 392 -291.601 375 -249.901C358 -208.201 335.7 -164.901 293.4 -141.401C258.8 -122.201 215.9 -119.101 179.2 -103.401C154.2 -92.8008 132.8 -76.7007 109.4 -63.5007C62.3 -36.7007 6.60001 -21.5008 -49.6 -20.2008M940.5 149.299C870.2 156.499 802.1 180.199 744.9 217.199C722.6 231.599 701.7 248.199 677.5 259.999C654.4 271.299 628.9 277.999 604.7 287.299C574.9 298.899 547.2 314.399 520.3 330.799C488 350.399 456.6 371.199 426.2 393.099C403.3 409.599 380.9 426.799 362.8 447.499C343.3 469.799 329.3 495.599 317.1 521.699C290.2 579.299 271.6 646.699 303.1 702.499M936.7 135.499C891.4 144.699 846.4 155.199 801.8 167.099C756.7 179.199 711.6 192.799 671.5 214.799C644.3 229.699 619.9 248.299 594.7 265.799C540.6 303.299 482.6 336.199 428.6 373.799C374.6 411.399 324.1 454.699 290.4 507.799C256.7 560.899 241.1 625.199 259.1 684.099M946.4 126.099C890 134.799 833.5 143.599 776.3 145.499C748.6 146.399 720.6 145.699 693.5 140.499C658.5 133.699 625.9 119.499 594.7 103.699C540.4 76.2992 489.4 43.8992 442.5 7.29919C397.3 -28.1008 352.2 -69.2008 293 -78.7008C244 -86.5008 194.3 -70.9008 148.4 -53.7008C78.2 -27.4008 10.7 16.2992 -55 50.7992M796.6 -209.101C701.4 -213.201 613.4 -253.401 520.9 -273.601C502.3 -277.701 482 -280.801 464.5 -273.901C453.6 -269.601 444.9 -261.801 437 -253.801C407.5 -224.101 383.6 -187.201 384.2 -147.501C384.7 -111.301 405.5 -77.8008 429.5 -48.7008C486.9 20.7992 567.1 75.3992 658.1 105.199C749.1 134.999 850.4 139.599 943.9 116.999C1047.5 91.8992 1140.7 32.8992 1199.2 -47.3008C1222.7 -79.6008 1240.9 -116.001 1243.4 -154.401C1245.8 -192.801 1230.6 -233.301 1197 -257.501C1144.5 -295.201 1080.5 -267.101 1025.5 -250.101C951.9 -227.401 875.4 -205.701 796.6 -209.101ZM945.1 110.799C1002 97.1992 1055.9 73.0992 1102 40.4992C1136.3 16.1992 1166.5 -12.7008 1190.7 -45.4008C1213.4 -76.2008 1231.2 -111.001 1233.8 -147.701C1236.5 -184.401 1222.3 -223.401 1190.2 -246.701C1140.5 -282.901 1079.5 -256.201 1026.9 -240.201C956.9 -218.701 883.9 -198.101 808.8 -201.201C718.1 -204.901 634.2 -242.801 546.1 -261.801C528.3 -265.601 509 -268.601 492.3 -262.001C481.9 -257.901 473.6 -250.501 466 -242.901C437.6 -214.701 414.6 -179.501 414.8 -141.801C415 -107.301 434.2 -75.3008 457 -47.4008C511 18.8992 587.3 70.7992 673.7 99.1992C760.1 127.699 856.3 131.999 945.1 110.799ZM946.4 104.699C1000.9 91.8992 1052.6 69.2992 1096.9 38.2992C1129.7 15.2992 1158.8 -12.2008 1182.3 -43.4008C1204.3 -72.7008 1221.5 -105.901 1224.3 -140.901C1227.2 -176.001 1214 -213.301 1183.5 -235.701C1136.5 -270.301 1078.5 -245.201 1028.5 -230.101C962 -209.801 892.6 -190.301 821.1 -193.101C734.8 -196.501 655 -232.101 571.4 -249.901C554.5 -253.501 536.2 -256.201 520.3 -250.001C510.4 -246.101 502.5 -239.101 495.3 -231.901C468.2 -205.001 445.9 -171.801 445.6 -135.901C445.4 -103.201 463.2 -72.6008 484.6 -45.9008C535.3 17.0992 607.5 66.3992 689.3 93.4992C771.1 120.499 862.1 124.399 946.4 104.699ZM947.6 98.5992C999.6 86.6992 1049.3 65.4992 1091.8 36.0992C1123.2 14.3992 1151.2 -11.8008 1173.9 -41.4008C1195.1 -69.2008 1211.8 -100.801 1214.8 -134.101C1217.9 -167.601 1205.8 -203.201 1176.9 -224.801C1132.7 -257.801 1077.7 -234.301 1030.2 -220.101C967.1 -201.101 901.3 -182.601 833.5 -185.101C751.7 -188.101 675.9 -221.401 596.7 -238.001C580.7 -241.301 563.3 -243.901 548.3 -238.001C538.9 -234.301 531.4 -227.701 524.6 -220.901C498.5 -195.401 477 -164.001 476.4 -130.001C475.8 -99.0008 492.1 -69.8008 512.2 -44.4008C559.5 15.3992 627.8 61.8992 705 87.6992C782.1 113.299 868 116.799 947.6 98.5992ZM948.8 92.3992C998.4 81.2992 1045.9 61.5992 1086.6 33.7992C1116.5 13.3992 1143.5 -11.4007 1165.4 -39.5007C1185.8 -65.9007 1202 -95.8008 1205.2 -127.401C1208.5 -159.201 1197.5 -193.201 1170.1 -214.001C1128.6 -245.401 1076.6 -223.401 1031.6 -210.201C972 -192.401 909.8 -175.001 845.7 -177.201C768.3 -179.901 696.7 -211.001 621.9 -226.301C606.8 -229.401 590.3 -231.701 576.1 -226.101C567.2 -222.601 560.1 -216.301 553.6 -210.001C528.8 -186.001 508.1 -156.401 507.1 -124.301C506.1 -95.0008 520.9 -67.3007 539.8 -43.1007C583.8 13.3993 648.1 57.2992 720.7 81.6992C793.1 106.099 873.8 109.299 948.8 92.3992ZM950 86.2992C997.2 75.9992 1042.5 57.6992 1081.4 31.5992C1109.8 12.4992 1135.8 -10.9008 1156.9 -37.4008C1176.6 -62.3008 1192.2 -90.6008 1195.7 -120.501C1199.2 -150.701 1189.3 -183.001 1163.4 -202.901C1124.7 -232.801 1075.6 -212.401 1033.2 -200.001C977.1 -183.601 918.4 -167.101 858 -169.001C785.1 -171.301 717.5 -200.201 647.2 -214.201C632.9 -217.001 617.4 -219.101 604.1 -213.901C595.7 -210.601 589 -204.701 582.9 -198.801C559.3 -176.201 539.3 -148.501 537.9 -118.301C536.5 -90.7008 549.9 -64.5008 567.4 -41.5008C608 11.7992 668.3 52.9992 736.4 76.0992C804.1 98.7992 879.7 101.699 950 86.2992ZM951.3 80.1992C996 70.6992 1039.3 53.8993 1076.3 29.3993C1103.3 11.5993 1128.1 -10.4008 1148.5 -35.4008C1167.5 -58.8008 1182.5 -85.5008 1186.2 -113.701C1189.9 -142.201 1181.1 -172.901 1156.8 -192.001C1120.8 -220.301 1074.7 -201.501 1034.8 -190.001C982.2 -174.801 927.1 -159.401 870.3 -161.001C801.8 -163.001 738.3 -189.601 672.5 -202.301C659.1 -204.901 644.6 -206.801 632 -201.901C624.1 -198.801 617.8 -193.301 612.1 -187.801C589.7 -166.601 570.5 -140.701 568.7 -112.401C566.9 -86.5008 578.8 -61.8007 595 -40.1007C632.3 9.89929 688.6 48.4992 752.1 70.1992C815.1 91.5992 885.5 94.1992 951.3 80.1992ZM952.5 74.0992C994.8 65.3992 1035.9 49.9992 1071.1 27.1992C1096.6 10.6992 1120.4 -9.90082 1140 -33.4008C1158.2 -55.3008 1172.7 -80.3008 1176.6 -106.901C1180.5 -133.801 1172.7 -162.801 1150 -181.001C1116.7 -207.701 1073.7 -190.501 1036.3 -179.901C987.1 -166.001 935.6 -151.601 882.5 -153.001C818.5 -154.601 759.1 -179.001 697.6 -190.501C685.1 -192.901 671.5 -194.501 659.8 -190.001C652.4 -187.101 646.6 -182.001 641.1 -176.901C619.9 -157.101 601.5 -133.101 599.2 -106.701C597.1 -82.5008 607.5 -59.2008 622.3 -38.8008C656.3 7.89922 708.5 43.9992 767.4 64.2992C826 84.4992 891.4 86.6992 952.5 74.0992ZM953.7 67.9993C993.6 60.0993 1032.5 46.1993 1065.9 24.9993C1090 9.69927 1112.7 -9.40076 1131.5 -31.4008C1149 -51.8008 1162.9 -75.2007 1167 -100.101C1171.2 -125.301 1164.4 -152.701 1143.2 -170.101C1112.6 -195.201 1072.6 -179.501 1037.8 -169.901C992.1 -157.201 944.2 -143.901 894.8 -145.001C835.2 -146.301 779.9 -168.301 722.9 -178.601C711.2 -180.701 698.6 -182.201 687.8 -178.001C680.9 -175.301 675.5 -170.601 670.4 -165.901C650.3 -147.501 632.8 -125.301 630.1 -100.801C627.6 -78.3008 636.5 -56.5008 650.1 -37.3008C680.7 6.09922 728.9 39.5993 783.3 58.4993C837 77.2993 897.3 79.1993 953.7 67.9993ZM954.9 61.8992C992.3 54.7992 1029.1 42.3992 1060.7 22.7992C1083.3 8.79919 1104.9 -8.90082 1123 -29.4008C1139.7 -48.3008 1153.1 -70.1008 1157.4 -93.3008C1161.8 -116.901 1156.1 -142.601 1136.5 -159.201C1108.7 -182.701 1071.6 -168.601 1039.3 -159.901C997.1 -148.501 952.7 -136.201 907 -137.001C851.9 -137.901 800.6 -157.701 748.1 -166.801C737.3 -168.701 725.7 -169.901 715.6 -166.001C709.2 -163.501 704.2 -159.201 699.4 -154.901C680.5 -137.901 663.7 -117.601 660.6 -95.0008C657.8 -74.2008 665.1 -53.9008 677.4 -35.9008C704.7 4.19918 748.9 35.0992 798.7 52.6992C848 70.1992 903.2 71.6992 954.9 61.8992ZM956.2 55.7992C991.2 49.4992 1025.9 38.4992 1055.7 20.5992C1076.8 7.89918 1097.4 -8.40078 1114.7 -27.3008C1130.6 -44.8008 1143.6 -64.9008 1148.1 -86.4008C1152.7 -108.401 1148.1 -132.401 1130 -148.101C1104.9 -169.901 1070.9 -157.501 1041.1 -149.701C1002.4 -139.501 961.6 -128.301 919.5 -128.801C868.9 -129.401 821.7 -146.901 773.6 -154.701C763.6 -156.301 753 -157.401 743.8 -153.801C737.9 -151.501 733.3 -147.601 728.9 -143.701C711 -128.301 695 -109.801 691.5 -89.0008C688.3 -69.9008 694.2 -51.1008 705.1 -34.3008C729.1 2.49922 769.2 30.7992 814.5 46.9992C859 62.9992 909.1 64.1992 956.2 55.7992ZM957.4 49.6992C990 44.2992 1022.5 34.6993 1050.5 18.3993C1070.2 6.99929 1089.7 -7.90078 1106.2 -25.3008C1121.4 -41.3008 1133.8 -59.8007 1138.5 -79.6007C1143.3 -99.9007 1139.8 -122.301 1123.2 -137.201C1100.8 -157.401 1069.8 -146.601 1042.5 -139.701C1007.3 -130.801 970 -120.701 931.6 -120.801C885.4 -121.101 842.3 -136.301 798.6 -142.801C789.5 -144.201 779.8 -145.001 771.4 -141.801C766 -139.701 761.8 -136.101 757.8 -132.701C741.2 -118.601 726.1 -101.901 722.1 -83.0007C718.5 -65.7007 722.9 -48.3008 732.5 -32.7008C753.2 0.799194 789.3 26.4993 830 41.3993C870 55.7993 915 56.6992 957.4 49.6992ZM958.6 43.4992C988.8 38.8992 1019.1 30.6992 1045.3 16.0992C1063.5 5.99918 1081.9 -7.50082 1097.7 -23.4008C1112.1 -37.9008 1124 -54.8008 1128.9 -72.9008C1133.9 -91.6008 1131.4 -112.301 1116.5 -126.301C1096.8 -144.901 1068.8 -135.701 1044.1 -129.701C1012.4 -122.001 978.7 -113.001 943.9 -112.801C902.2 -112.701 863.1 -125.601 823.9 -131.001C815.7 -132.101 806.9 -132.801 799.4 -129.901C794.5 -128.001 790.7 -124.801 787 -121.801C771.6 -109.101 757.2 -94.3008 752.9 -77.3008C748.9 -61.7008 751.8 -45.8008 760.2 -31.4008C777.6 -1.30082 809.6 21.8992 845.7 35.3992C881 48.5992 920.9 49.2992 958.6 43.4992ZM959.8 37.3992C987.6 33.5992 1015.7 26.8992 1040.1 13.8992C1056.8 4.99923 1074.2 -7.10082 1089.2 -21.4008C1102.8 -34.4008 1114.2 -49.7008 1119.3 -66.1008C1124.6 -83.1008 1123.1 -102.101 1109.7 -115.401C1092.7 -132.301 1067.8 -124.701 1045.5 -119.701C1017.3 -113.301 987.1 -105.301 956.1 -104.901C918.8 -104.501 883.8 -115.101 849.1 -119.201C841.7 -120.101 834 -120.501 827.3 -118.001C822.9 -116.301 819.5 -113.501 816.2 -110.901C802 -99.6008 788.4 -86.6008 783.7 -71.5008C779.3 -57.6008 780.8 -43.3008 787.8 -30.1008C802 -3.40077 829.9 17.2992 861.4 29.4992C892 41.3992 926.8 41.8992 959.8 37.3992ZM961 31.2992C986.5 28.3992 1012.3 22.9992 1034.9 11.6992C1050.1 4.09922 1066.4 -6.60082 1080.7 -19.4008C1093.6 -31.0008 1104.5 -44.6008 1109.7 -59.3008C1115.2 -74.7008 1114.8 -92.0008 1102.9 -104.501C1088.5 -119.701 1066.7 -113.801 1047 -109.701C1022.3 -104.501 995.7 -97.6008 968.3 -96.9008C935.5 -96.1008 904.5 -104.501 874.3 -107.301C867.8 -107.901 861 -108.201 855.1 -105.901C851.2 -104.401 848.2 -102.001 845.2 -99.8008C832.1 -89.9008 819.3 -78.8008 814.2 -65.6008C809.5 -53.4008 809.4 -40.6008 815.1 -28.6008C826.1 -5.30077 849.8 12.8992 876.8 23.6992C903 34.1992 932.8 34.5992 961 31.2992ZM962.3 25.1992C985.4 23.1992 1009 19.1993 1029.8 9.49927C1043.5 3.09927 1058.8 -6.10076 1072.3 -17.4008C1084.4 -27.5008 1094.8 -39.5007 1100.3 -52.5007C1106 -66.2007 1106.6 -81.8008 1096.4 -93.5008C1084.7 -107.001 1066 -102.801 1048.8 -99.6008C1027.6 -95.7008 1004.5 -89.8008 980.8 -88.8008C952.4 -87.7008 925.5 -93.7008 899.8 -95.4008C894.2 -95.8008 888.3 -95.8008 883.3 -93.9008C879.9 -92.6008 877.2 -90.6008 874.7 -88.8008C862.7 -80.4008 850.8 -71.0008 845.3 -59.7008C840.2 -49.2008 838.7 -38.0007 843.1 -27.1007C851 -7.40071 870.5 8.49929 892.9 17.8993C914 26.8993 938.8 27.2992 962.3 25.1992ZM963.5 19.0992C984.3 17.9992 1005.6 15.2992 1024.6 7.29919C1036.8 2.19919 1051 -5.60078 1063.8 -15.3008C1075.1 -23.9008 1085.1 -34.3008 1090.7 -45.6008C1096.7 -57.7008 1098.2 -71.5008 1089.6 -82.5008C1080.5 -94.2008 1064.9 -91.7008 1050.2 -89.5008C1032.5 -86.8008 1012.9 -82.0008 992.9 -80.7008C969 -79.2008 946.1 -82.9008 924.8 -83.4008C920 -83.5008 915.2 -83.4008 910.9 -81.8008C908 -80.7008 905.7 -79.1008 903.6 -77.7008C892.7 -70.7008 881.6 -63.2008 875.7 -53.8008C870.2 -45.0008 867.3 -35.5008 870.3 -25.6008C875.2 -9.50077 890.3 3.99922 908.2 12.1992C925 19.6992 944.8 20.0992 963.5 19.0992ZM964.7 12.9992C983.2 12.8992 1002.2 11.3992 1019.5 5.09918C1030.2 1.19918 1043.4 -5.10078 1055.4 -13.3008C1065.9 -20.4008 1075.4 -29.2008 1081.2 -38.8008C1087.5 -49.2008 1089.9 -61.2008 1082.9 -71.6008C1076.3 -81.5008 1064 -80.8008 1051.8 -79.5008C1037.6 -78.0008 1021.6 -74.3008 1005.3 -72.7008C985.8 -70.9008 967 -72.2008 950.2 -71.6008C946.3 -71.5008 942.4 -71.1008 939 -69.9008C936.6 -69.0008 934.7 -67.8008 932.9 -66.8008C923.1 -61.3008 912.9 -55.5008 906.6 -48.0008C900.7 -40.9008 896.5 -33.1008 898 -24.2008C900.2 -11.8008 910.7 -0.500806 924 6.29919C936 12.4992 950.8 13.0992 964.7 12.9992ZM965.9 6.89923C982.1 8.09923 998.7 7.39923 1014.3 2.89923C1023.5 0.199231 1035.6 -4.70078 1046.9 -11.3008C1056.6 -17.0008 1065.7 -24.1008 1071.6 -32.1008C1078.1 -40.9008 1081.3 -51.0008 1076.2 -60.7008C1072 -68.7008 1063 -69.8008 1053.3 -69.5008C1042.6 -69.1008 1030.1 -66.6008 1017.5 -64.7008C1002.5 -62.5008 987.7 -61.4008 975.4 -59.7008C972.3 -59.3008 969.4 -58.7008 966.9 -57.9008C965 -57.3008 963.5 -56.4008 962.1 -55.8008C953.3 -51.9008 944 -47.8008 937.3 -42.2008C931 -36.8008 923.6 -30.5008 925.5 -22.8008C927.7 -14.3008 930.8 -5.10079 939.5 0.499207C947 5.19921 956.8 6.19923 965.9 6.89923ZM991.2 -44.8008C975.9 -40.6008 958.5 -34.8008 953.1 -21.3008C950.9 -16.0008 951.2 -9.60078 955.2 -5.30078C958.1 -2.10078 962.7 -0.400806 967.1 0.799194C980.7 4.29919 995.3 3.39922 1009.1 0.699219C1030.7 -3.50078 1078.2 -23.0008 1069.5 -49.7008C1062 -72.9008 1005.9 -48.8008 991.2 -44.8008ZM748.8 751.399C774 743.899 798.3 733.899 821.5 722.199C908 678.699 979.1 611.299 1022.5 531.799C1065.9 452.299 1081.4 360.899 1066.4 273.499C1060.4 238.399 1046.7 200.499 1012.3 182.599C993.1 172.599 970 170.299 947.8 171.099C920.6 172.099 893.6 177.399 868.5 186.599C804.7 210.099 755.9 257.499 695.5 287.199C664.1 302.699 629.9 313.199 597.3 326.599C475.7 376.599 376.7 468.699 326.2 579.099C319.9 592.799 314.3 607.199 315.6 621.899C316.9 636.699 325.2 650.199 334.5 662.599C401.3 751.099 520.4 785.999 635 769.599C673.5 764.199 711.1 762.699 748.8 751.399ZM611.1 338.499C495.6 386.999 401.8 474.399 354.2 579.399C348.3 592.399 343 606.099 344.3 620.099C345.6 634.199 353.6 647.099 362.5 658.799C426.5 742.999 540.3 775.999 649.9 760.199C686.8 754.899 722.7 753.399 758.7 742.599C782.8 735.399 806 725.799 828.2 714.599C910.8 672.899 978.8 608.499 1020.3 532.499C1061.9 456.399 1077 368.399 1062.5 284.799C1056.6 251.199 1043.4 215.099 1010.3 198.099C991.8 188.699 969.6 186.599 948.2 187.499C922 188.599 896 193.699 871.8 202.699C810.4 225.499 763.3 271.099 705.2 299.999C692.2 306.499 678.7 312.099 665.1 317.399C646.9 324.499 628.7 331.099 611.1 338.499ZM624.9 350.399C515.5 397.499 426.9 480.199 382.2 579.799C376.7 592.099 371.7 605.199 373 618.399C374.3 631.699 381.9 643.999 390.5 655.099C451.8 734.999 560.3 766.199 664.7 750.899C699.9 745.799 734.1 744.299 768.4 733.899C791.4 726.999 813.5 717.799 834.6 707.099C913.4 667.299 978.2 605.799 1017.9 533.299C1057.7 460.599 1072.5 375.999 1058.3 296.199C1052.6 264.099 1039.8 229.699 1007.9 213.699C990.1 204.799 968.7 202.899 948.1 203.899C922.9 204.999 897.9 210.099 874.7 218.799C815.6 240.799 770.2 284.699 714.6 312.699C702.1 318.999 689.2 324.399 676.1 329.599C659 336.599 641.7 343.199 624.9 350.399ZM638.8 362.199C535.6 407.799 452.1 485.799 410.3 580.099C405.1 591.799 400.5 604.099 401.8 616.699C403.1 629.299 410.4 640.899 418.5 651.399C477 726.899 580.3 756.299 679.6 741.599C713.1 736.599 745.7 735.099 778.3 725.299C800.2 718.699 821.2 709.899 841.3 699.699C916.3 661.699 978 603.199 1015.8 534.199C1053.8 464.899 1068.2 383.799 1054.5 307.699C1049 277.099 1036.6 244.499 1005.9 229.399C988.7 221.099 968.2 219.399 948.5 220.399C924.3 221.599 900.4 226.599 878 234.999C821.3 256.299 777.6 298.399 724.3 325.599C712.3 331.699 700 336.999 687.5 342.099C671.1 348.599 654.6 355.199 638.8 362.199ZM652.6 373.999C555.5 418.099 477.2 491.399 438.3 580.299C433.5 591.299 429.2 602.899 430.5 614.799C431.8 626.699 438.8 637.599 446.5 647.499C502.2 718.699 600.2 746.299 694.5 732.199C726.3 727.399 757.2 725.899 788.1 716.499C808.9 710.199 828.8 701.799 847.9 692.199C919.1 656.099 977.6 600.499 1013.6 534.999C1049.8 469.099 1063.8 391.399 1050.6 318.999C1045.3 289.899 1033.3 258.899 1003.9 244.899C987.4 237.099 967.7 235.599 948.8 236.699C925.6 237.999 902.7 242.799 881.2 250.899C826.8 271.499 784.9 311.799 734 338.099C722.6 343.999 710.8 349.199 698.9 354.099C683.1 360.699 667.6 367.199 652.6 373.999ZM666.5 385.799C575.5 428.399 502.4 496.999 466.5 580.599C462 590.899 458 601.899 459.4 612.999C460.7 624.199 467.3 634.399 474.7 643.699C527.7 710.599 620.4 736.299 709.6 722.799C739.7 718.199 768.9 716.699 798.2 707.699C817.8 701.699 836.7 693.799 854.8 684.599C922.1 650.299 977.5 597.699 1011.6 535.699C1046 473.199 1059.6 398.899 1046.8 330.299C1041.6 302.699 1030.1 273.499 1001.9 260.499C986.1 253.199 967.3 251.999 949.2 253.099C927 254.499 905.1 259.199 884.6 266.999C832.6 286.899 792.4 325.399 743.8 350.899C732.9 356.599 721.7 361.599 710.3 366.499C695.2 372.799 680.5 379.199 666.5 385.799ZM680.3 397.699C595.5 438.799 527.5 502.699 494.5 580.899C490.4 590.599 486.7 600.799 488 611.199C489.3 621.699 495.6 631.299 502.6 639.999C552.8 702.499 640.3 726.399 724.4 713.499C752.8 709.099 780.3 707.599 807.9 699.099C826.4 693.399 844.2 685.899 861.2 677.199C924.7 644.799 977 595.099 1009.2 536.599C1041.8 477.599 1055 406.599 1042.7 341.799C1037.7 315.699 1026.6 288.199 999.7 276.199C984.6 269.499 966.6 268.399 949.3 269.599C928.1 270.999 907.2 275.599 887.6 283.199C837.9 302.299 799.4 339.099 753.2 363.699C742.8 369.199 732.2 374.099 721.4 378.799C707.3 384.799 693.5 391.299 680.3 397.699ZM694.1 409.499C615.4 449.099 552.6 508.299 522.5 581.199C518.8 590.199 515.4 599.799 516.7 609.499C518 619.299 524 628.199 530.6 636.299C578 694.499 660.2 716.599 739.2 704.199C765.8 699.999 791.7 698.499 817.7 690.399C835.1 684.999 851.8 677.899 867.8 669.699C927.5 639.099 976.6 592.399 1007 537.399C1037.8 481.799 1050.6 414.199 1038.7 353.199C1033.9 328.599 1023.2 302.799 997.5 291.799C983 285.599 965.9 284.799 949.5 285.999C929.4 287.499 909.4 291.999 890.8 299.199C843.5 317.599 806.7 352.599 762.9 376.299C753.1 381.599 743 386.399 732.8 390.899C719.3 396.899 706.4 403.299 694.1 409.499ZM708 421.299C635.5 459.399 577.8 513.899 550.6 581.399C547.2 589.799 544.2 598.599 545.5 607.599C546.8 616.599 552.4 624.899 558.7 632.399C603.3 686.299 680.3 706.499 754.2 694.699C779.1 690.699 803.4 689.199 827.6 681.499C843.9 676.399 859.5 669.699 874.5 661.999C930.3 633.199 976.4 589.499 1004.9 537.999C1033.9 485.799 1046.3 421.599 1034.9 364.399C1030.3 341.299 1020.1 317.199 995.6 307.199C981.8 301.599 965.5 300.899 949.9 302.199C930.8 303.799 911.8 308.199 894.1 315.099C849.2 332.799 814.1 365.999 772.6 388.899C763.3 393.999 753.7 398.599 744.1 403.099C731.4 408.999 719.4 415.299 708 421.299ZM721.8 433.099C655.4 469.699 602.9 519.499 578.7 581.699C575.7 589.399 573 597.499 574.3 605.799C575.6 614.099 580.9 621.699 586.7 628.599C628.6 678.099 700.3 696.599 769.1 685.299C792.3 681.499 814.9 679.899 837.5 672.799C852.7 667.999 867.2 661.699 881.2 654.499C933.2 627.599 976.1 586.799 1002.7 538.799C1029.9 489.999 1042 429.199 1031 375.699C1026.5 354.099 1016.8 331.699 993.5 322.699C980.4 317.599 965 317.199 950.2 318.499C932.1 320.199 914.1 324.399 897.3 331.099C854.7 347.999 821.3 379.499 782.3 401.499C773.5 406.399 764.5 410.899 755.5 415.199C743.5 421.099 732.4 427.299 721.8 433.099ZM735.7 444.899C675.5 479.899 628.1 525.199 606.8 581.899C604.1 588.899 601.8 596.399 603.1 603.899C604.4 611.499 609.3 618.399 614.8 624.699C653.9 669.899 720.3 686.499 784.1 675.799C805.6 672.199 826.5 670.599 847.4 663.899C861.4 659.399 874.9 653.599 887.8 646.799C936 621.699 975.7 583.899 1000.5 539.399C1026 493.999 1037.6 436.699 1027 386.899C1022.7 366.799 1013.4 346.199 991.3 338.099C978.8 333.499 964.3 333.299 950.3 334.699C933.2 336.399 916.2 340.599 900.4 346.999C860.2 363.199 828.5 392.899 791.8 414.099C783.6 418.899 775.1 423.199 766.7 427.299C755.5 433.099 745.3 439.299 735.7 444.899ZM749.5 456.799C695.5 490.199 653.4 530.899 634.8 582.299C632.5 588.699 630.5 595.399 631.8 602.199C633.1 609.099 637.7 615.399 642.8 620.999C679.1 661.899 740.3 676.699 798.9 666.499C818.7 663.099 837.9 661.499 857.1 655.299C870 651.099 882.4 645.699 894.3 639.499C938.6 616.299 975.3 581.399 998.2 540.399C1021.9 498.399 1033.1 444.499 1023 398.499C1018.9 379.899 1010 360.999 989.2 353.899C977.4 349.899 963.7 349.899 950.6 351.299C934.5 353.099 918.6 357.099 903.6 363.199C865.7 378.699 835.8 406.599 801.4 426.899C793.7 431.499 785.8 435.599 777.9 439.699C767.6 445.199 758.3 451.299 749.5 456.799ZM763.4 468.599C715.6 500.299 678.6 536.499 662.9 582.599C661 588.299 659.3 594.299 660.5 600.499C661.8 606.699 666.1 612.299 670.8 617.399C704.5 653.899 760.3 666.899 813.8 657.299C831.9 654.099 849.4 652.499 867 646.699C878.8 642.799 890.1 637.799 901 632.099C941.5 610.699 975 578.799 996 541.299C1017.9 502.699 1028.7 452.199 1019.1 409.999C1015.2 392.899 1006.6 375.699 987.1 369.599C976 366.099 963.1 366.299 950.8 367.799C935.7 369.699 920.8 373.599 906.8 379.399C871.3 394.099 843 420.299 811.1 439.799C803.9 444.199 796.6 448.199 789.3 452.099C779.7 457.299 771.3 463.299 763.4 468.599ZM777.2 480.399C735.6 510.399 703.7 542.099 690.9 582.799C689.3 587.799 687.9 593.199 689.2 598.599C690.5 603.999 694.4 608.999 698.8 613.499C729.7 645.699 780.2 656.799 828.7 647.799C845.1 644.799 861 643.199 876.8 637.799C887.5 634.199 897.7 629.599 907.6 624.399C944.3 604.899 974.6 575.899 993.8 541.999C1013.9 506.899 1024.3 459.699 1015.1 421.299C1011.3 405.699 1003.2 390.199 985 385.199C974.5 382.299 962.6 382.699 951.1 384.199C937 386.199 923.1 389.999 910 395.499C876.8 409.499 850.3 433.899 820.7 452.499C814.1 456.699 807.3 460.599 800.6 464.399C791.7 469.399 784.3 475.299 777.2 480.399ZM791.1 492.199C755.7 520.299 728.9 547.699 719.1 583.099C717.9 587.499 716.8 592.099 718.1 596.799C719.4 601.499 723 605.799 726.9 609.699C755 637.499 800.3 646.899 843.7 638.399C858.3 635.599 872.6 633.999 886.8 629.099C896.3 625.799 905.5 621.599 914.3 616.899C947.1 599.199 974.3 573.099 991.7 542.799C1009.9 510.999 1020 467.299 1011.3 432.599C1007.7 418.499 1000 404.799 983 400.699C973.2 398.299 962.1 398.899 951.4 400.599C938.3 402.599 925.4 406.299 913.3 411.499C882.5 424.799 857.7 447.399 830.5 465.199C824.4 469.199 818.2 472.899 812 476.599C803.8 481.399 797.2 487.299 791.1 492.199ZM804.9 503.999C775.6 530.199 754 553.399 747.1 583.299C746.2 586.999 745.5 590.899 746.8 594.899C748.1 598.899 751.4 602.499 754.9 605.799C780.3 629.299 820.2 636.799 858.6 628.999C871.5 626.299 884.1 624.799 896.6 620.299C905 617.299 913.1 613.599 920.9 609.299C949.9 593.499 973.9 570.299 989.5 543.499C1005.9 515.099 1015.7 474.799 1007.4 443.899C1004 431.299 996.7 419.299 981 416.199C971.9 414.399 961.6 415.199 951.8 416.899C939.7 418.999 927.8 422.599 916.6 427.499C888.2 439.999 865.1 460.899 840.2 477.799C834.6 481.599 829 485.199 823.4 488.699C815.9 493.499 810.2 499.299 804.9 503.999ZM818.8 515.899C795.6 539.999 779.2 559.099 775.2 583.699C774.7 586.799 774.3 589.999 775.6 593.299C776.9 596.599 779.8 599.599 783 602.199C805.6 621.299 840.3 627.099 873.5 619.799C884.7 617.299 895.6 615.699 906.5 611.799C913.8 609.099 920.9 605.799 927.6 601.999C952.8 587.999 973.7 567.799 987.3 544.499C1001.9 519.599 1011.3 482.599 1003.4 455.499C1000.2 444.399 993.3 434.199 978.8 431.999C970.3 430.699 961 431.699 951.9 433.499C940.8 435.699 929.9 439.099 919.6 443.799C893.5 455.599 872.1 474.699 849.7 490.699C844.7 494.299 839.6 497.699 834.6 501.199C827.9 505.599 823.2 511.199 818.8 515.899ZM832.6 527.699C815.4 549.399 804.3 564.699 803.2 583.899C803.1 586.299 803 588.799 804.3 591.399C805.6 593.999 808.2 596.299 811 598.299C830.8 613.099 860.3 616.999 888.4 610.299C897.9 607.999 907.1 606.399 916.3 602.899C922.5 600.499 928.5 597.599 934.2 594.399C955.5 582.299 973.3 564.999 985.1 545.199C997.9 523.699 1006.9 490.199 999.5 466.799C996.4 457.199 990 448.699 976.8 447.499C969 446.799 960.5 447.899 952.3 449.799C942.2 451.999 932.3 455.399 923 459.799C899.3 470.899 879.6 488.199 859.5 503.399C855 506.799 850.5 510.099 846 513.399C840 517.599 836.2 523.099 832.6 527.699ZM846.4 539.499C831.3 556.599 829.5 570.199 831.3 584.199C831.5 585.899 831.8 587.799 833 589.599C834.3 591.499 836.6 593.099 839 594.599C856.1 605.099 880.2 607.099 903.3 600.999C911.1 598.899 918.7 597.299 926.2 594.199C931.3 592.099 936.2 589.599 940.8 586.899C958.3 576.599 972.9 562.299 982.9 545.999C993.9 527.899 1002.5 497.799 995.5 478.199C992.6 470.099 986.6 463.399 974.6 463.099C967.4 462.999 959.8 464.299 952.4 466.199C943.3 468.499 934.4 471.799 926 475.799C904.6 486.099 886.7 501.699 868.9 515.999C864.9 519.199 861 522.399 857.1 525.599C852.1 529.699 848.2 534.599 846.4 539.499ZM860.3 551.299C854.1 567.699 854.7 575.799 859.4 584.399C860 585.499 860.6 586.599 861.8 587.699C863.1 588.799 865 589.799 867 590.699C881.3 596.799 900.2 597.099 918.2 591.499C924.3 589.599 930.2 587.999 936 585.399C939.9 583.599 943.8 581.499 947.4 579.299C961.1 570.899 972.6 559.499 980.6 546.699C989.8 531.999 998 505.299 991.5 489.399C988.8 482.799 983.2 477.799 972.4 478.499C965.9 478.899 959.1 480.399 952.5 482.399C944.4 484.799 936.6 487.899 929.1 491.699C910.1 501.299 893.8 515.099 878.5 528.599C875.1 531.599 871.7 534.599 868.4 537.699C864.1 541.799 862 546.799 860.3 551.299ZM874.1 563.099C869.1 576.099 879.6 581.399 887.4 584.699C888.3 585.099 889.2 585.499 890.5 585.899C891.8 586.299 893.4 586.599 895 586.899C906.4 588.699 920.2 587.099 933.1 582.099C937.5 580.399 941.7 578.799 945.8 576.599C948.6 575.099 951.4 573.499 954 571.699C963.8 565.099 972.2 556.699 978.4 547.399C985.8 536.099 993.6 512.799 987.6 500.699C985.1 495.599 979.9 492.399 970.4 493.999C964.6 494.999 958.7 496.699 952.9 498.699C945.8 501.199 939 504.199 932.4 507.699C915.7 516.599 901.2 528.599 888.2 541.199C885.3 543.999 882.5 546.899 879.7 549.799C876.2 553.899 875.8 558.799 874.1 563.099ZM968.4 509.699C937.3 519.299 909.8 537.999 891.2 562.199C888.3 565.899 887 570.499 888 574.999C890.6 586.599 904.7 587.199 915.5 585.099C939.4 580.299 962.9 566.799 976.3 548.299C984.5 537.099 995.9 501.199 968.4 509.699ZM230.9 604.199C231.6 574.799 233.9 545.199 243.2 516.999C263.4 455.599 315.1 405.999 372.4 367.399C429.7 328.799 494 298.999 552.7 261.999C578.2 245.899 603.4 227.699 618.1 203.099C622.4 195.899 625.8 188.099 625.5 179.899C624.4 154.299 590.4 142.299 563.1 134.199C477.5 108.799 400.3 61.1992 343.6 -1.20081C325.4 -21.2008 308.4 -43.3008 283 -55.5008C238.9 -76.6008 184.4 -61.2008 139.1 -42.1008C53.6 -6.20077 -27 43.2992 -80.9 112.399C-157.8 210.899 -172.3 337.099 -173.7 456.999C-174.4 514.299 -172.4 572.599 -152.7 627.199C-144.1 650.999 -131.9 674.199 -112.7 692.399C-92.1 711.999 -64.5 724.699 -36 733.599C27.9 753.599 98.8 754.599 163.8 737.999C184 732.899 238.7 721.099 244.1 700.799C246.9 690.299 234.7 667.899 233.1 655.999C230.7 638.899 230.5 621.499 230.9 604.199ZM271.2 -42.1007C228.5 -62.4007 176 -47.6007 132.2 -29.2007C49.6 5.49926 -28.3 53.3992 -80.4 120.099C-98.6 143.399 -113.2 168.399 -124.8 194.399C-160.7 274.699 -168.9 365.599 -169.9 453.099C-170.5 508.499 -168.6 564.799 -149.5 617.599C-141.2 640.599 -129.4 662.999 -110.9 680.599C-91 699.499 -64.3 711.899 -36.8 720.499C25 739.799 93.5 740.799 156.3 724.899C175.8 719.899 228.7 708.699 233.9 688.999C236.6 678.799 224.8 657.199 223.4 645.799C221.2 629.199 221.1 612.499 221.5 595.799C222.2 567.399 224.5 538.799 233.5 511.499C249.3 463.699 284.8 423.199 326.9 389.699C337.1 381.599 347.6 373.999 358.3 366.699C413.7 329.399 475.6 300.499 532.1 264.699C556.7 249.099 580.9 231.499 595.2 207.799C599.3 200.899 602.6 193.299 602.3 185.399C601.7 172.699 592.9 163.499 580.8 156.399C569.3 149.699 554.9 144.999 541.9 141.099C459.1 116.499 384.5 70.4993 329.6 10.1993C312.3 -9.00072 295.8 -30.4007 271.2 -42.1007ZM259.4 -28.7007C218.2 -48.3007 167.5 -34.0007 125.3 -16.2007C45.6 17.2993 -29.5 63.4993 -79.8 127.799C-97.4 150.299 -111.4 174.399 -122.7 199.499C-157.3 276.999 -165.2 364.799 -166.1 449.199C-166.7 502.699 -164.8 556.999 -146.3 607.899C-138.3 630.099 -126.9 651.699 -109 668.699C-89.7 686.999 -64 698.899 -37.4 707.199C22.3 725.899 88.4 726.899 149.1 711.499C167.9 706.699 219 695.899 224.1 676.899C226.8 667.099 215.4 646.199 214 635.199C211.9 619.199 211.9 603.099 212.3 586.999C213 559.599 215.3 531.999 224 505.699C239.3 459.599 273.6 420.499 314.2 388.099C324 380.299 334.1 372.899 344.5 365.899C397.8 329.799 457.5 301.999 511.9 267.299C535.6 252.199 558.9 235.199 572.6 212.299C576.6 205.599 579.7 198.299 579.4 190.699C578.8 178.499 570.3 169.499 558.6 162.699C547.5 156.199 533.5 151.599 521.1 147.899C441.2 124.099 369.1 79.6993 316 21.4993C299.1 3.19927 283.2 -17.4007 259.4 -28.7007ZM247.6 -15.3008C207.9 -34.2008 159.1 -20.4008 118.4 -3.30078C41.7 28.9992 -30.7 73.3992 -79.2 135.499C-96.1 157.199 -109.7 180.399 -120.5 204.699C-153.9 279.399 -161.4 363.999 -162.2 445.399C-162.7 496.899 -160.8 549.299 -143 598.399C-135.3 619.799 -124.3 640.599 -107 656.999C-88.4 674.599 -63.6 686.099 -38 694.199C19.5 712.199 83.3 713.299 141.9 698.499C160.1 693.899 209.3 683.499 214.3 665.199C216.9 655.799 206 635.699 204.7 625.099C202.7 609.699 202.7 594.099 203.1 578.699C203.9 552.399 206.1 525.799 214.5 500.399C229.3 455.899 262.4 418.299 301.5 386.999C310.9 379.499 320.7 372.299 330.6 365.599C381.9 330.799 439.2 303.899 491.5 270.499C514.3 255.999 536.7 239.599 549.8 217.499C553.6 211.099 556.7 203.999 556.3 196.699C555.7 184.899 547.5 176.299 536.2 169.699C525.5 163.399 512 158.999 500 155.399C422.9 132.399 353.4 89.5992 302.2 33.4992C285.9 15.4992 270.6 -4.40078 247.6 -15.3008ZM235.8 -1.90082C197.6 -20.1008 150.6 -6.80082 111.5 9.59918C37.7 40.6992 -32 83.4992 -78.6 143.199C-94.9 164.099 -107.9 186.399 -118.3 209.799C-150.4 281.699 -157.6 363.199 -158.3 441.599C-158.7 491.199 -156.9 541.599 -139.8 588.899C-132.3 609.499 -121.7 629.499 -105.1 645.299C-87.2 662.299 -63.3 673.399 -38.6 681.099C16.8 698.499 78.2 699.499 134.6 685.299C152.1 680.899 199.5 670.899 204.3 653.399C206.8 644.299 196.4 624.999 195.1 614.799C193.3 599.999 193.2 584.999 193.7 570.199C194.5 544.899 196.7 519.299 204.8 494.899C219.2 452.099 251 415.899 288.6 385.699C297.7 378.499 307 371.599 316.6 365.099C365.9 331.599 420.9 305.599 471.1 273.399C493 259.399 514.5 243.599 527.1 222.399C530.8 216.199 533.7 209.399 533.3 202.399C532.7 190.999 524.8 182.799 513.9 176.399C503.6 170.399 490.6 166.099 479.1 162.599C405 140.299 338 98.9992 288.6 44.9992C272.8 27.7992 258 8.59918 235.8 -1.90082ZM224.1 11.5992C187.4 -5.80082 142.3 6.89922 104.7 22.6992C33.7 52.3992 -33.2 93.4993 -78 150.899C-93.7 170.999 -106.2 192.499 -116.2 214.899C-147 284.099 -153.9 362.299 -154.5 437.699C-154.9 485.399 -153.1 533.799 -136.6 579.199C-129.4 598.999 -119.2 618.299 -103.3 633.399C-86.1 649.699 -63.1 660.399 -39.4 667.899C13.9 684.699 73 685.699 127.2 672.099C144.1 667.899 189.6 658.299 194.3 641.499C196.7 632.799 186.7 614.299 185.6 604.499C183.9 590.299 183.9 575.899 184.4 561.699C185.2 537.399 187.4 512.799 195.3 489.399C209.2 448.299 239.8 413.399 275.9 384.299C284.6 377.299 293.6 370.699 302.8 364.399C350.1 332.099 402.8 307.099 450.9 276.199C471.8 262.699 492.4 247.599 504.5 227.099C508 221.099 510.8 214.599 510.4 207.799C509.8 196.899 502.2 188.899 491.8 182.799C481.9 176.999 469.4 172.899 458.3 169.499C386.9 148.099 322.5 108.399 275 56.4993C259.6 39.9993 245.3 21.5992 224.1 11.5992ZM212.3 24.9992C177.1 8.29921 133.8 20.4992 97.8 35.5992C29.7 64.0992 -34.4 103.599 -77.3 158.499C-92.3 177.799 -104.3 198.399 -113.9 219.899C-143.4 286.299 -150 361.399 -150.5 433.699C-150.8 479.499 -149.1 525.899 -133.2 569.499C-126.3 588.499 -116.5 606.999 -101.2 621.499C-84.7 637.199 -62.6 647.399 -39.8 654.599C11.4 670.699 68.1 671.699 120.2 658.799C136.4 654.799 180.1 645.599 184.6 629.499C187 621.199 177.4 603.399 176.3 594.099C174.7 580.499 174.7 566.699 175.2 552.999C176 529.699 178.2 506.199 185.8 483.699C199.2 444.299 228.6 410.799 263.1 382.799C271.4 376.099 280 369.699 288.8 363.699C334.1 332.699 384.4 308.699 430.4 278.899C450.4 265.999 470.1 251.399 481.6 231.799C484.9 226.099 487.6 219.799 487.3 213.299C486.7 202.799 479.4 195.199 469.4 189.299C459.9 183.699 447.9 179.799 437.2 176.599C368.7 155.999 306.8 117.899 261.1 68.0992C246.5 52.2992 232.7 34.6992 212.3 24.9992ZM200.5 38.3992C166.8 22.3992 125.4 34.0992 90.9 48.5992C25.8 75.8992 -35.7 113.599 -76.8 166.299C-91.2 184.799 -102.7 204.499 -111.8 225.199C-140 288.799 -146.3 360.799 -146.7 429.999C-147 473.799 -145.3 518.399 -130 559.999C-123.4 578.199 -114 595.899 -99.3 609.799C-83.4 624.799 -62.3 634.699 -40.4 641.599C8.60001 657.099 63 658.099 112.9 645.699C128.5 641.899 170.3 633.099 174.7 617.699C177 609.799 167.9 592.799 166.9 583.799C165.4 570.799 165.5 557.599 166 544.499C166.9 522.199 169 499.699 176.3 478.199C189.2 440.499 217.4 408.299 250.4 381.499C258.3 375.099 266.6 368.999 275 363.199C318.2 333.499 366.3 310.399 410.2 281.899C429.3 269.499 448.1 255.499 459.1 236.699C462.3 231.199 464.8 225.199 464.5 218.999C463.9 208.999 456.9 201.599 447.3 195.999C438.2 190.599 426.7 186.799 416.5 183.799C350.8 163.999 291.5 127.399 247.6 79.7992C233.3 64.4992 220.1 47.6992 200.5 38.3992ZM188.7 51.8992C156.5 36.6992 116.9 47.7992 83.9 61.5992C21.7 87.5992 -37 123.699 -76.2 173.999C-90 191.699 -100.9 210.599 -109.6 230.299C-136.5 291.099 -142.4 359.899 -142.8 426.099C-143 467.999 -141.3 510.599 -126.7 550.399C-120.3 567.699 -111.4 584.699 -97.3 597.999C-82.1 612.399 -61.9 621.799 -41 628.399C5.90002 643.199 57.9 644.199 105.7 632.499C120.6 628.899 160.6 620.499 164.8 605.799C167 598.199 158.4 581.999 157.4 573.499C156 561.099 156.1 548.499 156.6 535.999C157.5 514.699 159.6 493.199 166.6 472.699C179 436.699 206 405.899 237.5 380.099C245.1 373.899 252.9 368.099 260.9 362.499C302.1 333.999 347.9 311.899 389.6 284.599C407.8 272.699 425.7 259.399 436.1 241.399C439.1 236.199 441.5 230.399 441.2 224.499C440.6 214.899 433.9 207.899 424.7 202.499C415.9 197.399 405 193.699 395.2 190.799C332.4 171.799 275.6 136.799 233.6 91.2992C220.1 76.7992 207.5 60.6992 188.7 51.8992ZM177 65.2992C146.3 50.7992 108.6 61.3992 77.1 74.4992C17.7 99.3992 -38.2 133.699 -75.6 181.599C-88.7 198.499 -99.2 216.499 -107.5 235.299C-133.1 293.299 -138.7 358.999 -139 422.099C-139.2 462.099 -137.5 502.699 -123.6 540.699C-117.5 557.199 -108.9 573.399 -95.5 586.099C-81 599.799 -61.7 608.799 -41.7 615.199C3.1 629.399 52.7 630.299 98.4 619.299C112.7 615.799 150.8 607.899 154.9 593.999C157 586.799 148.8 571.399 148 563.199C146.7 551.399 146.8 539.399 147.4 527.499C148.3 507.199 150.3 486.699 157.1 467.199C169 432.799 194.8 403.399 224.8 378.799C232 372.899 239.5 367.299 247.1 361.999C286.2 334.699 329.7 313.699 369.4 287.599C386.7 276.299 403.6 263.499 413.5 246.399C416.4 241.399 418.6 235.899 418.3 230.199C417.8 220.999 411.3 214.399 402.5 209.199C394.1 204.299 383.7 200.799 374.3 197.999C314.3 179.799 260.2 146.399 219.9 102.999C207 88.9992 194.9 73.6992 177 65.2992ZM165.2 78.6992C136 64.9992 100.1 74.9992 70.2 87.4992C13.8 111.099 -39.5 143.699 -75 189.299C-87.5 205.399 -97.4 222.499 -105.3 240.499C-129.6 295.799 -134.9 358.199 -135.1 418.299C-135.2 456.299 -133.6 494.999 -120.3 531.099C-114.5 546.799 -106.3 562.199 -93.6 574.299C-79.8 587.399 -61.4 595.999 -42.4 601.999C0.300007 615.499 47.5 616.499 91 605.999C104.6 602.699 140.9 595.199 144.9 581.999C147 575.199 139.2 560.499 138.4 552.799C137.2 541.599 137.4 530.199 137.9 518.899C138.8 499.599 140.8 480.199 147.4 461.599C158.9 428.899 183.4 400.899 211.9 377.399C218.7 371.799 225.8 366.399 233 361.399C270.1 335.399 311.3 315.299 348.8 290.399C365.1 279.599 381.2 267.399 390.5 251.099C393.2 246.299 395.3 241.099 395 235.699C394.5 226.999 388.3 220.599 380 215.699C372 210.999 362.1 207.699 353.2 204.999C296.1 187.599 244.5 155.699 206 114.499C193.8 101.299 182.2 86.6992 165.2 78.6992ZM153.4 92.0992C125.7 79.0992 91.7 88.5992 63.3 100.399C9.80002 122.799 -40.7 153.799 -74.4 196.999C-86.3 212.199 -95.6 228.599 -103.1 245.599C-126.2 298.099 -131.1 357.399 -131.2 414.399C-131.3 450.499 -129.7 487.199 -117 521.499C-111.5 536.399 -103.7 550.999 -91.6 562.499C-78.5 574.899 -61 583.099 -42.9 588.799C-2.39999 601.699 42.5 602.599 83.9 592.799C96.9 589.699 131.3 582.599 135.1 570.099C137.1 563.599 129.8 549.799 129.1 542.499C128.1 531.899 128.2 521.099 128.8 510.399C129.8 492.199 131.7 473.699 138 456.099C149 425.099 172.2 398.499 199.2 375.999C205.7 370.599 212.4 365.499 219.2 360.699C254.3 335.899 293.2 316.799 328.6 293.199C344 282.899 359.2 271.399 368 255.899C370.5 251.399 372.5 246.399 372.2 241.299C371.7 232.999 365.8 226.999 357.9 222.299C350.3 217.799 340.9 214.699 332.4 212.099C278.1 195.499 229.1 165.199 192.5 125.999C180.7 113.599 169.6 99.7992 153.4 92.0992ZM141.6 105.599C115.4 93.2992 83.2 102.299 56.4 113.499C5.8 134.599 -42 163.799 -73.8 204.699C-85 219.099 -93.9 234.599 -101 250.699C-122.8 300.399 -127.4 356.499 -127.5 410.499C-127.5 444.699 -126 479.399 -113.9 511.799C-108.7 525.899 -101.3 539.799 -89.8 550.599C-77.3 562.399 -60.8 570.099 -43.7 575.599C-5.3 587.899 37.2 588.799 76.5 579.499C88.8 576.599 121.4 569.899 125.1 558.099C127 551.999 120.2 538.899 119.5 531.999C118.6 521.999 118.8 511.799 119.4 501.699C120.4 484.499 122.3 466.999 128.3 450.299C138.8 420.999 160.8 395.699 186.3 374.399C192.4 369.299 198.7 364.499 205.1 359.899C238.1 336.399 274.8 318.199 308 295.799C322.5 286.099 336.8 275.099 345 260.399C347.4 256.099 349.3 251.399 348.9 246.599C348.4 238.799 342.8 232.999 335.3 228.599C328.1 224.399 319.2 221.399 311.2 218.899C259.8 203.099 213.3 174.399 178.5 137.299C167.5 125.799 157 112.799 141.6 105.599ZM129.8 118.999C105.1 107.399 74.8 115.799 49.5 126.399C1.8 146.299 -43.3 173.899 -73.3 212.399C-83.9 225.999 -92.2 240.599 -98.9 255.799C-119.4 302.699 -123.7 355.699 -123.7 406.599C-123.7 438.799 -122.1 471.599 -110.7 502.199C-105.7 515.499 -98.8 528.599 -87.9 538.799C-76.1 549.899 -60.5 557.299 -44.3 562.399C-8 573.999 32.2 574.899 69.2 566.299C80.8 563.599 111.6 557.299 115.1 546.299C116.9 540.599 110.6 528.299 110 521.799C109.2 512.399 109.4 502.799 110 493.299C111 477.099 112.9 460.699 118.6 444.899C128.6 417.299 149.4 393.399 173.4 373.199C179.1 368.399 185.1 363.799 191.1 359.499C222.1 337.299 256.4 320.099 287.6 298.899C301.2 289.699 314.5 279.299 322.2 265.499C324.4 261.499 326.2 256.999 325.8 252.499C325.3 245.099 320 239.699 312.9 235.499C306.1 231.499 297.7 228.599 290.1 226.299C241.6 211.299 197.6 184.099 164.7 149.199C154.3 138.099 144.4 125.799 129.8 118.999ZM118.1 132.399C94.9 121.599 66.4 129.399 42.7 139.299C-2.19999 157.999 -44.5 183.899 -72.7 220.099C-82.6 232.899 -90.5 246.699 -96.7 260.999C-115.9 305.099 -119.9 354.999 -119.8 402.799C-119.7 433.099 -118.2 463.899 -107.4 492.699C-102.7 505.199 -96.1 517.499 -85.9 527.099C-74.8 537.599 -60 544.499 -44.8 549.399C-10.6 560.399 27.2 561.299 62.1 553.299C73.1 550.799 102 544.999 105.4 534.599C107.2 529.199 101.2 517.699 100.7 511.599C100 502.799 100.3 493.799 100.9 484.899C101.9 469.699 103.8 454.299 109.2 439.499C118.7 413.599 138.3 390.999 160.8 371.899C166.2 367.299 171.7 362.999 177.4 358.899C206.4 337.899 238.4 321.699 267.5 301.699C280.2 292.999 292.6 283.299 299.8 270.299C301.9 266.499 303.5 262.299 303.2 257.999C302.7 250.999 297.7 245.899 291 241.999C284.6 238.199 276.7 235.499 269.5 233.299C223.8 219.099 182.4 193.499 151.3 160.699C141.2 150.299 131.8 138.799 118.1 132.399ZM106.3 145.799C84.6 135.699 58 142.999 35.8 152.299C-6.1 169.699 -45.7 193.899 -72 227.799C-81.3 239.799 -88.6 252.699 -94.4 266.099C-112.3 307.499 -116 354.099 -115.8 398.899C-115.7 427.299 -114.2 456.099 -104.1 482.999C-99.7 494.699 -93.5 506.199 -84 515.199C-73.6 524.999 -59.7 531.499 -45.5 536.099C-13.5 546.399 22 547.299 54.8 539.899C65.1 537.599 92.2 532.199 95.4 522.499C97.1 517.499 91.6 506.799 91.2 501.099C90.6 492.899 90.9 484.499 91.5 476.199C92.6 461.999 94.4 447.599 99.5 433.799C108.5 409.499 126.9 388.399 147.9 370.399C152.9 366.099 158.1 362.099 163.3 358.199C190.3 338.499 220 323.199 246.9 304.499C258.6 296.299 270.2 287.199 276.8 274.999C278.7 271.399 280.2 267.499 279.9 263.499C279.4 256.999 274.7 252.199 268.5 248.499C262.5 244.999 255.1 242.399 248.4 240.299C205.6 226.899 166.7 202.899 137.4 172.199C128 162.599 119.2 151.799 106.3 145.799ZM94.5 159.299C74.3 149.899 49.5 156.699 28.9 165.299C-10.1 181.499 -46.9 203.999 -71.4 235.499C-80.1 246.699 -86.9 258.699 -92.3 271.199C-108.9 309.799 -112.3 353.299 -112 395.099C-111.8 421.499 -110.4 448.399 -100.9 473.499C-96.8 484.399 -91 495.099 -82.1 503.499C-72.4 512.699 -59.4 518.799 -46.1 523.099C-16.2 532.799 16.9 533.699 47.5 526.899C57.2 524.799 82.4 519.799 85.5 510.799C87.1 506.199 82.1 496.199 81.7 490.999C81.2 483.399 81.5 475.599 82.2 467.899C83.3 454.699 85.1 441.399 90 428.499C98.6 405.899 115.7 386.199 135.1 369.299C139.7 365.299 144.5 361.499 149.4 357.899C174.3 339.399 201.7 325.199 226.6 307.599C237.4 299.999 248.1 291.499 254.1 280.099C255.9 276.799 257.2 273.099 256.9 269.399C256.4 263.299 252 258.899 246.2 255.399C240.6 252.099 233.7 249.699 227.4 247.699C187.4 235.099 151.1 212.599 123.7 184.099C114.9 174.799 106.6 164.799 94.5 159.299ZM82.7 172.699C64 164.099 41.1 170.299 21.9 178.299C-14.2 193.299 -48.3 214.099 -71 243.299C-79 253.699 -85.3 264.799 -90.3 276.499C-105.6 312.299 -108.7 352.599 -108.3 391.399C-108.1 415.899 -106.6 440.799 -97.8 463.999C-93.9 474.099 -88.6 483.999 -80.3 491.799C-71.2 500.299 -59.2 505.999 -46.9 509.999C-19.1 519.099 11.6 519.899 40.1 513.799C49.1 511.799 72.5 507.299 75.4 498.999C76.9 494.699 72.4 485.499 72.1 480.699C71.7 473.699 72.1 466.499 72.7 459.399C73.8 447.199 75.6 434.899 80.2 422.999C88.3 402.099 104.2 383.699 122.1 367.899C126.4 364.099 130.8 360.599 135.2 357.299C158.1 340.099 183.2 326.799 205.9 310.499C215.8 303.399 225.6 295.499 231.1 284.899C232.7 281.799 233.9 278.399 233.6 274.999C233.1 269.399 229 265.199 223.6 261.999C218.4 258.899 211.9 256.699 206.1 254.799C169 242.999 135.2 222.099 109.6 195.599C101.7 187.099 93.9 177.899 82.7 172.699ZM71 186.099C53.8 178.199 32.7 183.899 15.1 191.199C-18.1 204.899 -49.5 224.099 -70.3 250.899C-77.7 260.499 -83.5 270.799 -88 281.499C-102 314.499 -104.7 351.699 -104.3 387.399C-104 409.999 -102.6 432.899 -94.4 454.299C-90.8 463.599 -85.9 472.699 -78.2 479.899C-69.8 487.799 -58.7 492.999 -47.3 496.799C-21.6 505.199 6.70001 506.099 33.1 500.499C41.5 498.699 63 494.599 65.8 487.099C67.3 483.199 63.1 474.799 63 470.399C62.7 463.999 63.1 457.399 63.8 450.899C64.9 439.799 66.7 428.399 71 417.499C78.6 398.299 93.3 381.299 109.7 366.599C113.6 363.099 117.6 359.799 121.7 356.699C142.6 340.699 165.4 328.399 186 313.299C195 306.699 203.8 299.399 208.8 289.699C210.2 286.899 211.3 283.699 211 280.499C210.5 275.299 206.7 271.499 201.7 268.499C196.9 265.599 190.9 263.599 185.6 261.799C151.3 250.799 120.1 231.499 96.3 207.099C88.5 199.299 81.3 190.899 71 186.099ZM59.2 199.499C43.5 192.299 24.3 197.499 8.2 204.099C-22.1 216.599 -50.7 233.999 -69.7 258.499C-76.5 267.299 -81.7 276.699 -85.8 286.499C-98.6 316.699 -100.9 350.699 -100.4 383.399C-100.1 404.099 -98.7 424.999 -91.1 444.599C-87.8 453.099 -83.2 461.399 -76.3 467.999C-68.6 475.199 -58.4 480.099 -48 483.499C-24.5 491.299 1.6 492.099 25.7 487.199C33.4 485.599 53.1 481.899 55.8 475.099C57.2 471.599 53.5 463.899 53.4 459.899C53.3 453.999 53.7 448.099 54.4 442.199C55.6 432.099 57.3 421.799 61.3 411.799C68.4 394.299 81.9 378.699 96.8 365.099C100.3 361.899 104 358.899 107.6 355.999C126.4 341.299 147 329.899 165.4 316.099C173.5 310.099 181.4 303.399 185.8 294.499C187.1 291.899 188.1 288.999 187.7 286.099C187.2 281.299 183.7 277.799 179.1 275.099C174.7 272.499 169.2 270.499 164.3 268.899C132.9 258.699 104.2 240.899 82.3 218.699C75.4 211.599 68.7 203.899 59.2 199.499ZM47.4 212.999C33.2 206.599 15.8 211.199 1.3 217.199C-26.1 228.499 -52 244.199 -69.1 266.299C-75.2 274.299 -79.9 282.799 -83.7 291.699C-95.2 319.199 -97.2 349.999 -96.6 379.599C-96.2 398.299 -94.9 417.299 -87.9 434.999C-84.9 442.699 -80.7 450.299 -74.4 456.199C-67.4 462.799 -58.1 467.199 -48.6 470.399C-27.2 477.499 -3.5 478.399 18.5 473.999C25.6 472.599 43.4 469.299 45.9 463.199C47.2 459.999 44 453.199 44 449.599C44 444.299 44.4 438.999 45.1 433.699C46.3 424.599 48 415.299 51.7 406.299C58.3 390.399 70.6 376.199 84 363.699C87.1 360.699 90.4 357.999 93.7 355.399C110.5 341.999 128.7 331.599 145.1 318.899C152.2 313.399 159.3 307.299 163.1 299.199C164.2 296.799 165.1 294.299 164.7 291.599C164.2 287.299 161 284.099 156.8 281.599C152.8 279.199 147.8 277.399 143.4 275.899C114.8 266.499 88.7 250.299 68.6 230.199C62.2 223.899 56.1 216.899 47.4 212.999ZM35.6 226.399C22.9 220.699 7.40001 224.799 -5.59999 230.099C-30.1 240.099 -53.2 254.199 -68.5 273.999C-74 281.199 -78.2 288.899 -81.5 296.899C-91.7 321.599 -93.4 349.299 -92.7 375.799C-92.3 392.599 -91 409.599 -84.7 425.499C-82 432.399 -78.2 439.199 -72.5 444.499C-66.1 450.399 -57.8 454.399 -49.2 457.299C-29.9 463.799 -8.6 464.599 11.2 460.899C17.6 459.699 33.6 456.799 36 451.399C37.2 448.599 34.5 442.499 34.5 439.299C34.6 434.599 35 429.899 35.8 425.099C37 416.999 38.7 408.699 42.2 400.699C48.3 386.499 59.4 373.699 71.2 362.299C74 359.599 76.9 357.099 79.7 354.699C94.5 342.499 110.4 333.099 124.6 321.699C130.8 316.699 137 311.199 140.3 303.999C141.3 301.899 142 299.599 141.7 297.199C141.2 293.299 138.3 290.499 134.6 288.199C131 285.999 126.5 284.399 122.5 283.099C96.8 274.499 73.2 259.899 55 241.899C49.1 236.099 43.5 229.899 35.6 226.399ZM23.9 239.799C12.6 234.799 -0.999994 238.399 -12.4 243.099C-34 251.899 -54.4 264.199 -67.9 281.699C-72.8 287.999 -76.4 294.899 -79.3 301.999C-88.2 323.899 -89.6 348.399 -88.8 371.899C-88.3 386.799 -87 401.799 -81.4 415.799C-78.9 421.899 -75.6 427.899 -70.5 432.599C-64.8 437.899 -57.4 441.499 -49.8 444.099C-32.6 449.899 -13.7 450.799 4 447.699C9.8 446.699 23.9 444.199 26.1 439.499C27.2 437.099 24.9 431.799 25.1 428.999C25.3 424.899 25.8 420.799 26.5 416.599C27.8 409.499 29.4 402.199 32.6 395.199C38.2 382.699 48.1 371.299 58.4 360.999C60.8 358.599 63.3 356.299 65.8 354.199C78.5 343.299 92.2 334.799 104.3 324.599C109.6 320.199 114.9 315.299 117.6 308.799C118.4 306.899 119 304.899 118.7 302.799C118.2 299.399 115.6 296.799 112.3 294.799C109.1 292.799 105.1 291.399 101.5 290.199C78.6 282.399 57.6 269.399 41.2 253.499C35.9 248.399 30.9 242.899 23.9 239.799ZM12.1 253.299C2.30001 248.999 -9.39999 252.099 -19.3 256.099C-38 263.699 -55.7 274.299 -67.3 289.399C-71.5 294.899 -74.7 300.899 -77.2 307.099C-84.8 326.199 -85.9 347.599 -85 367.999C-84.5 380.899 -83.2 393.999 -78.2 406.199C-76 411.499 -73.1 416.699 -68.6 420.799C-63.6 425.399 -57.1 428.599 -50.4 430.899C-35.4 436.099 -18.8 436.899 -3.2 434.399C1.9 433.599 14.2 431.499 16.3 427.599C17.4 425.599 15.5 420.999 15.7 418.699C16 415.199 16.5 411.699 17.3 408.099C18.6 401.999 20.2 395.799 23.1 389.599C28.3 378.799 36.9 368.799 45.7 359.499C47.7 357.399 49.9 355.399 52 353.499C62.7 343.799 74 336.399 84.1 327.399C88.5 323.499 92.8 319.199 95 313.599C95.6 311.999 96.1 310.199 95.8 308.299C95.3 305.299 93 303.099 90.1 301.299C87.3 299.599 83.8 298.299 80.7 297.199C60.7 290.199 42.2 278.699 27.6 264.999C22.8 260.599 18.3 255.899 12.1 253.299ZM0.300003 266.699C-8 263.199 -17.9 265.699 -26.2 268.999C-42 275.299 -57 284.299 -66.7 296.999C-70.3 301.699 -72.9 306.899 -75 312.199C-81.3 328.599 -82.1 346.699 -81.2 364.099C-80.6 375.099 -79.4 386.199 -75 396.599C-73.1 401.099 -70.5 405.499 -66.8 408.999C-62.5 412.999 -56.9 415.699 -51.2 417.799C-38.3 422.399 -24.1 423.199 -10.7 421.299C-6.3 420.699 4.20001 418.999 6.10001 415.799C7.10001 414.099 5.7 410.399 6 408.399C6.4 405.499 7.00001 402.599 7.70001 399.599C9.00001 394.599 10.6 389.299 13.2 384.099C17.9 374.999 25.3 366.299 32.6 358.199C34.3 356.299 36 354.599 37.7 352.899C46.4 344.499 55.4 337.999 63.3 330.199C66.8 326.799 70.2 323.099 71.9 318.399C72.4 316.999 72.7 315.499 72.4 313.899C71.9 311.299 69.9 309.399 67.4 307.899C65 306.399 62 305.299 59.3 304.299C42.1 298.099 26.2 288.199 13.5 276.499C9.6 272.899 5.6 268.999 0.300003 266.699ZM-11.5 280.099C-18.3 277.299 -26.3 279.299 -33.1 281.999C-46 287.099 -58.2 294.399 -66.1 304.799C-69.1 308.699 -71.2 312.999 -72.8 317.399C-77.8 330.999 -78.3 345.999 -77.3 360.299C-76.7 369.399 -75.5 378.499 -71.7 386.999C-70.1 390.699 -67.9 394.299 -64.8 397.199C-61.2 400.499 -56.5 402.899 -51.7 404.599C-40.9 408.499 -29 409.399 -17.8 408.099C-14 407.699 -5.40001 406.399 -3.60001 403.899C-2.70001 402.599 -3.6 399.599 -3.3 398.099C-2.8 395.799 -2.19999 393.499 -1.39999 391.099C-0.0999939 387.099 1.5 382.799 3.8 378.599C8 371.099 14.2 363.899 20 356.899C21.3 355.299 22.6 353.799 24 352.399C30.6 345.299 37.4 339.699 43.2 333.199C45.7 330.399 48.3 327.299 49.4 323.299C49.7 322.099 49.9 320.899 49.6 319.599C49.1 317.499 47.4 315.899 45.3 314.599C43.3 313.299 40.8 312.299 38.5 311.499C24.2 306.099 10.8 297.799 -0.100006 288.199C-3.60001 285.099 -7 281.999 -11.5 280.099ZM-23.2 293.499C-28.4 291.399 -34.6 292.899 -40 294.899C-50 298.799 -59.5 304.299 -65.5 312.399C-67.8 315.499 -69.4 318.899 -70.6 322.399C-74.3 333.199 -74.5 344.999 -73.4 356.299C-72.7 363.399 -71.6 370.599 -68.5 377.299C-67.1 380.199 -65.4 382.999 -62.9 385.299C-60 387.999 -56.2 389.899 -52.4 391.299C-43.7 394.599 -34.2 395.399 -25.1 394.699C-22 394.499 -15.2 393.599 -13.6 391.799C-12.8 390.899 -13.3 388.699 -12.8 387.499C-12.2 385.899 -11.5 384.099 -10.7 382.299C-9.3 379.299 -7.8 376.099 -5.7 372.799C-2 366.999 3.00001 361.199 7.20001 355.199C8.10001 353.899 9.1 352.599 10 351.499C14.6 345.699 19 340.999 22.7 335.699C24.3 333.399 26 330.899 26.5 327.799C26.7 326.899 26.7 325.899 26.4 324.899C25.9 323.199 24.5 321.999 22.9 320.899C21.2 319.899 19.3 318.999 17.5 318.299C6 313.899 -4.8 307.199 -13.8 299.799C-16.7 297.399 -19.6 294.999 -23.2 293.499ZM-35 306.999C-38.7 305.599 -43.1 306.599 -46.9 307.999C-54 310.599 -60.7 314.499 -65 320.199C-66.7 322.499 -67.8 325.099 -68.6 327.599C-71.1 335.599 -70.9 344.299 -69.7 352.499C-69 357.699 -67.8 362.899 -65.4 367.699C-64.3 369.799 -63 371.899 -61.1 373.499C-58.8 375.499 -56 376.999 -53.1 378.199C-46.6 380.799 -39.4 381.699 -32.5 381.599C-30 381.599 -25.1 381.199 -23.6 380.099C-22.8 379.499 -22.9 378.199 -22.4 377.399C-21.7 376.399 -21 375.199 -20.2 373.999C-18.8 371.999 -17.3 369.799 -15.5 367.499C-12.3 363.399 -8.49999 358.999 -5.79999 354.099C-5.19999 353.099 -4.69999 352.099 -4.09999 351.099C-1.49999 346.599 0.600012 342.899 2.20001 338.799C2.90001 336.999 3.60001 335.099 3.70001 332.899C3.70001 332.199 3.6 331.499 3.3 330.699C2.8 329.499 1.7 328.499 0.5 327.699C-0.8 326.899 -2.19999 326.199 -3.59999 325.599C-12.2 321.799 -20.5 316.599 -27.7 311.299C-29.9 309.699 -32.2 307.999 -35 306.999ZM-46.8 320.399C-49 319.699 -51.5 320.099 -53.8 320.899C-58 322.299 -62 324.499 -64.4 327.899C-65.5 329.399 -66 331.099 -66.4 332.799C-67.6 337.999 -67.1 343.599 -65.8 348.799C-65 352.099 -63.9 355.299 -62.1 358.299C-61.3 359.599 -60.4 360.899 -59.1 361.899C-57.5 363.299 -55.6 364.399 -53.6 365.199C-49.2 367.199 -44.3 368.099 -39.6 368.499C-37.7 368.699 -34.7 368.699 -33.3 368.299C-32.6 368.099 -32.3 367.499 -31.6 367.199C-30.9 366.799 -30.1 366.199 -29.2 365.599C-27.8 364.599 -26.3 363.399 -24.8 362.099C-22 359.699 -19.5 356.799 -18.3 352.899C-18.1 352.099 -17.9 351.399 -17.8 350.699C-17.2 347.499 -17.4 344.699 -18 341.799C-18.2 340.599 -18.4 339.299 -18.9 337.799C-19.1 337.399 -19.2 336.899 -19.6 336.399C-20.1 335.599 -20.9 334.999 -21.7 334.399C-22.6 333.799 -23.5 333.299 -24.4 332.799C-30.2 329.799 -35.9 326.199 -41.3 322.999C-43 321.899 -44.8 320.999 -46.8 320.399ZM-44 340.899C-48.2 337.599 -53 334.299 -58.6 333.799C-60.6 333.599 -62.9 333.999 -63.8 335.499C-64.2 336.199 -64.3 336.999 -64.2 337.799C-64 342.499 -61.1 346.799 -57.2 349.899C-53.3 352.999 -48.3 354.899 -43.3 356.299C-39 357.499 -29.9 357.499 -31.2 351.299C-32 347.499 -40.8 343.499 -44 340.899Z" stroke="url(#paint0_radial_4286_1790)" stroke-miterlimit="10" stroke-linecap="round" stroke-linejoin="round"/>
</g>
<defs>
<radialGradient id="paint0_radial_4286_1790" cx="0" cy="0" r="1" gradientUnits="userSpaceOnUse" gradientTransform="translate(518.403 -3.38942) rotate(90.0383) scale(604.39 564.194)">
<stop stop-color="#F48124"/>
<stop offset="0.5" stop-color="#002B49"/>
<stop offset="1" stop-color="#D40000"/>
</radialGradient>
</defs>
</svg>
