<svg width="607" height="300" viewBox="0 0 607 300" fill="none" xmlns="http://www.w3.org/2000/svg">
<mask id="mask0_4286_1781" style="mask-type:alpha" maskUnits="userSpaceOnUse" x="0" y="0" width="607" height="300">
<path d="M586.333 0.5H20.3333C9.28765 0.5 0.333344 9.4543 0.333344 20.5V279.5C0.333344 290.546 9.28765 299.5 20.3333 299.5H586.333C597.379 299.5 606.333 290.546 606.333 279.5V20.5C606.333 9.4543 597.379 0.5 586.333 0.5Z" fill="#FFE98A"/>
</mask>
<g mask="url(#mask0_4286_1781)">
<path d="M-480.8 127.999C-491.2 103.499 -498.7 77.7992 -504.7 52.2992C-511.4 23.6992 -512 -6.20075 -513.6 -35.3008C-515.1 -61.5008 -509.2 -87.6008 -504.8 -113.501C-489.5 -204.301 -491.8 -298.001 -460.9 -385.601M-480.8 127.999C-485.3 117.399 -486.5 105.399 -484.6 92.2992C-476.6 88.6992 -459.2 79.6992 -444.9 58.7992C-438 48.5992 -432.5 36.0992 -426.3 24.7992C-424.8 21.8992 -423.1 19.0992 -421.3 16.3992C-411.5 1.89923 -398.4 -8.40077 -387.5 -23.6008C-378.7 -35.7008 -372.3 -50.4008 -367.8 -65.8008C-365.7 -73.2008 -364 -80.7008 -362.6 -88.2008C-360 -102.401 -358.3 -117.101 -353.4 -130.501C-347.2 -147.601 -336.7 -161.401 -327 -175.401C-319.7 -186.001 -312.6 -196.901 -305.7 -208.201C-302.5 -213.501 -299.3 -219.001 -296.9 -225.001C-290.7 -240.701 -291.6 -258.801 -294.3 -275.101C-297 -291.401 -301.4 -307.101 -306.8 -321.501C-315.8 -345.601 -329.3 -364.401 -340.4 -382.601C-345.7 -391.301 -351.1 -399.501 -356.3 -407.301M-480.8 127.999C-481.1 127.299 -477.7 125.099 -470.2 120.899C-453.3 128.499 -422.3 127.299 -396.9 105.599C-384.6 94.9992 -374.9 80.4992 -363.9 67.8992C-361.1 64.6992 -358.2 61.5992 -355.1 58.7992C-338.3 43.2992 -317 34.9992 -299.7 18.2992C-285.9 4.99919 -276.3 -12.7008 -269.9 -31.6008C-266.8 -40.6008 -264.5 -49.9008 -262.7 -59.1008C-259.3 -76.7008 -257.3 -94.9008 -249.7 -111.101C-240.1 -131.601 -223 -146.601 -207.3 -161.901C-195.4 -173.501 -183.9 -185.701 -172.8 -198.301C-167.6 -204.301 -162.3 -210.501 -158.6 -217.701C-148.9 -236.501 -151.3 -259.401 -157 -279.301C-162.7 -299.301 -171.2 -318.001 -181.9 -334.701C-199.7 -362.501 -225.6 -381.301 -248.3 -399.201C-259.3 -407.801 -270.4 -415.701 -281.5 -422.801M-480.8 127.999C-475.2 141.299 -464.5 151.599 -450.1 160.999C-418.4 181.699 -370.6 193.699 -329.7 170.999C-309.9 159.899 -294.3 142.499 -276.7 128.099C-272.2 124.399 -267.5 120.999 -262.6 117.899C-236 101.099 -203.1 95.5992 -177 76.9992C-156 62.0992 -142 40.1992 -132.9 16.2992C-128.5 4.89919 -125.3 -6.80079 -122.9 -18.5008C-118.3 -40.8008 -115.9 -64.1008 -104.5 -84.1008C-90 -109.601 -63.7 -126.101 -39.6 -143.201C-21.4 -156.101 -3.70007 -169.901 13.2999 -184.501C21.3999 -191.401 29.3999 -198.601 34.9999 -207.501C49.5999 -230.601 45 -260.201 35.2 -285.201C25.4 -310.101 10.9 -333.201 -7.10001 -353.001C-37.1 -386.001 -80.6 -404.701 -119.4 -422.301C-138.2 -430.801 -157.4 -438.301 -176.7 -444.501M-480.8 127.999C-467.6 159.099 -449.6 188.199 -424.2 212.399C-378.7 255.699 -304.1 279.199 -243.3 255.099C-206.4 240.399 -179.3 210.899 -143.5 194.099C-104.2 175.699 -56.5 173.799 -19 152.599C25.4 127.499 47 79.8992 56.9 33.8992C62.9 5.59923 65.9 -24.1008 82.1 -49.1008C102.7 -80.8008 140.9 -99.4008 175.8 -118.801C202.3 -133.501 227.9 -149.501 252.5 -166.601C264.1 -174.701 275.7 -183.301 283.8 -194.301C304.8 -222.901 297.5 -261.201 282.3 -292.601C267.2 -324.001 245 -352.601 217.6 -376.501C171.9 -416.301 105.8 -434.801 46.2 -451.901C17.3 -460.301 -12.2 -467.201 -42.1 -472.301M-446 -388.701C-447.9 -380.201 -449.4 -371.501 -450.8 -362.801C-453.7 -344.301 -455.1 -325.401 -456.6 -305.701C-457.5 -294.001 -458.2 -282.001 -459.1 -269.901C-460 -257.901 -460.9 -245.501 -462.8 -233.501C-463.5 -228.901 -464.4 -224.401 -465.2 -219.801C-467 -210.301 -468.8 -200.701 -470.6 -191.301C-473.1 -178.801 -475.7 -166.401 -477.8 -153.501C-479.5 -143.301 -480.8 -133.001 -482.4 -122.801C-483.2 -117.401 -484.2 -112.001 -485.2 -106.601C-487.4 -95.4008 -490 -84.4008 -492.7 -73.7008C-496.1 -60.3008 -499.3 -47.5008 -500.6 -34.1008C-500.8 -31.6008 -501 -29.1008 -501.1 -26.6008C-501.5 -16.8008 -501.9 -6.8008 -502.4 2.8992C-503.5 22.7992 -504.8 41.1992 -501.7 58.0992C-497.4 81.8992 -490.2 105.599 -480.7 128.099M-431.1 -391.801C-431.8 -383.401 -432.2 -374.801 -432.4 -366.101C-432.9 -347.601 -431.9 -328.801 -431.6 -308.401C-431.4 -296.201 -431.3 -283.701 -431.6 -270.901C-431.9 -258.101 -432.5 -244.901 -435.1 -232.201C-436.1 -227.301 -437.4 -222.701 -438.6 -218.001C-441.2 -208.201 -443.9 -198.401 -446.7 -188.801C-450.4 -176.101 -454.3 -163.401 -457.1 -149.801C-459.3 -139.101 -460.7 -128.101 -462.5 -117.201C-463.4 -111.401 -464.5 -105.701 -465.7 -100.001C-468.2 -88.1008 -471.5 -76.5008 -475.2 -65.5008C-479.8 -51.8008 -484.7 -39.4008 -487.4 -25.8008C-487.9 -23.3008 -488.3 -20.8008 -488.7 -18.2008C-490.1 -8.20081 -491.3 2.29924 -492.9 12.0992C-496.2 32.1992 -500.7 48.9992 -499 63.6992C-496.4 85.7992 -489.6 107.499 -480.9 127.999M-480.9 127.999C-487.1 113.499 -490 97.5992 -490.4 80.8992C-486 72.7992 -474.1 60.7992 -464.2 40.1992C-459.4 30.1992 -455.6 18.4992 -451.3 7.69925C-450.2 4.89925 -449.1 2.19924 -447.8 -0.400757C-440.8 -14.6008 -431 -25.7008 -422.6 -40.3008C-415.9 -51.9008 -410.7 -65.4008 -407 -79.4008C-405.2 -86.1008 -403.8 -92.9008 -402.6 -99.7008C-400.3 -112.601 -398.7 -125.701 -394.9 -138.101C-390 -153.801 -382.2 -167.201 -374.9 -180.701C-369.4 -191.001 -364.1 -201.401 -358.9 -212.101C-356.5 -217.101 -354 -222.201 -352.2 -227.801C-347.4 -242.201 -347.7 -258.401 -349.2 -273.301C-350.7 -288.301 -353.4 -302.701 -356.7 -316.201C-362.3 -338.901 -370.7 -357.701 -377.2 -376.001C-380.3 -384.701 -383.4 -393.101 -386.2 -401.101M-480.9 127.999C-478.7 133.299 -472.5 136.999 -461.7 138.099C-439.4 152.299 -400.2 155.699 -368.2 133.599C-352.7 122.799 -340.5 106.999 -326.6 93.6992C-323 90.2992 -319.4 86.9992 -315.5 84.0992C-294.4 68.0992 -268.2 60.9992 -247.1 43.4992C-230.1 29.4992 -218.7 9.89923 -211.1 -11.1008C-207.5 -21.1008 -204.7 -31.4008 -202.7 -41.7008C-198.8 -61.3008 -196.6 -81.7008 -187.4 -99.5008C-175.7 -122.201 -154.7 -137.801 -135.4 -153.901C-120.8 -166.101 -106.6 -178.901 -93 -192.401C-86.6 -198.801 -80.1 -205.401 -75.6 -213.301C-63.8 -233.901 -67.2 -259.701 -74.6 -281.801C-82.1 -303.901 -93.2 -324.501 -107 -342.501C-130 -372.601 -163.5 -391.301 -193.1 -409.101C-207.4 -417.601 -222 -425.401 -236.6 -432.101M-480.9 127.999C-477.8 135.299 -470.8 140.899 -458.8 143.799C-434.7 160.299 -392.8 165.299 -358.6 142.999C-342 132.199 -328.9 115.999 -314.1 102.399C-310.3 98.9992 -306.4 95.6992 -302.3 92.6992C-279.8 76.4992 -251.9 69.7993 -229.6 51.9993C-211.7 37.7993 -199.6 17.5992 -191.6 -4.1008C-187.8 -14.5008 -184.9 -25.2008 -182.8 -35.8008C-178.7 -56.1007 -176.4 -77.2008 -166.7 -95.6008C-154.4 -119.001 -132 -134.901 -111.5 -151.201C-96 -163.601 -81 -176.601 -66.5 -190.401C-59.6 -196.901 -52.8 -203.601 -48 -211.801C-35.5 -233.001 -39.2 -259.801 -47.2 -282.601C-55.2 -305.401 -67.2 -326.601 -82 -345.101C-106.7 -376.001 -142.7 -394.701 -174.6 -412.401C-190.1 -420.901 -205.8 -428.601 -221.6 -435.201M-480.9 127.999C-474.4 143.299 -462.9 155.699 -447.3 166.699C-414.2 190.099 -363.3 203.299 -320.2 180.399C-299.3 169.299 -282.9 151.399 -264.2 136.799C-259.5 133.099 -254.6 129.599 -249.4 126.499C-221.3 109.499 -186.8 104.399 -159.4 85.4992C-137.4 70.2992 -122.8 47.7992 -113.3 23.1992C-108.7 11.4992 -105.4 -0.600769 -102.9 -12.6008C-98.2 -35.5008 -95.7 -59.5008 -83.8 -80.1008C-68.6 -106.301 -41 -123.101 -15.7 -140.401C3.49996 -153.601 22.1 -167.601 39.9 -182.501C48.3 -189.501 56.7 -196.901 62.6 -206.001C77.9 -229.701 73 -260.301 62.6 -286.001C52.2 -311.601 36.8 -335.301 17.8 -355.601C-13.9 -389.501 -60 -408.001 -101.1 -425.601C-121 -434.001 -141.3 -441.501 -161.8 -447.601M-416.1 -394.901C-415.6 -386.601 -414.8 -378.101 -414 -369.401C-412.2 -351.001 -408.7 -332.201 -406.7 -311.001C-405.5 -298.401 -404.5 -285.201 -404.2 -271.701C-403.9 -258.201 -404.2 -244.001 -407.5 -230.801C-408.8 -225.701 -410.4 -220.901 -412.1 -216.101C-415.6 -206.001 -419.1 -196.001 -422.8 -186.201C-427.7 -173.201 -432.9 -160.301 -436.4 -146.001C-439.2 -134.701 -440.6 -123.001 -442.5 -111.401C-443.5 -105.301 -444.7 -99.2008 -446.1 -93.1008C-449 -80.5008 -452.9 -68.3008 -457.6 -57.1008C-463.5 -43.1008 -470 -31.1008 -474.1 -17.4008C-474.9 -14.9008 -475.5 -12.3008 -476.1 -9.6008C-478.4 0.699201 -480.5 11.5992 -483.2 21.3992C-488.7 41.6992 -498.8 57.0992 -496 69.2992C-491.4 89.1992 -488.6 109.399 -480.7 127.899C-481.8 125.299 -479.4 121.099 -473 115.099C-457.9 120.399 -429.6 117.599 -406.4 96.0992C-395.2 85.6992 -386.3 71.4992 -376.3 59.1992C-373.8 55.9992 -371.1 52.9992 -368.3 50.1992C-352.9 34.9992 -333.2 26.1992 -317.2 9.8992C-304.4 -3.2008 -295.4 -20.3008 -289.4 -38.5008C-286.5 -47.2008 -284.3 -56.1008 -282.6 -65.0008C-279.4 -82.0008 -277.5 -99.5008 -270.4 -115.101C-261.5 -134.901 -245.7 -149.701 -231.2 -164.701C-220.2 -176.101 -209.6 -187.901 -199.4 -200.301C-194.6 -206.101 -189.8 -212.101 -186.3 -219.101C-177.3 -237.201 -179.4 -259.201 -184.5 -278.401C-189.6 -297.701 -197.3 -315.801 -206.9 -332.001C-222.9 -359.101 -246.3 -377.901 -266.7 -395.801C-276.5 -404.501 -286.5 -412.401 -296.4 -419.701M-401.2 -398.001C-399.5 -389.901 -397.6 -381.401 -395.6 -372.701C-391.4 -354.301 -385.5 -335.501 -381.7 -313.601C-379.4 -300.501 -377.6 -286.701 -376.7 -272.501C-375.8 -258.301 -375.8 -243.101 -379.8 -229.301C-381.4 -224.001 -383.4 -219.001 -385.4 -214.101C-389.7 -203.701 -394.2 -193.501 -398.8 -183.401C-404.9 -170.201 -411.4 -157.001 -415.6 -142.001C-418.9 -130.201 -420.4 -117.701 -422.5 -105.501C-423.6 -99.0008 -424.9 -92.6008 -426.5 -86.2008C-429.8 -72.9008 -434.3 -60.1008 -440.1 -48.6008C-447.3 -34.3008 -455.4 -22.7008 -460.9 -8.80078C-461.9 -6.20078 -462.8 -3.60076 -463.7 -0.900757C-467 9.69924 -469.9 20.8992 -473.7 30.8992C-481.4 51.2992 -495.8 64.8992 -493.2 75.1992C-488.7 93.1992 -487.8 111.499 -480.8 128.099M-480.8 128.099C-471.8 149.199 -457.9 167.999 -438.6 183.899C-400.9 214.899 -341 231.799 -291.3 208.399C-267.2 197.099 -248.3 177.899 -226.7 162.599C-221.2 158.699 -215.6 154.999 -209.6 151.799C-177.3 134.299 -137.9 130.399 -106.7 110.599C-81.7 94.6992 -65.2 70.3992 -54.5 43.6992C-49.4 30.9992 -45.6 17.8992 -42.9 4.79919C-37.7 -20.1008 -35 -46.3008 -21.5 -68.5008C-4.30003 -96.7008 27.3 -114.201 56.2 -132.301C78.1 -146.001 99.3 -160.801 119.7 -176.501C129.4 -184.001 139 -191.801 145.7 -201.601C163.1 -227.201 157.3 -260.701 145.1 -288.501C132.9 -316.201 115 -341.801 92.7999 -363.401C55.7999 -399.401 2.29998 -418.001 -45.8 -435.401C-69.1 -443.801 -92.9 -451.101 -116.9 -456.801M-480.8 128.099C-469.3 155.199 -453 180.199 -430 201.099C-387.7 239.499 -319 260.299 -262.6 236.499C-235.2 224.999 -213.7 204.599 -189.3 188.499C-183.1 184.399 -176.7 180.599 -170 177.299C-133.4 159.199 -89.1 156.599 -54.1 135.899C-26 119.299 -7.60005 93.0993 4.19995 64.2993C9.79995 50.5993 13.9 36.3992 16.9 22.2992C22.6 -4.70081 25.5 -33.0008 40.6 -56.9008C59.8 -87.3008 95.4 -105.401 127.9 -124.301C152.6 -138.601 176.4 -154.001 199.3 -170.601C210.2 -178.401 221 -186.701 228.5 -197.201C248.1 -224.601 241.4 -261.001 227.4 -291.001C213.5 -321.001 193 -348.301 167.6 -371.301C125.5 -409.501 64.4 -428.101 9.39996 -445.301C-17.2 -453.701 -44.5 -460.801 -72 -466.101M-371.2 -404.201C-367.2 -396.301 -362.9 -388.001 -358.7 -379.301C-349.9 -361.101 -339 -342.301 -331.7 -318.801C-327.3 -304.801 -323.8 -289.801 -321.7 -274.101C-319.6 -258.501 -319 -241.301 -324.5 -226.301C-326.6 -220.501 -329.4 -215.201 -332.3 -210.001C-338.3 -199.101 -344.5 -188.301 -350.9 -177.901C-359.4 -164.101 -368.6 -150.501 -374.1 -134.201C-378.5 -121.301 -380.1 -107.401 -382.5 -93.8008C-383.8 -86.7008 -385.3 -79.5008 -387.3 -72.4008C-391.4 -57.7008 -397.2 -43.6008 -404.9 -31.7008C-414.6 -16.8008 -426 -6.10077 -434.4 8.29922C-435.9 10.8992 -437.4 13.6992 -438.7 16.4992C-443.9 27.5992 -448.6 39.6992 -454.4 49.6992C-466.5 70.3992 -481.2 80.8992 -487.4 86.7992C-488.2 101.699 -486.1 115.599 -480.7 128.199M-341.3 -410.401C-334.9 -402.801 -328.4 -394.601 -321.9 -385.901C-308.5 -367.801 -292.6 -349.001 -281.8 -324.101C-275.3 -309.201 -270.2 -293.001 -266.9 -275.901C-263.6 -258.801 -262.4 -239.801 -269.3 -223.501C-271.9 -217.201 -275.6 -211.701 -279.2 -206.201C-286.9 -194.701 -294.9 -183.501 -303.1 -172.701C-314 -158.401 -325.8 -144.401 -332.7 -126.601C-338.1 -112.601 -339.9 -97.3008 -342.6 -82.3008C-344 -74.5008 -345.9 -66.6008 -348.2 -58.9008C-353.1 -42.8008 -360.1 -27.5008 -369.9 -15.2008C-382.1 0.299194 -396.8 10.1992 -408 24.8992C-410.1 27.5992 -412 30.4992 -413.8 33.3992C-420.9 44.9992 -427.3 57.8992 -435.3 68.0992C-451.8 89.0992 -471.9 96.5992 -481.7 97.8992C-484.7 109.199 -484.5 119.299 -480.8 127.899M-326.3 -413.501C-318.8 -406.001 -311.1 -397.901 -303.5 -389.201C-287.7 -371.201 -269.3 -352.401 -256.8 -326.701C-249.3 -311.401 -243.3 -294.501 -239.4 -276.701C-235.5 -259.001 -234 -238.901 -241.6 -222.001C-244.5 -215.501 -248.5 -209.801 -252.6 -204.201C-261.1 -192.401 -270 -181.001 -279.1 -170.001C-291.2 -155.501 -304.3 -141.201 -311.9 -122.701C-317.9 -108.201 -319.7 -92.1008 -322.6 -76.5008C-324.1 -68.3008 -326.1 -60.1008 -328.6 -52.1008C-333.8 -35.3008 -341.5 -19.4008 -352.3 -6.80078C-365.8 8.89922 -382.2 18.4992 -394.7 33.3992C-397 36.0992 -399.2 39.0992 -401.2 42.0992C-409.3 53.8992 -416.5 67.2992 -425.6 77.4992C-444.4 98.6992 -467.2 104.599 -478.7 103.699C-482.8 113.199 -483.5 121.299 -480.7 127.999M-480.7 127.999C-476 139.199 -466.2 147.299 -452.9 155.199C-422.8 173.099 -378 184.199 -339.3 161.599C-320.6 150.599 -305.8 133.599 -289.1 119.499C-284.9 115.899 -280.5 112.499 -275.8 109.499C-250.5 92.9993 -219.3 86.9992 -194.5 68.5992C-174.5 53.8992 -161.1 32.5992 -152.4 9.39923C-148.2 -1.60077 -145.1 -13.0008 -142.8 -24.3008C-138.4 -46.0008 -136 -68.5008 -125.2 -88.0008C-111.5 -112.701 -86.5 -129.101 -63.6 -145.901C-46.2 -158.601 -29.4 -172.201 -13.3 -186.501C-5.69999 -193.301 1.89999 -200.401 7.29999 -209.001C21.2 -231.501 16.9 -260.201 7.70001 -284.401C-1.49999 -308.601 -15.2 -331.001 -32.1 -350.401C-60.3 -382.701 -101.3 -401.401 -137.8 -419.001C-155.5 -427.501 -173.6 -435.001 -191.7 -441.401M-480.7 127.999C-472.6 147.199 -459.4 163.799 -441.4 178.099C-405.3 206.599 -348.4 222.199 -300.9 198.999C-277.9 187.699 -259.8 168.999 -239.4 153.999C-234.2 150.199 -228.8 146.599 -223.1 143.399C-192.2 126.099 -154.4 121.799 -124.5 102.299C-100.5 86.5992 -84.6 62.8992 -74.3 36.8992C-69.4 24.4992 -65.8 11.6992 -63.1 -1.00076C-58 -25.3008 -55.4 -50.7008 -42.4 -72.4008C-25.9 -99.9008 4.39997 -117.201 32.1 -135.001C53.2 -148.501 73.5 -163.101 93 -178.501C102.3 -185.801 111.5 -193.401 117.9 -203.001C134.6 -228.001 129.1 -260.501 117.5 -287.601C105.9 -314.701 88.8 -339.601 67.7 -360.801C32.5 -396.101 -18.6 -414.601 -64.3 -432.101C-86.4 -440.501 -109.1 -447.801 -131.9 -453.701M-311.4 -416.601C-302.7 -409.201 -293.8 -401.201 -285.1 -392.501C-267 -374.501 -246.1 -355.701 -231.8 -329.301C-223.3 -313.601 -216.4 -296.101 -212 -277.601C-207.5 -259.101 -205.7 -238.101 -214 -220.601C-217.2 -213.901 -221.6 -208.001 -226.1 -202.301C-235.5 -190.201 -245.2 -178.601 -255.3 -167.401C-268.6 -152.601 -283 -138.101 -291.3 -118.901C-297.7 -103.701 -299.6 -87.0008 -302.7 -70.7008C-304.3 -62.2008 -306.4 -53.6008 -309.1 -45.2008C-314.7 -27.7008 -323 -11.2008 -334.9 1.59924C-349.6 17.5992 -367.7 26.7992 -381.7 41.7992C-384.3 44.5992 -386.7 47.4992 -389 50.5992C-398.1 62.6992 -406.1 76.3992 -416.2 86.7992C-437.2 108.099 -462.7 112.499 -476.1 109.399C-481.3 117.199 -482.9 123.299 -480.9 127.899M-266.5 -425.901C-254.3 -418.901 -242 -411.101 -229.9 -402.501C-204.9 -384.701 -176.4 -365.901 -157 -337.301C-145.3 -320.201 -135.9 -300.801 -129.6 -280.201C-123.3 -259.601 -120.6 -235.701 -131 -216.301C-135 -208.801 -140.6 -202.501 -146.3 -196.401C-158.2 -183.501 -170.6 -171.101 -183.4 -159.301C-200.3 -143.801 -218.7 -128.601 -229 -107.301C-237.1 -90.6008 -239.2 -71.6008 -242.8 -53.3008C-244.7 -43.7008 -247.1 -34.1008 -250.4 -24.7008C-257.2 -5.10081 -267.4 13.1992 -282.3 26.7992C-300.8 43.6992 -323.8 51.5992 -342 67.2992C-345.4 70.1992 -348.5 73.2992 -351.5 76.5992C-363.4 89.3992 -374 104.399 -387.4 114.999C-415 136.799 -448.7 136.499 -467.4 126.699C-476 129.099 -480.3 129.399 -480.9 128.099C-476.9 137.399 -468.1 143.199 -455.9 149.599C-427.2 164.699 -385.5 174.799 -349 152.399C-331.3 141.499 -317.4 124.799 -301.6 110.999C-297.5 107.499 -293.4 104.099 -289 101.099C-265.1 84.7992 -235.6 78.4992 -212 60.3992C-193.1 45.8992 -180.3 25.0992 -172 2.69922C-168 -8.00078 -165 -19.0008 -162.8 -30.0008C-158.6 -50.9008 -156.3 -72.8008 -146 -91.7008C-133 -115.701 -109.3 -131.801 -87.6 -148.401C-71.1 -160.901 -55.2 -174.301 -39.9 -188.301C-32.7 -195.001 -25.5 -201.901 -20.4 -210.301C-7.20002 -232.201 -11.2 -259.901 -19.8 -283.401C-28.4 -307.001 -41.2 -328.801 -57.1 -347.701C-83.5 -379.301 -122 -398.001 -156.3 -415.701C-172.9 -424.201 -189.7 -431.801 -206.7 -438.301M-251.5 -429.001C-238.1 -422.101 -224.6 -414.301 -211.4 -405.801C-184.2 -388.001 -153.2 -369.201 -132 -339.901C-119.2 -322.301 -109 -302.401 -102.1 -281.001C-95.2 -259.601 -92.2 -234.801 -103.3 -214.801C-107.6 -207.101 -113.6 -200.601 -119.6 -194.401C-132.4 -181.201 -145.6 -168.601 -159.3 -156.601C-177.4 -140.801 -197.1 -125.401 -208.1 -103.401C-216.8 -86.1008 -218.9 -66.4008 -222.6 -47.5008C-224.6 -37.6008 -227.2 -27.6008 -230.6 -17.9008C-237.8 2.39924 -248.6 21.2992 -264.5 35.0992C-284.3 52.2992 -308.9 59.7992 -328.5 75.5992C-332.1 78.4992 -335.5 81.6992 -338.8 84.9992C-351.7 98.0992 -363.1 113.499 -377.5 124.099C-407.3 146.099 -443.8 144.199 -464.2 132.199C-473.9 132.899 -479.1 131.199 -480.5 127.799M-146.8 -450.601C-125.1 -444.601 -103.7 -437.201 -82.6 -428.801C-39.2 -411.301 9.39999 -392.701 42.8 -358.201C62.9 -337.501 79.1 -313.201 90.1 -286.801C101.1 -260.401 106.3 -228.801 90.3 -204.501C84.1 -195.201 75.3 -187.601 66.5 -180.501C47.8 -165.301 28.4 -151.101 8.29999 -137.701C-18.2 -120.101 -47.2 -103.101 -63 -76.2007C-75.4 -55.1007 -78 -30.4008 -82.9 -6.70081C-85.5 5.69919 -89 18.0992 -93.7 30.0992C-103.6 55.3992 -118.8 78.4992 -141.9 93.8992C-170.6 113.099 -206.7 117.799 -236.2 134.899C-241.6 138.099 -246.8 141.599 -251.8 145.399C-271.4 160.199 -288.7 178.499 -310.7 189.699C-356 212.799 -409.9 198.399 -444.5 172.399C-461.3 159.799 -473.6 145.199 -481 127.999M-101.9 -459.901C-76.7 -454.301 -51.8 -447.101 -27.4 -438.701C23 -421.401 79 -402.901 117.7 -366.101C140.9 -344.001 159.7 -317.901 172.5 -289.401C185.3 -260.901 191.4 -226.401 173.2 -200.201C166.2 -190.101 156.2 -182.201 146.2 -174.601C125 -158.601 102.9 -143.601 80.1 -129.701C50 -111.401 17.1 -93.6007 -0.800049 -64.7007C-14.8 -41.9007 -17.6 -15.1008 -23 10.5992C-25.8 23.9992 -29.7 37.4992 -34.9 50.4992C-46 77.8992 -63.1 102.799 -89.2 118.999C-121.6 139.099 -162.7 142.599 -196.4 160.199C-202.6 163.499 -208.5 167.199 -214.2 171.099C-236.7 186.699 -256.5 206.199 -281.7 217.599C-333.6 241.099 -396.5 222.999 -435.7 189.399C-456.2 171.899 -470.9 150.999 -480.8 127.799M-87 -463.001C-60.6 -457.501 -34.6 -450.401 -9.00003 -442.001C43.7 -424.701 102.3 -406.201 142.7 -368.601C167 -346.101 186.6 -319.301 200 -290.101C213.4 -260.801 219.8 -225.401 200.9 -198.601C193.6 -188.301 183.2 -180.201 172.8 -172.501C150.8 -156.201 127.8 -141.001 104 -126.901C72.7 -108.301 38.5 -90.3008 19.9 -60.7008C5.29996 -37.4008 2.49996 -9.80079 -3.10004 16.4992C-6.00004 30.2992 -10 44.0992 -15.4 57.4992C-26.8 85.5992 -44.6 111.199 -71.7 127.499C-105.4 147.899 -148.1 150.999 -183.3 168.799C-189.8 172.099 -195.9 175.799 -201.9 179.899C-225.4 195.699 -246 215.699 -272.3 227.199C-326.5 250.899 -392.3 231.399 -433 195.399C-454.7 176.199 -470.3 153.299 -481 128.099C-468.6 157.199 -451.5 184.299 -427.3 206.799C-383.4 247.599 -311.7 269.799 -253.1 245.799C-224.7 234.099 -202.4 213.399 -177 196.999C-170.5 192.799 -163.9 188.999 -156.9 185.599C-119 167.299 -72.9 165.099 -36.7 144.099C-7.50004 127.299 11.5 100.499 23.7 70.9993C29.5 57.0993 33.7 42.3992 36.8 27.9992C42.7 0.299236 45.6 -28.7008 61.3 -53.1008C81.2 -84.2008 118.1 -102.601 151.8 -121.701C177.4 -136.201 202.2 -151.901 225.9 -168.701C237.1 -176.601 248.3 -185.001 256.1 -195.801C276.4 -223.801 269.4 -261.101 254.8 -291.801C240.3 -322.501 219 -350.501 192.6 -373.901C148.7 -412.901 85.1 -431.401 27.8 -448.601C-1.14441e-05 -457.001 -28.4 -464.001 -57.1 -469.201M558.6 -472.301C549.5 -439.301 521.9 -413.301 501.3 -384.601C488.1 -366.201 477.7 -346.301 467.1 -326.601C429.9 -257.201 387.4 -185.901 315.9 -142.901C289.1 -126.701 257.1 -113.401 243.5 -87.2008C228.1 -57.5008 242.9 -21.7008 266.4 3.49921C294.1 33.0992 333.2 53.3992 374.8 64.4992C416.3 75.5992 460.2 78.0992 503.5 76.3992C548.8 74.4992 593.9 68.0992 637.6 57.1992C710.3 39.0992 779.6 8.69919 854.5 0.799194M567.8 -468.101C558.8 -436.201 532.1 -411.101 512.1 -383.401C499.3 -365.601 489.1 -346.401 478.8 -327.301C442.6 -260.301 401.3 -191.501 332.4 -149.501C306.3 -133.601 275.3 -120.101 262.2 -94.4008C261.3 -92.7008 260.5 -90.9008 259.9 -89.1008C249.2 -61.1008 263.3 -28.7008 285.2 -5.70081C312.3 22.9992 350.5 42.2993 390.8 52.7993C431 63.3993 473.6 65.6992 515.5 63.8992C559.4 61.9992 603 55.5992 645.3 44.9992C715.6 27.2992 782.7 -2.20081 855.1 -10.2008M577.1 -463.901C568.2 -433.201 542.4 -408.901 523.1 -382.201C510.7 -365.001 500.8 -346.501 490.8 -328.101C455.6 -263.401 415.5 -197.201 349.3 -156.201C323.9 -140.501 294 -127.001 281.4 -101.801C280.6 -100.101 279.8 -98.4008 279.2 -96.6008C268.9 -69.1008 282.9 -37.5008 304.5 -15.2008C331.1 12.3992 368.2 30.7992 407.4 40.8992C446.4 50.8992 487.5 52.9992 528 51.0992C570.4 49.0992 612.6 42.8992 653.5 32.4992C721.5 15.2992 786.4 -13.4008 856.3 -21.5008M586.3 -459.701C577.6 -430.201 552.6 -406.801 533.9 -381.001C521.9 -364.401 512.3 -346.601 502.6 -328.901C468.5 -266.601 429.5 -202.901 365.9 -163.001C341.2 -147.501 312.4 -133.901 300.3 -109.201C299.5 -107.501 298.8 -105.801 298.1 -104.101C288.3 -77.2008 302.1 -46.2008 323.3 -24.6008C349.4 1.9992 385.4 19.4992 423.5 28.9992C461.2 38.3992 500.9 40.3992 540.1 38.3992C581.1 36.3992 621.9 30.1992 661.4 20.0992C727.1 3.29921 789.7 -24.5008 857.1 -32.7008M595.5 -455.501C586.9 -427.101 562.8 -404.601 544.7 -379.801C533.1 -363.901 523.8 -346.701 514.3 -329.601C481.2 -269.601 443.4 -208.401 382.5 -169.601C358.5 -154.301 330.7 -140.701 319.2 -116.401C318.4 -114.801 317.7 -113.101 317.1 -111.401C307.7 -85.0008 321.4 -54.8008 342.3 -33.9008C367.8 -8.40076 402.9 8.29922 439.8 17.1992C476.2 25.9992 514.5 27.7992 552.3 25.7992C591.9 23.6992 631.2 17.5992 669.3 7.79919C732.7 -8.60081 793.1 -35.5008 858 -43.7008M604.8 -451.301C596.3 -424.101 573.1 -402.401 555.6 -378.601C544.3 -363.301 535.3 -346.801 526.2 -330.401C494.1 -272.801 457.6 -214.101 399.3 -176.401C376 -161.301 349.3 -147.601 338.3 -123.901C337.6 -122.301 336.9 -120.701 336.3 -119.001C327.4 -93.1008 340.8 -63.6008 361.5 -43.4008C386.5 -18.9008 420.5 -3.20081 456.3 5.29919C491.4 13.5992 528.3 15.1992 564.8 13.0992C602.9 10.8992 640.8 4.99923 677.5 -4.60077C738.5 -20.6008 796.7 -46.6008 859.2 -54.9008M614 -447.101C605.7 -421.101 583.3 -400.301 566.4 -377.401C555.5 -362.701 546.8 -346.901 538 -331.201C507 -275.901 471.6 -219.701 415.9 -183.101C393.3 -168.201 367.7 -154.501 357.2 -131.201C356.5 -129.601 355.9 -128.001 355.3 -126.401C346.8 -101.101 360.1 -72.3007 380.4 -52.7007C404.8 -29.2007 437.8 -14.4008 472.5 -6.50079C506.3 1.19921 541.9 2.59921 576.9 0.499207C613.6 -1.70079 650 -7.60076 685.3 -16.9008C744 -32.4008 800 -57.6008 859.9 -66.0008M623.3 -442.901C615.1 -418.001 593.6 -398.101 577.3 -376.201C566.8 -362.101 558.4 -347.001 549.8 -331.901C519.8 -279.001 485.6 -225.301 432.6 -189.701C410.7 -175.001 386.1 -161.201 376.2 -138.501C375.5 -137.001 374.9 -135.401 374.4 -133.801C366.4 -109.001 379.5 -81.0008 399.5 -62.1008C423.3 -39.6008 455.3 -25.7008 488.9 -18.4008C521.5 -11.3008 555.6 -10.0008 589.2 -12.2008C624.4 -14.5008 659.4 -20.3008 693.3 -29.3008C749.7 -44.4008 803.4 -68.7007 860.9 -77.2007M632.5 -438.701C624.4 -415.001 603.8 -396.001 588.1 -375.001C578 -361.601 569.8 -347.101 561.6 -332.701C532.6 -282.101 499.7 -230.901 449.2 -196.501C428 -182.001 404.5 -168.201 395.1 -145.901C394.5 -144.401 393.9 -142.901 393.4 -141.301C385.9 -117.101 398.7 -89.7008 418.5 -71.5008C441.7 -50.1008 472.7 -37.0008 505.1 -30.2008C536.4 -23.6008 569.1 -22.6008 601.4 -24.8008C635.2 -27.2008 668.8 -32.8008 701.3 -41.7008C755.4 -56.4008 806.9 -79.9008 861.8 -88.4008M641.7 -434.501C633.7 -411.901 614 -393.801 599 -373.801C589.3 -361.001 581.4 -347.201 573.5 -333.501C545.6 -285.301 513.8 -236.501 466 -203.201C445.5 -188.901 423.1 -175.001 414.1 -153.201C413.5 -151.701 413 -150.201 412.5 -148.701C405.4 -125.001 418.1 -98.4008 437.6 -80.9008C460.3 -60.5008 490.3 -48.3008 521.5 -42.1008C551.5 -36.1008 582.8 -35.2008 613.7 -37.5008C646.1 -39.9008 678.2 -45.5008 709.3 -54.1008C761 -68.4008 810.3 -91.0008 862.8 -99.6008M651 -430.301C643.2 -408.901 624.3 -391.601 609.9 -372.601C600.6 -360.401 593 -347.301 585.3 -334.201C558.4 -288.401 527.8 -242.101 482.6 -210.001C462.8 -195.901 441.4 -182.001 433 -160.701C432.4 -159.301 431.9 -157.801 431.5 -156.301C424.9 -133.101 437.3 -107.301 456.5 -90.4008C478.6 -71.0008 507.6 -59.8008 537.7 -54.1008C566.4 -48.7008 596.3 -48.0008 625.9 -50.4008C656.8 -52.9008 687.5 -58.4008 717.2 -66.7008C766.6 -80.5008 813.7 -102.301 863.6 -111.001M660.2 -426.101C652.5 -405.901 634.6 -389.501 620.7 -371.501C611.8 -359.901 604.5 -347.501 597.1 -335.101C571.2 -291.601 541.9 -247.701 499.3 -216.701C480.2 -202.801 459.9 -188.901 452 -168.001C451.5 -166.601 451 -165.201 450.6 -163.701C444.4 -141.101 456.7 -115.901 475.6 -99.7008C497.1 -81.3008 525.1 -71.0008 554.1 -65.8008C581.5 -60.9008 610 -60.4008 638.2 -62.9008C667.7 -65.5008 696.9 -70.8008 725.2 -78.9008C772.3 -92.3008 817.1 -113.201 864.6 -122.001M669.5 -421.901C661.9 -402.801 644.9 -387.301 631.6 -370.301C623.1 -359.301 616 -347.601 609 -335.901C584.1 -294.701 556 -253.201 516 -223.401C497.6 -209.701 478.4 -195.701 471 -175.401C470.5 -174.001 470.1 -172.601 469.7 -171.201C464 -149.101 476 -124.701 494.7 -109.201C515.6 -91.8008 542.6 -82.4008 570.5 -77.8008C596.6 -73.5008 623.8 -73.2008 650.6 -75.7008C678.6 -78.3008 706.4 -83.6008 733.4 -91.4008C778.2 -104.401 820.8 -124.401 865.7 -133.301M678.7 -417.701C671.3 -399.801 655.1 -385.101 642.4 -369.101C634.3 -358.801 627.5 -347.701 620.7 -336.601C596.9 -297.801 570 -258.701 532.6 -230.101C514.9 -216.601 496.7 -202.601 489.9 -182.701C489.4 -181.401 489 -180.001 488.7 -178.701C483.4 -157.101 495.3 -133.401 513.6 -118.601C533.9 -102.201 559.9 -93.7008 586.7 -89.7008C611.5 -85.9008 637.3 -85.8008 662.7 -88.4008C689.3 -91.1008 715.7 -96.3008 741.2 -103.801C783.6 -116.401 824 -135.501 866.5 -144.501M687.9 -413.501C680.6 -396.801 665.3 -383.001 653.2 -367.901C645.5 -358.201 639 -347.801 632.5 -337.401C609.7 -300.901 584.1 -264.201 549.2 -236.801C532.3 -223.501 515.1 -209.401 508.8 -190.001C508.4 -188.701 508 -187.401 507.7 -186.101C502.9 -165.101 514.5 -142.101 532.6 -128.001C552.3 -112.601 577.3 -105.001 603 -101.501C626.5 -98.3008 650.9 -98.4008 674.9 -101.001C700.1 -103.801 725 -108.801 749.1 -116.101C789.2 -128.201 827.4 -146.501 867.3 -155.601M697.2 -409.401C690 -393.801 675.6 -380.901 664.1 -366.801C656.7 -357.701 650.6 -348.001 644.4 -338.301C622.7 -304.101 598.3 -269.801 566 -243.601C549.8 -230.501 533.7 -216.401 527.9 -197.501C527.5 -196.201 527.2 -194.901 526.9 -193.701C522.5 -173.201 533.9 -150.901 551.8 -137.501C570.9 -123.101 594.9 -116.401 619.4 -113.501C641.6 -110.801 664.6 -111.101 687.3 -113.801C711 -116.601 734.5 -121.601 757.2 -128.601C795 -140.301 830.9 -157.701 868.4 -166.901M706.4 -405.201C699.4 -390.801 685.8 -378.801 675 -365.601C668 -357.101 662.1 -348.101 656.2 -339.101C635.5 -307.301 612.5 -275.301 582.7 -250.401C567.2 -237.401 552.1 -223.301 546.8 -204.901C546.4 -203.701 546.1 -202.401 545.9 -201.201C542 -181.301 553.2 -159.701 570.7 -146.901C589.2 -133.501 612.3 -127.701 635.6 -125.401C656.5 -123.301 678.1 -123.801 699.4 -126.501C721.7 -129.401 743.7 -134.301 765 -141.001C800.5 -152.301 834.2 -168.801 869.1 -178.101M715.7 -401.001C708.8 -387.801 696.1 -376.601 685.9 -364.401C679.3 -356.601 673.7 -348.201 668.1 -339.801C648.4 -310.301 626.6 -280.701 599.3 -257.001C584.5 -244.201 570.5 -230.101 565.7 -212.101C565.4 -210.901 565.1 -209.701 564.9 -208.501C561.5 -189.101 572.4 -168.201 589.7 -156.201C607.5 -143.801 629.7 -138.901 651.9 -137.101C671.5 -135.501 691.8 -136.201 711.7 -139.001C732.5 -141.901 753.1 -146.701 773.1 -153.201C806.3 -164.001 837.7 -179.701 870.2 -189.101M724.9 -396.801C718.1 -384.701 706.3 -374.401 696.7 -363.201C690.5 -356.001 685.2 -348.301 679.9 -340.601C661.3 -313.501 640.9 -286.101 616.1 -263.801C602 -251.001 589 -237.001 584.7 -219.501C584.4 -218.301 584.2 -217.101 584 -216.001C581 -197.101 591.7 -176.901 608.8 -165.601C626 -154.201 647.2 -150.201 668.3 -149.001C686.6 -148.001 705.5 -148.901 724 -151.801C743.4 -154.801 762.5 -159.501 781.1 -165.701C811.9 -176.101 841.2 -191.001 871.2 -200.401M734.2 -392.601C727.5 -381.701 716.6 -372.301 707.6 -362.001C701.8 -355.401 696.7 -348.401 691.7 -341.401C674.1 -316.601 655 -291.601 632.7 -270.501C619.4 -257.901 607.4 -243.901 603.7 -226.901C603.4 -225.801 603.2 -224.601 603.1 -223.501C600.6 -205.201 611 -185.701 627.9 -175.101C644.5 -164.701 664.7 -161.601 684.7 -161.001C701.7 -160.501 719.2 -161.601 736.4 -164.601C754.4 -167.701 772.1 -172.201 789.2 -178.301C817.7 -188.301 844.7 -202.301 872.2 -211.801M743.4 -388.401C736.9 -378.701 726.8 -370.101 718.4 -360.801C713 -354.801 708.2 -348.501 703.5 -342.101C686.9 -319.701 669.3 -296.901 649.4 -277.101C636.9 -264.701 625.9 -250.601 622.7 -234.201C622.5 -233.101 622.3 -232.001 622.2 -230.901C620.1 -213.101 630.3 -194.301 646.9 -184.401C662.8 -174.901 682.1 -172.801 701 -172.701C716.7 -172.701 732.8 -174.101 748.6 -177.101C765.1 -180.201 781.4 -184.701 797.1 -190.501C823.3 -200.101 848.1 -213.201 873.1 -222.801M752.6 -384.201C746.2 -375.601 737 -368.001 729.2 -359.601C724.2 -354.301 719.7 -348.601 715.3 -342.901C699.7 -322.801 683.5 -302.201 666 -283.901C654.3 -271.601 644.3 -257.601 641.6 -241.601C641.4 -240.501 641.3 -239.401 641.2 -238.401C639.6 -221.201 649.5 -203.001 665.9 -193.901C681.2 -185.401 699.5 -184.101 717.3 -184.701C731.7 -185.201 746.4 -186.801 760.8 -189.901C775.9 -193.101 790.7 -197.501 805.1 -203.001C829 -212.101 851.5 -224.401 874 -234.001M761.9 -380.001C755.6 -372.601 747.3 -365.801 740.1 -358.401C735.5 -353.701 731.3 -348.701 727.1 -343.701C712.6 -326.001 697.8 -307.601 682.7 -290.601C671.8 -278.301 662.7 -264.501 660.6 -248.901C660.5 -247.901 660.3 -246.801 660.3 -245.801C659.1 -229.101 668.8 -211.601 685 -203.201C699.6 -195.601 717 -195.201 733.6 -196.501C746.7 -197.501 760.1 -199.401 773.1 -202.501C786.7 -205.801 800.1 -210.001 813.1 -215.301C834.6 -224.001 855 -235.401 875 -245.101M771.1 -375.801C765 -369.601 757.6 -363.601 751 -357.301C746.8 -353.201 742.8 -348.901 739 -344.501C725.5 -329.101 712.2 -312.901 699.4 -297.301C689.4 -285.101 681.2 -271.301 679.6 -256.301C679.5 -255.301 679.4 -254.301 679.4 -253.301C678.7 -237.101 688.1 -220.201 704 -212.601C718 -206.001 734.4 -206.401 749.9 -208.301C761.7 -209.701 773.7 -211.901 785.3 -215.101C797.5 -218.401 809.4 -222.601 821 -227.601C840.2 -235.901 858.3 -246.401 875.8 -256.201M780.4 -371.601C774.4 -366.501 767.9 -361.501 761.9 -356.101C758 -352.601 754.4 -349.001 750.9 -345.301C738.4 -332.301 726.8 -318.201 716.2 -304.101C707.1 -291.901 699.8 -278.301 698.6 -263.701C698.5 -262.701 698.5 -261.701 698.5 -260.801C698.2 -245.201 707.3 -228.901 723.1 -222.101C736.4 -216.401 751.9 -217.701 766.3 -220.301C776.9 -222.201 787.4 -224.701 797.7 -227.901C808.5 -231.301 819 -235.401 829.1 -240.101C846 -248.001 861.9 -257.601 876.9 -267.501M789.6 -367.401C766.7 -352.101 747.2 -332.801 732.8 -310.801C724.2 -297.801 717.3 -283.301 717.5 -268.201C717.7 -253.101 726.5 -237.401 742.1 -231.401C754.8 -226.601 769.3 -228.801 782.6 -232.101C817.8 -240.901 850.6 -256.901 877.8 -278.701M458.2 -336.901C439.4 -298.701 417.7 -261.701 393.2 -226.101C385.3 -214.601 377 -203.201 366.9 -193.201C337.6 -163.901 295.2 -147.901 261.3 -122.801C239.9 -107.001 217.7 -86.0008 190 -88.8008C182.8 -89.5008 174.2 -94.8008 176.9 -100.801C177.9 -103.001 180.2 -104.501 182.4 -105.801C219.8 -128.101 266.4 -141.501 291.3 -174.801C306.1 -194.701 311 -219.301 309.9 -243.201C308.8 -267.001 302.2 -290.301 295.6 -313.401C292.6 -323.901 289.4 -334.901 281.4 -343.101M317.3 -317.401C323.1 -285.101 325.3 -252.401 324 -219.701C323.6 -210.701 323 -201.501 325.4 -192.701C325.9 -190.801 326.6 -188.801 328.1 -187.401C333.2 -182.501 342.4 -186.401 348.1 -190.701C393.7 -225.301 420.1 -279.001 417.6 -332.301M-347.7 345.999C-295 297.499 -209.3 264.099 -141.3 234.299C-69.1001 202.599 12.9 180.599 64.7 125.699C99 89.3992 116.2 42.1992 149.7 5.29922C166.3 -13.0008 187.9 -31.6008 186.4 -55.0008C186.1 -60.3008 184.3 -65.8008 180.1 -69.7008C174 -75.4008 163.8 -76.3008 155.4 -73.8008C147 -71.3008 140.2 -65.9008 134.1 -60.1008C100 -27.8008 85 16.3992 68 58.0992C51 99.7992 28.7 143.099 -13.6 166.599C-48.2 185.799 -91.1 188.899 -127.8 204.599C-152.8 215.199 -174.2 231.299 -197.6 244.499C-244.7 271.299 -300.4 286.499 -356.6 287.799M633.5 457.299C563.2 464.499 495.1 488.199 437.9 525.199C415.6 539.599 394.7 556.199 370.5 567.999C347.4 579.299 321.9 585.999 297.7 595.299C267.9 606.899 240.2 622.399 213.3 638.799C181 658.399 149.6 679.199 119.2 701.099C96.3 717.599 73.8999 734.799 55.7999 755.499C36.2999 777.799 22.3 803.599 10.1 829.699C-16.8 887.299 -35.4 954.699 -3.90002 1010.5M629.7 443.499C584.4 452.699 539.4 463.199 494.8 475.099C449.7 487.199 404.6 500.799 364.5 522.799C337.3 537.699 312.9 556.299 287.7 573.799C233.6 611.299 175.6 644.199 121.6 681.799C67.6 719.399 17.1 762.699 -16.6 815.799C-50.3 868.899 -65.9 933.199 -47.9 992.099M639.4 434.099C583 442.799 526.5 451.599 469.3 453.499C441.6 454.399 413.6 453.699 386.5 448.499C351.5 441.699 318.9 427.499 287.7 411.699C233.4 384.299 182.4 351.899 135.5 315.299C90.3 279.899 45.2 238.799 -14 229.299C-63 221.499 -112.7 237.099 -158.6 254.299C-228.8 280.599 -296.3 324.299 -362 358.799M489.6 98.8992C394.4 94.7992 306.4 54.5992 213.9 34.3992C195.3 30.2992 175 27.1992 157.5 34.0992C146.6 38.3992 137.9 46.1992 130 54.1992C100.5 83.8992 76.6 120.799 77.2 160.499C77.7 196.699 98.5 230.199 122.5 259.299C179.9 328.799 260.1 383.399 351.1 413.199C442.1 442.999 543.4 447.599 636.9 424.999C740.5 399.899 833.7 340.899 892.2 260.699C915.7 228.399 933.9 191.999 936.4 153.599C938.8 115.199 923.6 74.6992 890 50.4992C837.5 12.7992 773.5 40.8992 718.5 57.8992C644.9 80.5992 568.4 102.299 489.6 98.8992ZM638.1 418.799C695 405.199 748.9 381.099 795 348.499C829.3 324.199 859.5 295.299 883.7 262.599C906.4 231.799 924.2 196.999 926.8 160.299C929.5 123.599 915.3 84.5992 883.2 61.2992C833.5 25.0992 772.5 51.7992 719.9 67.7992C649.9 89.2992 576.9 109.899 501.8 106.799C411.1 103.099 327.2 65.1992 239.1 46.1992C221.3 42.3992 202 39.3992 185.3 45.9992C174.9 50.0992 166.6 57.4992 159 65.0992C130.6 93.2992 107.6 128.499 107.8 166.199C108 200.699 127.2 232.699 150 260.599C204 326.899 280.3 378.799 366.7 407.199C453.1 435.699 549.3 439.999 638.1 418.799ZM639.4 412.699C693.9 399.899 745.6 377.299 789.9 346.299C822.7 323.299 851.8 295.799 875.3 264.599C897.3 235.299 914.5 202.099 917.3 167.099C920.2 131.999 907 94.6992 876.5 72.2992C829.5 37.6992 771.5 62.7992 721.5 77.8992C655 98.1992 585.6 117.699 514.1 114.899C427.8 111.499 348 75.8992 264.4 58.0992C247.5 54.4992 229.2 51.7992 213.3 57.9992C203.4 61.8992 195.5 68.8992 188.3 76.0992C161.2 102.999 138.9 136.199 138.6 172.099C138.4 204.799 156.2 235.399 177.6 262.099C228.3 325.099 300.5 374.399 382.3 401.499C464.1 428.499 555.1 432.399 639.4 412.699ZM640.6 406.599C692.6 394.699 742.3 373.499 784.8 344.099C816.2 322.399 844.2 296.199 866.9 266.599C888.1 238.799 904.8 207.199 907.8 173.899C910.9 140.399 898.8 104.799 869.9 83.1992C825.7 50.1992 770.7 73.6992 723.2 87.8992C660.1 106.899 594.3 125.399 526.5 122.899C444.7 119.899 368.9 86.5992 289.7 69.9992C273.7 66.6992 256.3 64.0992 241.3 69.9992C231.9 73.6992 224.4 80.2992 217.6 87.0992C191.5 112.599 170 143.999 169.4 177.999C168.8 208.999 185.1 238.199 205.2 263.599C252.5 323.399 320.8 369.899 398 395.699C475.1 421.299 561 424.799 640.6 406.599ZM641.8 400.399C691.4 389.299 738.9 369.599 779.6 341.799C809.5 321.399 836.5 296.599 858.4 268.499C878.8 242.099 895 212.199 898.2 180.599C901.5 148.799 890.5 114.799 863.1 93.9992C821.6 62.5992 769.6 84.5992 724.6 97.7992C665 115.599 602.8 132.999 538.7 130.799C461.3 128.099 389.7 96.9992 314.9 81.6992C299.8 78.5992 283.3 76.2992 269.1 81.8992C260.2 85.3992 253.1 91.6992 246.6 97.9992C221.8 121.999 201.1 151.599 200.1 183.699C199.1 212.999 213.9 240.699 232.8 264.899C276.8 321.399 341.1 365.299 413.7 389.699C486.1 414.099 566.8 417.299 641.8 400.399ZM643 394.299C690.2 383.999 735.5 365.699 774.4 339.599C802.8 320.499 828.8 297.099 849.9 270.599C869.6 245.699 885.2 217.399 888.7 187.499C892.2 157.299 882.3 124.999 856.4 105.099C817.7 75.1992 768.6 95.5992 726.2 107.999C670.1 124.399 611.4 140.899 551 138.999C478.1 136.699 410.5 107.799 340.2 93.7992C325.9 90.9992 310.4 88.8992 297.1 94.0992C288.7 97.3992 282 103.299 275.9 109.199C252.3 131.799 232.3 159.499 230.9 189.699C229.5 217.299 242.9 243.499 260.4 266.499C301 319.799 361.3 360.999 429.4 384.099C497.1 406.799 572.7 409.699 643 394.299ZM644.3 388.199C689 378.699 732.3 361.899 769.3 337.399C796.3 319.599 821.1 297.599 841.5 272.599C860.5 249.199 875.5 222.499 879.2 194.299C882.9 165.799 874.1 135.099 849.8 115.999C813.8 87.6992 767.7 106.499 727.8 117.999C675.2 133.199 620.1 148.599 563.3 146.999C494.8 144.999 431.3 118.399 365.5 105.699C352.1 103.099 337.6 101.199 325 106.099C317.1 109.199 310.8 114.699 305.1 120.199C282.7 141.399 263.5 167.299 261.7 195.599C259.9 221.499 271.8 246.199 288 267.899C325.3 317.899 381.6 356.499 445.1 378.199C508.1 399.599 578.5 402.199 644.3 388.199ZM645.5 382.099C687.8 373.399 728.9 357.999 764.1 335.199C789.6 318.699 813.4 298.099 833 274.599C851.2 252.699 865.7 227.699 869.6 201.099C873.5 174.199 865.7 145.199 843 126.999C809.7 100.299 766.7 117.499 729.3 128.099C680.1 141.999 628.6 156.399 575.5 154.999C511.5 153.399 452.1 128.999 390.6 117.499C378.1 115.099 364.5 113.499 352.8 117.999C345.4 120.899 339.6 125.999 334.1 131.099C312.9 150.899 294.5 174.899 292.2 201.299C290.1 225.499 300.5 248.799 315.3 269.199C349.3 315.899 401.5 351.999 460.4 372.299C519 392.499 584.4 394.699 645.5 382.099ZM646.7 375.999C686.6 368.099 725.5 354.199 758.9 332.999C783 317.699 805.7 298.599 824.5 276.599C842 256.199 855.9 232.799 860 207.899C864.2 182.699 857.4 155.299 836.2 137.899C805.6 112.799 765.6 128.499 730.8 138.099C685.1 150.799 637.2 164.099 587.8 162.999C528.2 161.699 472.9 139.699 415.9 129.399C404.2 127.299 391.6 125.799 380.8 129.999C373.9 132.699 368.5 137.399 363.4 142.099C343.3 160.499 325.8 182.699 323.1 207.199C320.6 229.699 329.5 251.499 343.1 270.699C373.7 314.099 421.9 347.599 476.3 366.499C530 385.299 590.3 387.199 646.7 375.999ZM647.9 369.899C685.3 362.799 722.1 350.399 753.7 330.799C776.3 316.799 797.9 299.099 816 278.599C832.7 259.699 846.1 237.899 850.4 214.699C854.8 191.099 849.1 165.399 829.5 148.799C801.7 125.299 764.6 139.399 732.3 148.099C690.1 159.499 645.7 171.799 600 170.999C544.9 170.099 493.6 150.299 441.1 141.199C430.3 139.299 418.7 138.099 408.6 141.999C402.2 144.499 397.2 148.799 392.4 153.099C373.5 170.099 356.7 190.399 353.6 212.999C350.8 233.799 358.1 254.099 370.4 272.099C397.7 312.199 441.9 343.099 491.7 360.699C541 378.199 596.2 379.699 647.9 369.899ZM649.2 363.799C684.2 357.499 718.9 346.499 748.7 328.599C769.8 315.899 790.4 299.599 807.7 280.699C823.6 263.199 836.6 243.099 841.1 221.599C845.7 199.599 841.1 175.599 823 159.899C797.9 138.099 763.9 150.499 734.1 158.299C695.4 168.499 654.6 179.699 612.5 179.199C561.9 178.599 514.7 161.099 466.6 153.299C456.6 151.699 446 150.599 436.8 154.199C430.9 156.499 426.3 160.399 421.9 164.299C404 179.699 388 198.199 384.5 218.999C381.3 238.099 387.2 256.899 398.1 273.699C422.1 310.499 462.2 338.799 507.5 354.999C552 370.999 602.1 372.199 649.2 363.799ZM650.4 357.699C683 352.299 715.5 342.699 743.5 326.399C763.2 314.999 782.7 300.099 799.2 282.699C814.4 266.699 826.8 248.199 831.5 228.399C836.3 208.099 832.8 185.699 816.2 170.799C793.8 150.599 762.8 161.399 735.5 168.299C700.3 177.199 663 187.299 624.6 187.199C578.4 186.899 535.3 171.699 491.6 165.199C482.5 163.799 472.8 162.999 464.4 166.199C459 168.299 454.8 171.899 450.8 175.299C434.2 189.399 419.1 206.099 415.1 224.999C411.5 242.299 415.9 259.699 425.5 275.299C446.2 308.799 482.3 334.499 523 349.399C563 363.799 608 364.699 650.4 357.699ZM651.6 351.499C681.8 346.899 712.1 338.699 738.3 324.099C756.5 313.999 774.9 300.499 790.7 284.599C805.1 270.099 817 253.199 821.9 235.099C826.9 216.399 824.4 195.699 809.5 181.699C789.8 163.099 761.8 172.299 737.1 178.299C705.4 185.999 671.7 194.999 636.9 195.199C595.2 195.299 556.1 182.399 516.9 176.999C508.7 175.899 499.9 175.199 492.4 178.099C487.5 179.999 483.7 183.199 480 186.199C464.6 198.899 450.2 213.699 445.9 230.699C441.9 246.299 444.8 262.199 453.2 276.599C470.6 306.699 502.6 329.899 538.7 343.399C574 356.599 613.9 357.299 651.6 351.499ZM652.8 345.399C680.6 341.599 708.7 334.899 733.1 321.899C749.8 312.999 767.2 300.899 782.2 286.599C795.8 273.599 807.2 258.299 812.3 241.899C817.6 224.899 816.1 205.899 802.7 192.599C785.7 175.699 760.8 183.299 738.5 188.299C710.3 194.699 680.1 202.699 649.1 203.099C611.8 203.499 576.8 192.899 542.1 188.799C534.7 187.899 527 187.499 520.3 189.999C515.9 191.699 512.5 194.499 509.2 197.099C495 208.399 481.4 221.399 476.7 236.499C472.3 250.399 473.8 264.699 480.8 277.899C495 304.599 522.9 325.299 554.4 337.499C585 349.399 619.8 349.899 652.8 345.399ZM654 339.299C679.5 336.399 705.3 330.999 727.9 319.699C743.1 312.099 759.4 301.399 773.7 288.599C786.6 276.999 797.5 263.399 802.7 248.699C808.2 233.299 807.8 215.999 795.9 203.499C781.5 188.299 759.7 194.199 740 198.299C715.3 203.499 688.7 210.399 661.3 211.099C628.5 211.899 597.5 203.499 567.3 200.699C560.8 200.099 554 199.799 548.1 202.099C544.2 203.599 541.2 205.999 538.2 208.199C525.1 218.099 512.3 229.199 507.2 242.399C502.5 254.599 502.4 267.399 508.1 279.399C519.1 302.699 542.8 320.899 569.8 331.699C596 342.199 625.8 342.599 654 339.299ZM655.3 333.199C678.4 331.199 702 327.199 722.8 317.499C736.5 311.099 751.8 301.899 765.3 290.599C777.4 280.499 787.8 268.499 793.3 255.499C799 241.799 799.6 226.199 789.4 214.499C777.7 200.999 759 205.199 741.8 208.399C720.6 212.299 697.5 218.199 673.8 219.199C645.4 220.299 618.5 214.299 592.8 212.599C587.2 212.199 581.3 212.199 576.3 214.099C572.9 215.399 570.2 217.399 567.7 219.199C555.7 227.599 543.8 236.999 538.3 248.299C533.2 258.799 531.7 269.999 536.1 280.899C544 300.599 563.5 316.499 585.9 325.899C607 334.899 631.8 335.299 655.3 333.199ZM656.5 327.099C677.3 325.999 698.6 323.299 717.6 315.299C729.8 310.199 744 302.399 756.8 292.699C768.1 284.099 778.1 273.699 783.7 262.399C789.7 250.299 791.2 236.499 782.6 225.499C773.5 213.799 757.9 216.299 743.2 218.499C725.5 221.199 705.9 225.999 685.9 227.299C662 228.799 639.1 225.099 617.8 224.599C613 224.499 608.2 224.599 603.9 226.199C601 227.299 598.7 228.899 596.6 230.299C585.7 237.299 574.6 244.799 568.7 254.199C563.2 262.999 560.3 272.499 563.3 282.399C568.2 298.499 583.3 311.999 601.2 320.199C618 327.699 637.8 328.099 656.5 327.099ZM657.7 320.999C676.2 320.899 695.2 319.399 712.5 313.099C723.2 309.199 736.4 302.899 748.4 294.699C758.9 287.599 768.4 278.799 774.2 269.199C780.5 258.799 782.9 246.799 775.9 236.399C769.3 226.499 757 227.199 744.8 228.499C730.6 229.999 714.6 233.699 698.3 235.299C678.8 237.099 660 235.799 643.2 236.399C639.3 236.499 635.4 236.899 632 238.099C629.6 238.999 627.7 240.199 625.9 241.199C616.1 246.699 605.9 252.499 599.6 259.999C593.7 267.099 589.5 274.899 591 283.799C593.2 296.199 603.7 307.499 617 314.299C629 320.499 643.8 321.099 657.7 320.999ZM658.9 314.899C675.1 316.099 691.7 315.399 707.3 310.899C716.5 308.199 728.6 303.299 739.9 296.699C749.6 290.999 758.7 283.899 764.6 275.899C771.1 267.099 774.3 256.999 769.2 247.299C765 239.299 756 238.199 746.3 238.499C735.6 238.899 723.1 241.399 710.5 243.299C695.5 245.499 680.7 246.599 668.4 248.299C665.3 248.699 662.4 249.299 659.9 250.099C658 250.699 656.5 251.599 655.1 252.199C646.3 256.099 637 260.199 630.3 265.799C624 271.199 616.6 277.499 618.5 285.199C620.7 293.699 623.8 302.899 632.5 308.499C640 313.199 649.8 314.199 658.9 314.899ZM684.2 263.199C668.9 267.399 651.5 273.199 646.1 286.699C643.9 291.999 644.2 298.399 648.2 302.699C651.1 305.899 655.7 307.599 660.1 308.799C673.7 312.299 688.3 311.399 702.1 308.699C723.7 304.499 771.2 284.999 762.5 258.299C755 235.099 698.9 259.199 684.2 263.199ZM441.8 1059.4C467 1051.9 491.3 1041.9 514.5 1030.2C601 986.699 672.1 919.299 715.5 839.799C758.9 760.299 774.4 668.899 759.4 581.499C753.4 546.399 739.7 508.499 705.3 490.599C686.1 480.599 663 478.299 640.8 479.099C613.6 480.099 586.6 485.399 561.5 494.599C497.7 518.099 448.9 565.499 388.5 595.199C357.1 610.699 322.9 621.199 290.3 634.599C168.7 684.599 69.7 776.699 19.2 887.099C12.9 900.799 7.29998 915.199 8.59998 929.899C9.89998 944.699 18.1999 958.199 27.4999 970.599C94.2999 1059.1 213.4 1094 328 1077.6C366.5 1072.2 404.1 1070.7 441.8 1059.4ZM304.1 646.499C188.6 694.999 94.7999 782.399 47.2 887.399C41.3 900.399 35.9999 914.099 37.2999 928.099C38.5999 942.199 46.5999 955.099 55.4999 966.799C119.5 1051 233.3 1084 342.9 1068.2C379.8 1062.9 415.7 1061.4 451.7 1050.6C475.8 1043.4 499 1033.8 521.2 1022.6C603.8 980.899 671.8 916.499 713.3 840.499C754.9 764.399 770 676.399 755.5 592.799C749.6 559.199 736.4 523.099 703.3 506.099C684.8 496.699 662.6 494.599 641.2 495.499C615 496.599 589 501.699 564.8 510.699C503.4 533.499 456.3 579.099 398.2 607.999C385.2 614.499 371.7 620.099 358.1 625.399C339.9 632.499 321.7 639.099 304.1 646.499ZM317.9 658.399C208.5 705.499 119.9 788.199 75.2 887.799C69.7 900.099 64.6999 913.199 65.9999 926.399C67.2999 939.699 74.8999 951.999 83.4999 963.099C144.8 1043 253.3 1074.2 357.7 1058.9C392.9 1053.8 427.1 1052.3 461.4 1041.9C484.4 1035 506.5 1025.8 527.6 1015.1C606.4 975.299 671.2 913.799 710.9 841.299C750.7 768.599 765.5 683.999 751.3 604.199C745.6 572.099 732.8 537.699 700.9 521.699C683.1 512.799 661.7 510.899 641.1 511.899C615.9 512.999 590.9 518.099 567.7 526.799C508.6 548.799 463.2 592.699 407.6 620.699C395.1 626.999 382.2 632.399 369.1 637.599C352 644.599 334.7 651.199 317.9 658.399ZM331.8 670.199C228.6 715.799 145.1 793.799 103.3 888.099C98.0999 899.799 93.4999 912.099 94.7999 924.699C96.0999 937.299 103.4 948.899 111.5 959.399C170 1034.9 273.3 1064.3 372.6 1049.6C406.1 1044.6 438.7 1043.1 471.3 1033.3C493.2 1026.7 514.2 1017.9 534.3 1007.7C609.3 969.699 671 911.199 708.8 842.199C746.8 772.899 761.2 691.799 747.5 615.699C742 585.099 729.6 552.499 698.9 537.399C681.7 529.099 661.2 527.399 641.5 528.399C617.3 529.599 593.4 534.599 571 542.999C514.3 564.299 470.6 606.399 417.3 633.599C405.3 639.699 393 644.999 380.5 650.099C364.1 656.599 347.6 663.199 331.8 670.199ZM345.6 681.999C248.5 726.099 170.2 799.399 131.3 888.299C126.5 899.299 122.2 910.899 123.5 922.799C124.8 934.699 131.8 945.599 139.5 955.499C195.2 1026.7 293.2 1054.3 387.5 1040.2C419.3 1035.4 450.2 1033.9 481.1 1024.5C501.9 1018.2 521.8 1009.8 540.9 1000.2C612.1 964.099 670.6 908.499 706.6 842.999C742.8 777.099 756.8 699.399 743.6 626.999C738.3 597.899 726.3 566.899 696.9 552.899C680.4 545.099 660.7 543.599 641.8 544.699C618.6 545.999 595.7 550.799 574.2 558.899C519.8 579.499 477.9 619.799 427 646.099C415.6 651.999 403.8 657.199 391.9 662.099C376.1 668.699 360.6 675.199 345.6 681.999ZM359.5 693.799C268.5 736.399 195.4 804.999 159.5 888.599C155 898.899 151 909.899 152.4 920.999C153.7 932.199 160.3 942.399 167.7 951.699C220.7 1018.6 313.4 1044.3 402.6 1030.8C432.7 1026.2 461.9 1024.7 491.2 1015.7C510.8 1009.7 529.7 1001.8 547.8 992.599C615.1 958.299 670.5 905.699 704.6 843.699C739 781.199 752.6 706.899 739.8 638.299C734.6 610.699 723.1 581.499 694.9 568.499C679.1 561.199 660.3 559.999 642.2 561.099C620 562.499 598.1 567.199 577.6 574.999C525.6 594.899 485.4 633.399 436.8 658.899C425.9 664.599 414.7 669.599 403.3 674.499C388.2 680.799 373.5 687.199 359.5 693.799ZM373.3 705.699C288.5 746.799 220.5 810.699 187.5 888.899C183.4 898.599 179.7 908.799 181 919.199C182.3 929.699 188.6 939.299 195.6 947.999C245.8 1010.5 333.3 1034.4 417.4 1021.5C445.8 1017.1 473.3 1015.6 500.9 1007.1C519.4 1001.4 537.2 993.899 554.2 985.199C617.7 952.799 670 903.099 702.2 844.599C734.8 785.599 748 714.599 735.7 649.799C730.7 623.699 719.6 596.199 692.7 584.199C677.6 577.499 659.6 576.399 642.3 577.599C621.1 578.999 600.2 583.599 580.6 591.199C530.9 610.299 492.4 647.099 446.2 671.699C435.8 677.199 425.2 682.099 414.4 686.799C400.3 692.799 386.5 699.299 373.3 705.699ZM387.1 717.499C308.4 757.099 245.6 816.299 215.5 889.199C211.8 898.199 208.4 907.799 209.7 917.499C211 927.299 217 936.199 223.6 944.299C271 1002.5 353.2 1024.6 432.2 1012.2C458.8 1008 484.7 1006.5 510.7 998.399C528.1 992.999 544.8 985.899 560.8 977.699C620.5 947.099 669.6 900.399 700 845.399C730.8 789.799 743.6 722.199 731.7 661.199C726.9 636.599 716.2 610.799 690.5 599.799C676 593.599 658.9 592.799 642.5 593.999C622.4 595.499 602.4 599.999 583.8 607.199C536.5 625.599 499.7 660.599 455.9 684.299C446.1 689.599 436 694.399 425.8 698.899C412.3 704.899 399.4 711.299 387.1 717.499ZM401 729.299C328.5 767.399 270.8 821.899 243.6 889.399C240.2 897.799 237.2 906.599 238.5 915.599C239.8 924.599 245.4 932.899 251.7 940.399C296.3 994.299 373.3 1014.5 447.2 1002.7C472.1 998.699 496.4 997.199 520.6 989.499C536.9 984.399 552.5 977.699 567.5 969.999C623.3 941.199 669.4 897.499 697.9 845.999C726.9 793.799 739.3 729.599 727.9 672.399C723.3 649.299 713.1 625.199 688.6 615.199C674.8 609.599 658.5 608.899 642.9 610.199C623.8 611.799 604.8 616.199 587.1 623.099C542.2 640.799 507.1 673.999 465.6 696.899C456.3 701.999 446.7 706.599 437.1 711.099C424.4 716.999 412.4 723.299 401 729.299ZM414.8 741.099C348.4 777.699 295.9 827.499 271.7 889.699C268.7 897.399 266 905.499 267.3 913.799C268.6 922.099 273.9 929.699 279.7 936.599C321.6 986.099 393.3 1004.6 462.1 993.299C485.3 989.499 507.9 987.899 530.5 980.799C545.7 975.999 560.2 969.699 574.2 962.499C626.2 935.599 669.1 894.799 695.7 846.799C722.9 797.999 735 737.199 724 683.699C719.5 662.099 709.8 639.699 686.5 630.699C673.4 625.599 658 625.199 643.2 626.499C625.1 628.199 607.1 632.399 590.3 639.099C547.7 655.999 514.3 687.499 475.3 709.499C466.5 714.399 457.5 718.899 448.5 723.199C436.5 729.099 425.4 735.299 414.8 741.099ZM428.7 752.899C368.5 787.899 321.1 833.199 299.8 889.899C297.1 896.899 294.8 904.399 296.1 911.899C297.4 919.499 302.3 926.399 307.8 932.699C346.9 977.899 413.3 994.499 477.1 983.799C498.6 980.199 519.5 978.599 540.4 971.899C554.4 967.399 567.9 961.599 580.8 954.799C629 929.699 668.7 891.899 693.5 847.399C719 801.999 730.6 744.699 720 694.899C715.7 674.799 706.4 654.199 684.3 646.099C671.8 641.499 657.3 641.299 643.3 642.699C626.2 644.399 609.2 648.599 593.4 654.999C553.2 671.199 521.5 700.899 484.8 722.099C476.6 726.899 468.1 731.199 459.7 735.299C448.5 741.099 438.3 747.299 428.7 752.899ZM442.5 764.799C388.5 798.199 346.4 838.899 327.8 890.299C325.5 896.699 323.5 903.399 324.8 910.199C326.1 917.099 330.7 923.399 335.8 928.999C372.1 969.899 433.3 984.699 491.9 974.499C511.7 971.099 530.9 969.499 550.1 963.299C563 959.099 575.4 953.699 587.3 947.499C631.6 924.299 668.3 889.399 691.2 848.399C714.9 806.399 726.1 752.499 716 706.499C711.9 687.899 703 668.999 682.2 661.899C670.4 657.899 656.7 657.899 643.6 659.299C627.5 661.099 611.6 665.099 596.6 671.199C558.7 686.699 528.8 714.599 494.4 734.899C486.7 739.499 478.8 743.599 470.9 747.699C460.6 753.199 451.3 759.299 442.5 764.799ZM456.4 776.599C408.6 808.299 371.6 844.499 355.9 890.599C354 896.299 352.3 902.299 353.5 908.499C354.8 914.699 359.1 920.299 363.8 925.399C397.5 961.899 453.3 974.899 506.8 965.299C524.9 962.099 542.4 960.499 560 954.699C571.8 950.799 583.1 945.799 594 940.099C634.5 918.699 668 886.799 689 849.299C710.9 810.699 721.7 760.199 712.1 717.999C708.2 700.899 699.6 683.699 680.1 677.599C669 674.099 656.1 674.299 643.8 675.799C628.7 677.699 613.8 681.599 599.8 687.399C564.3 702.099 536 728.299 504.1 747.799C496.9 752.199 489.6 756.199 482.3 760.099C472.7 765.299 464.3 771.299 456.4 776.599ZM470.2 788.399C428.6 818.399 396.7 850.099 383.9 890.799C382.3 895.799 380.9 901.199 382.2 906.599C383.5 911.999 387.4 916.999 391.8 921.499C422.7 953.699 473.2 964.799 521.7 955.799C538.1 952.799 554 951.199 569.8 945.799C580.5 942.199 590.7 937.599 600.6 932.399C637.3 912.899 667.6 883.899 686.8 849.999C706.9 814.899 717.3 767.699 708.1 729.299C704.3 713.699 696.2 698.199 678 693.199C667.5 690.299 655.6 690.699 644.1 692.199C630 694.199 616.1 697.999 603 703.499C569.8 717.499 543.3 741.899 513.7 760.499C507.1 764.699 500.3 768.599 493.6 772.399C484.7 777.399 477.3 783.299 470.2 788.399ZM484.1 800.199C448.7 828.299 421.9 855.699 412.1 891.099C410.9 895.499 409.8 900.099 411.1 904.799C412.4 909.499 416 913.799 419.9 917.699C448 945.499 493.3 954.899 536.7 946.399C551.3 943.599 565.6 941.999 579.8 937.099C589.3 933.799 598.5 929.599 607.3 924.899C640.1 907.199 667.3 881.099 684.7 850.799C702.9 818.999 713 775.299 704.3 740.599C700.7 726.499 693 712.799 676 708.699C666.2 706.299 655.1 706.899 644.4 708.599C631.3 710.599 618.4 714.299 606.3 719.499C575.5 732.799 550.7 755.399 523.5 773.199C517.4 777.199 511.2 780.899 505 784.599C496.8 789.399 490.2 795.299 484.1 800.199ZM497.9 811.999C468.6 838.199 447 861.399 440.1 891.299C439.2 894.999 438.5 898.899 439.8 902.899C441.1 906.899 444.4 910.499 447.9 913.799C473.3 937.299 513.2 944.799 551.6 936.999C564.5 934.299 577.1 932.799 589.6 928.299C598 925.299 606.1 921.599 613.9 917.299C642.9 901.499 666.9 878.299 682.5 851.499C698.9 823.099 708.7 782.799 700.4 751.899C697 739.299 689.7 727.299 674 724.199C664.9 722.399 654.6 723.199 644.8 724.899C632.7 726.999 620.8 730.599 609.6 735.499C581.2 747.999 558.1 768.899 533.2 785.799C527.6 789.599 522 793.199 516.4 796.699C508.9 801.499 503.2 807.299 497.9 811.999ZM511.8 823.899C488.6 847.999 472.2 867.099 468.2 891.699C467.7 894.799 467.3 897.999 468.6 901.299C469.9 904.599 472.8 907.599 476 910.199C498.6 929.299 533.3 935.099 566.5 927.799C577.7 925.299 588.6 923.699 599.5 919.799C606.8 917.099 613.9 913.799 620.6 909.999C645.8 895.999 666.7 875.799 680.3 852.499C694.9 827.599 704.3 790.599 696.4 763.499C693.2 752.399 686.3 742.199 671.8 739.999C663.3 738.699 654 739.699 644.9 741.499C633.8 743.699 622.9 747.099 612.6 751.799C586.5 763.599 565.1 782.699 542.7 798.699C537.7 802.299 532.6 805.699 527.6 809.199C520.9 813.599 516.2 819.199 511.8 823.899ZM525.6 835.699C508.4 857.399 497.3 872.699 496.2 891.899C496.1 894.299 496 896.799 497.3 899.399C498.6 901.999 501.2 904.299 504 906.299C523.8 921.099 553.3 924.999 581.4 918.299C590.9 915.999 600.1 914.399 609.3 910.899C615.5 908.499 621.5 905.599 627.2 902.399C648.5 890.299 666.3 872.999 678.1 853.199C690.9 831.699 699.9 798.199 692.5 774.799C689.4 765.199 683 756.699 669.8 755.499C662 754.799 653.5 755.899 645.3 757.799C635.2 759.999 625.3 763.399 616 767.799C592.3 778.899 572.6 796.199 552.5 811.399C548 814.799 543.5 818.099 539 821.399C533 825.599 529.2 831.099 525.6 835.699ZM539.4 847.499C524.3 864.599 522.5 878.199 524.3 892.199C524.5 893.899 524.8 895.799 526 897.599C527.3 899.499 529.6 901.099 532 902.599C549.1 913.099 573.2 915.099 596.3 908.999C604.1 906.899 611.7 905.299 619.2 902.199C624.3 900.099 629.2 897.599 633.8 894.899C651.3 884.599 665.9 870.299 675.9 853.999C686.9 835.899 695.5 805.799 688.5 786.199C685.6 778.099 679.6 771.399 667.6 771.099C660.4 770.999 652.8 772.299 645.4 774.199C636.3 776.499 627.4 779.799 619 783.799C597.6 794.099 579.7 809.699 561.9 823.999C557.9 827.199 554 830.399 550.1 833.599C545.1 837.699 541.2 842.599 539.4 847.499ZM553.3 859.299C547.1 875.699 547.7 883.799 552.4 892.399C553 893.499 553.6 894.599 554.8 895.699C556.1 896.799 558 897.799 560 898.699C574.3 904.799 593.2 905.099 611.2 899.499C617.3 897.599 623.2 895.999 629 893.399C632.9 891.599 636.8 889.499 640.4 887.299C654.1 878.899 665.6 867.499 673.6 854.699C682.8 839.999 691 813.299 684.5 797.399C681.8 790.799 676.2 785.799 665.4 786.499C658.9 786.899 652.1 788.399 645.5 790.399C637.4 792.799 629.6 795.899 622.1 799.699C603.1 809.299 586.8 823.099 571.5 836.599C568.1 839.599 564.7 842.599 561.4 845.699C557.1 849.799 555 854.799 553.3 859.299ZM567.1 871.099C562.1 884.099 572.6 889.399 580.4 892.699C581.3 893.099 582.2 893.499 583.5 893.899C584.8 894.299 586.4 894.599 588 894.899C599.4 896.699 613.2 895.099 626.1 890.099C630.5 888.399 634.7 886.799 638.8 884.599C641.6 883.099 644.4 881.499 647 879.699C656.8 873.099 665.2 864.699 671.4 855.399C678.8 844.099 686.6 820.799 680.6 808.699C678.1 803.599 672.9 800.399 663.4 801.999C657.6 802.999 651.7 804.699 645.9 806.699C638.8 809.199 632 812.199 625.4 815.699C608.7 824.599 594.2 836.599 581.2 849.199C578.3 851.999 575.5 854.899 572.7 857.799C569.2 861.899 568.8 866.799 567.1 871.099ZM661.4 817.699C630.3 827.299 602.8 845.999 584.2 870.199C581.3 873.899 580 878.499 581 882.999C583.6 894.599 597.7 895.199 608.5 893.099C632.4 888.299 655.9 874.799 669.3 856.299C677.5 845.099 688.9 809.199 661.4 817.699ZM-76.1 912.199C-75.4 882.799 -73.1 853.199 -63.8 824.999C-43.6 763.599 8.09996 713.999 65.4 675.399C122.7 636.799 187 606.999 245.7 569.999C271.2 553.899 296.4 535.699 311.1 511.099C315.4 503.899 318.8 496.099 318.5 487.899C317.4 462.299 283.4 450.299 256.1 442.199C170.5 416.799 93.3 369.199 36.6 306.799C18.4 286.799 1.4 264.699 -24 252.499C-68.1 231.399 -122.6 246.799 -167.9 265.899C-253.4 301.799 -334 351.299 -387.9 420.399C-464.8 518.899 -479.3 645.099 -480.7 764.999C-481.4 822.299 -479.4 880.599 -459.7 935.199C-451.1 958.999 -438.9 982.199 -419.7 1000.4C-399.1 1020 -371.5 1032.7 -343 1041.6C-279.1 1061.6 -208.2 1062.6 -143.2 1046C-123 1040.9 -68.3 1029.1 -62.9 1008.8C-60.1 998.299 -72.3 975.899 -73.9 963.999C-76.3 946.899 -76.5 929.499 -76.1 912.199ZM-35.8 265.899C-78.5 245.599 -131 260.399 -174.8 278.799C-257.4 313.499 -335.3 361.399 -387.4 428.099C-405.6 451.399 -420.2 476.399 -431.8 502.399C-467.7 582.699 -475.9 673.599 -476.9 761.099C-477.5 816.499 -475.6 872.799 -456.5 925.599C-448.2 948.599 -436.4 970.999 -417.9 988.599C-398 1007.5 -371.3 1019.9 -343.8 1028.5C-282 1047.8 -213.5 1048.8 -150.7 1032.9C-131.2 1027.9 -78.3 1016.7 -73.1 996.999C-70.4 986.799 -82.2 965.199 -83.6 953.799C-85.8 937.199 -85.9 920.499 -85.5 903.799C-84.8 875.399 -82.5 846.799 -73.5 819.499C-57.7 771.699 -22.2 731.199 19.9 697.699C30.1 689.599 40.6 681.999 51.3 674.699C106.7 637.399 168.6 608.499 225.1 572.699C249.7 557.099 273.9 539.499 288.2 515.799C292.3 508.899 295.6 501.299 295.3 493.399C294.7 480.699 285.9 471.499 273.8 464.399C262.3 457.699 247.9 452.999 234.9 449.099C152.1 424.499 77.5 378.499 22.6 318.199C5.29998 298.999 -11.2 277.599 -35.8 265.899ZM-47.6 279.299C-88.8 259.699 -139.5 273.999 -181.7 291.799C-261.4 325.299 -336.5 371.499 -386.8 435.799C-404.4 458.299 -418.4 482.399 -429.7 507.499C-464.3 584.999 -472.2 672.799 -473.1 757.199C-473.7 810.699 -471.8 864.999 -453.3 915.899C-445.3 938.099 -433.9 959.699 -416 976.699C-396.7 994.999 -371 1006.9 -344.4 1015.2C-284.7 1033.9 -218.6 1034.9 -157.9 1019.5C-139.1 1014.7 -88 1003.9 -82.9 984.899C-80.2 975.099 -91.6 954.199 -93 943.199C-95.1 927.199 -95.1 911.099 -94.7 894.999C-94 867.599 -91.7 839.999 -83 813.699C-67.7 767.599 -33.4 728.499 7.20001 696.099C17 688.299 27.1 680.899 37.5 673.899C90.8 637.799 150.5 609.999 204.9 575.299C228.6 560.199 251.9 543.199 265.6 520.299C269.6 513.599 272.7 506.299 272.4 498.699C271.8 486.499 263.3 477.499 251.6 470.699C240.5 464.199 226.5 459.599 214.1 455.899C134.2 432.099 62.1 387.699 9 329.499C-7.9 311.199 -23.8 290.599 -47.6 279.299ZM-59.4 292.699C-99.1 273.799 -147.9 287.599 -188.6 304.699C-265.3 336.999 -337.7 381.399 -386.2 443.499C-403.1 465.199 -416.7 488.399 -427.5 512.699C-460.9 587.399 -468.4 671.999 -469.2 753.399C-469.7 804.899 -467.8 857.299 -450 906.399C-442.3 927.799 -431.3 948.599 -414 964.999C-395.4 982.599 -370.6 994.099 -345 1002.2C-287.5 1020.2 -223.7 1021.3 -165.1 1006.5C-146.9 1001.9 -97.7 991.499 -92.7 973.199C-90.1 963.799 -101 943.699 -102.3 933.099C-104.3 917.699 -104.3 902.099 -103.9 886.699C-103.1 860.399 -100.9 833.799 -92.5 808.399C-77.7 763.899 -44.6 726.299 -5.50003 694.999C3.89997 687.499 13.7 680.299 23.6 673.599C74.9 638.799 132.2 611.899 184.5 578.499C207.3 563.999 229.7 547.599 242.8 525.499C246.6 519.099 249.7 511.999 249.3 504.699C248.7 492.899 240.5 484.299 229.2 477.699C218.5 471.399 205 466.999 193 463.399C115.9 440.399 46.4 397.599 -4.80002 341.499C-21.1 323.499 -36.4 303.599 -59.4 292.699ZM-71.2 306.099C-109.4 287.899 -156.4 301.199 -195.5 317.599C-269.3 348.699 -339 391.499 -385.6 451.199C-401.9 472.099 -414.9 494.399 -425.3 517.799C-457.4 589.699 -464.6 671.199 -465.3 749.599C-465.7 799.199 -463.9 849.599 -446.8 896.899C-439.3 917.499 -428.7 937.499 -412.1 953.299C-394.2 970.299 -370.3 981.399 -345.6 989.099C-290.2 1006.5 -228.8 1007.5 -172.4 993.299C-154.9 988.899 -107.5 978.899 -102.7 961.399C-100.2 952.299 -110.6 932.999 -111.9 922.799C-113.7 907.999 -113.8 892.999 -113.3 878.199C-112.5 852.899 -110.3 827.299 -102.2 802.899C-87.8 760.099 -56 723.899 -18.4 693.699C-9.30002 686.499 -2.47955e-05 679.599 9.59998 673.099C58.9 639.599 113.9 613.599 164.1 581.399C186 567.399 207.5 551.599 220.1 530.399C223.8 524.199 226.7 517.399 226.3 510.399C225.7 498.999 217.8 490.799 206.9 484.399C196.6 478.399 183.6 474.099 172.1 470.599C98 448.299 31 406.999 -18.4 352.999C-34.2 335.799 -49 316.599 -71.2 306.099ZM-82.9 319.599C-119.6 302.199 -164.7 314.899 -202.3 330.699C-273.3 360.399 -340.2 401.499 -385 458.899C-400.7 478.999 -413.2 500.499 -423.2 522.899C-454 592.099 -460.9 670.299 -461.5 745.699C-461.9 793.399 -460.1 841.799 -443.6 887.199C-436.4 906.999 -426.2 926.299 -410.3 941.399C-393.1 957.699 -370.1 968.399 -346.4 975.899C-293.1 992.699 -234 993.699 -179.8 980.099C-162.9 975.899 -117.4 966.299 -112.7 949.499C-110.3 940.799 -120.3 922.299 -121.4 912.499C-123.1 898.299 -123.1 883.899 -122.6 869.699C-121.8 845.399 -119.6 820.799 -111.7 797.399C-97.8 756.299 -67.2 721.399 -31.1 692.299C-22.4 685.299 -13.4 678.699 -4.20004 672.399C43.1 640.099 95.8 615.099 143.9 584.199C164.8 570.699 185.4 555.599 197.5 535.099C201 529.099 203.8 522.599 203.4 515.799C202.8 504.899 195.2 496.899 184.8 490.799C174.9 484.999 162.4 480.899 151.3 477.499C79.9 456.099 15.5 416.399 -32 364.499C-47.4 347.999 -61.7 329.599 -82.9 319.599ZM-94.7 332.999C-129.9 316.299 -173.2 328.499 -209.2 343.599C-277.3 372.099 -341.4 411.599 -384.3 466.499C-399.3 485.799 -411.3 506.399 -420.9 527.899C-450.4 594.299 -457 669.399 -457.5 741.699C-457.8 787.499 -456.1 833.899 -440.2 877.499C-433.3 896.499 -423.5 914.999 -408.2 929.499C-391.7 945.199 -369.6 955.399 -346.8 962.599C-295.6 978.699 -238.9 979.699 -186.8 966.799C-170.6 962.799 -126.9 953.599 -122.4 937.499C-120 929.199 -129.6 911.399 -130.7 902.099C-132.3 888.499 -132.3 874.699 -131.8 860.999C-131 837.699 -128.8 814.199 -121.2 791.699C-107.8 752.299 -78.4 718.799 -43.9 690.799C-35.6 684.099 -27 677.699 -18.2 671.699C27.1 640.699 77.4 616.699 123.4 586.899C143.4 573.999 163.1 559.399 174.6 539.799C177.9 534.099 180.6 527.799 180.3 521.299C179.7 510.799 172.4 503.199 162.4 497.299C152.9 491.699 140.9 487.799 130.2 484.599C61.7 463.999 -0.199993 425.899 -45.9 376.099C-60.5 360.299 -74.3 342.699 -94.7 332.999ZM-106.5 346.399C-140.2 330.399 -181.6 342.099 -216.1 356.599C-281.2 383.899 -342.7 421.599 -383.8 474.299C-398.2 492.799 -409.7 512.499 -418.8 533.199C-447 596.799 -453.3 668.799 -453.7 737.999C-454 781.799 -452.3 826.399 -437 867.999C-430.4 886.199 -421 903.899 -406.3 917.799C-390.4 932.799 -369.3 942.699 -347.4 949.599C-298.4 965.099 -244 966.099 -194.1 953.699C-178.5 949.899 -136.7 941.099 -132.3 925.699C-130 917.799 -139.1 900.799 -140.1 891.799C-141.6 878.799 -141.5 865.599 -141 852.499C-140.1 830.199 -138 807.699 -130.7 786.199C-117.8 748.499 -89.6 716.299 -56.6 689.499C-48.7 683.099 -40.4 676.999 -32 671.199C11.2 641.499 59.3 618.399 103.2 589.899C122.3 577.499 141.1 563.499 152.1 544.699C155.3 539.199 157.8 533.199 157.5 526.999C156.9 516.999 149.9 509.599 140.3 503.999C131.2 498.599 119.7 494.799 109.5 491.799C43.8 471.999 -15.5 435.399 -59.4 387.799C-73.7 372.499 -86.9 355.699 -106.5 346.399ZM-118.3 359.899C-150.5 344.699 -190.1 355.799 -223.1 369.599C-285.3 395.599 -344 431.699 -383.2 481.999C-397 499.699 -407.9 518.599 -416.6 538.299C-443.5 599.099 -449.4 667.899 -449.8 734.099C-450 775.999 -448.3 818.599 -433.7 858.399C-427.3 875.699 -418.4 892.699 -404.3 905.999C-389.1 920.399 -368.9 929.799 -348 936.399C-301.1 951.199 -249.1 952.199 -201.3 940.499C-186.4 936.899 -146.4 928.499 -142.2 913.799C-140 906.199 -148.6 889.999 -149.6 881.499C-151 869.099 -150.9 856.499 -150.4 843.999C-149.5 822.699 -147.4 801.199 -140.4 780.699C-128 744.699 -101 713.899 -69.5 688.099C-61.9 681.899 -54.1 676.099 -46.1 670.499C-4.90001 641.999 40.9 619.899 82.6 592.599C100.8 580.699 118.7 567.399 129.1 549.399C132.1 544.199 134.5 538.399 134.2 532.499C133.6 522.899 126.9 515.899 117.7 510.499C108.9 505.399 98 501.699 88.2 498.799C25.4 479.799 -31.4 444.799 -73.4 399.299C-86.9 384.799 -99.5 368.699 -118.3 359.899ZM-130 373.299C-160.7 358.799 -198.4 369.399 -229.9 382.499C-289.3 407.399 -345.2 441.699 -382.6 489.599C-395.7 506.499 -406.2 524.499 -414.5 543.299C-440.1 601.299 -445.7 666.999 -446 730.099C-446.2 770.099 -444.5 810.699 -430.6 848.699C-424.5 865.199 -415.9 881.399 -402.5 894.099C-388 907.799 -368.7 916.799 -348.7 923.199C-303.9 937.399 -254.3 938.299 -208.6 927.299C-194.3 923.799 -156.2 915.899 -152.1 901.999C-150 894.799 -158.2 879.399 -159 871.199C-160.3 859.399 -160.2 847.399 -159.6 835.499C-158.7 815.199 -156.7 794.699 -149.9 775.199C-138 740.799 -112.2 711.399 -82.2 686.799C-75 680.899 -67.5 675.299 -59.9 669.999C-20.8 642.699 22.7 621.699 62.4 595.599C79.7 584.299 96.5999 571.499 106.5 554.399C109.4 549.399 111.6 543.899 111.3 538.199C110.8 528.999 104.3 522.399 95.4999 517.199C87.0999 512.299 76.6999 508.799 67.2999 505.999C7.29993 487.799 -46.8 454.399 -87.1 410.999C-100 396.999 -112.1 381.699 -130 373.299ZM-141.8 386.699C-171 372.999 -206.9 382.999 -236.8 395.499C-293.2 419.099 -346.5 451.699 -382 497.299C-394.5 513.399 -404.4 530.499 -412.3 548.499C-436.6 603.799 -441.9 666.199 -442.1 726.299C-442.2 764.299 -440.6 802.999 -427.3 839.099C-421.5 854.799 -413.3 870.199 -400.6 882.299C-386.8 895.399 -368.4 903.999 -349.4 909.999C-306.7 923.499 -259.5 924.499 -216 913.999C-202.4 910.699 -166.1 903.199 -162.1 889.999C-160 883.199 -167.8 868.499 -168.6 860.799C-169.8 849.599 -169.6 838.199 -169.1 826.899C-168.2 807.599 -166.2 788.199 -159.6 769.599C-148.1 736.899 -123.6 708.899 -95.1 685.399C-88.3 679.799 -81.2 674.399 -74 669.399C-36.9 643.399 4.29999 623.299 41.8 598.399C58.1 587.599 74.2 575.399 83.5 559.099C86.2 554.299 88.3 549.099 88 543.699C87.5 534.999 81.3 528.599 73 523.699C65 518.999 55.1 515.699 46.2 512.999C-10.9 495.599 -62.5 463.699 -101 422.499C-113.2 409.299 -124.8 394.699 -141.8 386.699ZM-153.6 400.099C-181.3 387.099 -215.3 396.599 -243.7 408.399C-297.2 430.799 -347.7 461.799 -381.4 504.999C-393.3 520.199 -402.6 536.599 -410.1 553.599C-433.2 606.099 -438.1 665.399 -438.2 722.399C-438.3 758.499 -436.7 795.199 -424 829.499C-418.5 844.399 -410.7 858.999 -398.6 870.499C-385.5 882.899 -368 891.099 -349.9 896.799C-309.4 909.699 -264.5 910.599 -223.1 900.799C-210.1 897.699 -175.7 890.599 -171.9 878.099C-169.9 871.599 -177.2 857.799 -177.9 850.499C-178.9 839.899 -178.8 829.099 -178.2 818.399C-177.2 800.199 -175.3 781.699 -169 764.099C-158 733.099 -134.8 706.499 -107.8 683.999C-101.3 678.599 -94.6 673.499 -87.8 668.699C-52.7 643.899 -13.8 624.799 21.6 601.199C37 590.899 52.2 579.399 61 563.899C63.5 559.399 65.5 554.399 65.2 549.299C64.7 540.999 58.8 534.999 50.9 530.299C43.3 525.799 33.9 522.699 25.4 520.099C-28.9 503.499 -77.9 473.199 -114.5 433.999C-126.3 421.599 -137.4 407.799 -153.6 400.099ZM-165.4 413.599C-191.6 401.299 -223.8 410.299 -250.6 421.499C-301.2 442.599 -349 471.799 -380.8 512.699C-392 527.099 -400.9 542.599 -408 558.699C-429.8 608.399 -434.4 664.499 -434.5 718.499C-434.5 752.699 -433 787.399 -420.9 819.799C-415.7 833.899 -408.3 847.799 -396.8 858.599C-384.3 870.399 -367.8 878.099 -350.7 883.599C-312.3 895.899 -269.8 896.799 -230.5 887.499C-218.2 884.599 -185.6 877.899 -181.9 866.099C-180 859.999 -186.8 846.899 -187.5 839.999C-188.4 829.999 -188.2 819.799 -187.6 809.699C-186.6 792.499 -184.7 774.999 -178.7 758.299C-168.2 728.999 -146.2 703.699 -120.7 682.399C-114.6 677.299 -108.3 672.499 -101.9 667.899C-68.9 644.399 -32.2 626.199 1 603.799C15.5 594.099 29.8 583.099 38 568.399C40.4 564.099 42.3 559.399 41.9 554.599C41.4 546.799 35.8 540.999 28.3 536.599C21.1 532.399 12.2 529.399 4.20001 526.899C-47.2 511.099 -93.7 482.399 -128.5 445.299C-139.5 433.799 -150 420.799 -165.4 413.599ZM-177.2 426.999C-201.9 415.399 -232.2 423.799 -257.5 434.399C-305.2 454.299 -350.3 481.899 -380.3 520.399C-390.9 533.999 -399.2 548.599 -405.9 563.799C-426.4 610.699 -430.7 663.699 -430.7 714.599C-430.7 746.799 -429.1 779.599 -417.7 810.199C-412.7 823.499 -405.8 836.599 -394.9 846.799C-383.1 857.899 -367.5 865.299 -351.3 870.399C-315 881.999 -274.8 882.899 -237.8 874.299C-226.2 871.599 -195.4 865.299 -191.9 854.299C-190.1 848.599 -196.4 836.299 -197 829.799C-197.8 820.399 -197.6 810.799 -197 801.299C-196 785.099 -194.1 768.699 -188.4 752.899C-178.4 725.299 -157.6 701.399 -133.6 681.199C-127.9 676.399 -121.9 671.799 -115.9 667.499C-84.9 645.299 -50.6 628.099 -19.4 606.899C-5.80002 597.699 7.50001 587.299 15.2 573.499C17.4 569.499 19.2 564.999 18.8 560.499C18.3 553.099 13 547.699 5.89996 543.499C-0.900037 539.499 -9.30002 536.599 -16.9 534.299C-65.4 519.299 -109.4 492.099 -142.3 457.199C-152.7 446.099 -162.6 433.799 -177.2 426.999ZM-188.9 440.399C-212.1 429.599 -240.6 437.399 -264.3 447.299C-309.2 465.999 -351.5 491.899 -379.7 528.099C-389.6 540.899 -397.5 554.699 -403.7 568.999C-422.9 613.099 -426.9 662.999 -426.8 710.799C-426.7 741.099 -425.2 771.899 -414.4 800.699C-409.7 813.199 -403.1 825.499 -392.9 835.099C-381.8 845.599 -367 852.499 -351.8 857.399C-317.6 868.399 -279.8 869.299 -244.9 861.299C-233.9 858.799 -205 852.999 -201.6 842.599C-199.8 837.199 -205.8 825.699 -206.3 819.599C-207 810.799 -206.7 801.799 -206.1 792.899C-205.1 777.699 -203.2 762.299 -197.8 747.499C-188.3 721.599 -168.7 698.999 -146.2 679.899C-140.8 675.299 -135.3 670.999 -129.6 666.899C-100.6 645.899 -68.6 629.699 -39.5 609.699C-26.8 600.999 -14.4 591.299 -7.20004 578.299C-5.10004 574.499 -3.50002 570.299 -3.80002 565.999C-4.30002 558.999 -9.30003 553.899 -16 549.999C-22.4 546.199 -30.3 543.499 -37.5 541.299C-83.2 527.099 -124.6 501.499 -155.7 468.699C-165.8 458.299 -175.2 446.799 -188.9 440.399ZM-200.7 453.799C-222.4 443.699 -249 450.999 -271.2 460.299C-313.1 477.699 -352.7 501.899 -379 535.799C-388.3 547.799 -395.6 560.699 -401.4 574.099C-419.3 615.499 -423 662.099 -422.8 706.899C-422.7 735.299 -421.2 764.099 -411.1 790.999C-406.7 802.699 -400.5 814.199 -391 823.199C-380.6 832.999 -366.7 839.499 -352.5 844.099C-320.5 854.399 -285 855.299 -252.2 847.899C-241.9 845.599 -214.8 840.199 -211.6 830.499C-209.9 825.499 -215.4 814.799 -215.8 809.099C-216.4 800.899 -216.1 792.499 -215.5 784.199C-214.4 769.999 -212.6 755.599 -207.5 741.799C-198.5 717.499 -180.1 696.399 -159.1 678.399C-154.1 674.099 -148.9 670.099 -143.7 666.199C-116.7 646.499 -87 631.199 -60.1 612.499C-48.4 604.299 -36.8 595.199 -30.2 582.999C-28.3 579.399 -26.8 575.499 -27.1 571.499C-27.6 564.999 -32.3 560.199 -38.5 556.499C-44.5 552.999 -51.9 550.399 -58.6 548.299C-101.4 534.899 -140.3 510.899 -169.6 480.199C-179 470.599 -187.8 459.799 -200.7 453.799ZM-212.5 467.299C-232.7 457.899 -257.5 464.699 -278.1 473.299C-317.1 489.499 -353.9 511.999 -378.4 543.499C-387.1 554.699 -393.9 566.699 -399.3 579.199C-415.9 617.799 -419.3 661.299 -419 703.099C-418.8 729.499 -417.4 756.399 -407.9 781.499C-403.8 792.399 -398 803.099 -389.1 811.499C-379.4 820.699 -366.4 826.799 -353.1 831.099C-323.2 840.799 -290.1 841.699 -259.5 834.899C-249.8 832.799 -224.6 827.799 -221.5 818.799C-219.9 814.199 -224.9 804.199 -225.3 798.999C-225.8 791.399 -225.5 783.599 -224.8 775.899C-223.7 762.699 -221.9 749.399 -217 736.499C-208.4 713.899 -191.3 694.199 -171.9 677.299C-167.3 673.299 -162.5 669.499 -157.6 665.899C-132.7 647.399 -105.3 633.199 -80.4 615.599C-69.6 607.999 -58.9 599.499 -52.9 588.099C-51.1 584.799 -49.8 581.099 -50.1 577.399C-50.6 571.299 -55 566.899 -60.8 563.399C-66.4 560.099 -73.3 557.699 -79.6 555.699C-119.6 543.099 -155.9 520.599 -183.3 492.099C-192.1 482.799 -200.4 472.799 -212.5 467.299ZM-224.3 480.699C-243 472.099 -265.9 478.299 -285.1 486.299C-321.2 501.299 -355.3 522.099 -378 551.299C-386 561.699 -392.3 572.799 -397.3 584.499C-412.6 620.299 -415.7 660.599 -415.3 699.399C-415.1 723.899 -413.6 748.799 -404.8 771.999C-400.9 782.099 -395.6 791.999 -387.3 799.799C-378.2 808.299 -366.2 813.999 -353.9 817.999C-326.1 827.099 -295.4 827.899 -266.9 821.799C-257.9 819.799 -234.5 815.299 -231.6 806.999C-230.1 802.699 -234.6 793.499 -234.9 788.699C-235.3 781.699 -234.9 774.499 -234.3 767.399C-233.2 755.199 -231.4 742.899 -226.8 730.999C-218.7 710.099 -202.8 691.699 -184.9 675.899C-180.6 672.099 -176.2 668.599 -171.8 665.299C-148.9 648.099 -123.8 634.799 -101.1 618.499C-91.2 611.399 -81.4 603.499 -75.9 592.899C-74.3 589.799 -73.1 586.399 -73.4 582.999C-73.9 577.399 -78 573.199 -83.4 569.999C-88.6 566.899 -95.1 564.699 -100.9 562.799C-138 550.999 -171.8 530.099 -197.4 503.599C-205.3 495.099 -213.1 485.899 -224.3 480.699ZM-236 494.099C-253.2 486.199 -274.3 491.899 -291.9 499.199C-325.1 512.899 -356.5 532.099 -377.3 558.899C-384.7 568.499 -390.5 578.799 -395 589.499C-409 622.499 -411.7 659.699 -411.3 695.399C-411 717.999 -409.6 740.899 -401.4 762.299C-397.8 771.599 -392.9 780.699 -385.2 787.899C-376.8 795.799 -365.7 800.999 -354.3 804.799C-328.6 813.199 -300.3 814.099 -273.9 808.499C-265.5 806.699 -244 802.599 -241.2 795.099C-239.7 791.199 -243.9 782.799 -244 778.399C-244.3 771.999 -243.9 765.399 -243.2 758.899C-242.1 747.799 -240.3 736.399 -236 725.499C-228.4 706.299 -213.7 689.299 -197.3 674.599C-193.4 671.099 -189.4 667.799 -185.3 664.699C-164.4 648.699 -141.6 636.399 -121 621.299C-112 614.699 -103.2 607.399 -98.2 597.699C-96.8 594.899 -95.7 591.699 -96 588.499C-96.5 583.299 -100.3 579.499 -105.3 576.499C-110.1 573.599 -116.1 571.599 -121.4 569.799C-155.7 558.799 -186.9 539.499 -210.7 515.099C-218.5 507.299 -225.7 498.899 -236 494.099ZM-247.8 507.499C-263.5 500.299 -282.7 505.499 -298.8 512.099C-329.1 524.599 -357.7 541.999 -376.7 566.499C-383.5 575.299 -388.7 584.699 -392.8 594.499C-405.6 624.699 -407.9 658.699 -407.4 691.399C-407.1 712.099 -405.7 732.999 -398.1 752.599C-394.8 761.099 -390.2 769.399 -383.3 775.999C-375.6 783.199 -365.4 788.099 -355 791.499C-331.5 799.299 -305.4 800.099 -281.3 795.199C-273.6 793.599 -253.9 789.899 -251.2 783.099C-249.8 779.599 -253.5 771.899 -253.6 767.899C-253.7 761.999 -253.3 756.099 -252.6 750.199C-251.4 740.099 -249.7 729.799 -245.7 719.799C-238.6 702.299 -225.1 686.699 -210.2 673.099C-206.7 669.899 -203 666.899 -199.4 663.999C-180.6 649.299 -160 637.899 -141.6 624.099C-133.5 618.099 -125.6 611.399 -121.2 602.499C-119.9 599.899 -118.9 596.999 -119.3 594.099C-119.8 589.299 -123.3 585.799 -127.9 583.099C-132.3 580.499 -137.8 578.499 -142.7 576.899C-174.1 566.699 -202.8 548.899 -224.7 526.699C-231.6 519.599 -238.3 511.899 -247.8 507.499ZM-259.6 520.999C-273.8 514.599 -291.2 519.199 -305.7 525.199C-333.1 536.499 -359 552.199 -376.1 574.299C-382.2 582.299 -386.9 590.799 -390.7 599.699C-402.2 627.199 -404.2 657.999 -403.6 687.599C-403.2 706.299 -401.9 725.299 -394.9 742.999C-391.9 750.699 -387.7 758.299 -381.4 764.199C-374.4 770.799 -365.1 775.199 -355.6 778.399C-334.2 785.499 -310.5 786.399 -288.5 781.999C-281.4 780.599 -263.6 777.299 -261.1 771.199C-259.8 767.999 -263 761.199 -263 757.599C-263 752.299 -262.6 746.999 -261.9 741.699C-260.7 732.599 -259 723.299 -255.3 714.299C-248.7 698.399 -236.4 684.199 -223 671.699C-219.9 668.699 -216.6 665.999 -213.3 663.399C-196.5 649.999 -178.3 639.599 -161.9 626.899C-154.8 621.399 -147.7 615.299 -143.9 607.199C-142.8 604.799 -141.9 602.299 -142.3 599.599C-142.8 595.299 -146 592.099 -150.2 589.599C-154.2 587.199 -159.2 585.399 -163.6 583.899C-192.2 574.499 -218.3 558.299 -238.4 538.199C-244.8 531.899 -250.9 524.899 -259.6 520.999ZM-271.4 534.399C-284.1 528.699 -299.6 532.799 -312.6 538.099C-337.1 548.099 -360.2 562.199 -375.5 581.999C-381 589.199 -385.2 596.899 -388.5 604.899C-398.7 629.599 -400.4 657.299 -399.7 683.799C-399.3 700.599 -398 717.599 -391.7 733.499C-389 740.399 -385.2 747.199 -379.5 752.499C-373.1 758.399 -364.8 762.399 -356.2 765.299C-336.9 771.799 -315.6 772.599 -295.8 768.899C-289.4 767.699 -273.4 764.799 -271 759.399C-269.8 756.599 -272.5 750.499 -272.5 747.299C-272.4 742.599 -272 737.899 -271.2 733.099C-270 724.999 -268.3 716.699 -264.8 708.699C-258.7 694.499 -247.6 681.699 -235.8 670.299C-233 667.599 -230.1 665.099 -227.3 662.699C-212.5 650.499 -196.6 641.099 -182.4 629.699C-176.2 624.699 -170 619.199 -166.7 611.999C-165.7 609.899 -165 607.599 -165.3 605.199C-165.8 601.299 -168.7 598.499 -172.4 596.199C-176 593.999 -180.5 592.399 -184.5 591.099C-210.2 582.499 -233.8 567.899 -252 549.899C-257.9 544.099 -263.5 537.899 -271.4 534.399ZM-283.1 547.799C-294.4 542.799 -308 546.399 -319.4 551.099C-341 559.899 -361.4 572.199 -374.9 589.699C-379.8 595.999 -383.4 602.899 -386.3 609.999C-395.2 631.899 -396.6 656.399 -395.8 679.899C-395.3 694.799 -394 709.799 -388.4 723.799C-385.9 729.899 -382.6 735.899 -377.5 740.599C-371.8 745.899 -364.4 749.499 -356.8 752.099C-339.6 757.899 -320.7 758.799 -303 755.699C-297.2 754.699 -283.1 752.199 -280.9 747.499C-279.8 745.099 -282.1 739.799 -281.9 736.999C-281.7 732.899 -281.2 728.799 -280.5 724.599C-279.2 717.499 -277.6 710.199 -274.4 703.199C-268.8 690.699 -258.9 679.299 -248.6 668.999C-246.2 666.599 -243.7 664.299 -241.2 662.199C-228.5 651.299 -214.8 642.799 -202.7 632.599C-197.4 628.199 -192.1 623.299 -189.4 616.799C-188.6 614.899 -188 612.899 -188.3 610.799C-188.8 607.399 -191.4 604.799 -194.7 602.799C-197.9 600.799 -201.9 599.399 -205.5 598.199C-228.4 590.399 -249.4 577.399 -265.8 561.499C-271.1 556.399 -276.1 550.899 -283.1 547.799ZM-294.9 561.299C-304.7 556.999 -316.4 560.099 -326.3 564.099C-345 571.699 -362.7 582.299 -374.3 597.399C-378.5 602.899 -381.7 608.899 -384.2 615.099C-391.8 634.199 -392.9 655.599 -392 675.999C-391.5 688.899 -390.2 701.999 -385.2 714.199C-383 719.499 -380.1 724.699 -375.6 728.799C-370.6 733.399 -364.1 736.599 -357.4 738.899C-342.4 744.099 -325.8 744.899 -310.2 742.399C-305.1 741.599 -292.8 739.499 -290.7 735.599C-289.6 733.599 -291.5 728.999 -291.3 726.699C-291 723.199 -290.5 719.699 -289.7 716.099C-288.4 709.999 -286.8 703.799 -283.9 697.599C-278.7 686.799 -270.1 676.799 -261.3 667.499C-259.3 665.399 -257.1 663.399 -255 661.499C-244.3 651.799 -233 644.399 -222.9 635.399C-218.5 631.499 -214.2 627.199 -212 621.599C-211.4 619.999 -210.9 618.199 -211.2 616.299C-211.7 613.299 -214 611.099 -216.9 609.299C-219.7 607.599 -223.2 606.299 -226.3 605.199C-246.3 598.199 -264.8 586.699 -279.4 572.999C-284.2 568.599 -288.7 563.899 -294.9 561.299ZM-306.7 574.699C-315 571.199 -324.9 573.699 -333.2 576.999C-349 583.299 -364 592.299 -373.7 604.999C-377.3 609.699 -379.9 614.899 -382 620.199C-388.3 636.599 -389.1 654.699 -388.2 672.099C-387.6 683.099 -386.4 694.199 -382 704.599C-380.1 709.099 -377.5 713.499 -373.8 716.999C-369.5 720.999 -363.9 723.699 -358.2 725.799C-345.3 730.399 -331.1 731.199 -317.7 729.299C-313.3 728.699 -302.8 726.999 -300.9 723.799C-299.9 722.099 -301.3 718.399 -301 716.399C-300.6 713.499 -300 710.599 -299.3 707.599C-298 702.599 -296.4 697.299 -293.8 692.099C-289.1 682.999 -281.7 674.299 -274.4 666.199C-272.7 664.299 -271 662.599 -269.3 660.899C-260.6 652.499 -251.6 645.999 -243.7 638.199C-240.2 634.799 -236.8 631.099 -235.1 626.399C-234.6 624.999 -234.3 623.499 -234.6 621.899C-235.1 619.299 -237.1 617.399 -239.6 615.899C-242 614.399 -245 613.299 -247.7 612.299C-264.9 606.099 -280.8 596.199 -293.5 584.499C-297.4 580.899 -301.4 576.999 -306.7 574.699ZM-318.5 588.099C-325.3 585.299 -333.3 587.299 -340.1 589.999C-353 595.099 -365.2 602.399 -373.1 612.799C-376.1 616.699 -378.2 620.999 -379.8 625.399C-384.8 638.999 -385.3 653.999 -384.3 668.299C-383.7 677.399 -382.5 686.499 -378.7 694.999C-377.1 698.699 -374.9 702.299 -371.8 705.199C-368.2 708.499 -363.5 710.899 -358.7 712.599C-347.9 716.499 -336 717.399 -324.8 716.099C-321 715.699 -312.4 714.399 -310.6 711.899C-309.7 710.599 -310.6 707.599 -310.3 706.099C-309.8 703.799 -309.2 701.499 -308.4 699.099C-307.1 695.099 -305.5 690.799 -303.2 686.599C-299 679.099 -292.8 671.899 -287 664.899C-285.7 663.299 -284.4 661.799 -283 660.399C-276.4 653.299 -269.6 647.699 -263.8 641.199C-261.3 638.399 -258.7 635.299 -257.6 631.299C-257.3 630.099 -257.1 628.899 -257.4 627.599C-257.9 625.499 -259.6 623.899 -261.7 622.599C-263.7 621.299 -266.2 620.299 -268.5 619.499C-282.8 614.099 -296.2 605.799 -307.1 596.199C-310.6 593.099 -314 589.999 -318.5 588.099ZM-330.2 601.499C-335.4 599.399 -341.6 600.899 -347 602.899C-357 606.799 -366.5 612.299 -372.5 620.399C-374.8 623.499 -376.4 626.899 -377.6 630.399C-381.3 641.199 -381.5 652.999 -380.4 664.299C-379.7 671.399 -378.6 678.599 -375.5 685.299C-374.1 688.199 -372.4 690.999 -369.9 693.299C-367 695.999 -363.2 697.899 -359.4 699.299C-350.7 702.599 -341.2 703.399 -332.1 702.699C-329 702.499 -322.2 701.599 -320.6 699.799C-319.8 698.899 -320.3 696.699 -319.8 695.499C-319.2 693.899 -318.5 692.099 -317.7 690.299C-316.3 687.299 -314.8 684.099 -312.7 680.799C-309 674.999 -304 669.199 -299.8 663.199C-298.9 661.899 -297.9 660.599 -297 659.499C-292.4 653.699 -288 648.999 -284.3 643.699C-282.7 641.399 -281 638.899 -280.5 635.799C-280.3 634.899 -280.3 633.899 -280.6 632.899C-281.1 631.199 -282.5 629.999 -284.1 628.899C-285.8 627.899 -287.7 626.999 -289.5 626.299C-301 621.899 -311.8 615.199 -320.8 607.799C-323.7 605.399 -326.6 602.999 -330.2 601.499ZM-342 614.999C-345.7 613.599 -350.1 614.599 -353.9 615.999C-361 618.599 -367.7 622.499 -372 628.199C-373.7 630.499 -374.8 633.099 -375.6 635.599C-378.1 643.599 -377.9 652.299 -376.7 660.499C-376 665.699 -374.8 670.899 -372.4 675.699C-371.3 677.799 -370 679.899 -368.1 681.499C-365.8 683.499 -363 684.999 -360.1 686.199C-353.6 688.799 -346.4 689.699 -339.5 689.599C-337 689.599 -332.1 689.199 -330.6 688.099C-329.8 687.499 -329.9 686.199 -329.4 685.399C-328.7 684.399 -328 683.199 -327.2 681.999C-325.8 679.999 -324.3 677.799 -322.5 675.499C-319.3 671.399 -315.5 666.999 -312.8 662.099C-312.2 661.099 -311.7 660.099 -311.1 659.099C-308.5 654.599 -306.4 650.899 -304.8 646.799C-304.1 644.999 -303.4 643.099 -303.3 640.899C-303.3 640.199 -303.4 639.499 -303.7 638.699C-304.2 637.499 -305.3 636.499 -306.5 635.699C-307.8 634.899 -309.2 634.199 -310.6 633.599C-319.2 629.799 -327.5 624.599 -334.7 619.299C-336.9 617.699 -339.2 615.999 -342 614.999ZM-353.8 628.399C-356 627.699 -358.5 628.099 -360.8 628.899C-365 630.299 -369 632.499 -371.4 635.899C-372.5 637.399 -373 639.099 -373.4 640.799C-374.6 645.999 -374.1 651.599 -372.8 656.799C-372 660.099 -370.9 663.299 -369.1 666.299C-368.3 667.599 -367.4 668.899 -366.1 669.899C-364.5 671.299 -362.6 672.399 -360.6 673.199C-356.2 675.199 -351.3 676.099 -346.6 676.499C-344.7 676.699 -341.7 676.699 -340.3 676.299C-339.6 676.099 -339.3 675.499 -338.6 675.199C-337.9 674.799 -337.1 674.199 -336.2 673.599C-334.8 672.599 -333.3 671.399 -331.8 670.099C-329 667.699 -326.5 664.799 -325.3 660.899C-325.1 660.099 -324.9 659.399 -324.8 658.699C-324.2 655.499 -324.4 652.699 -325 649.799C-325.2 648.599 -325.4 647.299 -325.9 645.799C-326.1 645.399 -326.2 644.899 -326.6 644.399C-327.1 643.599 -327.9 642.999 -328.7 642.399C-329.6 641.799 -330.5 641.299 -331.4 640.799C-337.2 637.799 -342.9 634.199 -348.3 630.999C-350 629.899 -351.8 628.999 -353.8 628.399ZM-351 648.899C-355.2 645.599 -360 642.299 -365.6 641.799C-367.6 641.599 -369.9 641.999 -370.8 643.499C-371.2 644.199 -371.3 644.999 -371.2 645.799C-371 650.499 -368.1 654.799 -364.2 657.899C-360.3 660.999 -355.3 662.899 -350.3 664.299C-346 665.499 -336.9 665.499 -338.2 659.299C-339 655.499 -347.8 651.499 -351 648.899Z" stroke="url(#paint0_radial_4286_1781)" stroke-miterlimit="10" stroke-linecap="round" stroke-linejoin="round"/>
</g>
<defs>
<radialGradient id="paint0_radial_4286_1781" cx="0" cy="0" r="1" gradientUnits="userSpaceOnUse" gradientTransform="translate(211.403 304.611) rotate(90.0383) scale(604.39 564.194)">
<stop stop-color="#F48124"/>
<stop offset="0.543269" stop-color="#002B49"/>
<stop offset="1" stop-color="#D40000"/>
</radialGradient>
</defs>
</svg>
