<svg width="24" height="24" viewBox="0 0 24 24" fill="none" xmlns="http://www.w3.org/2000/svg">
<g clip-path="url(#clip0_3557_1296)">
<path d="M23.8364 19.1637C24.027 19.7543 23.9813 20.3833 23.7271 20.9302C23.5441 21.3294 23.2824 21.6384 22.9622 21.9146C22.5759 22.2427 22.0956 22.5216 21.5161 22.7896C20.8249 23.1069 19.9812 23.4049 19.5948 23.5143C18.6062 23.7905 17.6558 23.9655 16.6926 23.9737C15.3152 23.9874 14.1283 23.6374 13.2846 22.7431C12.8475 22.8006 12.4053 22.8334 11.9605 22.8334C11.5387 22.8334 11.1219 22.8061 10.7076 22.7514C9.86136 23.6401 8.6796 23.9874 7.30723 23.9737C6.34406 23.9655 5.39357 23.7905 4.40245 23.5143C4.0187 23.4049 3.17496 23.1069 2.48371 22.7896C1.90427 22.5216 1.42395 22.2427 1.0402 21.9146C0.717442 21.6384 0.45568 21.3294 0.272701 20.9302C0.0211038 20.3833 -0.0271825 19.7543 0.165962 19.1637C-0.0119343 18.7124 -0.0576792 18.1956 0.0820968 17.6241C0.145632 17.3643 0.249829 17.1237 0.38198 16.9104C0.354025 16.7983 0.331152 16.6834 0.315904 16.5576C0.219332 15.8084 0.460763 15.1247 0.915672 14.5942C1.13931 14.329 1.38074 14.1457 1.63234 14.0282C1.44682 13.1805 1.35025 12.3082 1.35025 11.4167C1.35025 5.11085 6.10008 0 11.9605 0C13.9733 0 15.8565 0.601597 17.4626 1.65166C17.7523 1.84308 18.037 2.04817 18.3089 2.26693C18.4436 2.37632 18.5783 2.48843 18.7079 2.60602C18.84 2.72086 18.9696 2.84119 19.0942 2.96424C19.4703 3.3334 19.8236 3.72991 20.1463 4.15376C20.2556 4.29323 20.3598 4.43815 20.4614 4.58582C20.6673 4.87842 20.8579 5.18195 21.0333 5.49641C21.3001 5.96677 21.5339 6.45895 21.7372 6.97032C21.8719 7.31217 21.9888 7.66217 22.093 8.02041C22.248 8.55639 22.3675 9.10875 22.4488 9.67755C22.4742 9.86623 22.4971 10.0576 22.5149 10.249C22.5505 10.6319 22.5708 11.0202 22.5708 11.4167C22.5708 12.2972 22.4742 13.1613 22.2938 13.9954C22.5733 14.1129 22.8376 14.3044 23.0842 14.5942C23.5391 15.1247 23.7805 15.8111 23.6839 16.5604C23.6687 16.6834 23.6458 16.7983 23.6179 16.9104C23.75 17.1237 23.8542 17.3643 23.9177 17.6241C24.0575 18.1956 24.0118 18.7124 23.8364 19.1637Z" fill="white"/>
<path d="M20.8244 11.4951C20.8244 6.26429 16.8736 2.02382 12.0002 2.02382C7.12667 2.02382 3.1759 6.26429 3.1759 11.4951C3.1759 16.726 7.12667 20.9665 12.0002 20.9665C16.8736 20.9665 20.8244 16.726 20.8244 11.4951ZM2.16016 11.4951C2.16016 5.66216 6.56569 0.933594 12.0002 0.933594C17.4346 0.933594 21.8402 5.66216 21.8402 11.4951C21.8402 17.3281 17.4346 22.0567 12.0002 22.0567C6.56569 22.0567 2.16016 17.3281 2.16016 11.4951Z" fill="black"/>
<path d="M11.88 21.0497C16.7843 21.0497 20.76 16.7852 20.76 11.5248C20.76 6.26443 16.7843 2 11.88 2C6.9757 2 3 6.26443 3 11.5248C3 16.7852 6.9757 21.0497 11.88 21.0497Z" fill="white"/>
<path d="M9.70554 20.9504C10.4059 19.8589 10.3563 19.0398 9.39532 18.0192C8.43436 16.9989 7.87501 15.5061 7.87501 15.5061C7.87501 15.5061 7.66607 14.6391 7.19015 14.7189C6.71428 14.7986 6.36484 16.0943 7.3617 16.8869C8.35852 17.6793 7.16317 18.2177 6.77965 17.4735C6.39613 16.7292 5.34892 14.816 4.80585 14.45C4.263 14.0841 3.88076 14.2891 4.00876 15.0434C4.13677 15.7976 6.40708 17.6257 6.18618 18.0213C5.96529 18.4167 5.18682 17.5565 5.18682 17.5565C5.18682 17.5565 2.75082 15.2008 2.22045 15.8146C1.6901 16.4285 2.62281 16.9429 3.95201 17.798C5.28148 18.6528 5.38453 18.8786 5.19594 19.202C5.00711 19.5254 2.07285 16.8966 1.79724 18.0111C1.52188 19.1255 4.79183 19.4489 4.59002 20.2183C4.38821 20.9879 2.28662 18.7621 1.85679 19.6293C1.4267 20.4969 4.82236 21.5161 4.84986 21.5237C5.94671 21.826 8.73239 22.4667 9.70554 20.9504Z" fill="white"/>
<path d="M4.36761 13.2188C3.95869 13.2188 3.59321 13.399 3.33837 13.7259C3.18076 13.9284 3.01608 14.2547 3.00269 14.7434C2.8312 14.6906 2.66627 14.661 2.51219 14.661C2.1207 14.661 1.7671 14.822 1.51705 15.1145C1.19578 15.4899 1.05307 15.9513 1.1152 16.4129C1.14476 16.6327 1.2132 16.8298 1.3155 17.0122C1.0998 17.1995 0.940929 17.4603 0.864144 17.7739C0.804033 18.0197 0.742406 18.5318 1.06418 19.0593C1.04373 19.0937 1.02453 19.1294 1.0066 19.166C0.813125 19.5601 0.80075 20.0055 0.971491 20.4202C1.23038 21.0488 1.87368 21.544 3.12292 22.0756C3.90009 22.4062 4.61109 22.6177 4.6174 22.6195C5.64486 22.9055 6.57409 23.0508 7.37852 23.0508C8.85712 23.0508 9.91566 22.5648 10.5249 21.6064C11.5054 20.0629 11.3652 18.6513 10.0965 17.2906C9.39433 16.5376 8.92758 15.4273 8.83033 15.1836C8.63435 14.4621 8.11604 13.66 7.25454 13.66H7.2543C7.18177 13.66 7.10852 13.6662 7.03633 13.6785C6.65896 13.7421 6.3291 13.9753 6.09347 14.326C5.83912 13.9866 5.59211 13.7167 5.36857 13.5643C5.03161 13.335 4.69494 13.2188 4.36761 13.2188ZM4.36761 14.303C4.49642 14.303 4.65377 14.3618 4.82728 14.48C5.36603 14.8467 6.40561 16.7645 6.78625 17.5104C6.91379 17.7603 7.13181 17.866 7.32803 17.866C7.7175 17.866 8.02158 17.4505 7.36364 16.9225C6.37432 16.128 6.72136 14.8294 7.19368 14.7494C7.21436 14.7459 7.23481 14.7443 7.25454 14.7443C7.6839 14.7443 7.87336 15.5385 7.87336 15.5385C7.87336 15.5385 8.42848 17.0347 9.38224 18.0574C10.3359 19.0803 10.3852 19.9014 9.69011 20.9954C9.21601 21.7413 8.30852 21.8386 7.37852 21.8386C6.41396 21.8386 5.42344 21.6562 4.86928 21.5019C4.84201 21.4943 1.47361 20.5408 1.90046 19.6713C1.97219 19.5252 2.0904 19.4666 2.23916 19.4666C2.84029 19.4666 3.93369 20.4267 4.40373 20.4267C4.5088 20.4267 4.5871 20.3395 4.6174 20.2224C4.82656 19.4143 1.56782 19.1663 1.84136 18.0493C1.8896 17.8517 2.02043 17.7714 2.20431 17.7717C2.99866 17.7717 4.78082 19.2709 5.1544 19.2709C5.18291 19.2709 5.20336 19.262 5.21449 19.243C5.40165 18.9188 5.31544 18.6549 3.99625 17.7981C2.67706 16.941 1.73477 16.4631 2.26139 15.8478C2.322 15.7767 2.40788 15.7453 2.51219 15.7453C3.31311 15.7455 5.20537 17.5936 5.20537 17.5936C5.20537 17.5936 5.71609 18.1636 6.02502 18.1636C6.09597 18.1636 6.15635 18.1336 6.19725 18.0593C6.41622 17.663 4.16327 15.8307 4.03623 15.0747C3.9501 14.5624 4.09659 14.303 4.36761 14.303Z" fill="black"/>
<path d="M14.2511 20.9504C13.5508 19.8589 13.6003 19.0398 14.5613 18.0192C15.5223 16.9989 16.0817 15.5061 16.0817 15.5061C16.0817 15.5061 16.2906 14.6391 16.7665 14.7189C17.2424 14.7986 17.5918 16.0943 16.595 16.8869C15.5981 17.6793 16.7934 18.2177 17.177 17.4735C17.5605 16.7292 18.6077 14.816 19.1508 14.45C19.6937 14.0841 20.0759 14.2891 19.9479 15.0434C19.8198 15.7976 17.5495 17.6257 17.7704 18.0213C17.9913 18.4167 18.7698 17.5565 18.7698 17.5565C18.7698 17.5565 21.2058 15.2008 21.7362 15.8146C22.2666 16.4285 21.3338 16.9429 20.0046 17.798C18.6751 18.6528 18.5721 18.8786 18.7607 19.202C18.9495 19.5254 21.8838 16.8966 22.1594 18.0111C22.4347 19.1255 19.1648 19.4489 19.3666 20.2183C19.5684 20.9879 21.67 18.7621 22.0998 19.6293C22.5299 20.4969 19.1343 21.5161 19.1068 21.5237C18.0099 21.826 15.2243 22.4667 14.2511 20.9504Z" fill="white"/>
<path d="M19.5891 13.2188C19.998 13.2188 20.3634 13.399 20.6183 13.7259C20.7759 13.9284 20.9406 14.2547 20.954 14.7434C21.1254 14.6906 21.2904 14.661 21.4444 14.661C21.8359 14.661 22.1895 14.822 22.4396 15.1145C22.7609 15.4899 22.9036 15.9513 22.8414 16.4129C22.8119 16.6327 22.7435 16.8298 22.6411 17.0122C22.8568 17.1995 23.0157 17.4603 23.0925 17.7739C23.1526 18.0197 23.2143 18.5318 22.8925 19.0593C22.9129 19.0937 22.9321 19.1294 22.9501 19.166C23.1435 19.5601 23.1559 20.0055 22.9851 20.4202C22.7263 21.0488 22.083 21.544 20.8337 22.0756C20.0566 22.4062 19.3455 22.6177 19.3393 22.6195C18.3118 22.9055 17.3825 23.0508 16.5781 23.0508C15.0995 23.0508 14.041 22.5648 13.4318 21.6064C12.4513 20.0629 12.5915 18.6513 13.8602 17.2906C14.5623 16.5376 15.0291 15.4273 15.1263 15.1836C15.3223 14.4621 15.8406 13.66 16.7021 13.66H16.7024C16.7749 13.66 16.8481 13.6662 16.9203 13.6785C17.2977 13.7421 17.6275 13.9753 17.8632 14.326C18.1176 13.9866 18.3646 13.7167 18.5881 13.5643C18.925 13.335 19.2617 13.2188 19.5891 13.2188ZM19.5891 14.303C19.4602 14.303 19.3029 14.3618 19.1294 14.48C18.5906 14.8467 17.551 16.7645 17.1704 17.5104C17.0428 17.7603 16.8249 17.866 16.6286 17.866C16.2391 17.866 15.9351 17.4505 16.593 16.9225C17.5824 16.128 17.2353 14.8294 16.763 14.7494C16.7423 14.7459 16.7218 14.7443 16.7021 14.7443C16.2727 14.7443 16.0833 15.5385 16.0833 15.5385C16.0833 15.5385 15.5282 17.0347 14.5744 18.0574C13.6207 19.0803 13.5714 19.9014 14.2665 20.9954C14.7406 21.7413 15.6481 21.8386 16.5781 21.8386C17.5427 21.8386 18.5332 21.6562 19.0874 21.5019C19.1146 21.4943 22.4831 20.5408 22.0562 19.6713C21.9844 19.5252 21.8663 19.4666 21.7175 19.4666C21.1164 19.4666 20.023 20.4267 19.5529 20.4267C19.4478 20.4267 19.3695 20.3395 19.3393 20.2224C19.1301 19.4143 22.3888 19.1663 22.1153 18.0493C22.0671 17.8517 21.9362 17.7714 21.7524 17.7717C20.958 17.7717 19.1758 19.2709 18.8023 19.2709C18.7737 19.2709 18.7533 19.262 18.7421 19.243C18.555 18.9188 18.6412 18.6549 19.9604 17.7981C21.2796 16.941 22.2219 16.4631 21.6952 15.8478C21.6347 15.7767 21.5487 15.7453 21.4444 15.7453C20.6436 15.7455 18.7513 17.5936 18.7513 17.5936C18.7513 17.5936 18.2405 18.1636 17.9317 18.1636C17.8607 18.1636 17.8003 18.1336 17.7594 18.0593C17.5404 17.663 19.7934 15.8307 19.9204 15.0747C20.0066 14.5624 19.8601 14.303 19.5891 14.303Z" fill="black"/>
<path d="M15.3251 11.8662C15.3251 10.6395 13.8519 12.5091 12.0304 12.5175C10.2091 12.5092 8.73584 10.6396 8.73584 11.8662C8.73584 12.6795 9.09618 14.0023 10.064 14.8048C10.2565 14.0892 11.3147 13.516 11.4659 13.5983C11.6813 13.7155 11.6692 14.0403 12.0304 14.3265C12.3917 14.0403 12.3796 13.7156 12.5949 13.5983C12.7463 13.516 13.8044 14.0892 13.9969 14.8048C14.9647 14.0023 15.325 12.6795 15.325 11.8663L15.3251 11.8662Z" fill="#0E1116"/>
<path d="M12.5954 13.5977C12.38 13.7149 12.3921 14.0397 12.0309 14.3259C11.6697 14.0397 11.6818 13.715 11.4664 13.5977C11.315 13.5154 10.257 14.0886 10.0645 14.8042C10.5538 15.2099 11.1985 15.4826 12.0303 15.4893C12.0305 15.4893 12.0307 15.4893 12.031 15.4893C12.0312 15.4893 12.0314 15.4893 12.0317 15.4893C12.8635 15.4827 13.5082 15.2099 13.9975 14.8042C13.805 14.0886 12.7468 13.5154 12.5956 13.5977H12.5954Z" fill="#FF323D"/>
<path d="M17.9039 10.1589C18.3546 10.1589 18.7199 9.76438 18.7199 9.27769C18.7199 8.79101 18.3546 8.39648 17.9039 8.39648C17.4532 8.39648 17.0879 8.79101 17.0879 9.27769C17.0879 9.76438 17.4532 10.1589 17.9039 10.1589Z" fill="black"/>
<path d="M6.14413 10.1589C6.5948 10.1589 6.96013 9.76438 6.96013 9.27769C6.96013 8.79101 6.5948 8.39648 6.14413 8.39648C5.69345 8.39648 5.32812 8.79101 5.32812 9.27769C5.32812 9.76438 5.69345 10.1589 6.14413 10.1589Z" fill="black"/>
<path d="M15.0271 8.89567C15.3504 9.01863 15.4791 9.73453 15.8057 9.54751C16.4242 9.19326 16.6591 8.36596 16.3302 7.69971C16.0013 7.03347 15.2332 6.78056 14.6146 7.13481C13.9961 7.48905 13.7612 8.3163 14.0901 8.98255C14.2454 9.29704 14.7381 8.78573 15.0271 8.89567Z" fill="#0E1116"/>
<path d="M9.05042 8.89567C8.72709 9.01863 8.59845 9.73453 8.27186 9.54751C7.65329 9.19326 7.41847 8.36596 7.74737 7.69971C8.07626 7.03347 8.84431 6.78056 9.46289 7.13481C10.0815 7.48905 10.3163 8.3163 9.98738 8.98255C9.83215 9.29704 9.33943 8.78573 9.05042 8.89567Z" fill="#0E1116"/>
</g>
<defs>
<clipPath id="clip0_3557_1296">
<rect width="24" height="24" fill="white"/>
</clipPath>
</defs>
</svg>
