<svg width="118" height="117" viewBox="0 0 118 117" fill="none" xmlns="http://www.w3.org/2000/svg">
<g clip-path="url(#clip0_4422_48)">
<path d="M55.7828 89.9637C53.8912 91.7575 51.4476 92.8675 48.8446 93.1155C46.2415 93.3636 43.63 92.7352 41.4298 91.3313C39.2295 89.9274 37.5681 87.8295 36.7124 85.3747C35.8568 82.9199 35.8566 80.2506 36.712 77.7956C32.0704 77.2625 27.272 77.3915 24.7495 73.4844C22.2268 69.5774 23.6794 61.3529 28.2756 60.5183C26.0069 58.5734 24.3722 56.0018 23.5796 53.1308C22.787 50.2599 22.8724 47.2195 23.825 44.397C24.7776 41.5744 26.5542 39.0974 28.9286 37.2812C31.3031 35.4651 34.1679 34.3921 37.1582 34.1988C32.8445 30.3889 33.2577 23.486 36.6155 18.822C41.3623 12.2287 51.9022 13.8022 55.8349 17.9993L55.7828 89.9637Z" fill="#F48124"/>
<path d="M61.436 89.9637C63.3276 91.7575 65.7712 92.8675 68.3743 93.1155C70.9774 93.3636 73.5888 92.7352 75.7891 91.3313C77.9894 89.9274 79.6508 87.8295 80.5064 85.3747C81.362 82.9199 81.3622 80.2506 80.5069 77.7956C85.1484 77.2625 89.9468 77.3915 92.4694 73.4844C94.992 69.5774 93.5395 61.3529 88.9432 60.5183C91.2119 58.5734 92.8467 56.0018 93.6392 53.1308C94.4318 50.2599 94.3464 47.2195 93.3938 44.397C92.4412 41.5744 90.6646 39.0974 88.2902 37.2812C85.9158 35.4651 83.051 34.3921 80.0606 34.1988C84.3744 30.3889 83.9611 23.486 80.6033 18.822C75.8565 12.2287 65.3167 13.8022 61.3839 17.9993L61.436 89.9637Z" fill="#F48124"/>
<g style="mix-blend-mode:screen">
<path d="M71.0718 18.9682C72.219 18.9449 73.3537 19.2078 74.3721 19.733C75.3905 20.2582 76.2599 21.0288 76.9008 21.9743C77.5417 22.9198 77.9336 24.0099 78.0405 25.1448C78.1475 26.2797 77.9661 27.4232 77.5129 28.4704" stroke="#F48124" stroke-width="2" stroke-miterlimit="10" stroke-linecap="round"/>
</g>
<g style="mix-blend-mode:screen">
<path d="M86.2708 40.709C88.3891 42.286 89.8488 44.5827 90.3712 47.1607C90.8937 49.7388 90.4423 52.4177 89.1033 54.6862" stroke="#F48124" stroke-width="2" stroke-miterlimit="10" stroke-linecap="round"/>
</g>
<g style="mix-blend-mode:screen">
<path d="M51.3403 19.654C48.8422 18.7087 46.3903 17.974 43.8535 18.8115C42.5701 19.1984 41.4278 19.9482 40.5662 20.9693C39.7045 21.9904 39.1608 23.2386 39.0012 24.5615" stroke="#F48124" stroke-width="2" stroke-miterlimit="10" stroke-linecap="round"/>
</g>
<path d="M55.7828 89.9637C53.8912 91.7575 51.4476 92.8675 48.8446 93.1155C46.2415 93.3636 43.63 92.7352 41.4298 91.3313C39.2295 89.9274 37.5681 87.8295 36.7124 85.3747C35.8568 82.9199 35.8566 80.2506 36.712 77.7956C32.0704 77.2625 27.272 77.3915 24.7495 73.4844C22.2268 69.5774 23.6794 61.3529 28.2756 60.5183C26.0069 58.5734 24.3722 56.0018 23.5796 53.1308C22.787 50.2599 22.8724 47.2195 23.825 44.397C24.7776 41.5744 26.5542 39.0974 28.9286 37.2812C31.3031 35.4651 34.1679 34.3921 37.1582 34.1988C32.8445 30.3889 33.2577 23.486 36.6155 18.822C41.3623 12.2287 51.9022 13.8022 55.8349 17.9993L55.7828 89.9637Z" stroke="#002B49" stroke-width="3" stroke-linecap="round" stroke-linejoin="round"/>
<path d="M61.436 89.9637C63.3276 91.7575 65.7712 92.8675 68.3743 93.1155C70.9774 93.3636 73.5888 92.7352 75.7891 91.3313C77.9894 89.9274 79.6508 87.8295 80.5064 85.3747C81.362 82.9199 81.3622 80.2506 80.5069 77.7956C85.1484 77.2625 89.9468 77.3915 92.4694 73.4844C94.992 69.5774 93.5395 61.3529 88.9432 60.5183C91.2119 58.5734 92.8467 56.0018 93.6392 53.1308C94.4318 50.2599 94.3464 47.2195 93.3938 44.397C92.4412 41.5744 90.6646 39.0974 88.2902 37.2812C85.9158 35.4651 83.051 34.3921 80.0606 34.1988C84.3744 30.3889 83.9611 23.486 80.6033 18.822C75.8565 12.2287 65.3167 13.8022 61.3839 17.9993L61.436 89.9637Z" stroke="#002B49" stroke-width="3" stroke-linecap="round" stroke-linejoin="round"/>
<path d="M46.4585 52.8292V39.312L21.9962 25.8607V12.127" stroke="#002B49" stroke-width="3" stroke-linecap="round" stroke-linejoin="round"/>
<path d="M21.9964 12.1273C24.9515 12.1273 27.3472 9.74739 27.3472 6.81167C27.3472 3.87596 24.9515 1.49609 21.9964 1.49609C19.0413 1.49609 16.6456 3.87596 16.6456 6.81167C16.6456 9.74739 19.0413 12.1273 21.9964 12.1273Z" fill="#F48124"/>
<g style="mix-blend-mode:multiply">
<path d="M24.0343 6.70109C23.0058 6.70109 22.0194 6.29521 21.2922 5.57274C20.5649 4.85028 20.1564 3.87041 20.1564 2.84869C20.1614 2.43512 20.2342 2.02512 20.3718 1.63477C19.349 1.94461 18.4417 2.54911 17.765 3.37167C17.0884 4.19423 16.6727 5.19783 16.5708 6.25529C16.4688 7.31276 16.6851 8.37649 17.1923 9.31171C17.6995 10.2469 18.4747 11.0115 19.4198 11.5086C20.3648 12.0057 21.4371 12.2129 22.5008 12.104C23.5645 11.9951 24.5717 11.575 25.3948 10.8968C26.2179 10.2187 26.8199 9.31308 27.1244 8.29476C27.4289 7.27643 27.4223 6.19123 27.1053 5.17666C26.7466 5.64901 26.2827 6.03245 25.7499 6.29693C25.2171 6.56141 24.6299 6.69974 24.0343 6.70109Z" fill="#D40000"/>
</g>
<path d="M98.3389 12.1273C101.294 12.1273 103.69 9.74739 103.69 6.81167C103.69 3.87596 101.294 1.49609 98.3389 1.49609C95.3838 1.49609 92.9882 3.87596 92.9882 6.81167C92.9882 9.74739 95.3838 12.1273 98.3389 12.1273Z" fill="#F48124"/>
<g style="mix-blend-mode:multiply">
<path d="M100.377 6.70109C99.3483 6.70109 98.362 6.29521 97.6347 5.57274C96.9075 4.85028 96.4989 3.87041 96.4989 2.84869C96.504 2.43512 96.5767 2.02512 96.7143 1.63477C95.6915 1.94461 94.7842 2.54911 94.1076 3.37167C93.4309 4.19423 93.0152 5.19783 92.9133 6.25529C92.8113 7.31276 93.0276 8.37649 93.5348 9.31171C94.042 10.2469 94.8173 11.0115 95.7623 11.5086C96.7073 12.0057 97.7796 12.2129 98.8433 12.104C99.907 11.9951 100.914 11.575 101.737 10.8968C102.56 10.2187 103.162 9.31308 103.467 8.29476C103.771 7.27643 103.765 6.19123 103.448 5.17666C103.089 5.64902 102.625 6.03246 102.092 6.29694C101.56 6.56142 100.972 6.69975 100.377 6.70109Z" fill="#D40000"/>
</g>
<path d="M110.643 46.7542C113.598 46.7542 115.993 44.3743 115.993 41.4386C115.993 38.5029 113.598 36.123 110.643 36.123C107.687 36.123 105.292 38.5029 105.292 41.4386C105.292 44.3743 107.687 46.7542 110.643 46.7542Z" fill="#F48124"/>
<g style="mix-blend-mode:multiply">
<path d="M112.68 41.328C111.652 41.328 110.666 40.9221 109.938 40.1997C109.211 39.4772 108.803 38.4974 108.803 37.4756C108.808 37.0621 108.88 36.6521 109.018 36.2617C107.995 36.5716 107.088 37.1761 106.411 37.9986C105.735 38.8212 105.319 39.8248 105.217 40.8822C105.115 41.9397 105.331 43.0034 105.839 43.9386C106.346 44.8738 107.121 45.6383 108.066 46.1354C109.011 46.6325 110.083 46.8397 111.147 46.7308C112.211 46.6218 113.218 46.2017 114.041 45.5236C114.864 44.8454 115.466 43.9399 115.771 42.9215C116.075 41.9032 116.068 40.8181 115.752 39.8035C115.393 40.2759 114.929 40.6593 114.396 40.9238C113.863 41.1883 113.276 41.3267 112.68 41.328Z" fill="#D40000"/>
</g>
<path d="M7.35736 45.7425C10.3125 45.7425 12.7081 43.3626 12.7081 40.4269C12.7081 37.4912 10.3125 35.1113 7.35736 35.1113C4.40221 35.1113 2.00659 37.4912 2.00659 40.4269C2.00659 43.3626 4.40221 45.7425 7.35736 45.7425Z" fill="#F48124"/>
<g style="mix-blend-mode:multiply">
<path d="M9.39518 40.3163C8.36671 40.3163 7.38036 39.9104 6.65312 39.188C5.92587 38.4655 5.5173 37.4856 5.51727 36.4639C5.52235 36.0504 5.59512 35.6404 5.73272 35.25C4.79417 35.55 3.95754 36.1022 3.31553 36.8455C2.67352 37.5888 2.25119 38.4942 2.09534 39.4614C1.93949 40.4285 2.0562 41.4196 2.43254 42.3249C2.80888 43.2301 3.43016 44.0142 4.22754 44.5903C5.02491 45.1663 5.96726 45.5118 6.95015 45.5885C7.93305 45.6652 8.91813 45.47 9.79624 45.0247C10.6743 44.5793 11.4112 43.9011 11.9252 43.0653C12.4391 42.2295 12.7101 41.2686 12.7081 40.2892C12.7008 39.7811 12.6193 39.2767 12.4663 38.7918C12.1076 39.2642 11.6436 39.6476 11.1108 39.9121C10.578 40.1766 9.99081 40.315 9.39518 40.3163Z" fill="#D40000"/>
</g>
<path d="M21.9964 115.502C24.9515 115.502 27.3472 113.122 27.3472 110.187C27.3472 107.251 24.9515 104.871 21.9964 104.871C19.0413 104.871 16.6456 107.251 16.6456 110.187C16.6456 113.122 19.0413 115.502 21.9964 115.502Z" fill="#F48124"/>
<g style="mix-blend-mode:multiply">
<path d="M24.0343 110.076C23.0058 110.076 22.0194 109.67 21.2922 108.948C20.565 108.225 20.1564 107.245 20.1564 106.224C20.1614 105.81 20.2342 105.4 20.3718 105.01C19.349 105.32 18.4417 105.924 17.765 106.747C17.0884 107.569 16.6727 108.573 16.5708 109.63C16.4688 110.688 16.6851 111.751 17.1923 112.687C17.6995 113.622 18.4747 114.387 19.4198 114.884C20.3648 115.381 21.4371 115.588 22.5008 115.479C23.5645 115.37 24.5717 114.95 25.3948 114.272C26.2179 113.594 26.8199 112.688 27.1244 111.67C27.4289 110.651 27.4223 109.566 27.1053 108.552C26.7466 109.024 26.2827 109.407 25.7499 109.672C25.2171 109.936 24.6299 110.075 24.0343 110.076Z" fill="#D40000"/>
</g>
<path d="M94.8343 115.502C97.7894 115.502 100.185 113.122 100.185 110.187C100.185 107.251 97.7894 104.871 94.8343 104.871C91.8791 104.871 89.4835 107.251 89.4835 110.187C89.4835 113.122 91.8791 115.502 94.8343 115.502Z" fill="#F48124"/>
<g style="mix-blend-mode:multiply">
<path d="M96.8722 110.076C95.8437 110.076 94.8573 109.67 94.1301 108.948C93.4028 108.225 92.9942 107.245 92.9942 106.224C92.9993 105.81 93.0721 105.4 93.2097 105.01C92.1868 105.32 91.2796 105.924 90.6029 106.747C89.9263 107.569 89.5106 108.573 89.4086 109.63C89.3067 110.688 89.523 111.751 90.0302 112.687C90.5374 113.622 91.3126 114.387 92.2576 114.884C93.2027 115.381 94.275 115.588 95.3387 115.479C96.4024 115.37 97.4096 114.95 98.2327 114.272C99.0558 113.594 99.6578 112.688 99.9623 111.67C100.267 110.651 100.26 109.566 99.9432 108.552C99.5845 109.024 99.1206 109.407 98.5878 109.672C98.055 109.936 97.4678 110.075 96.8722 110.076Z" fill="#D40000"/>
</g>
<path d="M21.9964 12.1273C24.9515 12.1273 27.3472 9.74739 27.3472 6.81167C27.3472 3.87596 24.9515 1.49609 21.9964 1.49609C19.0413 1.49609 16.6456 3.87596 16.6456 6.81167C16.6456 9.74739 19.0413 12.1273 21.9964 12.1273Z" stroke="#002B49" stroke-width="3" stroke-linecap="round" stroke-linejoin="round"/>
<path d="M98.3389 12.1273C101.294 12.1273 103.69 9.74739 103.69 6.81167C103.69 3.87596 101.294 1.49609 98.3389 1.49609C95.3838 1.49609 92.9882 3.87596 92.9882 6.81167C92.9882 9.74739 95.3838 12.1273 98.3389 12.1273Z" stroke="#002B49" stroke-width="3" stroke-linecap="round" stroke-linejoin="round"/>
<path d="M110.643 46.7542C113.598 46.7542 115.993 44.3743 115.993 41.4386C115.993 38.5029 113.598 36.123 110.643 36.123C107.687 36.123 105.292 38.5029 105.292 41.4386C105.292 44.3743 107.687 46.7542 110.643 46.7542Z" stroke="#002B49" stroke-width="3" stroke-linecap="round" stroke-linejoin="round"/>
<path d="M7.35736 45.7425C10.3125 45.7425 12.7081 43.3626 12.7081 40.4269C12.7081 37.4912 10.3125 35.1113 7.35736 35.1113C4.40221 35.1113 2.00659 37.4912 2.00659 40.4269C2.00659 43.3626 4.40221 45.7425 7.35736 45.7425Z" stroke="#002B49" stroke-width="3" stroke-linecap="round" stroke-linejoin="round"/>
<path d="M21.9964 115.502C24.9515 115.502 27.3472 113.122 27.3472 110.187C27.3472 107.251 24.9515 104.871 21.9964 104.871C19.0413 104.871 16.6456 107.251 16.6456 110.187C16.6456 113.122 19.0413 115.502 21.9964 115.502Z" stroke="#002B49" stroke-width="3" stroke-linecap="round" stroke-linejoin="round"/>
<path d="M94.8343 115.502C97.7894 115.502 100.185 113.122 100.185 110.187C100.185 107.251 97.7894 104.871 94.8343 104.871C91.8791 104.871 89.4835 107.251 89.4835 110.187C89.4835 113.122 91.8791 115.502 94.8343 115.502Z" stroke="#002B49" stroke-width="3" stroke-linecap="round" stroke-linejoin="round"/>
<path d="M43.2987 63.1578L7.35706 56.8447V45.7422" stroke="#002B49" stroke-width="3" stroke-linecap="round" stroke-linejoin="round"/>
<path d="M46.4585 70.6504L21.9962 88.5858V104.872" stroke="#002B49" stroke-width="3" stroke-linecap="round" stroke-linejoin="round"/>
<path d="M69.5579 38.3741L98.3391 26.9293V12.127" stroke="#002B49" stroke-width="3" stroke-linecap="round" stroke-linejoin="round"/>
<path d="M74.5629 47.9692V60.9286L110.642 59.8969V46.7539" stroke="#002B49" stroke-width="3" stroke-linecap="round" stroke-linejoin="round"/>
<path d="M72.7288 72.0664L94.8337 88.3475V104.871" stroke="#002B49" stroke-width="3" stroke-linecap="round" stroke-linejoin="round"/>
</g>
<defs>
<clipPath id="clip0_4422_48">
<rect width="117" height="117" fill="white" transform="translate(0.5)"/>
</clipPath>
</defs>
</svg>
