<svg width="429" height="252" viewBox="0 0 429 252" fill="none" xmlns="http://www.w3.org/2000/svg">
<path d="M48.8559 227.601C48.8414 226.563 48.9015 225.183 48.9282 223.89L50.3537 225.316C50.0391 225.309 49.7299 225.305 49.432 225.304C43.0582 225.281 40.6963 225.214 34.9294 225.176C26.3785 225.119 1.00063 225.247 1 224.571C1 224.571 1 224.571 1 224.571C1 224.564 1.00245 224.557 1.00738 224.551C1.09633 224.422 3.25483 224.281 3.57516 224.136C3.89498 223.99 3.65515 223.05 6.72091 222.997C11.166 222.927 21.8292 223.168 24.2 223.158C25.8208 223.15 27.8163 223.065 29.8888 223.05C36.5711 223.001 40.0677 223.063 46.0881 222.831C47.51 222.903 48.9318 222.975 50.3537 223.048C50.8304 223.049 51.1977 223.414 51.1964 223.89C51.1462 224.877 51.0961 225.863 51.046 226.849C51.1027 229.991 50.9413 234.753 50.9502 236.662C50.9576 238.228 51.0543 239.146 51.0588 240.778C51.0644 242.609 50.96 245.42 50.9757 248.75C50.9778 249.195 50.9813 249.611 50.9862 250L49.8443 249.625C52.3986 246.063 52.8564 245.078 54.6161 242.638C56.6031 239.884 59.8451 235.711 62.3429 232.169C62.6428 231.714 62.9427 231.26 63.2426 230.806C62.9611 231.082 62.6797 231.359 62.3982 231.635C63.6688 229.86 64.329 229.18 65.52 227.566C66.9214 225.668 67.537 224.626 68.4789 223.347C68.5202 223.291 68.5625 223.234 68.6058 223.176C68.7878 222.931 69.2698 222.685 69.5756 222.686C70.8524 222.696 72.5179 222.783 74.1146 222.777C76.5738 222.769 76.036 222.628 77.3594 222.601C77.8874 222.591 87.6496 222.513 88.2002 222.512C92.3889 222.506 92.7535 222.7 96.0935 222.717C105.357 222.763 114.866 222.607 123.435 222.547C127.261 222.521 131.253 222.532 135.069 222.563C129.059 223.058 142.358 223.443 137.385 222.669C141.629 222.779 144.639 222.57 148.663 222.605C151.266 222.628 153.067 222.736 156.783 222.733C163.378 222.727 170.591 222.422 172.487 222.974C180.228 222.876 186.933 223.077 189.723 222.59C191.719 222.56 196.834 222.85 199.073 222.889C201.191 222.926 217.437 223.057 220.094 223.065C222.752 223.072 227.405 223.08 229.643 223.037C232.455 222.984 234.421 222.479 239.427 223.07C245.249 223.022 247.323 223.039 252.737 223.108C253.717 223.12 253.828 223.208 254.4 223.208C255.58 223.208 257.587 223.143 259.693 223.135C263.156 223.122 265.132 223.307 264.746 223.025C267.029 222.978 269.312 222.93 271.595 222.883C272.396 222.937 273.196 222.992 273.997 223.046C275.218 222.987 276.439 222.928 277.659 222.868C276.226 223.276 284.816 223.036 282.027 222.802C286.452 222.886 290.878 222.97 295.303 223.055C294.686 223.518 305.02 223.108 304.15 222.856C304.657 222.857 305.163 222.857 305.669 222.857C310.103 222.98 314.174 222.88 319.578 222.962C324.981 223.045 324.474 223.09 326.117 223.303C327.388 223.291 328.66 223.279 329.931 223.267C336.603 222.682 335.424 223.694 346.849 223.246C350.499 223.613 359.497 223.42 365.463 223.309C366.158 223.296 366.169 223.225 367.094 223.203C369.355 223.15 375.123 223.241 374.925 223.011C376.922 223.078 378.919 223.145 380.916 223.211C382.548 223.169 384.18 223.127 385.812 223.086C385.803 223.014 385.795 222.942 385.787 222.87C389.073 223.115 394.237 223.021 396.785 223.079C397.291 223.091 397.401 223.19 398.977 223.217C400.818 223.249 404.25 223.22 406.445 223.251C407.298 223.141 408.151 223.032 409.004 222.922C412.929 222.862 414.308 223.152 416.613 223.174C417.028 223.178 424.598 223.158 425.005 223.151C425.872 223.139 426.45 223.113 427 223.082L426.192 223.89C426.104 222.322 425.979 220.985 426.018 213.834C426.028 212.115 426.113 210.724 426.116 209.169C426.123 206.424 425.929 198.15 425.75 197.499C425.974 194.168 425.883 185.258 425.947 182.633C425.967 181.841 426.11 181.662 426.14 179.227C426.165 177.253 426.051 172.17 426.07 169.666C426.091 167.009 426.21 166.06 426.219 164.869C426.227 163.744 426.13 162.707 426.131 161.174C426.134 156.389 426.29 152.055 426.292 148.273C426.297 142.803 426.011 137.972 425.884 133.395C425.902 132.259 425.964 131.143 425.964 129.952C425.973 115.219 426.026 98.5996 426.087 83.8228C426.115 76.9628 426.504 59.9039 425.856 64.457C425.742 62.073 426.003 44.739 426.007 41.4419C426.011 38.1704 425.897 35.5718 425.893 33L427 34.1067C426.981 34.1067 426.962 34.1067 426.944 34.1067C419.346 34.1118 413.615 34.028 404.176 34.1292C401.694 34.1557 398.99 34.2934 397.593 34.2918C395.866 34.2896 393.996 34.1564 391.719 34.1479C386.179 34.1288 376.286 34.1726 370.962 34.1496C369.997 34.1451 369.658 34.0281 368.324 33.9915C363.117 33.8487 357.139 33.8611 358.195 34.2345C351.313 34.0225 345.233 34.2159 338.854 34.2277C325.653 34.2519 301.406 34.1648 289.863 34.3217C282.551 34.4207 282.78 34.5882 272.026 34.4436C269.635 34.4116 267.272 34.3683 264.383 34.3301C257.614 34.2401 251.394 33.9307 246.231 34.3036C238.71 34.2069 232.722 34.2754 227.132 33.9566C226.474 34.033 225.816 34.1095 225.159 34.186C224.237 34.1879 223.316 34.1898 222.395 34.1917C222.108 34.1187 221.82 34.0458 221.533 33.9729C214.952 33.9532 206.511 34.253 200.965 34.2508C191.503 34.2474 167.512 34.131 158.512 34.0326C153.799 33.9803 153.556 34.1365 150.882 33.8154C149.838 33.8377 148.75 33.8601 147.688 33.8824C147.021 33.9527 146.355 34.023 145.691 34.0933C139.603 34.0962 132.495 33.9869 126.668 33.9881C116.314 33.9903 100.233 34.1838 89.8778 34.0567C87.1584 34.0247 83.8235 33.8797 81.2626 33.8813C77.567 33.8836 76.6199 34.1242 71.7695 34.1287C63.8202 34.136 47.9872 33.8565 40.3816 33.8778C37.994 33.884 36.9266 33.9736 35.3593 33.9831C28.7301 34.0242 22.9454 34.0169 16.8241 34.1552C13.0469 34.0399 11.7294 33.9079 10.8182 33.7671C9.70819 33.6263 9.28927 33.4768 8.21283 33.3267C6.89501 33.1 1.41929 32.5747 1.05118 32.3762C0.652165 32.2367 2.15538 32.0573 1.56162 31.9038C9.94607 31.7812 13.4245 31.9161 20.0558 32.1321C32.4938 32.1235 44.873 32.1149 57.3061 32.1063C58.4241 32.1901 59.5553 32.2739 60.6994 32.3577C60.6994 32.3579 60.6994 32.3581 60.6994 32.3582C65.6522 32.4549 67.4518 32.2391 70.0461 32.1901C94.7785 31.7211 143.065 32.0882 170.193 32.1411C176.005 32.1523 194.988 32.0394 199.028 32.1755C200.071 32.2109 200.362 32.3402 201.458 32.3458C211.269 32.2689 221.16 32.1921 231.009 32.1153C251.271 32.316 272.234 32.1502 292.653 32.1193C337.759 32.0508 382.688 31.9703 427 31.96C427.588 31.9584 428.038 32.4117 428.04 33C428.042 42.9658 428.041 52.9185 428.035 62.8594C428.029 73.358 428.126 86.6809 428.064 96.9589C428.038 101.248 427.83 103.036 427.985 108.671C427.929 108.73 427.873 108.789 427.817 108.848C427.885 113.766 428.012 116.909 428.025 122.422C428.035 127.065 428.044 139.349 428.022 143.452C428.012 145.58 427.907 144.787 427.908 146.771C427.909 150.167 428.054 157.424 428.054 162.111C428.054 166.357 427.934 173.515 427.951 176.779C428.013 188.535 428.191 201.34 428.143 213.867C428.13 217.328 427.994 221.779 427.998 222.863C428 223.251 428.005 223.588 428.014 223.89C428.015 224.464 427.573 224.902 427 224.904C425.653 224.941 425.019 225.031 423.858 225.045C416.635 225.13 405.376 224.974 398.296 224.968C375.225 224.948 350.785 225.005 327.814 224.981C313.301 224.966 289.184 224.989 275.785 224.89C272.896 224.869 273.666 224.724 271.24 224.724C268.55 224.724 267.093 224.822 265.836 224.83C257.134 224.885 237.925 224.983 229.709 224.884C228.144 224.865 227.009 224.752 226.072 224.752C225.598 224.752 224.527 224.829 223.038 224.837C209.893 224.907 200.308 224.862 187.427 224.835C162.758 224.785 134.175 224.929 108.26 224.851C102.613 224.834 98.7411 224.611 97.9471 224.613C96.2048 224.618 95.0895 224.768 91.5607 224.805C84.9973 224.873 77.1606 224.853 69.5756 224.835L70.3366 224.451C66.7834 229.253 63.324 233.931 60.4356 237.911C57.724 241.646 54.2419 246.61 51.3124 250.706C50.5613 251.729 49.1648 251.269 49.1631 250C49.1497 249.021 49.1389 248.081 49.132 247.198C49.0983 242.864 49.1731 232.63 49.0893 230.709C49.0387 229.541 48.8762 229 48.8559 227.601ZM160.742 222.858C159.97 223.118 168.083 222.902 165.04 222.763C164.354 222.731 160.942 222.791 160.742 222.858ZM426.419 110.235C426.345 110.31 426.271 110.384 426.196 110.458C426.227 111.523 426.258 112.589 426.289 113.654C426.334 113.055 426.378 112.456 426.423 111.858C426.422 111.317 426.42 110.776 426.419 110.235Z" fill="#002B49"/>
<g clip-path="url(#clip0_4401_6656)">
<path d="M33.5 65C29.2321 65 25.0059 64.1594 21.0628 62.5261C17.1197 60.8928 13.537 58.4989 10.519 55.481C7.50114 52.4631 5.10721 48.8803 3.47393 44.9372C1.84064 40.9942 1 36.768 1 32.5C1.00001 28.232 1.84066 24.0058 3.47394 20.0627C5.10722 16.1196 7.50116 12.5369 10.5191 9.51898C13.537 6.50108 17.1197 4.10715 21.0628 2.47388C25.0059 0.840615 29.2321 -1.1594e-05 33.5 1.1993e-10C42.1195 6.32846e-06 50.386 3.4241 56.4809 9.51901C62.5758 15.6139 66 23.8804 66 32.4999C66 41.1195 62.5759 49.386 56.4809 55.481C50.386 61.5759 42.1195 65 33.5 65Z" fill="#F48124"/>
<path d="M21.7144 34.6014H28.2895C27.3262 37.3639 25.3757 39.6729 22.813 41.0844V45.0597C30.139 42.1679 31.9797 34.6014 31.9797 34.6014V24.3359H21.7144V34.6014Z" fill="white"/>
<path d="M36.0918 24.3359V34.6014H42.6671C41.7038 37.3639 39.7533 39.6729 37.1906 41.0844V45.0597C44.5165 42.1679 46.3572 34.6014 46.3572 34.6014V24.3359H36.0918Z" fill="white"/>
</g>
<defs>
<clipPath id="clip0_4401_6656">
<rect width="65" height="65" fill="white" transform="translate(1)"/>
</clipPath>
</defs>
</svg>
