<svg width="158" height="134" viewBox="0 0 158 134" fill="none" xmlns="http://www.w3.org/2000/svg">
<path d="M99.6244 46.7439H115.504V34.713H130.062V24.6094C129.899 24.4405 129.734 24.2736 129.566 24.1099H99.6244V46.7439Z" fill="#002B49"/>
<path d="M79.9818 24.1099H71.3214V30.9643H79.9818V24.1099Z" fill="#002B49"/>
<path d="M54.2594 83.7297V96.1333C55.7255 97.3163 57.3261 98.322 59.0279 99.1298V83.7297H54.2594Z" fill="#002B49"/>
<path d="M122.519 48.5727H117.332V74.108H122.519V48.5727Z" fill="#002B49"/>
<path d="M51.038 40.2377V32.7931H39.8751V12.245C35.3475 14.475 31.7274 18.1982 29.6252 22.7866C28.255 22.6271 26.8703 22.638 25.5027 22.819V40.2377H51.038Z" fill="#D40000"/>
<path d="M94.831 74.1643H67.8348V81.9009H94.831V74.1643Z" fill="#002B49"/>
<path d="M66.006 92.2415V83.7297H60.8567V99.8819C61.6241 100.15 62.4095 100.364 63.2069 100.521C66.84 101.23 70.6697 100.627 75.0108 99.4734C77.1638 101.303 79.5148 102.886 82.02 104.192V92.2415H66.006Z" fill="#002B49"/>
<path d="M59.0279 81.9009V74.1643H48.7601V55.2834H42.1945V80.2411C44.7623 85.5611 48.2247 90.4007 52.4306 94.5487V81.9009H59.0279Z" fill="#002B49"/>
<path d="M79.982 32.793H71.321V38.428H60.857V61.879H66.006V44.7H79.982V32.793Z" fill="#002B49"/>
<path d="M32.8188 55.2834V64.7238H16.7742C23.0416 77.3648 35.9771 79 40.3657 79.347V55.2834H32.8188Z" fill="#002B49"/>
<path d="M136.549 74.108H146.795C146.947 72.004 146.898 69.8902 146.647 67.7956H136.549V74.108Z" fill="#002B49"/>
<path d="M66.006 63.7076H60.8567V72.3355H66.006V63.7076Z" fill="#002B49"/>
<path d="M66.006 74.1643H60.8567V81.9009H66.006V74.1643Z" fill="#002B49"/>
<path d="M94.831 83.7297H67.8348V90.4127H83.8488V105.009C89.3802 108.153 100.117 123.763 100.117 123.763L105.877 120.034L99.7454 108.143C99.7454 108.143 110.336 108.886 118.511 104.612C121.048 103.286 122.883 100.581 124.213 97.4823H94.831V83.7297Z" fill="#002B49"/>
<path d="M67.835 61.879H96.66V72.335H106.514V56.394H85.412V32.793H81.811V46.529H67.835V61.879Z" fill="#002B49"/>
<path d="M136.549 91.1413C141.718 88.5696 145.545 83.2884 146.595 75.9368H136.549V91.1413Z" fill="#002B49"/>
<path d="M69.4926 30.9643V24.1099H61.0563V11.4053C60.1686 11.5596 59.2821 11.7173 58.4043 11.8956C56.6392 11.1076 54.777 10.5582 52.8668 10.262V30.9643H69.4926Z" fill="#002B49"/>
<path d="M42.1945 53.4546H50.5889V61.8788H59.0279V36.5989H69.4926V32.7931H52.8668V42.0665H23.6739V23.1424C21.3414 23.6763 19.1423 24.6802 17.2109 26.0928C15.2795 27.5053 13.6564 29.2968 12.4407 31.3578C11.2251 33.4188 10.4424 35.706 10.1406 38.0797C9.83876 40.4534 10.0241 42.8638 10.6852 45.1634H42.1945V53.4546Z" fill="#002B49"/>
<path d="M69.4926 22.2811V10.3291C67.2726 10.5125 65.0701 10.7729 62.8851 11.1103V22.2811H69.4926Z" fill="#002B49"/>
<path d="M130.062 36.5418H117.332V46.7439H124.348V74.108H134.72V65.9668H146.4C145.833 62.638 144.921 59.3776 143.676 56.2388H130.062V36.5418Z" fill="#002B49"/>
<path d="M131.891 54.41H142.914C141.086 50.1999 138.878 46.1651 136.318 42.3556C136.377 41.6881 136.413 41.0139 136.413 40.3311C136.412 39.0613 136.304 37.7937 136.091 36.5418H131.891V54.41Z" fill="#002B49"/>
<path d="M135.71 34.713C134.974 31.8324 133.676 29.1256 131.891 26.7482V34.713H135.71Z" fill="#002B49"/>
<path d="M79.9818 22.2811V10.0673C77.0928 9.97081 74.1995 10.0091 71.3214 10.1899V22.2811H79.9818Z" fill="#002B49"/>
<path d="M97.7956 22.2811V12.6491C92.5688 11.2597 87.2117 10.4172 81.8106 10.1352V22.2811H97.7956Z" fill="#002B49"/>
<path d="M127.446 22.2811C123.511 19.2868 118.702 17.6685 113.757 17.6754C112.888 17.677 112.019 17.7281 111.156 17.8286C107.474 15.9014 103.612 14.3405 99.6244 13.1683V22.2811H127.446Z" fill="#002B49"/>
<path d="M94.831 63.7076H67.8348V72.3355H94.831V63.7076Z" fill="#002B49"/>
<path d="M30.99 53.4546H40.3657V46.9922H11.3091C11.8443 48.3063 12.5358 49.5512 13.3688 50.6998C13.5391 54.8808 14.4112 59.0033 15.9488 62.895H30.99V53.4546Z" fill="#002B49"/>
<path d="M51.038 30.9643V10.06C50.5309 10.0245 50.0208 10 49.5045 10C46.8383 9.99715 44.1943 10.4839 41.7039 11.4361V30.9643H51.038Z" fill="#002B49"/>
<path d="M124.348 75.9368V83.7297H96.6598V95.6535H124.928C125.276 94.6738 125.582 93.6761 125.847 92.6859C126.016 92.7076 126.182 92.7267 126.351 92.7493C129.168 93.1431 132.038 92.8559 134.72 91.9118V75.9368H124.348Z" fill="#F48124"/>
<path d="M59.0279 63.7076H50.5889V72.3355H59.0279V63.7076Z" fill="#002B49"/>
<path d="M81.811 30.964H87.241V54.565H108.343V74.164H96.66V81.901H122.519V75.937H115.504V48.573H97.796V24.11H81.811V30.964Z" fill="#002B49"/>
</svg>
