<svg width="158" height="138" viewBox="0 0 158 138" fill="none" xmlns="http://www.w3.org/2000/svg">
<path d="M101.115 127.011L100.359 125.912C95.6791 119.107 87.4435 108.529 83.9346 107.275C81.075 106.043 78.4202 104.381 76.062 102.347C72.4685 103.269 68.3342 104.024 64.3163 103.24C51.8889 100.814 44.0062 85.7242 42.2923 82.1343C24.7745 80.8928 14.5264 70.394 13.3948 52.5451C11.4143 49.6912 10.2529 46.3494 10.0368 42.8822C9.82075 39.4151 10.5581 35.955 12.169 32.8772C13.7798 29.7994 16.2026 27.2214 19.1747 25.4228C22.1467 23.6242 25.5544 22.6738 29.0283 22.6745C29.4038 22.6745 29.7863 22.6864 30.1729 22.71C32.1201 18.8914 35.0833 15.6842 38.7363 13.4417C42.3893 11.1991 46.5903 10.0082 50.8767 10C53.9872 9.99544 57.0663 10.6205 59.9288 11.8375C78.9938 8.05733 98.2113 10.2212 112.796 17.7923C113.59 17.7142 114.373 17.6752 115.13 17.6752C121.5 17.6825 127.607 20.2163 132.111 24.7206C136.615 29.225 139.149 35.3321 139.157 41.7022C139.157 42.2391 139.136 42.7877 139.095 43.3647C150.052 60.0441 152.656 76.2718 146.051 86.8416C144.225 89.8489 141.574 92.2689 138.413 93.8143C135.253 95.3597 131.715 95.9655 128.22 95.5597C126.447 101.539 123.858 105.453 120.519 107.2C114.385 110.405 107.084 110.911 103.395 110.937L109.037 121.881L101.115 127.011ZM76.7052 99.3399L77.2468 99.7798C79.5229 101.79 82.0883 103.446 84.8569 104.693C89.7084 106.425 98.9751 119.169 101.857 123.263L105.46 120.93L98.7818 107.978L101.212 108.146C101.315 108.15 111.525 108.804 119.247 104.769C122.049 103.303 124.347 99.4771 125.894 93.7021L126.207 92.5374L127.903 92.7609C130.974 93.2302 134.114 92.7805 136.929 91.4686C139.745 90.1567 142.109 88.0412 143.724 85.3884C149.796 75.6723 147.113 60.3823 136.548 44.4857L136.282 44.0848L136.324 43.606C136.384 42.9284 136.413 42.3053 136.413 41.7022C136.407 36.0594 134.162 30.6496 130.172 26.6595C126.182 22.6694 120.772 20.425 115.13 20.4185C114.312 20.4203 113.496 20.4684 112.684 20.5627L112.262 20.6112L111.887 20.4137C97.6993 12.9159 78.8046 10.8029 60.0495 14.6115L59.6185 14.699L59.217 14.5193C56.5938 13.344 53.7511 12.7387 50.8767 12.7433C46.9503 12.7508 43.1082 13.8838 39.806 16.008C36.5037 18.1322 33.8796 21.1585 32.2446 24.7284L31.8325 25.6318L30.8451 25.5218C30.2419 25.4539 29.6354 25.4192 29.0283 25.4178C26.0258 25.4172 23.0816 26.2467 20.5212 27.8149C17.9608 29.383 15.8838 31.6287 14.52 34.3035C13.1561 36.9783 12.5585 39.9782 12.7931 42.9715C13.0277 45.9648 14.0855 48.835 15.8495 51.2646L16.0872 51.5909L16.1097 51.9953C17.0296 68.5517 26.4228 78.2867 42.5607 79.4041C42.9249 79.4053 43.2875 79.4517 43.6402 79.5424L44.2179 79.7352L44.4626 80.2933C44.5413 80.4707 52.434 98.1256 64.8413 100.546C67.8038 101.125 71.1501 100.817 76.0306 99.5196L76.7052 99.3399Z" fill="#002B49"/>
<path d="M99.5285 61.7338C99.3429 61.7338 99.1543 61.7267 98.9621 61.7102C95.3397 61.4016 93.4898 58.3816 91.5317 55.1855C89.4814 51.8392 87.1573 48.046 82.3123 46.2026C78.5297 44.7647 75.1858 45.2283 72.2344 45.6409C69.1412 46.0737 66.2164 46.4793 64.1909 44.0955C61.8136 41.299 62.9866 37.4833 64.1217 33.7929C65.0772 30.6843 65.9799 27.7484 64.6071 26.0882C63.4129 24.6457 61.1207 24.8691 57.4842 25.3504C53.8724 25.8304 49.3774 26.4276 45.3187 24.2862C42.0907 22.5835 39.6288 19.4193 38.0012 14.8823L40.5837 13.9553C41.9724 17.8277 43.9962 20.487 46.5981 21.8598C49.8853 23.5921 53.7294 23.0813 57.1229 22.6308C60.9162 22.1283 64.4978 21.6517 66.7207 24.3406C69.0371 27.1394 67.8712 30.9315 66.7438 34.5994C65.7837 37.7198 64.8773 40.6688 66.2809 42.3195C67.283 43.4995 68.8816 43.3387 71.856 42.9237C74.9718 42.4897 78.8495 41.9494 83.2878 43.6391C89.0072 45.8147 91.7038 50.2169 93.8706 53.7524C95.7826 56.8728 97.0625 58.7943 99.1951 58.9764C101.939 59.2188 103.888 56.4637 106.866 51.9669C109.5 47.9881 112.486 43.4783 117.243 40.7338C122.665 37.6063 129.773 37.2705 138.372 39.7359L137.616 42.3727C129.761 40.1213 123.366 40.3685 118.613 43.1105C114.416 45.531 111.62 49.7546 109.152 53.4816C106.346 57.7207 103.688 61.7338 99.5285 61.7338Z" fill="#002B49"/>
<path d="M17.8691 64.5445L15.859 62.6786C22.3204 55.72 28.5926 52.447 34.5125 52.9803C38.8011 53.3575 42.5973 55.6538 45.9466 57.6793C49.4596 59.8041 52.4931 61.6357 54.7285 60.4237C56.2071 59.6196 56.6021 57.9359 57.0591 55.9848C57.587 53.7335 58.1853 51.1806 60.6939 49.731C64.9678 47.262 70.4419 50.5362 75.2745 53.4225C78.5527 55.3818 82.2703 57.5929 83.7637 56.6245C85.4315 55.5355 84.4087 50.4333 83.506 45.9318C82.1734 39.2877 80.6628 31.7556 84.8935 28.0404C87.8242 25.4651 91.6712 26.307 95.3906 27.1228C98.7794 27.8631 102.282 28.6328 105.28 27.0082C107.768 25.6602 109.578 22.8377 110.66 18.6188L113.317 19.2999C112.038 24.2886 109.774 27.694 106.586 29.4203C102.689 31.5298 98.5004 30.6098 94.8035 29.8022C91.4696 29.0703 88.5922 28.4413 86.7038 30.1002C83.6644 32.7713 85.0088 39.4769 86.1954 45.3926C87.4251 51.5235 88.4864 56.8185 85.2631 58.9208C82.33 60.834 78.2199 58.3793 73.8674 55.7767C69.6851 53.2771 64.9429 50.4451 62.0667 52.1053C60.5857 52.9614 60.189 54.6534 59.7296 56.6115C59.1987 58.8759 58.5974 61.4429 56.0381 62.8335C52.418 64.8011 48.5864 62.4811 44.5271 60.0264C41.2819 58.0636 37.9261 56.0345 34.2718 55.7129C29.2299 55.2588 23.7239 58.2409 17.8691 64.5445Z" fill="#F48124"/>
<path d="M126.217 88.095C123.401 88.095 120.514 86.6784 117.128 85.0195C113.926 83.3616 110.594 81.9665 107.166 80.8478C96.9165 77.6624 90.1045 79.3722 84.0924 80.8786C78.5658 82.2632 73.7923 83.4587 68.1722 80.3595C59.5706 75.6144 57.412 65.1333 55.5077 55.8867C53.7223 47.2147 52.0349 39.024 45.596 36.7774C42.6902 35.7641 40.4098 36.4783 37.5223 37.3804C33.5114 38.8631 29.1959 39.3299 24.9608 38.7391C20.7483 38.0873 16.7211 36.5529 13.1429 34.2364L14.6103 31.9188C17.8639 34.0291 21.5267 35.4281 25.3587 36.0242C29.1864 36.5534 33.0856 36.1198 36.7035 34.7625C39.8062 33.7929 42.7381 32.873 46.4994 34.1879C54.4081 36.9465 56.2473 45.8774 58.1948 55.3333C60.0666 64.4239 62.0022 73.823 69.4977 77.9568C74.1712 80.5369 78.256 79.5141 83.4256 78.2169C89.4713 76.7034 96.994 74.8151 107.979 78.2276C111.543 79.3864 115.007 80.8338 118.336 82.5553C123.223 84.9521 125.897 86.1369 128.601 84.77C131.608 83.2482 132.405 79.6843 133.25 75.9124C134.068 72.2622 134.913 68.4879 138.108 66.9141C140.881 65.546 144.455 66.2602 149.037 69.0897L147.596 71.4239C143.934 69.1631 141.149 68.4701 139.32 69.3747C137.303 70.3679 136.634 73.3524 135.927 76.5119C135.024 80.5428 134.002 85.1105 129.84 87.2176C128.72 87.7962 127.478 88.0971 126.217 88.095Z" fill="#D40000"/>
<path d="M54.8515 97.3109L52.7799 95.5136C56.3443 91.4046 60.3575 88.7749 64.7076 87.7C71.5167 86.0174 77.8244 88.3788 83.3907 90.4646C88.9593 92.5492 93.7671 94.3477 97.6886 91.6943C100.452 89.8213 100.941 87.0769 101.618 83.2801C102.371 79.06 103.308 73.8088 108.059 68.3803C110.832 65.2564 114.298 62.8257 118.18 61.2833C121.206 59.9082 123.392 58.9149 124.953 55.7625C127.547 50.5185 126.377 43.4629 124.065 38.797C122.469 35.5737 120.323 33.4181 118.326 33.0315C115.772 32.5372 113.511 35.1185 110.891 38.1088C107.731 41.7117 104.127 45.7603 98.7842 45.5877C89.8391 45.2401 81.9103 32.4745 80.3885 21.2355C79.8876 17.4904 80.056 13.6862 80.8857 10L83.5639 10.5936C82.8046 13.9639 82.6498 17.4422 83.1069 20.8666C84.4797 31.006 91.5211 42.5607 98.8906 42.8468C102.966 43.0065 105.938 39.5975 108.828 36.3009C111.74 32.9794 114.75 29.5445 118.847 30.3379C121.722 30.8948 124.52 33.534 126.523 37.5791C129.135 42.8504 130.422 50.8945 127.411 56.9781C125.417 61.0078 122.453 62.3546 119.315 63.7806C115.789 65.1625 112.64 67.3576 110.124 70.187C105.875 75.0409 105.048 79.6737 104.319 83.7614C103.614 87.7119 102.949 91.4424 99.227 93.9646C94.1343 97.4185 88.4473 95.2877 82.4288 93.0328C76.9831 90.9943 71.3506 88.8813 65.3663 90.3629C61.2234 91.5274 57.5474 93.9565 54.8515 97.3109Z" fill="#002B49"/>
<path d="M46.7081 86.4147L44.4307 84.8847C49.3118 77.6198 49.2745 74.4438 48.3836 73.0568C47.4152 71.5516 44.9173 71.4049 42.025 71.2335C38.3187 71.0159 34.1169 70.7676 31.6415 67.3409C28.9787 63.6553 30.1428 58.7801 31.1703 54.4772C31.9531 51.1995 32.6921 48.1039 31.3211 46.9522C30.5744 46.3267 29.5362 46.4946 27.9056 46.8186C26.2301 47.1544 24.3329 47.5316 22.4871 46.5668C18.5869 44.5247 17.5924 37.9906 19.3578 26.0007L22.0715 26.4004C20.0673 40.0137 22.2684 43.3553 23.7594 44.1357C24.7462 44.6524 26.0196 44.397 27.3676 44.1298C29.2063 43.7585 31.2915 43.3446 33.0853 44.8522C35.754 47.0929 34.8234 50.9902 33.8385 55.1146C32.9049 59.0261 31.9389 63.0688 33.8651 65.7352C35.5784 68.106 38.9377 68.3046 42.1864 68.4962C45.5209 68.6924 48.9689 68.8958 50.6905 71.574C52.661 74.6389 51.3586 79.4928 46.7081 86.4147Z" fill="#002B49"/>
<path d="M90.1696 109.95L87.5895 109.021C88.4678 106.63 88.9278 104.106 88.9493 101.559C88.9765 92.6793 83.3055 85.5859 78.749 79.8865C75.0155 75.2159 72.0665 71.5267 73.7769 68.2987C76.1489 63.8232 85.0443 64.9926 93.9533 66.5759L94.1496 66.6114C99.5587 67.6287 104.844 69.2181 109.917 71.3529C114.989 73.3453 118.049 74.5478 120.983 72.9551C123.32 71.6852 124.171 69.422 124.923 67.4249C125.61 65.5992 126.321 63.7109 128.237 63.3526C131.089 62.8146 135.187 65.3745 143.99 88.4131L141.427 89.3921C132.517 66.071 129.093 65.9693 128.742 66.0485C128.344 66.123 127.87 67.3811 127.49 68.3909C126.662 70.5926 125.527 73.6078 122.293 75.3649C118.234 77.5713 114.326 76.0318 108.914 73.9058C104.009 71.8401 98.8992 70.3002 93.6696 69.312L93.4733 69.2777C89.1976 68.5186 77.8356 66.5002 76.2009 69.5828C75.3336 71.2205 78.0337 74.5975 80.8922 78.1732C85.4629 83.8914 91.7227 91.7215 91.6925 101.568C91.6703 104.428 91.1552 107.264 90.1696 109.95Z" fill="#002B49"/>
</svg>
