<svg width="147" height="131" viewBox="0 0 147 131" fill="none" xmlns="http://www.w3.org/2000/svg">
<path d="M50.1562 1.17389C33.0669 3.49428 18.7997 12.4622 9.29865 26.8549C-4.99992 48.5536 -2.58546 78.0287 15.0055 96.9994C22.9387 105.56 33.0982 111.549 44.0103 114.214C49.6858 115.562 57.525 116.064 63.5768 115.437C71.4159 114.59 80.5406 111.612 86.5924 107.911C87.4077 107.378 88.2543 106.971 88.4738 106.971C88.662 106.971 89.3832 107.441 90.1044 108.037C92.7383 110.169 94.6824 110.608 97.1909 109.605L98.4452 109.103L102.898 113.023C119.736 127.791 119.987 127.98 122.872 129.297C130.084 132.62 139.083 129.892 143.473 123.057C145.229 120.329 145.856 118.416 146.013 115.123C146.295 109.95 144.853 106.03 141.404 102.581C139.679 100.856 129.927 93.8951 118.764 86.4009L116.977 85.2093L117.165 83.4534C117.385 81.1016 116.632 79.5965 114.123 77.6211C112.775 76.5863 112.273 75.9905 112.399 75.6456C112.524 75.3634 112.932 73.7329 113.371 72.0082C119.172 48.1459 109.295 23.1862 88.8501 9.98507C77.2795 2.52223 63.4827 -0.613421 50.1562 1.17389ZM67.8099 6.62993C74.3007 8.00961 81.2932 10.8944 86.467 14.3123C91.8917 17.8869 97.8181 23.7819 101.487 29.3007C104.905 34.4432 107.664 41.1221 109.169 47.8637C109.765 50.5917 109.859 51.9087 109.859 58.2114C109.859 64.9844 109.828 65.6429 109.012 69.0921C108.542 71.1303 107.852 73.5761 107.539 74.5481C106.41 77.7465 106.629 78.1855 110.737 81.2584C111.552 81.8542 112.242 82.5127 112.242 82.7008C112.242 83.3907 95.3095 105.089 94.7451 105.089C94.4943 105.089 93.24 104.243 91.9544 103.208C90.3239 101.922 89.3204 101.327 88.7247 101.327C88.1916 101.327 86.7492 102.016 85.2127 102.957C80.0703 106.155 74.238 108.476 68.1235 109.824C64.2666 110.639 54.7969 110.984 50.5952 110.451C42.2543 109.322 33.8194 105.967 26.6074 100.825C23.0955 98.3477 17.2632 92.4527 14.6293 88.784C8.42067 80.0669 5.00281 69.1862 5.00281 58.2114C5.00281 33.9101 21.1828 13.1834 44.7315 7.25705C50.0621 5.90873 52.1003 5.72059 58.7792 5.84601C63.2945 5.94008 65.4895 6.12822 67.8099 6.62993ZM122.119 94.679C134.913 103.459 136.826 104.839 137.892 105.842C139.177 107.065 140.62 109.918 141.09 112.176C142.093 117.005 139.115 122.524 134.254 124.781C132.718 125.502 132.059 125.628 129.457 125.628C126.635 125.628 126.321 125.565 124.377 124.53C122.997 123.809 119.956 121.363 115.503 117.475C111.772 114.183 107.1 110.106 105.124 108.413C102.866 106.469 101.612 105.152 101.706 104.87C101.863 104.494 109.451 94.6163 112.775 90.4145C113.434 89.6306 113.998 89.1916 114.218 89.317C114.437 89.4111 117.98 91.8569 122.119 94.679Z" fill="#F48124"/>
<path d="M50.4697 13.3724C31.3108 16.4139 16.0716 31.4024 12.8105 50.4671C9.61213 69.3437 18.4233 88.0636 35.0109 97.6587C47.9925 105.122 64.4547 105.529 78.0634 98.6621C86.4356 94.4603 93.8357 86.9661 98.1943 78.343C106.692 61.4105 103.305 39.994 89.9788 26.6989C82.7355 19.4555 74.7082 15.1597 65.3013 13.5291C61.0368 12.808 54.6087 12.7139 50.4697 13.3724ZM67.5589 19.0479C81.8889 22.6539 93.0831 33.9422 96.7205 48.4603C101.267 66.6157 92.4874 85.9627 75.9311 94.2408C70.5378 96.9375 66.681 98.0349 60.8173 98.5053C48.6196 99.4773 37.5194 95.3696 28.8337 86.6212C22.8759 80.6321 19.3013 73.7964 17.6707 65.3615C16.8868 61.3165 16.9495 54.418 17.8275 50.3103C21.6217 32.1236 36.7669 18.8911 54.8596 17.9504C59.7825 17.6996 63.5453 18.0131 67.5589 19.0479Z" fill="#F48124"/>
<path d="M32.2203 37.8923C31.75 38.1745 31.311 38.7076 31.2169 39.0525C30.8407 40.4009 31.0288 77.4329 31.3737 78.2482C32.0008 79.5965 32.9415 79.7219 40.2476 79.6279L47.0833 79.5338L48.5884 77.7778V39.178L46.7698 37.3593H39.9027C34.0704 37.3593 32.9415 37.4533 32.2203 37.8923ZM43.5714 47.0798H36.0458V42.3763H43.5714V47.0798ZM43.5714 57.4274H36.0458V52.0968H43.5714V57.4274ZM43.5714 67.4615H36.0458V62.1309H43.5714V67.4615ZM43.5714 74.6735H36.0458V72.4786H43.5714V74.6735Z" fill="#F48124"/>
<path d="M52.1315 52.4097C51.7553 52.5665 51.3163 52.9741 51.1281 53.319C50.9086 53.7266 50.7832 58.0852 50.7832 66.0184C50.7832 77.6517 50.8146 78.1534 51.4103 78.7491C52.3197 79.6585 52.9154 79.7212 60.1588 79.6271L66.8377 79.533L67.5903 78.6551L68.3742 77.7457L68.1861 53.6012L67.3081 52.8487C66.4301 52.0961 66.3674 52.0961 59.6257 52.1275C55.8943 52.1275 52.5078 52.2529 52.1315 52.4097ZM63.3258 63.4158L55.6435 63.2277L55.5808 57.1131H63.3258V63.4158ZM63.3258 74.7041L55.6435 74.516L55.4553 68.4015H63.3258V74.7041Z" fill="#F48124"/>
<path d="M71.1647 64.0751C70.5689 64.7022 70.5375 65.1412 70.5375 71.4125C70.5375 77.4957 70.6002 78.1228 71.1333 78.7813C71.7291 79.5338 71.7291 79.5338 79.1606 79.5338C86.5921 79.5338 86.5921 79.5338 87.1878 78.7813C87.7209 78.1228 87.7836 77.4957 87.7836 71.3498C87.7836 65.0471 87.7523 64.6081 87.1565 64.0124C86.5607 63.4166 86.1217 63.3852 79.1606 63.3852C72.0113 63.3852 71.7918 63.4166 71.1647 64.0751ZM83.1115 74.6736H75.241V68.0573L82.9234 68.2455L83.1115 74.6736Z" fill="#F48124"/>
</svg>
