<svg width="110" height="108" viewBox="0 0 110 108" fill="none" xmlns="http://www.w3.org/2000/svg">
<path d="M51.8384 0.283086C48.9689 0.978032 45.9201 3.17497 44.3733 5.66333L43.5887 6.91873H23.7266C6.64428 6.91873 3.75239 6.96356 3.10228 7.25499C2.1159 7.68093 1.46578 8.24137 0.905342 9.18291C0.43457 9.94512 0.43457 9.94512 0.43457 42.8095V75.6738L1.08468 76.6602C1.44337 77.1982 2.09348 77.8483 2.497 78.0949C3.21437 78.5209 3.72997 78.5433 21.7538 78.6554L40.2933 78.7675L34.9354 92.2181C30.833 102.508 29.6 105.803 29.7121 106.274C29.9587 107.529 30.2725 107.574 36.5495 107.574C41.7056 107.574 42.3557 107.529 42.7592 107.171C43.0282 106.969 43.5214 105.938 43.9025 104.884C44.6871 102.62 52.7351 80.1574 53.0938 79.2831C53.3179 78.6778 53.3852 78.6554 55.0665 78.6554H56.8151L60.7158 89.5952C66.5892 106.005 66.9479 106.969 67.3738 107.283C67.6653 107.507 69.2345 107.574 73.6508 107.574H79.5467L79.995 106.991C80.264 106.655 80.4658 106.207 80.4658 105.96C80.4658 105.714 78.0895 99.5711 75.1976 92.3078C72.3057 85.022 69.9295 78.9916 69.9295 78.8571C69.9295 78.7451 76.9462 78.6554 88.1551 78.6554C105.394 78.6554 106.403 78.633 107.277 78.2294C108.331 77.7587 108.981 76.9965 109.497 75.6738C109.811 74.822 109.833 71.4817 109.788 42.4508L109.721 10.1693L109.205 9.22775C108.936 8.68972 108.286 7.99478 107.771 7.65851L106.829 7.03081L86.6082 6.96356L66.3875 6.91873L66.096 6.17894C65.6253 5.05806 62.6213 2.18859 61.0521 1.35914C60.3123 0.978032 59.0345 0.50726 58.2498 0.305501C56.5237 -0.0980177 53.4524 -0.0980177 51.8384 0.283086ZM57.1514 3.69058C58.7654 4.04926 60.8279 5.21498 61.8367 6.33587L62.3747 6.91873H55.1786C50.6278 6.91873 47.9601 6.82905 47.9601 6.69455C47.9601 6.3807 50.1795 4.67695 51.0986 4.27343C52.1522 3.82509 53.9456 3.37673 54.8648 3.35431C55.2683 3.33189 56.2995 3.48882 57.1514 3.69058ZM106.112 10.8642C106.179 11.066 106.246 25.5254 106.246 43.0336V74.8444L105.686 75.0686C105.327 75.2031 86.4737 75.2927 54.9544 75.2927C10.0966 75.2927 4.73877 75.2479 4.29042 74.934L3.79723 74.5978V42.8095C3.79723 18.3966 3.86448 10.9763 4.06624 10.7746C4.268 10.5728 15.9252 10.5056 55.1562 10.5056C101.292 10.5056 105.977 10.528 106.112 10.8642ZM49.4621 78.9468C49.3948 79.1262 47.9153 83.2286 46.1667 88.0932C44.4181 92.9579 42.4229 98.5399 41.7056 100.513L40.4278 104.099L34.0163 104.234L34.1956 103.718C34.2629 103.427 35.8545 99.4142 37.6928 94.7961C39.5535 90.1781 41.7056 84.7306 42.4902 82.713C43.2748 80.6954 43.9922 78.9692 44.0594 78.8571C44.1267 78.7451 45.3821 78.6554 46.8841 78.6554C49.0586 78.6554 49.5518 78.7226 49.4621 78.9468ZM70.9831 91.2093C73.7181 98.0467 75.9598 103.786 75.9598 103.92C75.9822 104.144 75.22 104.212 72.8662 104.212H69.7277L69.2569 102.911C68.9879 102.216 67.2618 97.4414 65.4459 92.3302C63.6077 87.2189 61.747 82.0405 61.3211 80.8299L60.514 78.633L66.0064 78.7675L70.9831 91.2093Z" fill="#F48124"/>
<path d="M71.6107 19.5176C71.0951 19.809 67.2393 22.6112 59.7742 28.1036L54.4388 32.0267H36.0338L34.5543 33.4166C33.7248 34.2012 31.3485 36.5102 29.2413 38.5502C27.1564 40.6127 23.9507 43.7511 22.1124 45.5221C19.0412 48.5037 18.817 48.7727 18.817 49.5573C18.817 50.4989 19.6241 51.3059 20.5432 51.3059C21.1709 51.3059 21.9331 50.611 28.7705 43.9081C30.9674 41.756 32.8729 39.8729 33.0299 39.7608C33.1868 39.6263 34.2628 38.6175 35.4286 37.4966L37.5358 35.4342H46.5926L55.6493 35.4118L56.4564 34.8737C56.9047 34.5599 61.0072 31.5783 65.558 28.2381C71.2969 24.0236 73.9198 21.9835 74.0318 21.58C74.3233 20.7506 74.0318 19.966 73.2921 19.5849C72.5299 19.1813 72.216 19.1813 71.6107 19.5176Z" fill="#F48124"/>
<path d="M69.1449 32.9237C68.3603 33.2376 68.1585 33.6635 68.0913 35.2776L68.024 36.8468L63.9888 36.9141C58.8328 36.9813 58.9448 36.9141 58.9448 40.2543V42.5633H54.9321C51.2331 42.5633 50.8969 42.6082 50.3364 43.0341C49.8433 43.4376 49.7536 43.6618 49.7536 44.7154V45.926H45.9426C41.9522 45.926 41.0331 46.1053 40.6968 46.9348C40.6296 47.1366 40.5623 50.0284 40.5623 53.3463C40.5623 59.0628 40.5399 59.3766 40.1588 59.3766C39.9122 59.3766 39.5535 59.5784 39.3069 59.8474C38.9258 60.2733 38.881 60.7665 38.8137 64.712C38.7689 67.1332 38.7913 69.3301 38.881 69.6215C38.9482 69.8905 39.2173 70.3389 39.4863 70.5855C39.9795 71.0338 40.1812 71.0338 63.675 71.0338H87.3705L87.9758 70.3389L88.5586 69.6215L88.4914 64.9586C88.4241 60.8338 88.3793 60.2509 88.0206 59.8922C87.6843 59.556 87.1015 59.4663 84.2096 59.3766L80.8021 59.2645L80.5779 33.5514L80.0399 33.1255C79.5691 32.7444 79.1208 32.6996 74.5476 32.722C71.835 32.722 69.3915 32.8116 69.1449 32.9237ZM77.2825 47.7643L77.2153 59.2645L71.4987 59.399V36.2864H77.3274L77.2825 47.7643ZM68.1361 49.6698C68.1361 54.7137 68.0464 58.9507 67.9568 59.1076C67.7998 59.3094 67.0825 59.3766 65.0873 59.3318L62.4196 59.2645L62.3523 49.8939L62.3075 40.5458H68.1361V49.6698ZM58.9 52.6962L58.8327 59.2645H53.2283L53.1611 52.6962L53.1162 46.1502H58.9448L58.9 52.6962ZM49.6415 59.2645H44.0371L43.9698 54.6689C43.9474 52.1581 43.9698 49.9612 44.0371 49.7818C44.1043 49.5577 44.7768 49.5128 46.8841 49.5577L49.6415 49.6249V59.2645ZM84.9494 67.447L70.6693 67.4694C54.5061 67.5143 52.9593 67.5143 46.7944 67.4694L42.3557 67.447V62.7393H84.9494V67.447Z" fill="#F48124"/>
</svg>
