<svg width="49" height="48" viewBox="0 0 49 48" fill="none" xmlns="http://www.w3.org/2000/svg">
<path d="M19.5358 44C18.5558 40.8047 17.0774 38.4223 15.1008 36.853C12.1358 34.5 7.42478 35.963 5.68478 33.535C3.94478 31.107 6.90378 26.643 7.94178 24.009C8.97978 21.375 3.96178 20.444 4.54778 19.696C4.93778 19.1973 7.47411 17.7587 12.1568 15.38C13.4868 7.79333 18.4004 4 26.8978 4C39.6438 4 44.4998 14.806 44.4998 21.68C44.4998 28.552 38.6198 35.956 30.2438 37.553C29.4951 38.6437 30.5751 40.7927 33.4838 44" stroke="#002B49" stroke-width="4.667" stroke-linecap="round" stroke-linejoin="round"/>
<path fill-rule="evenodd" clip-rule="evenodd" d="M20.0002 14.5009C19.3462 17.0349 19.5405 18.8145 20.5832 19.8399C21.6252 20.8645 23.4012 21.5345 25.9112 21.8499C25.3412 25.1185 26.0355 26.6519 27.9942 26.4499C29.9522 26.2485 31.1289 25.4352 31.5242 24.0099C34.5842 24.8699 36.2429 24.1499 36.5002 21.8499C36.8852 18.3999 35.0252 15.6489 34.2622 15.6489C33.4992 15.6489 31.5242 15.5559 31.5242 14.5009C31.5242 13.4459 29.2162 12.8509 27.1332 12.8509C25.0502 12.8509 26.3032 11.4459 23.4432 12.0009C21.5365 12.3709 20.3889 13.2042 20.0002 14.5009Z" fill="#D40000" stroke="#D40000" stroke-width="4" stroke-linejoin="round"/>
<path d="M31.0001 25.5C29.9831 26.131 28.5881 27.18 28.0001 28C26.5311 30.05 25.3401 31.298 25.0801 32.608" stroke="#D40000" stroke-width="4" stroke-linecap="round"/>
</svg>
