<svg width="1440" height="248" viewBox="0 0 1440 248" fill="none" xmlns="http://www.w3.org/2000/svg">
<path d="M0 12.7986C193.067 -0.201355 425.148 244.799 542.188 246.799C659.229 248.799 1340.47 51.2029 1440 52.0008" stroke="#002B49" stroke-width="0.5" stroke-miterlimit="10"/>
<path d="M0 29.9656C172.893 12.2989 494.005 239.799 611.046 241.799C728.086 243.799 1340.47 42.5365 1440 43.3344" stroke="#002B49" stroke-width="0.5" stroke-miterlimit="10"/>
<path d="M0 47.1325C152.72 24.7992 562.862 234.799 679.903 236.799C796.943 238.799 1340.47 33.8701 1440 34.668" stroke="#6A00D4" stroke-width="0.5" stroke-miterlimit="10"/>
<path d="M0 64.2994C132.546 37.2994 631.719 229.799 748.76 231.799C865.801 233.799 1340.47 25.2037 1440 26.0015" stroke="#0000D4" stroke-width="0.5" stroke-miterlimit="10"/>
<path d="M0 81.4663C112.372 49.7997 700.577 224.8 817.617 226.8C934.658 228.8 1340.47 16.5373 1440 17.3351" stroke="#0000D4" stroke-width="0.5" stroke-miterlimit="10"/>
<path d="M0 98.6333C92.1987 62.2999 769.434 219.8 886.475 221.8C1003.52 223.8 1340.47 7.87085 1440 8.66872" stroke="#0092BC" stroke-width="0.5" stroke-miterlimit="10"/>
<path d="M0 115.8C72.025 74.8001 838.291 214.8 955.332 216.8C1072.37 218.8 1340.47 -0.795612 1440 0.0022583" stroke="#0092BC" stroke-width="0.5" stroke-miterlimit="10"/>
</svg>
