<svg width="1440" height="249" viewBox="0 0 1440 249" fill="none" xmlns="http://www.w3.org/2000/svg">
<path d="M0 235.015C193.469 248.015 426.033 3.01508 543.318 1.01508C660.602 -0.984919 1343.26 196.611 1443 195.813" stroke="#F48124" stroke-miterlimit="10"/>
<path d="M0 216.833C173.254 234.499 495.034 6.99918 612.318 4.99918C729.603 2.99918 1343.26 204.262 1443 203.464" stroke="#F48124" stroke-miterlimit="10"/>
<path d="M0 200.681C153.038 223.015 564.035 13.0145 681.319 11.0145C798.604 9.01454 1343.26 213.944 1443 213.146" stroke="#00D400" stroke-miterlimit="10"/>
<path d="M0 183.514C132.822 210.514 633.035 18.0143 750.32 16.0143C867.604 14.0143 1343.26 222.61 1443 221.812" stroke="#00D400" stroke-miterlimit="10"/>
<path d="M0 166.347C112.606 198.014 702.036 23.014 819.321 21.014C936.605 19.014 1343.26 231.276 1443 230.479" stroke="#D4D400" stroke-miterlimit="10"/>
<path d="M0 149.18C92.3908 185.514 771.037 28.0138 888.321 26.0138C1005.61 24.0138 1343.26 239.943 1443 239.145" stroke="#D4D400" stroke-miterlimit="10"/>
<path d="M0 132.014C72.1751 173.014 840.038 33.0136 957.322 31.0136C1074.61 29.0136 1343.26 248.609 1443 247.811" stroke="#D4D400" stroke-miterlimit="10"/>
</svg>
