<svg width="1439" height="248" viewBox="0 0 1439 248" fill="none" xmlns="http://www.w3.org/2000/svg">
<path d="M-4 12.7994C189.469 -0.200623 422.033 244.799 539.318 246.799C656.602 248.799 1339.26 51.2036 1439 52.0015" stroke="#002B49" stroke-width="0.5" stroke-miterlimit="10"/>
<path d="M-4 29.9663C169.254 12.2996 491.034 239.8 608.318 241.8C725.603 243.8 1339.26 42.5372 1439 43.3351" stroke="#002B49" stroke-width="0.5" stroke-miterlimit="10"/>
<path d="M-4 47.1333C149.038 24.7999 560.035 234.8 677.319 236.8C794.604 238.8 1339.26 33.8708 1439 34.6687" stroke="#002B49" stroke-width="0.5" stroke-miterlimit="10"/>
<path d="M-4 64.3002C128.822 37.3002 629.035 229.8 746.32 231.8C863.604 233.8 1339.26 25.2044 1439 26.0023" stroke="#002B49" stroke-width="0.5" stroke-miterlimit="10"/>
<path d="M-4 81.4671C108.606 49.8004 698.036 224.8 815.321 226.8C932.605 228.8 1339.26 16.538 1439 17.3359" stroke="#002B49" stroke-width="0.5" stroke-miterlimit="10"/>
<path d="M-4 98.634C88.3908 62.3007 767.037 219.801 884.321 221.801C1001.61 223.801 1339.26 7.87158 1439 8.66945" stroke="#002B49" stroke-width="0.5" stroke-miterlimit="10"/>
<path d="M-4 115.801C68.1751 74.8009 836.038 214.801 953.322 216.801C1070.61 218.801 1339.26 -0.794879 1439 0.00299072" stroke="#002B49" stroke-width="0.5" stroke-miterlimit="10"/>
</svg>
