<svg width="1440" height="249" viewBox="0 0 1440 249" fill="none" xmlns="http://www.w3.org/2000/svg">
<path d="M-3 13.8013C190.469 0.801331 423.033 245.801 540.318 247.801C657.602 249.801 1340.26 52.2056 1440 53.0034" stroke="#002B49" stroke-miterlimit="10"/>
<path d="M-3 30.9683C170.254 13.3016 492.034 240.802 609.318 242.802C726.603 244.802 1340.26 43.5392 1440 44.3371" stroke="#002B49" stroke-miterlimit="10"/>
<path d="M-3 48.1352C150.038 25.8019 561.035 235.802 678.319 237.802C795.604 239.802 1340.26 34.8728 1440 35.6707" stroke="#6A00D4" stroke-miterlimit="10"/>
<path d="M-3 65.3021C129.822 38.3021 630.035 230.802 747.32 232.802C864.604 234.802 1340.26 26.2064 1440 27.0042" stroke="#0000D4" stroke-miterlimit="10"/>
<path d="M-3 82.469C109.606 50.8024 699.036 225.802 816.321 227.802C933.605 229.802 1340.26 17.54 1440 18.3378" stroke="#0000D4" stroke-miterlimit="10"/>
<path d="M-3 99.6359C89.3908 63.3026 768.037 220.803 885.321 222.803C1002.61 224.803 1340.26 8.87353 1440 9.6714" stroke="#0092BC" stroke-miterlimit="10"/>
<path d="M-3 116.803C69.1751 75.8028 837.038 215.803 954.322 217.803C1071.61 219.803 1340.26 0.207074 1440 1.00494" stroke="#0092BC" stroke-miterlimit="10"/>
</svg>
