<svg width="118" height="117" viewBox="0 0 118 117" fill="none" xmlns="http://www.w3.org/2000/svg">
<g clip-path="url(#clip0_4422_4998)">
<path d="M66.7166 2.9017C30.3647 10.789 41.8565 53.8901 45.8246 61.8551C54.1319 78.5297 57.9277 79.5328 57.9277 98.7318V115.229H87.3879V96.3056C87.3879 96.3056 102.782 98.1451 107.426 93.7633C110.646 90.7257 107.782 83.043 107.782 83.043L109.196 79.8082L106.444 77.0648L109.911 74.3091L108.348 71.3977L116.003 66.3241L106.457 44.7553C106.457 44.7553 109.624 -6.40795 66.7166 2.9017Z" fill="#F48124"/>
<g style="mix-blend-mode:screen">
<path d="M88.0665 8.91992C88.0665 8.91992 101.316 14.5811 102.632 38.2642" stroke="#F48124" stroke-width="2" stroke-miterlimit="10" stroke-linecap="round"/>
</g>
<path d="M66.7166 2.9017C30.3647 10.789 41.8565 53.8901 45.8246 61.8551C54.1319 78.5297 57.9277 79.5328 57.9277 98.7318V115.229H87.3879V96.3056C87.3879 96.3056 102.782 98.1451 107.426 93.7633C110.646 90.7257 107.782 83.043 107.782 83.043L109.196 79.8082L106.444 77.0648L109.911 74.3091L108.348 71.3977L116.003 66.3241L106.457 44.7553C106.457 44.7553 109.624 -6.40795 66.7166 2.9017Z" stroke="#002B49" stroke-width="3" stroke-linecap="round" stroke-linejoin="round"/>
<path d="M90.7331 40.0888C92.1429 29.7647 86.2069 20.0442 77.4747 18.3774C68.7425 16.7106 60.5208 23.7287 59.111 34.0527C57.7012 44.3768 63.6372 54.0973 72.3694 55.7641C81.1016 57.4309 89.3233 50.4129 90.7331 40.0888Z" fill="white"/>
<path d="M90.7331 40.0888C92.1429 29.7647 86.2069 20.0442 77.4747 18.3774C68.7425 16.7106 60.5208 23.7287 59.111 34.0527C57.7012 44.3768 63.6372 54.0973 72.3694 55.7641C81.1016 57.4309 89.3233 50.4129 90.7331 40.0888Z" stroke="#002B49" stroke-width="3" stroke-linecap="round" stroke-linejoin="round"/>
<path d="M77.4001 38.0293H74.8756L74.5829 36.4926L74.2719 35.395L71.9669 35.3401L69.9363 35.395L69.6253 36.3646L69.3143 38.0293H66.8629L70.8509 26.2481H73.7962L77.4001 38.0293ZM73.7414 33.4742L72.351 28.5714H72.1864L70.5765 33.4742L72.1498 33.5107L73.7414 33.4742ZM81.4908 34.2974L81.6005 38.0293H79.1126L79.2406 34.5169L79.1126 26.2481H81.6371L81.4908 34.2974Z" fill="#F48124"/>
<path d="M64.7963 22.4031H34.388L29.8144 15.6621H13.6929" stroke="#002B49" stroke-width="3" stroke-linecap="round" stroke-linejoin="round"/>
<path d="M8.37567 21.9489C11.3125 21.9489 13.6932 19.1341 13.6932 15.662C13.6932 12.1898 11.3125 9.375 8.37567 9.375C5.43886 9.375 3.05811 12.1898 3.05811 15.662C3.05811 19.1341 5.43886 21.9489 8.37567 21.9489Z" fill="#F48124"/>
<g style="mix-blend-mode:multiply">
<path d="M10.4007 15.5312C9.37861 15.5312 8.39838 15.0511 7.67565 14.1966C6.95292 13.3422 6.54688 12.1832 6.54686 10.9748C6.55191 10.4857 6.62422 10.0008 6.76097 9.53906C5.7445 9.90554 4.84292 10.6205 4.17048 11.5934C3.49803 12.5663 3.08499 13.7532 2.98368 15.0039C2.88237 16.2546 3.09736 17.5127 3.6014 18.6188C4.10545 19.7249 4.87586 20.6292 5.81502 21.2171C6.75418 21.805 7.81981 22.0501 8.87689 21.9212C9.93397 21.7924 10.9349 21.2955 11.7529 20.4934C12.5709 19.6914 13.1691 18.6203 13.4717 17.4159C13.7743 16.2115 13.7677 14.928 13.4527 13.7281C13.0962 14.2868 12.6352 14.7403 12.1057 15.0531C11.5762 15.366 10.9926 15.5296 10.4007 15.5312Z" fill="#D40000"/>
</g>
<path d="M8.37567 21.9489C11.3125 21.9489 13.6932 19.1341 13.6932 15.662C13.6932 12.1898 11.3125 9.375 8.37567 9.375C5.43886 9.375 3.05811 12.1898 3.05811 15.662C3.05811 19.1341 5.43886 21.9489 8.37567 21.9489Z" stroke="#002B49" stroke-width="3" stroke-linecap="round" stroke-linejoin="round"/>
<path d="M7.31488 69.0993C10.2517 69.0993 12.6324 66.2845 12.6324 62.8123C12.6324 59.3402 10.2517 56.5254 7.31488 56.5254C4.37807 56.5254 1.99731 59.3402 1.99731 62.8123C1.99731 66.2845 4.37807 69.0993 7.31488 69.0993Z" fill="#F48124"/>
<g style="mix-blend-mode:multiply">
<path d="M9.34005 62.6816C8.31795 62.6816 7.33773 62.2015 6.615 61.347C5.89227 60.4926 5.48623 59.3336 5.4862 58.1252C5.49124 57.6361 5.56358 57.1511 5.70041 56.6895C4.76768 57.0442 3.93623 57.6974 3.29819 58.5765C2.66015 59.4557 2.24043 60.5265 2.08553 61.6703C1.93064 62.8142 2.04661 63.9864 2.42061 65.0571C2.79461 66.1279 3.41203 67.0553 4.20446 67.7366C4.99688 68.4179 5.93338 68.8265 6.91018 68.9172C7.88698 69.0079 8.86595 68.7771 9.73861 68.2504C10.6113 67.7236 11.3436 66.9215 11.8543 65.933C12.3651 64.9444 12.6344 63.8079 12.6324 62.6495C12.6251 62.0485 12.5441 61.452 12.3921 60.8785C12.0356 61.4372 11.5745 61.8907 11.045 62.2035C10.5155 62.5164 9.93197 62.68 9.34005 62.6816Z" fill="#D40000"/>
</g>
<path d="M7.31488 69.0993C10.2517 69.0993 12.6324 66.2845 12.6324 62.8123C12.6324 59.3402 10.2517 56.5254 7.31488 56.5254C4.37807 56.5254 1.99731 59.3402 1.99731 62.8123C1.99731 66.2845 4.37807 69.0993 7.31488 69.0993Z" stroke="#002B49" stroke-width="3" stroke-linecap="round" stroke-linejoin="round"/>
<path d="M20.6791 43.3591C23.6159 43.3591 25.9967 40.5443 25.9967 37.0721C25.9967 33.5999 23.6159 30.7852 20.6791 30.7852C17.7423 30.7852 15.3616 33.5999 15.3616 37.0721C15.3616 40.5443 17.7423 43.3591 20.6791 43.3591Z" fill="#F48124"/>
<g style="mix-blend-mode:multiply">
<path d="M22.7042 36.9413C21.6821 36.9413 20.7018 36.4612 19.9791 35.6067C19.2564 34.7522 18.8503 33.5933 18.8503 32.3849C18.8554 31.8958 18.9277 31.4109 19.0644 30.9492C18.048 31.3157 17.1464 32.0307 16.4739 33.0035C15.8015 33.9764 15.3885 35.1634 15.2871 36.4141C15.1858 37.6648 15.4008 38.9229 15.9049 40.0289C16.4089 41.135 17.1793 42.0393 18.1185 42.6272C19.0576 43.2151 20.1233 43.4602 21.1804 43.3314C22.2374 43.2026 23.2384 42.7056 24.0564 41.9036C24.8743 41.1015 25.4725 40.0305 25.7751 38.8261C26.0777 37.6217 26.0711 36.3382 25.7562 35.1382C25.3997 35.6969 24.9387 36.1504 24.4092 36.4632C23.8797 36.776 23.2961 36.9397 22.7042 36.9413Z" fill="#D40000"/>
</g>
<path d="M20.6791 43.3591C23.6159 43.3591 25.9967 40.5443 25.9967 37.0721C25.9967 33.5999 23.6159 30.7852 20.6791 30.7852C17.7423 30.7852 15.3616 33.5999 15.3616 37.0721C15.3616 40.5443 17.7423 43.3591 20.6791 43.3591Z" stroke="#002B49" stroke-width="3" stroke-linecap="round" stroke-linejoin="round"/>
<path d="M58.9063 37.0723H25.9966" stroke="#002B49" stroke-width="3" stroke-linecap="round" stroke-linejoin="round"/>
<path d="M65.7096 52.5566H38.0882L34.4818 62.812H12.6328" stroke="#002B49" stroke-width="3" stroke-linecap="round" stroke-linejoin="round"/>
</g>
<defs>
<clipPath id="clip0_4422_4998">
<rect width="117" height="117" fill="white" transform="translate(0.5)"/>
</clipPath>
</defs>
</svg>
