<svg width="118" height="117" viewBox="0 0 118 117" fill="none" xmlns="http://www.w3.org/2000/svg">
<g clip-path="url(#clip0_4422_6404)">
<path d="M73.7345 42.3027H48.2579V52.5675H73.7345V42.3027Z" fill="#F48124"/>
<g style="mix-blend-mode:multiply">
<path d="M48.2579 42.3027C51.5416 45.5878 55.4973 48.194 59.8798 49.9597C64.2622 51.7255 68.9779 52.6131 73.7345 52.5675H48.2579V42.3027Z" fill="#D40000"/>
</g>
<path d="M73.7345 42.3027H48.2579V52.5675H73.7345V42.3027Z" stroke="#002B49" stroke-width="3" stroke-linecap="round" stroke-linejoin="round"/>
<path d="M88.8786 64.7253C89.0611 60.6315 88.61 56.5345 87.5398 52.5664H30.9037C28.4756 62.7652 32.5525 73.8846 34.5358 77.0985C41.9814 89.1638 45.3833 89.8898 45.3833 103.782V115.719H71.7877V102.026C71.7877 102.026 85.5853 103.357 89.7474 100.187C92.6328 97.9887 90.0661 92.4297 90.0661 92.4297L91.3336 90.089L88.8668 88.1039L91.9741 86.1099L90.5731 84.0034L97.4342 80.3321L88.8786 64.7253Z" fill="#F48124"/>
<g style="mix-blend-mode:screen">
<path d="M87.4078 68.7344L92.4401 77.5939" stroke="#F48124" stroke-width="2" stroke-miterlimit="10" stroke-linecap="round"/>
</g>
<path d="M88.8786 64.7253C89.0611 60.6315 88.61 56.5345 87.5398 52.5664H30.9037C28.4756 62.7652 32.5525 73.8846 34.5358 77.0985C41.9814 89.1638 45.3833 89.8898 45.3833 103.782V115.719H71.7877V102.026C71.7877 102.026 85.5853 103.357 89.7474 100.187C92.6328 97.9887 90.0661 92.4297 90.0661 92.4297L91.3336 90.089L88.8668 88.1039L91.9741 86.1099L90.5731 84.0034L97.4342 80.3321L88.8786 64.7253Z" stroke="#002B49" stroke-width="3" stroke-linecap="round" stroke-linejoin="round"/>
<path d="M48.2581 45.4639H20.1193V30.7891H11.3743" stroke="#002B49" stroke-width="3" stroke-linecap="round" stroke-linejoin="round"/>
<path d="M6.60789 35.3385C9.24006 35.3385 11.3739 33.3018 11.3739 30.7894C11.3739 28.277 9.24006 26.2402 6.60789 26.2402C3.97572 26.2402 1.84192 28.277 1.84192 30.7894C1.84192 33.3018 3.97572 35.3385 6.60789 35.3385Z" fill="#F48124"/>
<g style="mix-blend-mode:multiply">
<path d="M8.42303 30.6952C7.50695 30.6952 6.6284 30.3478 5.98063 29.7296C5.33287 29.1113 4.96896 28.2727 4.96895 27.3983C4.97347 27.0443 5.03829 26.6934 5.16086 26.3594C4.32489 26.6161 3.57969 27.0887 3.00785 27.7248C2.436 28.361 2.05983 29.1358 1.92101 29.9635C1.78219 30.7912 1.88615 31.6394 2.22135 32.4141C2.55656 33.1889 3.10994 33.8599 3.82017 34.3529C4.5304 34.8459 5.36975 35.1416 6.24522 35.2072C7.1207 35.2728 7.99811 35.1058 8.78025 34.7247C9.56239 34.3435 10.2187 33.7632 10.6765 33.0478C11.1343 32.3325 11.3757 31.5102 11.3739 30.672C11.3673 30.2372 11.2948 29.8055 11.1585 29.3906C10.8389 29.7948 10.4257 30.123 9.95114 30.3493C9.47657 30.5756 8.95355 30.694 8.42303 30.6952Z" fill="#D40000"/>
</g>
<path d="M6.60789 35.3385C9.24006 35.3385 11.3739 33.3018 11.3739 30.7894C11.3739 28.277 9.24006 26.2402 6.60789 26.2402C3.97572 26.2402 1.84192 28.277 1.84192 30.7894C1.84192 33.3018 3.97572 35.3385 6.60789 35.3385Z" stroke="#002B49" stroke-width="3" stroke-linecap="round" stroke-linejoin="round"/>
<path d="M111.392 39.1491C114.024 39.1491 116.158 37.1124 116.158 34.5999C116.158 32.0875 114.024 30.0508 111.392 30.0508C108.76 30.0508 106.626 32.0875 106.626 34.5999C106.626 37.1124 108.76 39.1491 111.392 39.1491Z" fill="#F48124"/>
<g style="mix-blend-mode:multiply">
<path d="M113.207 34.5057C112.754 34.5057 112.304 34.4204 111.885 34.2547C111.466 34.089 111.085 33.8462 110.765 33.54C110.444 33.2339 110.19 32.8704 110.016 32.4704C109.842 32.0704 109.753 31.6417 109.753 31.2087C109.758 30.8548 109.822 30.504 109.945 30.1699C109.034 30.4351 108.226 30.9524 107.623 31.6564C107.021 32.3604 106.65 33.2192 106.56 34.1242C106.469 35.0292 106.661 35.9395 107.113 36.7399C107.565 37.5402 108.255 38.1946 109.097 38.62C109.939 39.0454 110.894 39.2227 111.841 39.1295C112.789 39.0363 113.686 38.6767 114.419 38.0963C115.152 37.516 115.688 36.741 115.96 35.8695C116.231 34.998 116.225 34.0693 115.943 33.201C115.623 33.6053 115.21 33.9334 114.735 34.1598C114.261 34.3861 113.738 34.5045 113.207 34.5057Z" fill="#D40000"/>
</g>
<path d="M111.392 39.1491C114.024 39.1491 116.158 37.1124 116.158 34.5999C116.158 32.0875 114.024 30.0508 111.392 30.0508C108.76 30.0508 106.626 32.0875 106.626 34.5999C106.626 37.1124 108.76 39.1491 111.392 39.1491Z" stroke="#002B49" stroke-width="3" stroke-linecap="round" stroke-linejoin="round"/>
<path d="M41.667 19.4772C44.2991 19.4772 46.4329 17.4405 46.4329 14.9281C46.4329 12.4156 44.2991 10.3789 41.667 10.3789C39.0348 10.3789 36.901 12.4156 36.901 14.9281C36.901 17.4405 39.0348 19.4772 41.667 19.4772Z" fill="#F48124"/>
<g style="mix-blend-mode:multiply">
<path d="M43.4821 14.8339C42.566 14.8339 41.6875 14.4865 41.0397 13.8682C40.3919 13.2499 40.028 12.4113 40.028 11.5369C40.0325 11.183 40.0974 10.8321 40.2199 10.498C39.3089 10.7632 38.5008 11.2806 37.8981 11.9845C37.2953 12.6885 36.9251 13.5474 36.8343 14.4524C36.7435 15.3574 36.9362 16.2677 37.3879 17.0681C37.8397 17.8684 38.5302 18.5228 39.3719 18.9482C40.2137 19.3736 41.1688 19.551 42.1162 19.4578C43.0637 19.3646 43.9608 19.005 44.694 18.4246C45.4271 17.8443 45.9633 17.0693 46.2345 16.1978C46.5057 15.3263 46.4998 14.3975 46.2175 13.5292C45.898 13.9335 45.4848 14.2616 45.0102 14.488C44.5356 14.7143 44.0126 14.8327 43.4821 14.8339Z" fill="#D40000"/>
</g>
<path d="M41.667 19.4772C44.2991 19.4772 46.4329 17.4405 46.4329 14.9281C46.4329 12.4156 44.2991 10.3789 41.667 10.3789C39.0348 10.3789 36.901 12.4156 36.901 14.9281C36.901 17.4405 39.0348 19.4772 41.667 19.4772Z" stroke="#002B49" stroke-width="3" stroke-linecap="round" stroke-linejoin="round"/>
<path d="M80.6267 10.3795C83.2589 10.3795 85.3926 8.34282 85.3926 5.8304C85.3926 3.31797 83.2589 1.28125 80.6267 1.28125C77.9945 1.28125 75.8607 3.31797 75.8607 5.8304C75.8607 8.34282 77.9945 10.3795 80.6267 10.3795Z" fill="#F48124"/>
<g style="mix-blend-mode:multiply">
<path d="M82.4418 5.73623C81.5257 5.73622 80.6472 5.38887 79.9994 4.77057C79.3516 4.15228 78.9877 3.31369 78.9877 2.43928C78.9922 2.08534 79.057 1.73447 79.1796 1.40039C78.2686 1.66557 77.4605 2.18291 76.8578 2.88687C76.2551 3.59083 75.8849 4.44971 75.7941 5.35468C75.7033 6.25966 75.896 7.17 76.3478 7.97034C76.7995 8.77069 77.49 9.42502 78.3318 9.85042C79.1735 10.2758 80.1286 10.4532 81.076 10.3599C82.0235 10.2667 82.9206 9.90716 83.6537 9.32681C84.3868 8.74646 84.923 7.97144 85.1942 7.09996C85.4654 6.22849 85.4595 5.29977 85.1772 4.4315C84.8577 4.83577 84.4445 5.16393 83.9699 5.39029C83.4953 5.61665 82.9723 5.73505 82.4418 5.73623Z" fill="#D40000"/>
</g>
<path d="M80.6267 10.3795C83.2589 10.3795 85.3926 8.34282 85.3926 5.8304C85.3926 3.31797 83.2589 1.28125 80.6267 1.28125C77.9945 1.28125 75.8607 3.31797 75.8607 5.8304C75.8607 8.34282 77.9945 10.3795 80.6267 10.3795Z" stroke="#002B49" stroke-width="3" stroke-linecap="round" stroke-linejoin="round"/>
<path d="M52.9478 42.3032V30.7905H41.6674V19.4785" stroke="#002B49" stroke-width="3" stroke-linecap="round" stroke-linejoin="round"/>
<path d="M88.8671 88.1055H74.8751V102.253" stroke="#002B49" stroke-width="2" stroke-linecap="round" stroke-linejoin="round"/>
<path d="M79.4146 93.3529C80.084 93.3529 80.6266 92.8349 80.6266 92.196C80.6266 91.557 80.084 91.0391 79.4146 91.0391C78.7452 91.0391 78.2025 91.557 78.2025 92.196C78.2025 92.8349 78.7452 93.3529 79.4146 93.3529Z" fill="#F48124"/>
<path d="M79.4146 93.3529C80.084 93.3529 80.6266 92.8349 80.6266 92.196C80.6266 91.557 80.084 91.0391 79.4146 91.0391C78.7452 91.0391 78.2025 91.557 78.2025 92.196C78.2025 92.8349 78.7452 93.3529 79.4146 93.3529Z" stroke="#002B49" stroke-linecap="round" stroke-linejoin="round"/>
<path d="M56.0848 99.387C60.9324 99.387 64.8622 95.636 64.8622 91.009C64.8622 86.3819 60.9324 82.6309 56.0848 82.6309C51.2371 82.6309 47.3074 86.3819 47.3074 91.009C47.3074 95.636 51.2371 99.387 56.0848 99.387Z" stroke="#002B49" stroke-width="3" stroke-linecap="round" stroke-linejoin="round"/>
<path d="M61.6934 91.0097C61.6934 92.0685 61.3645 93.1036 60.7482 93.984C60.1319 94.8644 59.256 95.5505 58.2311 95.9557C57.2063 96.3609 56.0785 96.467 54.9906 96.2604C53.9026 96.0538 52.9032 95.544 52.1188 94.7953C51.3344 94.0466 50.8003 93.0926 50.5838 92.0542C50.3674 91.0157 50.4785 89.9393 50.903 88.961C51.3275 87.9828 52.0464 87.1467 52.9688 86.5585C53.8911 85.9702 54.9755 85.6562 56.0848 85.6563C57.5723 85.6563 58.9988 86.2203 60.0507 87.2243C61.1025 88.2282 61.6934 89.5899 61.6934 91.0097Z" fill="white"/>
<path d="M61.6934 91.0097C61.6934 92.0685 61.3645 93.1036 60.7482 93.984C60.1319 94.8644 59.256 95.5505 58.2311 95.9557C57.2063 96.3609 56.0785 96.467 54.9906 96.2604C53.9026 96.0538 52.9032 95.544 52.1188 94.7953C51.3344 94.0466 50.8003 93.0926 50.5838 92.0542C50.3674 91.0157 50.4785 89.9393 50.903 88.961C51.3275 87.9828 52.0464 87.1467 52.9688 86.5585C53.8911 85.9702 54.9755 85.6562 56.0848 85.6563C57.5723 85.6563 58.9988 86.2203 60.0507 87.2243C61.1025 88.2282 61.6934 89.5899 61.6934 91.0097Z" stroke="#002B49" stroke-width="2" stroke-linecap="round" stroke-linejoin="round"/>
<path d="M54.414 115.718H49.6429V96.6953L54.414 99.3869V115.718Z" fill="#F48124"/>
<path d="M62.5257 115.72H57.7555V99.2356L62.5257 96.6875V115.72Z" fill="#F48124"/>
<path d="M54.414 115.718H49.6429V96.6953L54.414 99.3869V115.718Z" stroke="#002B49" stroke-width="2" stroke-linecap="round" stroke-linejoin="round"/>
<path d="M62.5257 115.72H57.7555V99.2356L62.5257 96.6875V115.72Z" stroke="#002B49" stroke-width="2" stroke-linecap="round" stroke-linejoin="round"/>
<path d="M67.4604 42.3034V25.5279H80.6267V10.3809" stroke="#002B49" stroke-width="3" stroke-linecap="round" stroke-linejoin="round"/>
<path d="M73.7345 45.4653H93.5076V34.6016H106.626" stroke="#002B49" stroke-width="3" stroke-linecap="round" stroke-linejoin="round"/>
</g>
<defs>
<clipPath id="clip0_4422_6404">
<rect width="117" height="117" fill="white" transform="translate(0.5)"/>
</clipPath>
</defs>
</svg>
