<svg width="49" height="48" viewBox="0 0 49 48" fill="none" xmlns="http://www.w3.org/2000/svg">
<path d="M15.5341 24.0005H8.29413C7.43813 24.0005 7.00813 24.0005 6.74413 24.2745C6.47813 24.5485 6.48813 24.9725 6.51013 25.8185C6.53013 26.6805 6.58013 27.5385 6.69613 28.3945C6.74613 28.7485 6.77013 28.9265 6.88613 29.0165C7.00213 29.1085 7.21213 29.0825 7.63413 29.0345C9.96813 28.7605 12.2241 30.6665 12.2241 33.1685C12.2241 34.4145 11.6841 35.5345 10.8321 36.2985C10.5201 36.5785 10.3641 36.7185 10.3521 36.8645C10.3401 37.0105 10.4561 37.1485 10.6801 37.4225C11.4961 38.4165 12.4141 39.3205 13.4161 40.1185C13.6561 40.3085 13.7741 40.4025 13.9041 40.3985C14.0341 40.3945 14.1681 40.2765 14.4341 40.0385C15.1541 39.3925 16.1001 39.0025 17.1341 39.0025C19.3521 39.0025 21.1281 40.8585 21.2221 43.0105C21.2361 43.3685 21.2441 43.5465 21.3321 43.6445C21.4181 43.7405 21.5661 43.7645 21.8621 43.8085C23.6115 44.0648 25.3888 44.0648 27.1381 43.8085C27.4341 43.7625 27.5821 43.7405 27.6681 43.6445C27.7561 43.5465 27.7641 43.3685 27.7781 43.0105C27.8721 40.8585 29.6481 39.0025 31.8661 39.0025C32.9001 39.0025 33.8461 39.3925 34.5661 40.0365C34.8321 40.2765 34.9661 40.3965 35.0961 40.3985C35.2261 40.4005 35.3461 40.3085 35.5841 40.1185C36.5861 39.3185 37.5041 38.4145 38.3201 37.4225C38.5441 37.1485 38.6581 37.0105 38.6461 36.8625C38.6341 36.7165 38.4781 36.5765 38.1661 36.2985C37.7276 35.9037 37.3771 35.4209 37.1376 34.8816C36.8981 34.3423 36.7749 33.7586 36.7761 33.1685C36.7761 30.6665 39.0321 28.7605 41.3661 29.0345C41.7861 29.0825 41.9981 29.1085 42.1141 29.0165C42.2301 28.9265 42.2541 28.7485 42.3041 28.3965C42.4201 27.5385 42.4701 26.6805 42.4901 25.8185C42.5101 24.9725 42.5221 24.5485 42.2561 24.2745C41.9921 24.0005 41.5621 24.0005 40.7061 24.0005H33.4661C33.0521 28.6725 29.1961 32.3345 24.5001 32.3345C19.8041 32.3345 15.9481 28.6745 15.5341 24.0005ZM14.5001 24.0005H34.5001H14.5001ZM24.5001 24.0005V12.0005V24.0005ZM23.9821 15.4825C25.0801 12.4065 24.4341 8.88649 22.0241 6.47649C19.6141 4.06649 16.0941 3.42049 13.0201 4.51649C11.9221 7.59449 12.5681 11.1165 14.9781 13.5245C17.3881 15.9345 20.9081 16.5805 23.9841 15.4845M24.9321 19.5685C24.0161 17.0065 24.5541 14.0725 26.5641 12.0625C28.5741 10.0525 31.5041 9.51649 34.0681 10.4325C34.9841 12.9945 34.4461 15.9285 32.4381 17.9385C30.4301 19.9485 27.4941 20.4845 24.9321 19.5685Z" fill="#F48124"/>
<path d="M14.5001 24.0005H34.5001M24.5001 24.0005V12.0005M23.9821 15.4825C25.0801 12.4065 24.4341 8.88649 22.0241 6.47649C19.6141 4.06649 16.0941 3.42049 13.0201 4.51649C11.9221 7.59449 12.5681 11.1165 14.9781 13.5245C17.3881 15.9345 20.9081 16.5805 23.9841 15.4845M15.5341 24.0005H8.29413C7.43813 24.0005 7.00813 24.0005 6.74413 24.2745C6.47813 24.5485 6.48813 24.9725 6.51013 25.8185C6.53013 26.6805 6.58013 27.5385 6.69613 28.3945C6.74613 28.7485 6.77013 28.9265 6.88613 29.0165C7.00213 29.1085 7.21213 29.0825 7.63413 29.0345C9.96813 28.7605 12.2241 30.6665 12.2241 33.1685C12.2241 34.4145 11.6841 35.5345 10.8321 36.2985C10.5201 36.5785 10.3641 36.7185 10.3521 36.8645C10.3401 37.0105 10.4561 37.1485 10.6801 37.4225C11.4961 38.4165 12.4141 39.3205 13.4161 40.1185C13.6561 40.3085 13.7741 40.4025 13.9041 40.3985C14.0341 40.3945 14.1681 40.2765 14.4341 40.0385C15.1541 39.3925 16.1001 39.0025 17.1341 39.0025C19.3521 39.0025 21.1281 40.8585 21.2221 43.0105C21.2361 43.3685 21.2441 43.5465 21.3321 43.6445C21.4181 43.7405 21.5661 43.7645 21.8621 43.8085C23.6115 44.0648 25.3888 44.0648 27.1381 43.8085C27.4341 43.7625 27.5821 43.7405 27.6681 43.6445C27.7561 43.5465 27.7641 43.3685 27.7781 43.0105C27.8721 40.8585 29.6481 39.0025 31.8661 39.0025C32.9001 39.0025 33.8461 39.3925 34.5661 40.0365C34.8321 40.2765 34.9661 40.3965 35.0961 40.3985C35.2261 40.4005 35.3461 40.3085 35.5841 40.1185C36.5861 39.3185 37.5041 38.4145 38.3201 37.4225C38.5441 37.1485 38.6581 37.0105 38.6461 36.8625C38.6341 36.7165 38.4781 36.5765 38.1661 36.2985C37.7276 35.9037 37.3771 35.4209 37.1376 34.8816C36.8981 34.3423 36.7749 33.7586 36.7761 33.1685C36.7761 30.6665 39.0321 28.7605 41.3661 29.0345C41.7861 29.0825 41.9981 29.1085 42.1141 29.0165C42.2301 28.9265 42.2541 28.7485 42.3041 28.3965C42.4201 27.5385 42.4701 26.6805 42.4901 25.8185C42.5101 24.9725 42.5221 24.5485 42.2561 24.2745C41.9921 24.0005 41.5621 24.0005 40.7061 24.0005H33.4661C33.0521 28.6725 29.1961 32.3345 24.5001 32.3345C19.8041 32.3345 15.9481 28.6745 15.5341 24.0005ZM24.9321 19.5685C24.0161 17.0065 24.5541 14.0725 26.5641 12.0625C28.5741 10.0525 31.5041 9.51649 34.0681 10.4325C34.9841 12.9945 34.4461 15.9285 32.4381 17.9385C30.4301 19.9485 27.4941 20.4845 24.9321 19.5685Z" stroke="#002B49" stroke-width="3" stroke-linecap="round" stroke-linejoin="round"/>
</svg>
