<svg width="49" height="48" viewBox="0 0 49 48" fill="none" xmlns="http://www.w3.org/2000/svg">
<path fill-rule="evenodd" clip-rule="evenodd" d="M10.5 44V26H6.5V44H10.5ZM46.5 30V26H34.5V30H38.5V44H42.5V30H46.5Z" fill="#002B49"/>
<path d="M24.5 22C27.3022 22.0152 30.0448 22.811 32.42 24.298L35.314 21.398C32.139 19.1914 28.3664 18.006 24.5 18C20.6854 18.0071 16.964 19.1794 13.834 21.36L16.732 24.266C19.0588 22.7998 21.7498 22.0148 24.5 22Z" fill="#D40000"/>
<path d="M24.4999 14C29.4245 14.0111 34.2154 15.6025 38.1679 18.54L41.0219 15.68C36.2978 12.0052 30.4851 10.0069 24.4999 10C18.5666 10.0071 12.8052 11.9932 8.12793 15.644L10.9799 18.504C14.8856 15.5891 19.6264 14.0097 24.4999 14Z" fill="#F48124"/>
<path fill-rule="evenodd" clip-rule="evenodd" d="M24.4999 26C22.7199 26 20.9798 26.5278 19.4998 27.5167C18.0197 28.5057 16.8662 29.9113 16.185 31.5558C15.5038 33.2003 15.3256 35.0099 15.6729 36.7558C16.0201 38.5016 16.8773 40.1053 18.136 41.3639C19.3946 42.6226 20.9983 43.4798 22.7441 43.827C24.4899 44.1743 26.2995 43.9961 27.9441 43.3149C29.5886 42.6337 30.9942 41.4801 31.9831 40.0001C32.9721 38.5201 33.4999 36.78 33.4999 35C33.4999 32.613 32.5517 30.3238 30.8639 28.636C29.1761 26.9482 26.8869 26 24.4999 26ZM21.7221 39.1573C22.5443 39.7067 23.511 40 24.4999 40C25.826 40 27.0978 39.4732 28.0355 38.5355C28.9731 37.5978 29.4999 36.326 29.4999 35C29.4999 34.0111 29.2067 33.0444 28.6573 32.2221C28.1079 31.3999 27.327 30.759 26.4133 30.3806C25.4997 30.0021 24.4944 29.9031 23.5245 30.096C22.5546 30.289 21.6637 30.7652 20.9644 31.4644C20.2651 32.1637 19.7889 33.0546 19.596 34.0245C19.4031 34.9944 19.5021 35.9998 19.8805 36.9134C20.259 37.827 20.8998 38.6079 21.7221 39.1573Z" fill="#002B49"/>
<path d="M24.4999 5.99996C31.5461 6.00089 38.3809 8.40686 43.8739 12.82L46.7279 9.96196C40.4915 4.8207 32.6624 2.00621 24.58 2.00001C16.4976 1.99381 8.6642 4.79628 2.41992 9.92796L5.27392 12.786C10.7208 8.39697 17.5048 6.00251 24.4999 5.99996Z" fill="#D40000"/>
</svg>
