<svg width="19" height="20" viewBox="0 0 19 20" fill="none" xmlns="http://www.w3.org/2000/svg">
<path d="M5.24997 0.900391C2.35094 0.900391 0 3.25134 0 6.15039V14.5504C0 17.4494 2.35094 19.8004 5.24997 19.8004H13.6499C16.549 19.8004 18.8999 17.4494 18.8999 14.5504V6.15039C18.8999 3.25134 16.549 0.900391 13.6499 0.900391H5.24997ZM15.7499 3.00039C16.3295 3.00039 16.7999 3.47079 16.7999 4.05039C16.7999 4.62999 16.3295 5.10039 15.7499 5.10039C15.1703 5.10039 14.6999 4.62999 14.6999 4.05039C14.6999 3.47079 15.1703 3.00039 15.7499 3.00039ZM9.44994 5.10039C12.349 5.10039 14.6999 7.45134 14.6999 10.3504C14.6999 13.2494 12.349 15.6004 9.44994 15.6004C6.55091 15.6004 4.19997 13.2494 4.19997 10.3504C4.19997 7.45134 6.55091 5.10039 9.44994 5.10039ZM9.44994 7.20039C8.61452 7.20039 7.81331 7.53226 7.22257 8.123C6.63183 8.71374 6.29996 9.51496 6.29996 10.3504C6.29996 11.1858 6.63183 11.987 7.22257 12.5778C7.81331 13.1685 8.61452 13.5004 9.44994 13.5004C10.2854 13.5004 11.0866 13.1685 11.6773 12.5778C12.2681 11.987 12.5999 11.1858 12.5999 10.3504C12.5999 9.51496 12.2681 8.71374 11.6773 8.123C11.0866 7.53226 10.2854 7.20039 9.44994 7.20039Z" fill="white"/>
</svg>
