<svg width="89" height="111" viewBox="0 0 89 111" fill="none" xmlns="http://www.w3.org/2000/svg">
<path d="M9.65263 0.700592C6.85164 1.67872 4.53971 3.41267 2.80577 5.81351C0.360458 9.23695 0.182617 10.5263 0.182617 27.6434C0.182617 41.9152 0.271537 43.3823 1.02736 45.0718C2.71685 48.762 5.87352 50.0958 12.8538 50.1403H16.8552L16.7663 76.2384C16.6773 92.7776 16.8107 103.048 17.1219 104.337C17.6999 107.005 19.4339 109.183 21.7902 110.206C23.6131 111.051 24.9469 111.051 51.1784 110.962C78.1657 110.828 78.6992 110.828 80.6999 109.895C83.6788 108.516 86.213 106.027 87.6357 103.137L88.8806 100.603V55.4755V10.3484L87.6357 7.81422C86.213 4.92431 83.6788 2.43454 80.6999 1.05627C78.6548 0.122612 78.3436 0.122612 45.3097 0.0336914C14.1876 -0.0552292 11.8312 -0.0107651 9.65263 0.700592ZM79.7663 6.88055C80.6555 7.41408 81.8114 8.65896 82.345 9.63708L83.3676 11.4155L83.3231 55.52V99.6244L82.2561 101.447C81.6336 102.514 80.3887 103.759 79.2328 104.382L77.321 105.493H50.8227C25.436 105.493 24.2356 105.449 23.3464 104.648L22.4127 103.804L22.3238 57.0761L22.1904 10.3484L21.0344 8.03652C20.412 6.74718 19.9229 5.63567 20.0118 5.59121C20.0563 5.50229 33.172 5.54675 49.1777 5.68013C78.1213 5.90244 78.2102 5.90244 79.7663 6.88055ZM12.5425 6.74718C14.4988 7.76976 15.8326 9.50371 16.3661 11.7712C16.6773 13.1939 16.8107 19.0626 16.7218 29.1106L16.5884 44.3605H12.009C8.09652 44.3605 7.3407 44.2271 6.6738 43.5157C6.0069 42.7599 5.91798 41.1149 5.91798 27.021V11.371L7.07394 9.59263C7.69638 8.65896 8.85235 7.45853 9.65263 7.01394C11.3421 5.94689 11.0754 5.99136 12.5425 6.74718Z" fill="#F48124"/>
</svg>
