<svg width="19" height="19" viewBox="0 0 19 19" fill="none" xmlns="http://www.w3.org/2000/svg">
<path d="M16.7999 0H2.09999C0.939744 0 0 0.93975 0 2.1V16.8C0 17.9602 0.939744 18.9 2.09999 18.9H16.7999C17.9601 18.9 18.8999 17.9602 18.8999 16.8V2.1C18.8999 0.93975 17.9601 0 16.7999 0ZM6.29996 14.7H3.65083V7.35H6.29996V14.7ZM4.92867 6.00285C4.11912 6.00285 3.57838 5.46315 3.57838 4.74285C3.57838 4.02255 4.11807 3.48285 5.01792 3.48285C5.82746 3.48285 6.36821 4.02255 6.36821 4.74285C6.36821 5.46315 5.82851 6.00285 4.92867 6.00285ZM15.7499 14.7H13.1858V10.6827C13.1858 9.5718 12.5023 9.3156 12.2461 9.3156C11.9899 9.3156 11.1352 9.48675 11.1352 10.6827C11.1352 10.8538 11.1352 14.7 11.1352 14.7H8.48605V7.35H11.1352V8.37585C11.4764 7.77735 12.16 7.35 13.442 7.35C14.7241 7.35 15.7499 8.37585 15.7499 10.6827V14.7Z" fill="white"/>
</svg>
