<svg width="63" height="58" viewBox="0 0 63 58" fill="none" xmlns="http://www.w3.org/2000/svg">
<path d="M32.705 52.4758L36.4808 57.7H43.5038L46.8551 55.917L45.738 51.9944L49.4617 50.9246L55.792 43.0793L54.6749 41.2963L59.8881 38.0869L61.75 32.4455L59.8881 28.4587L61.75 25.9624L56.9092 11.3418L51.696 10.4717V6.34935L42.3122 1.00032H36.4287L32.705 4.20974M32.705 4.31215L36.2425 1.36662L41.8318 1.48787L50.7464 6.79767V10.8023L55.699 11.7402L60.2977 25.9614L58.529 28.397L60.2977 32.2804L58.529 37.7685L53.5764 40.9458L54.6377 42.6825L48.6239 50.353L45.0864 51.4478L46.1476 55.2634L42.9638 57.0393L36.2909 57.1855L32.705 52.3607M32.705 4.41989L36.0563 1.73825L41.3515 1.9843L49.7969 7.24775V11.1383L54.4887 12.1403L58.8455 25.9622L57.1698 28.3407L58.8455 32.1172L57.1698 37.4519L52.4779 40.5971L53.4833 42.291L47.786 49.7832L44.4347 50.9065L45.4401 54.6152L42.4239 56.3803L36.1047 56.6728L32.705 52.2473M32.705 4.52657L35.8701 2.10881L40.8711 2.47611L48.8473 7.70032V11.4732L53.2785 12.5394L57.3932 25.9619L55.8107 28.2834L57.3932 31.9564L55.8107 37.1342L51.3794 40.2509L52.329 41.8984L46.9482 49.2123L43.783 50.3642L44.7326 53.9658L41.8839 55.7203L35.9148 56.1589L32.705 52.1329M32.705 4.63324L35.684 2.47936L40.3907 2.96791L47.8978 8.14933V11.8045L52.0683 12.9385L55.941 25.9652L54.4515 28.226L55.941 31.792L54.4515 36.8165L50.2809 39.9012L51.1746 41.5059L46.1104 48.6415L43.1314 49.8218L44.0251 53.3129L41.344 55.0603L35.7249 55.6487L32.705 52.022M32.7053 4.74044L35.4981 2.85045L39.9107 3.46024L46.9486 8.60244V12.1399L50.8585 13.3381L54.4891 25.9654L53.0927 28.1656L54.4891 31.6282L53.0927 36.503L49.1828 39.5519L50.0206 41.1138L45.2729 48.0747L42.4801 49.28L43.3179 52.6642L40.8044 54.4008L35.5391 55.1354L32.7053 51.9082M32.705 4.84765L35.3116 3.22155L39.43 3.95258L45.9987 9.05198V12.4718L49.6479 13.7377L53.0365 25.9656L51.7332 28.1088L53.0365 31.4644L51.7332 36.1858L48.0839 39.2062L48.8659 40.7218L44.4347 47.5044L41.8281 48.7382L42.6101 52.0154L40.2641 53.7413L35.3488 54.6257L32.705 51.7943M32.705 4.95539L35.1254 3.59317L38.9497 4.44545L45.0491 9.50206V12.8078L48.4377 14.1379L51.5842 25.9664L50.374 28.0525L51.5842 31.3047L50.374 35.8692L46.9854 38.8575L47.7116 40.3303L43.5969 46.9345L41.1764 48.1969L41.9026 51.3671L39.7242 53.0824L35.1589 54.1129L32.705 51.6809M32.705 5.06206L34.9392 3.96373L38.4693 4.93725L44.0996 9.95464V13.1391L47.2275 14.537L50.132 25.9696L49.0149 27.9951L50.132 31.1403L49.0149 35.5515L45.8869 38.5077L46.5572 39.9377L42.759 46.3637L40.5248 47.6546L41.1951 50.7142L39.1842 52.4259L34.9727 53.5991L32.705 51.5701M32.705 5.1691L34.753 4.33109L37.9889 5.42942L43.15 10.404V13.4744L46.0173 14.9364L48.6797 25.9697L47.6557 27.9346L48.6797 30.9764L47.6557 35.2342L44.7885 38.1619L45.4029 39.5455L41.9212 45.7932L39.8731 47.109L40.4876 50.0653L38.6443 51.7663L34.7828 53.0892L32.705 51.456M32.705 5.27578L34.5668 4.70165L37.5086 5.92123L42.2005 10.8566V13.8057L44.8071 15.3355L47.2275 25.9694L46.2966 27.8772L47.2275 30.8156L46.2966 34.9201L43.69 37.8121L44.2485 39.1529L41.0833 45.2259L39.2215 46.5667L39.78 49.4159L38.1044 51.1062L34.5929 52.5754L32.705 51.3416M32.705 5.38139L34.3807 5.07114L37.0282 6.41197L41.2509 11.3045V14.1395L43.5969 15.7335L45.7752 25.9716L44.9374 27.8188L45.7752 30.6502L44.9374 34.6013L42.5915 37.4613L43.0942 38.7593L40.2455 44.6539L38.5698 46.0233L39.0725 48.7656L37.5644 50.4451L34.403 52.0606L32.705 51.2261M32.7053 5.48966L34.1948 5.4433L36.5482 6.90536L40.3017 11.7551V14.4725L42.387 16.1342L44.3233 25.9729L43.5786 27.763L44.3233 30.491L43.5786 34.2853L41.4933 37.1167L41.9401 38.3683L39.408 44.0847L37.9185 45.4826L38.3654 48.1143L37.0248 49.7867L34.2171 51.5519L32.7053 51.1133M32.705 5.5961L34.0083 5.81363L36.0675 7.39694L39.3518 12.2075V14.8071L41.1764 16.5331L42.8707 25.9723L42.2191 27.7018L42.8707 30.3264L42.2191 33.9673L40.3945 36.7667L40.7854 37.972L38.5698 43.5136L37.2665 44.94L37.6575 47.4647L36.4846 49.1265L34.0269 51.0379L32.705 51.0022M32.7053 5.70418L33.8224 6.18559L35.5875 7.89015L38.4026 12.6579V15.1399L39.9666 16.9336L41.4188 25.977L40.8603 27.6459L41.4188 30.1635L40.8603 33.6511L39.2963 36.4183L39.6314 37.5808L37.7323 42.9441L36.6152 44.399L36.9504 46.8168L35.945 48.4679L33.8373 50.5255L32.7053 50.8892M32.7053 5.81066L33.6362 6.55596L35.1071 8.38176L37.4531 13.1103V15.4746L38.7564 17.3325L39.9666 25.9765L39.5011 27.5883L39.9666 29.999L39.5011 33.3368L38.1978 36.0719L38.4771 37.1881L36.8945 42.3766L35.9636 43.8565L36.2429 46.1673L35.405 47.8077L33.6511 50.015L32.7053 50.7746M32.7053 5.91714L33.4501 6.92633L34.6268 8.87337L36.5035 13.5591V15.8093L37.5462 17.7314L38.5143 25.976L38.1419 27.5308L38.5143 29.838L38.1419 33.0189L37.0993 35.7219L37.3227 36.7953L36.0567 41.8055L35.3119 43.3104L35.5353 45.5142L34.8651 47.1474L33.4612 49.501L32.7053 50.6635M32.705 6.02522L33.2635 7.29829L34.1461 9.36658L35.5536 14.0095V16.142L36.3356 18.1319L37.0617 25.9771L36.7825 27.4713L37.0617 29.6751L36.7825 32.7026L36.0005 35.3771L36.168 36.4041L35.2185 41.2361L34.6599 42.7695L34.8275 44.8663L34.3248 46.4924L33.271 48.9886L32.705 50.5505M32.705 6.13171L33.0774 7.66866L33.6657 9.85819L34.6041 14.4619V16.4732L35.1254 18.5308L35.6095 25.9802L35.4233 27.4137L35.6095 29.5105L35.4233 32.3847L34.902 35.0272L35.0137 36.0114L34.3807 40.665L34.0083 42.2269L34.12 44.2168L33.7849 45.8322L33.0848 48.4782L32.705 50.4359M32.705 6.23499L32.8912 8.03583L33.1853 10.3502L33.6545 14.9111V16.8082L33.9152 18.93L34.1572 25.98L34.0641 27.3565L34.1572 29.3499L34.0641 32.0672L33.8035 34.6775L33.8593 35.619L33.5428 40.0979L33.3566 41.6848L33.4125 43.5676L33.2449 45.1723L32.8949 47.9645L32.705 50.3217M32.705 6.34148V50.2106M30.045 52.4755L26.2729 57.6997H19.2462L15.8949 55.9167L17.012 51.9941L13.2883 50.9242L6.95795 43.079L8.07507 41.296L2.86186 38.0866L1 32.4451L2.86186 28.4583L1 25.9621L5.84084 11.3415L11.054 10.4713V6.34903L20.4415 1H26.3213L30.045 4.20942M30.0452 4.31215L26.5077 1.36662L20.9221 1.48787L12.0038 6.79767V10.8023L7.05121 11.7402L2.45242 25.9614L4.22118 28.397L2.45242 32.2804L4.22118 37.7685L9.17373 40.9458L8.11247 42.6825L14.1263 50.353L17.6638 51.4478L16.6026 55.2634L19.7863 57.0393L26.4592 57.1855L30.0452 52.3607M30.0452 4.41989L26.6939 1.73825L21.4025 1.9843L12.9533 7.24775V11.1383L8.26146 12.1403L3.9047 25.9622L5.58038 28.3407L3.9047 32.1172L5.58038 37.4519L10.2723 40.5971L9.26686 42.291L14.9642 49.7832L18.3155 50.9065L17.3101 54.6152L20.3263 56.3803L26.6492 56.6728L30.0452 52.2473M30.0453 4.52657L26.8801 2.10881L21.8829 2.47611L13.9029 7.70032V11.4732L9.47171 12.5394L5.35699 25.9619L6.93958 28.2834L5.35699 31.9564L6.93958 37.1342L11.3708 40.2509L10.4213 41.8984L15.802 49.2123L18.9672 50.3642L18.0176 53.9658L20.8663 55.7203L26.8391 56.1589L30.0453 52.1329M30.0448 4.63342L27.0658 2.47954L22.3627 2.96809L14.852 8.14951V11.8047L10.6814 12.9387L6.80876 25.9653L8.29825 28.2262L6.80876 31.7922L8.29825 36.8167L12.4688 39.9013L11.5751 41.506L16.6394 48.6416L19.6184 49.822L18.7247 53.3131L21.4057 55.0605L27.0248 55.6489L30.0448 52.0222M30.0464 4.74044L27.2536 2.85045L22.8447 3.46024L15.8032 8.60244V12.1399L11.8932 13.3381L8.26262 25.9654L9.65901 28.1656L8.26262 31.6282L9.65901 36.503L13.5689 39.5519L12.7311 41.1138L17.4788 48.0747L20.2716 49.28L19.4338 52.6642L21.9473 54.4008L27.2164 55.1354L30.0464 51.9082M30.0461 4.84765L27.4395 3.22155L23.3248 3.95258L16.7525 9.05198V12.4718L13.1032 13.7377L9.71462 25.9656L11.0179 28.1088L9.71462 31.4644L11.0179 36.1858L14.6672 39.2062L13.8852 40.7218L18.3164 47.5044L20.923 48.7382L20.141 52.0154L22.487 53.7413L27.406 54.6257L30.0461 51.7943M30.0463 4.95539L27.6259 3.59317L23.8053 4.44545L17.7022 9.50206V12.8078L14.3136 14.1379L11.167 25.9664L12.3772 28.0525L11.167 31.3047L12.3772 35.8692L15.7658 38.8575L15.0397 40.3303L19.1544 46.9345L21.5748 48.1969L20.8487 51.3671L23.0271 53.0824L27.5924 54.1129L30.0463 51.6809M30.0475 5.06241L27.8133 3.96408L24.2869 4.9376L18.6529 9.95499V13.1394L15.525 14.5373L12.6205 25.97L13.7376 27.9955L12.6205 31.1407L13.7376 35.5519L16.8656 38.5081L16.1953 39.9381L19.9935 46.364L22.2277 47.6549L21.5574 50.7146L23.5683 52.4263L27.7835 53.5995L30.0475 51.5704M30.0422 5.1691L27.9942 4.33109L24.7583 5.42942L19.5972 10.404V13.4744L16.7299 14.9364L14.0675 25.9697L15.0915 27.9346L14.0675 30.9764L15.0915 35.2342L17.9588 38.1619L17.3443 39.5455L20.826 45.7932L22.8741 47.109L22.2597 50.0653L24.1029 51.7663L27.9681 53.0892L30.0422 51.456M30.0452 5.2756L28.1834 4.70147L25.2454 5.92105L20.5498 10.8564V13.8055L17.9432 15.3353L15.5227 25.9692L16.4537 27.877L15.5227 30.8154L16.4537 34.9199L19.0603 37.8119L18.5017 39.1528L21.6669 45.2257L23.5287 46.5665L22.9702 49.4158L24.6458 51.1061L28.1573 52.5753L30.0452 51.3414M30.0448 5.38139L28.3691 5.07114L25.7252 6.41197L21.4988 11.3045V14.1395L19.1529 15.7335L16.9745 25.9716L17.8123 27.8188L16.9745 30.6502L17.8123 34.6013L20.1583 37.4613L19.6556 38.7593L22.5042 44.6539L24.1799 46.0233L23.6772 48.7656L25.1853 50.4451L28.3467 52.0606L30.0448 51.2261M30.043 5.48966L28.5535 5.4433L26.2001 6.90536L22.4466 11.7551V14.4725L20.3613 16.1342L18.4249 25.9729L19.1697 27.763L18.4249 30.491L19.1697 34.2853L21.255 37.1167L20.8081 38.3683L23.3403 44.0847L24.8298 45.4826L24.3829 48.1143L25.7234 49.7867L28.5349 51.5519L30.043 51.1133M30.0446 5.59592L28.7413 5.81345L26.6858 7.39676L23.3977 12.2073V14.8069L21.5731 16.5329L19.8788 25.9721L20.5305 27.7017L19.8788 30.3263L20.5305 33.9672L22.3551 36.7665L21.9641 37.9718L24.1797 43.5134L25.483 44.9398L25.092 47.4645L26.265 49.1263L28.7264 51.0377L30.0446 51.002M30.0443 5.70418L28.9272 6.18559L27.1622 7.89015L24.347 12.6579V15.1399L22.7831 16.9336L21.3308 25.977L21.8894 27.6459L21.3308 30.1635L21.8894 33.6511L23.4533 36.4183L23.1182 37.5808L25.0173 42.9441L26.1344 44.399L25.7993 46.8168L26.8047 48.4679L28.9123 50.5255L30.0443 50.8892M30.0459 5.81066L29.115 6.55596L27.6479 8.38176L25.2982 13.1103V15.4746L23.9949 17.3325L22.7847 25.9765L23.2501 27.5883L22.7847 29.999L23.2501 33.3368L24.5534 36.0719L24.2742 37.1881L25.8568 42.3766L26.7877 43.8565L26.5084 46.1673L27.3462 47.8077L29.1038 50.015L30.0459 50.7746M30.0457 5.91714L29.301 6.92633L28.1243 8.87337L26.2475 13.5591V15.8093L25.2049 17.7314L24.2367 25.976L24.6091 27.5308L24.2367 29.838L24.6091 33.0189L25.6517 35.7219L25.4283 36.7953L26.6944 41.8055L27.4391 43.3104L27.2157 45.5142L27.886 47.1474L29.2935 49.501L30.0457 50.6635M30.0458 6.02522L29.4872 7.29829L28.6047 9.36658L27.1972 14.0095V16.142L26.4152 18.1319L25.689 25.9771L25.9683 27.4713L25.689 29.6751L25.9683 32.7026L26.7503 35.3771L26.5827 36.4041L27.5323 41.2361L28.0908 42.7695L27.9233 44.8663L28.426 46.4924L29.4798 48.9886L30.0458 50.5505M30.0471 6.13277L29.6747 7.66972L29.0864 9.85926L28.148 14.463V16.4742L27.6267 18.5318L27.1426 25.9812L27.3288 27.4148L27.1426 29.5116L27.3288 32.3858L27.8501 35.0282L27.7384 36.0124L28.3714 40.6661L28.7438 42.228L28.6321 44.2178L28.9672 45.8333L29.671 48.4792L30.0471 50.437M30.0469 6.23482L29.8607 8.03565L29.5665 10.35L29.0973 14.9109V16.8081L28.8366 18.9298L28.5946 25.9799L28.6877 27.3563L28.5946 29.3497L28.6877 32.067L28.9484 34.6774L28.8925 35.6188L29.209 40.0977L29.3952 41.6846L29.3394 43.5675L29.5069 45.1722L29.8607 47.9644L30.0469 50.3215M30.0466 6.3413V50.2105" stroke="white" stroke-width="0.531447" stroke-miterlimit="10"/>
</svg>
