<svg width="106" height="135" viewBox="0 0 106 135" fill="none" xmlns="http://www.w3.org/2000/svg">
<path d="M32.5805 1.81013C31.254 2.50102 30.6184 3.08138 29.8169 4.24208C28.1588 6.6464 27.8548 8.27691 27.9653 13.9146C28.0482 18.668 28.0482 18.7785 28.9049 20.5472C29.8722 22.5646 31.0882 23.8912 32.7187 24.7755C33.7965 25.3559 34.2387 25.3835 42.2254 25.4664L50.5714 25.5493V29.8329C50.5714 34.1164 50.5714 34.1164 49.8529 34.7797L49.1067 35.4706H32.3041C20.3931 35.4706 15.3081 35.5535 14.8107 35.7746C13.5947 36.3273 13.5394 36.9629 13.5947 46.6355L13.6776 55.7H18.0993L18.2375 48.2936C18.3204 44.2035 18.431 40.8319 18.4586 40.8043C18.4862 40.7767 18.8731 40.5556 19.3429 40.3069C20.0615 39.9476 23.9305 39.8923 53.3627 39.9476L86.5533 40.0305L87.8798 41.5781V55.7829H92.3015V36.8247L91.6106 36.1615L90.9474 35.4706H73.9514C64.6104 35.4706 56.7619 35.3877 56.5131 35.3048C55.5182 34.9179 55.2695 33.7019 55.2695 29.5289V25.5217H63.0905C69.5296 25.5217 71.1601 25.4388 72.2103 25.0795C74.0895 24.4439 76.024 22.5646 76.9913 20.492C77.7927 18.7509 77.7927 18.7509 77.7927 13.2237C77.7927 7.75183 77.7927 7.66893 77.0189 6.03841C76.0517 3.96572 74.6146 2.44575 72.8183 1.58904L71.4365 0.925781H34.3216L32.5805 1.81013ZM72.1274 6.12132C73.5368 7.50311 73.7855 8.63618 73.7855 13.4172C73.7855 18.0047 73.4263 19.3036 71.851 20.6301L70.9667 21.3763L52.7823 21.321L34.5979 21.2381L33.8241 20.5472C32.3318 19.1654 32.0554 18.0876 32.0554 13.1961C32.0554 9.05072 32.0831 8.69145 32.7463 7.39257C33.9623 4.93298 32.5529 5.09879 53.031 5.07116H71.0772L72.1274 6.12132Z" fill="#F48124"/>
<path d="M12.7104 58.6025C11.7431 58.9618 10.4443 60.0672 6.60287 63.8533C1.04807 69.3252 0.274264 70.4583 0.0531771 73.36C-0.195545 76.7593 0.218992 77.4225 5.93961 83.226C11.7431 89.1401 12.738 89.7757 15.8885 89.7757C19.0114 89.7481 19.8681 89.223 25.4505 83.6682C31.254 77.8923 31.6409 77.2843 31.6409 73.8851C31.6409 70.5136 31.1159 69.7121 25.1742 63.881C21.1117 59.8738 20.0892 59.0171 18.9285 58.6025C17.215 58.0222 14.3962 58.0222 12.7104 58.6025ZM16.9939 62.3057C17.8783 62.5544 18.9837 63.4941 22.3277 66.8104C24.6491 69.1041 26.8047 71.3703 27.081 71.8401C27.7443 72.8626 27.7996 74.6866 27.2468 75.7644C27.0258 76.1789 24.8149 78.528 22.3277 80.9599C15.8056 87.3991 15.9438 87.3991 9.44936 80.9875C6.96214 78.528 4.75127 76.1789 4.53018 75.7644C3.97747 74.6866 4.03274 72.8626 4.696 71.8401C5.55271 70.4583 13.3736 62.8861 14.3962 62.4163C15.5569 61.9464 15.6122 61.9188 16.9939 62.3057Z" fill="#F48124"/>
<path d="M86.6363 58.7956C85.6414 59.2654 83.928 60.7854 80.363 64.378C74.7529 70.0434 74.366 70.679 74.3384 73.8848C74.3384 77.1458 74.8911 78.0578 80.059 83.198C82.4633 85.6023 84.8676 87.8961 85.3927 88.283C87.6865 89.9964 90.837 90.3004 93.6005 89.0845C95.4521 88.283 104.351 79.329 105.318 77.3392C106.23 75.4047 106.23 72.3924 105.291 70.4303C104.351 68.4681 95.4798 59.6799 93.5453 58.7956C91.5831 57.8836 88.5708 57.8836 86.6363 58.7956ZM91.3897 62.2777C92.274 62.6093 100.979 71.1488 101.587 72.2819C102.665 74.2993 102.002 75.46 96.751 80.6555C89.9803 87.3987 90.2566 87.3987 83.5411 80.7108C78.2903 75.5153 77.9034 74.9073 78.4837 72.9451C78.7325 72.0608 79.7274 70.9001 83.1266 67.418C88.2116 62.2777 89.3999 61.5592 91.3897 62.2777Z" fill="#F48124"/>
<path d="M15.0042 92.4005C13.7606 92.8979 13.4842 93.8099 13.5948 96.8499C13.7053 100.581 13.8435 100.691 17.9888 100.691C20.6972 100.691 21.0288 100.636 21.5539 100.083C22.3277 99.2265 22.2724 97.7895 21.4157 96.9604C20.9182 96.4353 20.4484 96.2695 19.5365 96.2695H18.3205L18.1823 94.8601C17.9888 92.8427 16.5794 91.7372 15.0042 92.4005Z" fill="#F48124"/>
<path d="M27.4679 96.6011C26.8323 96.9051 26.2519 97.9276 26.2519 98.7291C26.2519 99.0054 26.5007 99.5582 26.8323 99.9727L27.385 100.691H32.774C37.7761 100.691 38.163 100.664 38.6881 100.139C39.5448 99.2818 39.4342 97.5684 38.5222 96.8499C37.8313 96.2971 37.4444 96.2695 32.9122 96.2971C30.1762 96.2971 27.7995 96.4353 27.4679 96.6011Z" fill="#F48124"/>
<path d="M44.5745 96.8222C43.4138 97.5131 43.1927 99.1713 44.1323 100.194C44.5192 100.636 45.1272 100.691 50.0187 100.691C55.159 100.691 55.4906 100.664 55.9605 100.139C56.7619 99.2542 56.6513 97.7066 55.7117 96.9328C54.9932 96.2971 54.7997 96.2695 50.2122 96.2695C45.9563 96.2695 45.3759 96.3248 44.5745 96.8222Z" fill="#F48124"/>
<path d="M61.2941 97.0993C60.6032 97.8178 60.4926 98.0941 60.6308 98.8403C60.8795 100.112 61.7086 100.692 63.3115 100.692H64.6656V102.903C64.6656 104.92 64.7486 105.197 65.3565 105.805C66.1856 106.661 67.374 106.689 68.3689 105.915C69.0874 105.362 69.0874 105.335 69.0874 101.493C69.0874 97.7625 69.0597 97.5967 68.3965 96.9611C67.7885 96.3255 67.5398 96.2702 64.942 96.2702C62.1784 96.2702 62.1232 96.2978 61.2941 97.0993Z" fill="#F48124"/>
<path d="M64.0578 108.678C57.2594 110.917 53.3904 117.826 55.1314 124.597C56.0434 127.996 58.2819 130.981 61.239 132.639C63.5604 133.938 65.3843 134.407 68.2032 134.407C73.7304 134.407 78.2626 131.257 80.3353 125.951C81.3578 123.27 81.4131 119.622 80.4459 116.942C79.1746 113.432 76.1347 110.281 72.7355 108.955C70.497 108.098 66.241 107.96 64.0578 108.678ZM71.7129 113.073C73.7304 114.04 75.2227 115.505 76.2176 117.55C77.2677 119.678 77.2677 122.773 76.2176 125.039C72.9289 132.197 63.1735 132.197 59.6361 125.039C59.1386 124.016 59.0005 123.298 59.0005 121.28C59.0005 119.125 59.111 118.6 59.7466 117.411C60.5481 115.864 61.2942 114.979 62.7589 113.874C64.2236 112.769 65.6607 112.326 67.9821 112.326C69.7232 112.299 70.3311 112.437 71.7129 113.073Z" fill="#F48124"/>
</svg>
