<svg width="16" height="17" viewBox="0 0 16 17" fill="none" xmlns="http://www.w3.org/2000/svg">
<path d="M6.61098 16.9297L7.63417 16.0756V13.3329L7.63417 11.4605V9.58821V6.64834L7.63417 3.33071V1.62263L6.63749 -0.00333786H4.84853L3.83829 0.595732L4.01324 1.62263L3.06957 1.8999L1.5961 4.36541L1.89794 4.93237L0.466533 5.90254L0 7.66662L0.436862 8.45787L0 9.32543L1.26176 13.9237L2.36998 14.2312L2.48641 15.4453L5.04173 16.9297H6.61098Z" fill="white"/>
<path d="M9.38902 16.9297L8.36583 16.0756V13.3329V11.4605V9.58821V6.64834L8.36583 3.33071V1.62263L9.36251 -0.00333786H11.1515L12.1617 0.595732L11.9868 1.62263L12.9304 1.8999L14.4039 4.36541L14.1021 4.93237L15.5335 5.90254L16 7.66662L15.5631 8.45787L16 9.32543L14.7382 13.9237L13.63 14.2312L13.5136 15.4453L10.9583 16.9297H9.38902Z" fill="white"/>
</svg>
