<svg width="158" height="134" viewBox="0 0 158 134" fill="none" xmlns="http://www.w3.org/2000/svg">
<path d="M77.2429 81.8595L79.6526 80.5486C79.7226 80.6766 83.0269 86.4654 91.3024 92.8421C94.4128 89.1082 98.0687 85.8649 102.147 83.2215L102.143 83.2163C102.209 83.1686 108.678 78.3541 108.191 73.3223L110.921 73.0579C111.06 75.1314 110.564 77.198 109.501 78.9835C117.762 74.9313 130.018 71.0554 146.876 70.7915C146.677 66.3488 145.788 61.9641 144.24 57.7951C141.035 57.96 137.925 58.0425 134.911 58.0427C128.518 58.075 122.132 57.6458 115.802 56.7583C119.141 59.7816 121.3 63.8915 121.894 68.3569L119.165 68.64C118.388 61.1493 111.408 56.5692 110.029 55.7338C99.8301 53.6202 91.3649 50.0617 84.7184 45.0487C75.8762 38.3798 73.0714 31.1307 72.2627 28.2494C68.0121 28.9492 63.7166 29.3412 59.4095 29.4224C58.7359 31.2679 56.9915 36.273 55.2676 43.0159C56.1821 44.6062 59.8536 49.898 68.6646 50.8507L68.3699 53.5779C60.8874 52.7689 56.5951 49.1545 54.4118 46.5311C52.3159 55.2342 51.1822 64.1411 51.0312 73.0917C53.2426 71.9192 55.5463 70.9298 57.9191 70.1332C58.8247 69.2636 62.0647 65.8267 62.0647 61.1766H64.8079C64.771 63.8842 63.9695 66.5262 62.4957 68.7978C67.0103 67.7002 71.637 67.13 76.283 67.0984C77.7226 66.8411 85.0005 65.2518 87.4165 59.091L89.9703 60.0929C88.6915 63.2254 86.3619 65.8149 83.3816 67.4167C88.7556 67.96 94.0566 69.0732 99.1952 70.7376L98.3602 73.3504C72.2628 65.0082 54.6219 74.1365 51.0812 76.2298C51.1835 79.5781 51.5367 82.9139 52.1376 86.2094C54.3773 87.3887 56.8346 88.0973 59.3583 88.2916C61.882 88.4859 64.4188 88.1618 66.8126 87.3392L67.71 89.9315C62.8881 91.6219 57.6157 91.4987 52.878 89.5849C53.5215 92.1471 54.3942 94.6462 55.4854 97.052C57.7825 98.7456 60.4152 99.9284 63.2069 100.521C66.84 101.23 70.6696 100.628 75.0108 99.4735C77.6326 101.6 80.6697 103.772 83.0236 104.613C88.2259 106.471 100.117 123.763 100.117 123.763L105.877 120.034L99.7453 108.143C103.928 108.33 108.117 107.929 112.188 106.952C86.5669 98.43 77.7284 82.7535 77.2429 81.8595Z" fill="#002B49"/>
<path d="M131.908 84.5749L132.094 87.3118C131.516 87.3511 130.951 87.3704 130.399 87.3698C125.002 87.4261 119.772 85.5025 115.697 81.9629C102.884 87.1603 96.1981 94.2466 94 96.9403C101.103 101.855 108.975 105.551 117.293 107.879C117.867 107.633 118.434 107.367 118.99 107.077C122.789 105.091 125.023 100.015 126.326 95.15C126.495 95.1717 126.661 95.1908 126.83 95.2134C137.387 96.6237 146.559 89.1806 147.31 76C137.556 76.0419 127.874 77.6769 118.647 80.8406C122.474 83.64 127.182 84.9658 131.908 84.5749Z" fill="#002B49"/>
<path d="M27.5645 40.7819C25.6927 42.6067 23.7014 44.3048 21.604 45.8651C21.3047 47.7818 20.4574 55.39 25.2262 58.436L23.7492 60.7479C18.9515 57.6829 18.4384 51.6473 18.63 47.9571C16.9967 49.0339 15.246 50.0668 13.3988 51.0592C14.4073 67.0661 22.6823 73.9635 30.0565 76.981C36.654 53.8382 30.0073 43.5844 27.5645 40.7819Z" fill="#002B49"/>
<path d="M49.0162 60.9172C49.9943 53.1788 51.5774 45.529 53.7511 38.038C50.8336 39.4875 47.63 40.2697 44.3727 40.3276C43.7815 40.3278 43.1906 40.2978 42.6024 40.2378L42.8819 37.5089C48.5557 38.0926 53.5625 35.1283 54.8817 34.2664C55.5271 32.207 56.0891 30.5608 56.4922 29.4245C52.8321 29.3793 49.1784 29.1042 45.5528 28.6008C45.3168 28.5928 45.1593 28.5835 45.1068 28.5797L45.1099 28.5341C42.652 28.1857 40.2155 27.6998 37.8119 27.0786C35.5674 31.3391 32.7693 35.284 29.4903 38.8107C31.5238 41.1647 33.0401 43.9196 33.9411 46.8969C36.6219 48.6618 39.8457 49.4094 43.0297 49.0045L43.2735 51.737C42.664 51.7915 42.0765 51.816 41.5126 51.816C39.2375 51.8343 36.9822 51.3929 34.8818 50.5185C36.1507 56.7794 36.1639 65.677 32.6473 77.909C35.6414 78.7739 38.7235 79.2985 41.8351 79.4729C44.1913 84.5209 47.3227 89.1692 51.1157 93.2493C48.2417 84.3806 47.4997 73.5236 49.0162 60.9172Z" fill="#F48124"/>
<path d="M39.0984 16.8461C39.6118 15.1975 40.031 13.5771 40.3744 12.0003C35.6183 14.1968 31.8053 18.023 29.6253 22.7867C27.1557 22.5072 24.6549 22.7527 22.2868 23.5071C19.9187 24.2614 17.7367 25.5077 15.8838 27.1641C14.0309 28.8205 12.5489 30.8498 11.535 33.1189C10.521 35.388 9.99791 37.8458 10 40.3311C9.99874 43.2438 10.7226 46.111 12.1062 48.674C25.6878 41.454 34.7525 30.8004 39.0984 16.8461Z" fill="#002B49"/>
<path d="M39.0517 24.5702C41.2371 25.1124 43.4488 25.5419 45.6783 25.8569C48.0119 25.9086 60.5736 25.7101 68.6659 15.9513L70.7778 17.7024C67.2858 21.8736 62.7027 24.9917 57.5406 26.7083C73.4127 26.7563 88.9855 22.3907 102.52 14.0991C88.5694 9.24361 72.7838 8.97511 58.4043 11.8957C53.6848 9.78817 48.3702 9.425 43.4079 10.8709C42.9743 13.1649 42.4099 15.4322 41.7175 17.6618C40.9818 20.0207 40.0912 22.3285 39.0517 24.5702Z" fill="#002B49"/>
<path d="M114.901 30.6853L112.379 31.7658C108.101 21.7802 97.9365 20.7624 96.2055 20.6611C89.4645 23.921 82.3338 26.3045 74.9874 27.7533C76.5342 32.3437 79.207 36.4732 82.7613 39.7643C85.2334 38.8486 92.5843 36.6359 100.236 39.3051L99.3327 41.8956C94.713 40.4475 89.7619 40.4409 85.1383 41.8765C85.6026 42.2564 86.0699 42.6363 86.5753 43.0127C95.301 49.5102 112.049 56.4988 143.196 55.0886C141.322 50.6315 139.018 46.3672 136.318 42.3557C136.377 41.6883 136.413 41.014 136.413 40.3311C136.42 34.9721 134.518 29.7857 131.05 25.7007C125.969 30.2442 122.715 36.4818 121.897 43.2485L119.162 43.039C120.148 35.6364 123.704 28.8159 129.21 23.7703C125.021 19.8482 119.496 17.6689 113.757 17.6755C112.888 17.677 112.019 17.7282 111.156 17.8287C109.395 16.898 107.581 16.071 105.735 15.3163C103.918 16.4803 102.104 17.56 100.293 18.5554C103.514 19.2782 106.517 20.7545 109.056 22.8631C111.595 24.9717 113.598 27.6524 114.901 30.6853Z" fill="#D40000"/>
</svg>
