<svg width="299" height="605" viewBox="0 0 299 605" fill="none" xmlns="http://www.w3.org/2000/svg">
<mask id="mask0_4286_1799" style="mask-type:alpha" maskUnits="userSpaceOnUse" x="0" y="0" width="299" height="605">
<path d="M278.667 0H20.6667C9.62099 0 0.666687 8.9543 0.666687 20V585C0.666687 596.046 9.62099 605 20.6667 605H278.667C289.712 605 298.667 596.046 298.667 585V20C298.667 8.9543 289.712 0 278.667 0Z" fill="#FFE98A"/>
</mask>
<g mask="url(#mask0_4286_1799)">
<path d="M-788.8 -180.001C-799.2 -204.501 -806.7 -230.201 -812.7 -255.701C-819.4 -284.301 -820 -314.201 -821.6 -343.301C-823.1 -369.501 -817.2 -395.601 -812.8 -421.501C-797.5 -512.301 -799.8 -606.001 -768.9 -693.601M-788.8 -180.001C-793.3 -190.601 -794.5 -202.601 -792.6 -215.701C-784.6 -219.301 -767.2 -228.301 -752.9 -249.201C-746 -259.401 -740.5 -271.901 -734.3 -283.201C-732.8 -286.101 -731.1 -288.901 -729.3 -291.601C-719.5 -306.101 -706.4 -316.401 -695.5 -331.601C-686.7 -343.701 -680.3 -358.401 -675.8 -373.801C-673.7 -381.201 -672 -388.701 -670.6 -396.201C-668 -410.401 -666.3 -425.101 -661.4 -438.501C-655.2 -455.601 -644.7 -469.401 -635 -483.401C-627.7 -494.001 -620.6 -504.901 -613.7 -516.201C-610.5 -521.501 -607.3 -527.001 -604.9 -533.001C-598.7 -548.701 -599.6 -566.801 -602.3 -583.101C-605 -599.401 -609.4 -615.101 -614.8 -629.501C-623.8 -653.601 -637.3 -672.401 -648.4 -690.601C-653.7 -699.301 -659.1 -707.501 -664.3 -715.301M-788.8 -180.001C-789.1 -180.701 -785.7 -182.901 -778.2 -187.101C-761.3 -179.501 -730.3 -180.701 -704.9 -202.401C-692.6 -213.001 -682.9 -227.501 -671.9 -240.101C-669.1 -243.301 -666.2 -246.401 -663.1 -249.201C-646.3 -264.701 -625 -273.001 -607.7 -289.701C-593.9 -303.001 -584.3 -320.701 -577.9 -339.601C-574.8 -348.601 -572.5 -357.901 -570.7 -367.101C-567.3 -384.701 -565.3 -402.901 -557.7 -419.101C-548.1 -439.601 -531 -454.601 -515.3 -469.901C-503.4 -481.501 -491.9 -493.701 -480.8 -506.301C-475.6 -512.301 -470.3 -518.501 -466.6 -525.701C-456.9 -544.501 -459.3 -567.401 -465 -587.301C-470.7 -607.301 -479.2 -626.001 -489.9 -642.701C-507.7 -670.501 -533.6 -689.301 -556.3 -707.201C-567.3 -715.801 -578.4 -723.701 -589.5 -730.801M-788.8 -180.001C-783.2 -166.701 -772.5 -156.401 -758.1 -147.001C-726.4 -126.301 -678.6 -114.301 -637.7 -137.001C-617.9 -148.101 -602.3 -165.501 -584.7 -179.901C-580.2 -183.601 -575.5 -187.001 -570.6 -190.101C-544 -206.901 -511.1 -212.401 -485 -231.001C-464 -245.901 -450 -267.801 -440.9 -291.701C-436.5 -303.101 -433.3 -314.801 -430.9 -326.501C-426.3 -348.801 -423.9 -372.101 -412.5 -392.101C-398 -417.601 -371.7 -434.101 -347.6 -451.201C-329.4 -464.101 -311.7 -477.901 -294.7 -492.501C-286.6 -499.401 -278.6 -506.601 -273 -515.501C-258.4 -538.601 -263 -568.201 -272.8 -593.201C-282.6 -618.101 -297.1 -641.201 -315.1 -661.001C-345.1 -694.001 -388.6 -712.701 -427.4 -730.301C-446.2 -738.801 -465.4 -746.301 -484.7 -752.501M-788.8 -180.001C-775.6 -148.901 -757.6 -119.801 -732.2 -95.6008C-686.7 -52.3008 -612.1 -28.8008 -551.3 -52.9008C-514.4 -67.6008 -487.3 -97.1008 -451.5 -113.901C-412.2 -132.301 -364.5 -134.201 -327 -155.401C-282.6 -180.501 -261 -228.101 -251.1 -274.101C-245.1 -302.401 -242.1 -332.101 -225.9 -357.101C-205.3 -388.801 -167.1 -407.401 -132.2 -426.801C-105.7 -441.501 -80.1 -457.501 -55.5 -474.601C-43.9 -482.701 -32.3 -491.301 -24.2 -502.301C-3.20004 -530.901 -10.5 -569.201 -25.7 -600.601C-40.8 -632.001 -63.0001 -660.601 -90.4001 -684.501C-136.1 -724.301 -202.2 -742.801 -261.8 -759.901C-290.7 -768.301 -320.2 -775.201 -350.1 -780.301M-754 -696.701C-755.9 -688.201 -757.4 -679.501 -758.8 -670.801C-761.7 -652.301 -763.1 -633.401 -764.6 -613.701C-765.5 -602.001 -766.2 -590.001 -767.1 -577.901C-768 -565.901 -768.9 -553.501 -770.8 -541.501C-771.5 -536.901 -772.4 -532.401 -773.2 -527.801C-775 -518.301 -776.8 -508.701 -778.6 -499.301C-781.1 -486.801 -783.7 -474.401 -785.8 -461.501C-787.5 -451.301 -788.8 -441.001 -790.4 -430.801C-791.2 -425.401 -792.2 -420.001 -793.2 -414.601C-795.4 -403.401 -798 -392.401 -800.7 -381.701C-804.1 -368.301 -807.3 -355.501 -808.6 -342.101C-808.8 -339.601 -809 -337.101 -809.1 -334.601C-809.5 -324.801 -809.9 -314.801 -810.4 -305.101C-811.5 -285.201 -812.8 -266.801 -809.7 -249.901C-805.4 -226.101 -798.2 -202.401 -788.7 -179.901M-739.1 -699.801C-739.8 -691.401 -740.2 -682.801 -740.4 -674.101C-740.9 -655.601 -739.9 -636.801 -739.6 -616.401C-739.4 -604.201 -739.3 -591.701 -739.6 -578.901C-739.9 -566.101 -740.5 -552.901 -743.1 -540.201C-744.1 -535.301 -745.4 -530.701 -746.6 -526.001C-749.2 -516.201 -751.9 -506.401 -754.7 -496.801C-758.4 -484.101 -762.3 -471.401 -765.1 -457.801C-767.3 -447.101 -768.7 -436.101 -770.5 -425.201C-771.4 -419.401 -772.5 -413.701 -773.7 -408.001C-776.2 -396.101 -779.5 -384.501 -783.2 -373.501C-787.8 -359.801 -792.7 -347.401 -795.4 -333.801C-795.9 -331.301 -796.3 -328.801 -796.7 -326.201C-798.1 -316.201 -799.3 -305.701 -800.9 -295.901C-804.2 -275.801 -808.7 -259.001 -807 -244.301C-804.4 -222.201 -797.6 -200.501 -788.9 -180.001M-788.9 -180.001C-795.1 -194.501 -798 -210.401 -798.4 -227.101C-794 -235.201 -782.1 -247.201 -772.2 -267.801C-767.4 -277.801 -763.6 -289.501 -759.3 -300.301C-758.2 -303.101 -757.1 -305.801 -755.8 -308.401C-748.8 -322.601 -739 -333.701 -730.6 -348.301C-723.9 -359.901 -718.7 -373.401 -715 -387.401C-713.2 -394.101 -711.8 -400.901 -710.6 -407.701C-708.3 -420.601 -706.7 -433.701 -702.9 -446.101C-698 -461.801 -690.2 -475.201 -682.9 -488.701C-677.4 -499.001 -672.1 -509.401 -666.9 -520.101C-664.5 -525.101 -662 -530.201 -660.2 -535.801C-655.4 -550.201 -655.7 -566.401 -657.2 -581.301C-658.7 -596.301 -661.4 -610.701 -664.7 -624.201C-670.3 -646.901 -678.7 -665.701 -685.2 -684.001C-688.3 -692.701 -691.4 -701.101 -694.2 -709.101M-788.9 -180.001C-786.7 -174.701 -780.5 -171.001 -769.7 -169.901C-747.4 -155.701 -708.2 -152.301 -676.2 -174.401C-660.7 -185.201 -648.5 -201.001 -634.6 -214.301C-631 -217.701 -627.4 -221.001 -623.5 -223.901C-602.4 -239.901 -576.2 -247.001 -555.1 -264.501C-538.1 -278.501 -526.7 -298.101 -519.1 -319.101C-515.5 -329.101 -512.7 -339.401 -510.7 -349.701C-506.8 -369.301 -504.6 -389.701 -495.4 -407.501C-483.7 -430.201 -462.7 -445.801 -443.4 -461.901C-428.8 -474.101 -414.6 -486.901 -401 -500.401C-394.6 -506.801 -388.1 -513.401 -383.6 -521.301C-371.8 -541.901 -375.2 -567.701 -382.6 -589.801C-390.1 -611.901 -401.2 -632.501 -415 -650.501C-438 -680.601 -471.5 -699.301 -501.1 -717.101C-515.4 -725.601 -530 -733.401 -544.6 -740.101M-788.9 -180.001C-785.8 -172.701 -778.8 -167.101 -766.8 -164.201C-742.7 -147.701 -700.8 -142.701 -666.6 -165.001C-650 -175.801 -636.9 -192.001 -622.1 -205.601C-618.3 -209.001 -614.4 -212.301 -610.3 -215.301C-587.8 -231.501 -559.9 -238.201 -537.6 -256.001C-519.7 -270.201 -507.6 -290.401 -499.6 -312.101C-495.8 -322.501 -492.9 -333.201 -490.8 -343.801C-486.7 -364.101 -484.4 -385.201 -474.7 -403.601C-462.4 -427.001 -440 -442.901 -419.5 -459.201C-404 -471.601 -389 -484.601 -374.5 -498.401C-367.6 -504.901 -360.8 -511.601 -356 -519.801C-343.5 -541.001 -347.2 -567.801 -355.2 -590.601C-363.2 -613.401 -375.2 -634.601 -390 -653.101C-414.7 -684.001 -450.7 -702.701 -482.6 -720.401C-498.1 -728.901 -513.8 -736.601 -529.6 -743.201M-788.9 -180.001C-782.4 -164.701 -770.9 -152.301 -755.3 -141.301C-722.2 -117.901 -671.3 -104.701 -628.2 -127.601C-607.3 -138.701 -590.9 -156.601 -572.2 -171.201C-567.5 -174.901 -562.6 -178.401 -557.4 -181.501C-529.3 -198.501 -494.8 -203.601 -467.4 -222.501C-445.4 -237.701 -430.8 -260.201 -421.3 -284.801C-416.7 -296.501 -413.4 -308.601 -410.9 -320.601C-406.2 -343.501 -403.7 -367.501 -391.8 -388.101C-376.6 -414.301 -349 -431.101 -323.7 -448.401C-304.5 -461.601 -285.9 -475.601 -268.1 -490.501C-259.7 -497.501 -251.3 -504.901 -245.4 -514.001C-230.1 -537.701 -235 -568.301 -245.4 -594.001C-255.8 -619.601 -271.2 -643.301 -290.2 -663.601C-321.9 -697.501 -368 -716.001 -409.1 -733.601C-429 -742.001 -449.3 -749.501 -469.8 -755.601M-724.1 -702.901C-723.6 -694.601 -722.8 -686.101 -722 -677.401C-720.2 -659.001 -716.7 -640.201 -714.7 -619.001C-713.5 -606.401 -712.5 -593.201 -712.2 -579.701C-711.9 -566.201 -712.2 -552.001 -715.5 -538.801C-716.8 -533.701 -718.4 -528.901 -720.1 -524.101C-723.6 -514.001 -727.1 -504.001 -730.8 -494.201C-735.7 -481.201 -740.9 -468.301 -744.4 -454.001C-747.2 -442.701 -748.6 -431.001 -750.5 -419.401C-751.5 -413.301 -752.7 -407.201 -754.1 -401.101C-757 -388.501 -760.9 -376.301 -765.6 -365.101C-771.5 -351.101 -778 -339.101 -782.1 -325.401C-782.9 -322.901 -783.5 -320.301 -784.1 -317.601C-786.4 -307.301 -788.5 -296.401 -791.2 -286.601C-796.7 -266.301 -806.8 -250.901 -804 -238.701C-799.4 -218.801 -796.6 -198.601 -788.7 -180.101C-789.8 -182.701 -787.4 -186.901 -781 -192.901C-765.9 -187.601 -737.6 -190.401 -714.4 -211.901C-703.2 -222.301 -694.3 -236.501 -684.3 -248.801C-681.8 -252.001 -679.1 -255.001 -676.3 -257.801C-660.9 -273.001 -641.2 -281.801 -625.2 -298.101C-612.4 -311.201 -603.4 -328.301 -597.4 -346.501C-594.5 -355.201 -592.3 -364.101 -590.6 -373.001C-587.4 -390.001 -585.5 -407.501 -578.4 -423.101C-569.5 -442.901 -553.7 -457.701 -539.2 -472.701C-528.2 -484.101 -517.6 -495.901 -507.4 -508.301C-502.6 -514.101 -497.8 -520.101 -494.3 -527.101C-485.3 -545.201 -487.4 -567.201 -492.5 -586.401C-497.6 -605.701 -505.3 -623.801 -514.9 -640.001C-530.9 -667.101 -554.3 -685.901 -574.7 -703.801C-584.5 -712.501 -594.5 -720.401 -604.4 -727.701M-709.2 -706.001C-707.5 -697.901 -705.6 -689.401 -703.6 -680.701C-699.4 -662.301 -693.5 -643.501 -689.7 -621.601C-687.4 -608.501 -685.6 -594.701 -684.7 -580.501C-683.8 -566.301 -683.8 -551.101 -687.8 -537.301C-689.4 -532.001 -691.4 -527.001 -693.4 -522.101C-697.7 -511.701 -702.2 -501.501 -706.8 -491.401C-712.9 -478.201 -719.4 -465.001 -723.6 -450.001C-726.9 -438.201 -728.4 -425.701 -730.5 -413.501C-731.6 -407.001 -732.9 -400.601 -734.5 -394.201C-737.8 -380.901 -742.3 -368.101 -748.1 -356.601C-755.3 -342.301 -763.4 -330.701 -768.9 -316.801C-769.9 -314.201 -770.8 -311.601 -771.7 -308.901C-775 -298.301 -777.9 -287.101 -781.7 -277.101C-789.4 -256.701 -803.8 -243.101 -801.2 -232.801C-796.7 -214.801 -795.8 -196.501 -788.8 -179.901M-788.8 -179.901C-779.8 -158.801 -765.9 -140.001 -746.6 -124.101C-708.9 -93.1008 -649 -76.2008 -599.3 -99.6008C-575.2 -110.901 -556.3 -130.101 -534.7 -145.401C-529.2 -149.301 -523.6 -153.001 -517.6 -156.201C-485.3 -173.701 -445.9 -177.601 -414.7 -197.401C-389.7 -213.301 -373.2 -237.601 -362.5 -264.301C-357.4 -277.001 -353.6 -290.101 -350.9 -303.201C-345.7 -328.101 -343 -354.301 -329.5 -376.501C-312.3 -404.701 -280.7 -422.201 -251.8 -440.301C-229.9 -454.001 -208.7 -468.801 -188.3 -484.501C-178.6 -492.001 -169 -499.801 -162.3 -509.601C-144.9 -535.201 -150.7 -568.701 -162.9 -596.501C-175.1 -624.201 -193 -649.801 -215.2 -671.401C-252.2 -707.401 -305.7 -726.001 -353.8 -743.401C-377.1 -751.801 -400.9 -759.101 -424.9 -764.801M-788.8 -179.901C-777.3 -152.801 -761 -127.801 -738 -106.901C-695.7 -68.5008 -627 -47.7008 -570.6 -71.5008C-543.2 -83.0008 -521.7 -103.401 -497.3 -119.501C-491.1 -123.601 -484.7 -127.401 -478 -130.701C-441.4 -148.801 -397.1 -151.401 -362.1 -172.101C-334 -188.701 -315.6 -214.901 -303.8 -243.701C-298.2 -257.401 -294.1 -271.601 -291.1 -285.701C-285.4 -312.701 -282.5 -341.001 -267.4 -364.901C-248.2 -395.301 -212.6 -413.401 -180.1 -432.301C-155.4 -446.601 -131.6 -462.001 -108.7 -478.601C-97.8 -486.401 -87 -494.701 -79.5 -505.201C-59.9 -532.601 -66.6 -569.001 -80.6 -599.001C-94.5 -629.001 -115 -656.301 -140.4 -679.301C-182.5 -717.501 -243.6 -736.101 -298.6 -753.301C-325.2 -761.701 -352.5 -768.801 -380 -774.101M-679.2 -712.201C-675.2 -704.301 -670.9 -696.001 -666.7 -687.301C-657.9 -669.101 -647 -650.301 -639.7 -626.801C-635.3 -612.801 -631.8 -597.801 -629.7 -582.101C-627.6 -566.501 -627 -549.301 -632.5 -534.301C-634.6 -528.501 -637.4 -523.201 -640.3 -518.001C-646.3 -507.101 -652.5 -496.301 -658.9 -485.901C-667.4 -472.101 -676.6 -458.501 -682.1 -442.201C-686.5 -429.301 -688.1 -415.401 -690.5 -401.801C-691.8 -394.701 -693.3 -387.501 -695.3 -380.401C-699.4 -365.701 -705.2 -351.601 -712.9 -339.701C-722.6 -324.801 -734 -314.101 -742.4 -299.701C-743.9 -297.101 -745.4 -294.301 -746.7 -291.501C-751.9 -280.401 -756.6 -268.301 -762.4 -258.301C-774.5 -237.601 -789.2 -227.101 -795.4 -221.201C-796.2 -206.301 -794.1 -192.401 -788.7 -179.801M-649.3 -718.401C-642.9 -710.801 -636.4 -702.601 -629.9 -693.901C-616.5 -675.801 -600.6 -657.001 -589.8 -632.101C-583.3 -617.201 -578.2 -601.001 -574.9 -583.901C-571.6 -566.801 -570.4 -547.801 -577.3 -531.501C-579.9 -525.201 -583.6 -519.701 -587.2 -514.201C-594.9 -502.701 -602.9 -491.501 -611.1 -480.701C-622 -466.401 -633.8 -452.401 -640.7 -434.601C-646.1 -420.601 -647.9 -405.301 -650.6 -390.301C-652 -382.501 -653.9 -374.601 -656.2 -366.901C-661.1 -350.801 -668.1 -335.501 -677.9 -323.201C-690.1 -307.701 -704.8 -297.801 -716 -283.101C-718.1 -280.401 -720 -277.501 -721.8 -274.601C-728.9 -263.001 -735.3 -250.101 -743.3 -239.901C-759.8 -218.901 -779.9 -211.401 -789.7 -210.101C-792.7 -198.801 -792.5 -188.701 -788.8 -180.101M-634.3 -721.501C-626.8 -714.001 -619.1 -705.901 -611.5 -697.201C-595.7 -679.201 -577.3 -660.401 -564.8 -634.701C-557.3 -619.401 -551.3 -602.501 -547.4 -584.701C-543.5 -567.001 -542 -546.901 -549.6 -530.001C-552.5 -523.501 -556.5 -517.801 -560.6 -512.201C-569.1 -500.401 -578 -489.001 -587.1 -478.001C-599.2 -463.501 -612.3 -449.201 -619.9 -430.701C-625.9 -416.201 -627.7 -400.101 -630.6 -384.501C-632.1 -376.301 -634.1 -368.101 -636.6 -360.101C-641.8 -343.301 -649.5 -327.401 -660.3 -314.801C-673.8 -299.101 -690.2 -289.501 -702.7 -274.601C-705 -271.901 -707.2 -268.901 -709.2 -265.901C-717.3 -254.101 -724.5 -240.701 -733.6 -230.501C-752.4 -209.301 -775.2 -203.401 -786.7 -204.301C-790.8 -194.801 -791.5 -186.701 -788.7 -180.001M-788.7 -180.001C-784 -168.801 -774.2 -160.701 -760.9 -152.801C-730.8 -134.901 -686 -123.801 -647.3 -146.401C-628.6 -157.401 -613.8 -174.401 -597.1 -188.501C-592.9 -192.101 -588.5 -195.501 -583.8 -198.501C-558.5 -215.001 -527.3 -221.001 -502.5 -239.401C-482.5 -254.101 -469.1 -275.401 -460.4 -298.601C-456.2 -309.601 -453.1 -321.001 -450.8 -332.301C-446.4 -354.001 -444 -376.501 -433.2 -396.001C-419.5 -420.701 -394.5 -437.101 -371.6 -453.901C-354.2 -466.601 -337.4 -480.201 -321.3 -494.501C-313.7 -501.301 -306.1 -508.401 -300.7 -517.001C-286.8 -539.501 -291.1 -568.201 -300.3 -592.401C-309.5 -616.601 -323.2 -639.001 -340.1 -658.401C-368.3 -690.701 -409.3 -709.401 -445.8 -727.001C-463.5 -735.501 -481.6 -743.001 -499.7 -749.401M-788.7 -180.001C-780.6 -160.801 -767.4 -144.201 -749.4 -129.901C-713.3 -101.401 -656.4 -85.8007 -608.9 -109.001C-585.9 -120.301 -567.8 -139.001 -547.4 -154.001C-542.2 -157.801 -536.8 -161.401 -531.1 -164.601C-500.2 -181.901 -462.4 -186.201 -432.5 -205.701C-408.5 -221.401 -392.6 -245.101 -382.3 -271.101C-377.4 -283.501 -373.8 -296.301 -371.1 -309.001C-366 -333.301 -363.4 -358.701 -350.4 -380.401C-333.9 -407.901 -303.6 -425.201 -275.9 -443.001C-254.8 -456.501 -234.5 -471.101 -215 -486.501C-205.7 -493.801 -196.5 -501.401 -190.1 -511.001C-173.4 -536.001 -178.9 -568.501 -190.5 -595.601C-202.1 -622.701 -219.2 -647.601 -240.3 -668.801C-275.5 -704.101 -326.6 -722.601 -372.3 -740.101C-394.4 -748.501 -417.1 -755.801 -439.9 -761.701M-619.4 -724.601C-610.7 -717.201 -601.8 -709.201 -593.1 -700.501C-575 -682.501 -554.1 -663.701 -539.8 -637.301C-531.3 -621.601 -524.4 -604.101 -520 -585.601C-515.5 -567.101 -513.7 -546.101 -522 -528.601C-525.2 -521.901 -529.6 -516.001 -534.1 -510.301C-543.5 -498.201 -553.2 -486.601 -563.3 -475.401C-576.6 -460.601 -591 -446.101 -599.3 -426.901C-605.7 -411.701 -607.6 -395.001 -610.7 -378.701C-612.3 -370.201 -614.4 -361.601 -617.1 -353.201C-622.7 -335.701 -631 -319.201 -642.9 -306.401C-657.6 -290.401 -675.7 -281.201 -689.7 -266.201C-692.3 -263.401 -694.7 -260.501 -697 -257.401C-706.1 -245.301 -714.1 -231.601 -724.2 -221.201C-745.2 -199.901 -770.7 -195.501 -784.1 -198.601C-789.3 -190.801 -790.9 -184.701 -788.9 -180.101M-574.5 -733.901C-562.3 -726.901 -550 -719.101 -537.9 -710.501C-512.9 -692.701 -484.4 -673.901 -465 -645.301C-453.3 -628.201 -443.9 -608.801 -437.6 -588.201C-431.3 -567.601 -428.6 -543.701 -439 -524.301C-443 -516.801 -448.6 -510.501 -454.3 -504.401C-466.2 -491.501 -478.6 -479.101 -491.4 -467.301C-508.3 -451.801 -526.7 -436.601 -537 -415.301C-545.1 -398.601 -547.2 -379.601 -550.8 -361.301C-552.7 -351.701 -555.1 -342.101 -558.4 -332.701C-565.2 -313.101 -575.4 -294.801 -590.3 -281.201C-608.8 -264.301 -631.8 -256.401 -650 -240.701C-653.4 -237.801 -656.5 -234.701 -659.5 -231.401C-671.4 -218.601 -682 -203.601 -695.4 -193.001C-723 -171.201 -756.7 -171.501 -775.4 -181.301C-784 -178.901 -788.3 -178.601 -788.9 -179.901C-784.9 -170.601 -776.1 -164.801 -763.9 -158.401C-735.2 -143.301 -693.5 -133.201 -657 -155.601C-639.3 -166.501 -625.4 -183.201 -609.6 -197.001C-605.5 -200.501 -601.4 -203.901 -597 -206.901C-573.1 -223.201 -543.6 -229.501 -520 -247.601C-501.1 -262.101 -488.3 -282.901 -480 -305.301C-476 -316.001 -473 -327.001 -470.8 -338.001C-466.6 -358.901 -464.3 -380.801 -454 -399.701C-441 -423.701 -417.3 -439.801 -395.6 -456.401C-379.1 -468.901 -363.2 -482.301 -347.9 -496.301C-340.7 -503.001 -333.5 -509.901 -328.4 -518.301C-315.2 -540.201 -319.2 -567.901 -327.8 -591.401C-336.4 -615.001 -349.2 -636.801 -365.1 -655.701C-391.5 -687.301 -430 -706.001 -464.3 -723.701C-480.9 -732.201 -497.7 -739.801 -514.7 -746.301M-559.5 -737.001C-546.1 -730.101 -532.6 -722.301 -519.4 -713.801C-492.2 -696.001 -461.2 -677.201 -440 -647.901C-427.2 -630.301 -417 -610.401 -410.1 -589.001C-403.2 -567.601 -400.2 -542.801 -411.3 -522.801C-415.6 -515.101 -421.6 -508.601 -427.6 -502.401C-440.4 -489.201 -453.6 -476.601 -467.3 -464.601C-485.4 -448.801 -505.1 -433.401 -516.1 -411.401C-524.8 -394.101 -526.9 -374.401 -530.6 -355.501C-532.6 -345.601 -535.2 -335.601 -538.6 -325.901C-545.8 -305.601 -556.6 -286.701 -572.5 -272.901C-592.3 -255.701 -616.9 -248.201 -636.5 -232.401C-640.1 -229.501 -643.5 -226.301 -646.8 -223.001C-659.7 -209.901 -671.1 -194.501 -685.5 -183.901C-715.3 -161.901 -751.8 -163.801 -772.2 -175.801C-781.9 -175.101 -787.1 -176.801 -788.5 -180.201M-454.8 -758.601C-433.1 -752.601 -411.7 -745.201 -390.6 -736.801C-347.2 -719.301 -298.6 -700.701 -265.2 -666.201C-245.1 -645.501 -228.9 -621.201 -217.9 -594.801C-206.9 -568.401 -201.7 -536.801 -217.7 -512.501C-223.9 -503.201 -232.7 -495.601 -241.5 -488.501C-260.2 -473.301 -279.6 -459.101 -299.7 -445.701C-326.2 -428.101 -355.2 -411.101 -371 -384.201C-383.4 -363.101 -386 -338.401 -390.9 -314.701C-393.5 -302.301 -397 -289.901 -401.7 -277.901C-411.6 -252.601 -426.8 -229.501 -449.9 -214.101C-478.6 -194.901 -514.7 -190.201 -544.2 -173.101C-549.6 -169.901 -554.8 -166.401 -559.8 -162.601C-579.4 -147.801 -596.7 -129.501 -618.7 -118.301C-664 -95.2007 -717.9 -109.601 -752.5 -135.601C-769.3 -148.201 -781.6 -162.801 -789 -180.001M-409.9 -767.901C-384.7 -762.301 -359.8 -755.101 -335.4 -746.701C-285 -729.401 -229 -710.901 -190.3 -674.101C-167.1 -652.001 -148.3 -625.901 -135.5 -597.401C-122.7 -568.901 -116.6 -534.401 -134.8 -508.201C-141.8 -498.101 -151.8 -490.201 -161.8 -482.601C-183 -466.601 -205.1 -451.601 -227.9 -437.701C-258 -419.401 -290.9 -401.601 -308.8 -372.701C-322.8 -349.901 -325.6 -323.101 -331 -297.401C-333.8 -284.001 -337.7 -270.501 -342.9 -257.501C-354 -230.101 -371.1 -205.201 -397.2 -189.001C-429.6 -168.901 -470.7 -165.401 -504.4 -147.801C-510.6 -144.501 -516.5 -140.801 -522.2 -136.901C-544.7 -121.301 -564.5 -101.801 -589.7 -90.4008C-641.6 -66.9008 -704.5 -85.0008 -743.7 -118.601C-764.2 -136.101 -778.9 -157.001 -788.8 -180.201M-395 -771.001C-368.6 -765.501 -342.6 -758.401 -317 -750.001C-264.3 -732.701 -205.7 -714.201 -165.3 -676.601C-141 -654.101 -121.4 -627.301 -108 -598.101C-94.6 -568.801 -88.1999 -533.401 -107.1 -506.601C-114.4 -496.301 -124.8 -488.201 -135.2 -480.501C-157.2 -464.201 -180.2 -449.001 -204 -434.901C-235.3 -416.301 -269.5 -398.301 -288.1 -368.701C-302.7 -345.401 -305.5 -317.801 -311.1 -291.501C-314 -277.701 -318 -263.901 -323.4 -250.501C-334.8 -222.401 -352.6 -196.801 -379.7 -180.501C-413.4 -160.101 -456.1 -157.001 -491.3 -139.201C-497.8 -135.901 -503.9 -132.201 -509.9 -128.101C-533.4 -112.301 -554 -92.3008 -580.3 -80.8008C-634.5 -57.1008 -700.3 -76.6008 -741 -112.601C-762.7 -131.801 -778.3 -154.701 -789 -179.901C-776.6 -150.801 -759.5 -123.701 -735.3 -101.201C-691.4 -60.4008 -619.7 -38.2008 -561.1 -62.2008C-532.7 -73.9008 -510.4 -94.6007 -485 -111.001C-478.5 -115.201 -471.9 -119.001 -464.9 -122.401C-427 -140.701 -380.9 -142.901 -344.7 -163.901C-315.5 -180.701 -296.5 -207.501 -284.3 -237.001C-278.5 -250.901 -274.3 -265.601 -271.2 -280.001C-265.3 -307.701 -262.4 -336.701 -246.7 -361.101C-226.8 -392.201 -189.9 -410.601 -156.2 -429.701C-130.6 -444.201 -105.8 -459.901 -82.0999 -476.701C-70.8999 -484.601 -59.7 -493.001 -51.9 -503.801C-31.6 -531.801 -38.6 -569.101 -53.2 -599.801C-67.7 -630.501 -89 -658.501 -115.4 -681.901C-159.3 -720.901 -222.9 -739.401 -280.2 -756.601C-308 -765.001 -336.4 -772.001 -365.1 -777.201M250.6 -780.301C241.5 -747.301 213.9 -721.301 193.3 -692.601C180.1 -674.201 169.7 -654.301 159.1 -634.601C121.9 -565.201 79.4001 -493.901 7.90005 -450.901C-18.8999 -434.701 -50.9 -421.401 -64.5 -395.201C-79.9 -365.501 -65.0999 -329.701 -41.5999 -304.501C-13.8999 -274.901 25.2 -254.601 66.8 -243.501C108.3 -232.401 152.2 -229.901 195.5 -231.601C240.8 -233.501 285.9 -239.901 329.6 -250.801C402.3 -268.901 471.6 -299.301 546.5 -307.201M259.8 -776.101C250.8 -744.201 224.1 -719.101 204.1 -691.401C191.3 -673.601 181.1 -654.401 170.8 -635.301C134.6 -568.301 93.3001 -499.501 24.4001 -457.501C-1.69995 -441.601 -32.7 -428.101 -45.8 -402.401C-46.7 -400.701 -47.4999 -398.901 -48.0999 -397.101C-58.7999 -369.101 -44.7 -336.701 -22.8 -313.701C4.30004 -285.001 42.5 -265.701 82.8 -255.201C123 -244.601 165.6 -242.301 207.5 -244.101C251.4 -246.001 295 -252.401 337.3 -263.001C407.6 -280.701 474.7 -310.201 547.1 -318.201M269.1 -771.901C260.2 -741.201 234.4 -716.901 215.1 -690.201C202.7 -673.001 192.8 -654.501 182.8 -636.101C147.6 -571.401 107.5 -505.201 41.3 -464.201C15.9 -448.501 -14 -435.001 -26.6 -409.801C-27.4 -408.101 -28.2 -406.401 -28.8 -404.601C-39.1 -377.101 -25.1 -345.501 -3.50003 -323.201C23.1 -295.601 60.2 -277.201 99.4 -267.101C138.4 -257.101 179.5 -255.001 220 -256.901C262.4 -258.901 304.6 -265.101 345.5 -275.501C413.5 -292.701 478.4 -321.401 548.3 -329.501M278.3 -767.701C269.6 -738.201 244.6 -714.801 225.9 -689.001C213.9 -672.401 204.3 -654.601 194.6 -636.901C160.5 -574.601 121.5 -510.901 57.9001 -471.001C33.2001 -455.501 4.40002 -441.901 -7.69998 -417.201C-8.49998 -415.501 -9.19999 -413.801 -9.89999 -412.101C-19.7 -385.201 -5.89998 -354.201 15.3 -332.601C41.4 -306.001 77.4 -288.501 115.5 -279.001C153.2 -269.601 192.9 -267.601 232.1 -269.601C273.1 -271.601 313.9 -277.801 353.4 -287.901C419.1 -304.701 481.7 -332.501 549.1 -340.701M287.5 -763.501C278.9 -735.101 254.8 -712.601 236.7 -687.801C225.1 -671.901 215.8 -654.701 206.3 -637.601C173.2 -577.601 135.4 -516.401 74.5 -477.601C50.5 -462.301 22.7 -448.701 11.2 -424.401C10.4 -422.801 9.70001 -421.101 9.10001 -419.401C-0.299994 -393.001 13.4 -362.801 34.3 -341.901C59.8 -316.401 94.9 -299.701 131.8 -290.801C168.2 -282.001 206.5 -280.201 244.3 -282.201C283.9 -284.301 323.2 -290.401 361.3 -300.201C424.7 -316.601 485.1 -343.501 550 -351.701M296.8 -759.301C288.3 -732.101 265.1 -710.401 247.6 -686.601C236.3 -671.301 227.3 -654.801 218.2 -638.401C186.1 -580.801 149.6 -522.101 91.3 -484.401C68 -469.301 41.3 -455.601 30.3 -431.901C29.6 -430.301 28.9 -428.701 28.3 -427.001C19.4 -401.101 32.8 -371.601 53.5 -351.401C78.5 -326.901 112.5 -311.201 148.3 -302.701C183.4 -294.401 220.3 -292.801 256.8 -294.901C294.9 -297.101 332.8 -303.001 369.5 -312.601C430.5 -328.601 488.7 -354.601 551.2 -362.901M306 -755.101C297.7 -729.101 275.3 -708.301 258.4 -685.401C247.5 -670.701 238.8 -654.901 230 -639.201C199 -583.901 163.6 -527.701 107.9 -491.101C85.3001 -476.201 59.7 -462.501 49.2 -439.201C48.5 -437.601 47.9 -436.001 47.3 -434.401C38.8 -409.101 52.1001 -380.301 72.4001 -360.701C96.8001 -337.201 129.8 -322.401 164.5 -314.501C198.3 -306.801 233.9 -305.401 268.9 -307.501C305.6 -309.701 342 -315.601 377.3 -324.901C436 -340.401 492 -365.601 551.9 -374.001M315.3 -750.901C307.1 -726.001 285.6 -706.101 269.3 -684.201C258.8 -670.101 250.4 -655.001 241.8 -639.901C211.8 -587.001 177.6 -533.301 124.6 -497.701C102.7 -483.001 78.1 -469.201 68.2 -446.501C67.5 -445.001 66.9001 -443.401 66.4001 -441.801C58.4001 -417.001 71.5 -389.001 91.5 -370.101C115.3 -347.601 147.3 -333.701 180.9 -326.401C213.5 -319.301 247.6 -318.001 281.2 -320.201C316.4 -322.501 351.4 -328.301 385.3 -337.301C441.7 -352.401 495.4 -376.701 552.9 -385.201M324.5 -746.701C316.4 -723.001 295.8 -704.001 280.1 -683.001C270 -669.601 261.8 -655.101 253.6 -640.701C224.6 -590.101 191.7 -538.901 141.2 -504.501C120 -490.001 96.5 -476.201 87.1 -453.901C86.5 -452.401 85.9001 -450.901 85.4001 -449.301C77.9001 -425.101 90.7 -397.701 110.5 -379.501C133.7 -358.101 164.7 -345.001 197.1 -338.201C228.4 -331.601 261.1 -330.601 293.4 -332.801C327.2 -335.201 360.8 -340.801 393.3 -349.701C447.4 -364.401 498.9 -387.901 553.8 -396.401M333.7 -742.501C325.7 -719.901 306 -701.801 291 -681.801C281.3 -669.001 273.4 -655.201 265.5 -641.501C237.6 -593.301 205.8 -544.501 158 -511.201C137.5 -496.901 115.1 -483.001 106.1 -461.201C105.5 -459.701 105 -458.201 104.5 -456.701C97.4 -433.001 110.1 -406.401 129.6 -388.901C152.3 -368.501 182.3 -356.301 213.5 -350.101C243.5 -344.101 274.8 -343.201 305.7 -345.501C338.1 -347.901 370.2 -353.501 401.3 -362.101C453 -376.401 502.3 -399.001 554.8 -407.601M343 -738.301C335.2 -716.901 316.3 -699.601 301.9 -680.601C292.6 -668.401 285 -655.301 277.3 -642.201C250.4 -596.401 219.8 -550.101 174.6 -518.001C154.8 -503.901 133.4 -490.001 125 -468.701C124.4 -467.301 123.9 -465.801 123.5 -464.301C116.9 -441.101 129.3 -415.301 148.5 -398.401C170.6 -379.001 199.6 -367.801 229.7 -362.101C258.4 -356.701 288.3 -356.001 317.9 -358.401C348.8 -360.901 379.5 -366.401 409.2 -374.701C458.6 -388.501 505.7 -410.301 555.6 -419.001M352.2 -734.101C344.5 -713.901 326.6 -697.501 312.7 -679.501C303.8 -667.901 296.5 -655.501 289.1 -643.101C263.2 -599.601 233.9 -555.701 191.3 -524.701C172.2 -510.801 151.9 -496.901 144 -476.001C143.5 -474.601 143 -473.201 142.6 -471.701C136.4 -449.101 148.7 -423.901 167.6 -407.701C189.1 -389.301 217.1 -379.001 246.1 -373.801C273.5 -368.901 302 -368.401 330.2 -370.901C359.7 -373.501 388.9 -378.801 417.2 -386.901C464.3 -400.301 509.1 -421.201 556.6 -430.001M361.5 -729.901C353.9 -710.801 336.9 -695.301 323.6 -678.301C315.1 -667.301 308 -655.601 301 -643.901C276.1 -602.701 248 -561.201 208 -531.401C189.6 -517.701 170.4 -503.701 163 -483.401C162.5 -482.001 162.1 -480.601 161.7 -479.201C156 -457.101 168 -432.701 186.7 -417.201C207.6 -399.801 234.6 -390.401 262.5 -385.801C288.6 -381.501 315.8 -381.201 342.6 -383.701C370.6 -386.301 398.4 -391.601 425.4 -399.401C470.2 -412.401 512.8 -432.401 557.7 -441.301M370.7 -725.701C363.3 -707.801 347.1 -693.101 334.4 -677.101C326.3 -666.801 319.5 -655.701 312.7 -644.601C288.9 -605.801 262 -566.701 224.6 -538.101C206.9 -524.601 188.7 -510.601 181.9 -490.701C181.4 -489.401 181 -488.001 180.7 -486.701C175.4 -465.101 187.3 -441.401 205.6 -426.601C225.9 -410.201 251.9 -401.701 278.7 -397.701C303.5 -393.901 329.3 -393.801 354.7 -396.401C381.3 -399.101 407.7 -404.301 433.2 -411.801C475.6 -424.401 516 -443.501 558.5 -452.501M379.9 -721.501C372.6 -704.801 357.3 -691.001 345.2 -675.901C337.5 -666.201 331 -655.801 324.5 -645.401C301.7 -608.901 276.1 -572.201 241.2 -544.801C224.3 -531.501 207.1 -517.401 200.8 -498.001C200.4 -496.701 200 -495.401 199.7 -494.101C194.9 -473.101 206.5 -450.101 224.6 -436.001C244.3 -420.601 269.3 -413.001 295 -409.501C318.5 -406.301 342.9 -406.401 366.9 -409.001C392.1 -411.801 417 -416.801 441.1 -424.101C481.2 -436.201 519.4 -454.501 559.3 -463.601M389.2 -717.401C382 -701.801 367.6 -688.901 356.1 -674.801C348.7 -665.701 342.6 -656.001 336.4 -646.301C314.7 -612.101 290.3 -577.801 258 -551.601C241.8 -538.501 225.7 -524.401 219.9 -505.501C219.5 -504.201 219.2 -502.901 218.9 -501.701C214.5 -481.201 225.9 -458.901 243.8 -445.501C262.9 -431.101 286.9 -424.401 311.4 -421.501C333.6 -418.801 356.6 -419.101 379.3 -421.801C403 -424.601 426.5 -429.601 449.2 -436.601C487 -448.301 522.9 -465.701 560.4 -474.901M398.4 -713.201C391.4 -698.801 377.8 -686.801 367 -673.601C360 -665.101 354.1 -656.101 348.2 -647.101C327.5 -615.301 304.5 -583.301 274.7 -558.401C259.2 -545.401 244.1 -531.301 238.8 -512.901C238.4 -511.701 238.1 -510.401 237.9 -509.201C234 -489.301 245.2 -467.701 262.7 -454.901C281.2 -441.501 304.3 -435.701 327.6 -433.401C348.5 -431.301 370.1 -431.801 391.4 -434.501C413.7 -437.401 435.7 -442.301 457 -449.001C492.5 -460.301 526.2 -476.801 561.1 -486.101M407.7 -709.001C400.8 -695.801 388.1 -684.601 377.9 -672.401C371.3 -664.601 365.7 -656.201 360.1 -647.801C340.4 -618.301 318.6 -588.701 291.3 -565.001C276.5 -552.201 262.5 -538.101 257.7 -520.101C257.4 -518.901 257.1 -517.701 256.9 -516.501C253.5 -497.101 264.4 -476.201 281.7 -464.201C299.5 -451.801 321.7 -446.901 343.9 -445.101C363.5 -443.501 383.8 -444.201 403.7 -447.001C424.5 -449.901 445.1 -454.701 465.1 -461.201C498.3 -472.001 529.7 -487.701 562.2 -497.101M416.9 -704.801C410.1 -692.701 398.3 -682.401 388.7 -671.201C382.5 -664.001 377.2 -656.301 371.9 -648.601C353.3 -621.501 332.9 -594.101 308.1 -571.801C294 -559.001 281 -545.001 276.7 -527.501C276.4 -526.301 276.2 -525.101 276 -524.001C273 -505.101 283.7 -484.901 300.8 -473.601C318 -462.201 339.2 -458.201 360.3 -457.001C378.6 -456.001 397.5 -456.901 416 -459.801C435.4 -462.801 454.5 -467.501 473.1 -473.701C503.9 -484.101 533.2 -499.001 563.2 -508.401M426.2 -700.601C419.5 -689.701 408.6 -680.301 399.6 -670.001C393.8 -663.401 388.7 -656.401 383.7 -649.401C366.1 -624.601 347 -599.601 324.7 -578.501C311.4 -565.901 299.4 -551.901 295.7 -534.901C295.4 -533.801 295.2 -532.601 295.1 -531.501C292.6 -513.201 303 -493.701 319.9 -483.101C336.5 -472.701 356.7 -469.601 376.7 -469.001C393.7 -468.501 411.2 -469.601 428.4 -472.601C446.4 -475.701 464.1 -480.201 481.2 -486.301C509.7 -496.301 536.7 -510.301 564.2 -519.801M435.4 -696.401C428.9 -686.701 418.8 -678.101 410.4 -668.801C405 -662.801 400.2 -656.501 395.5 -650.101C378.9 -627.701 361.3 -604.901 341.4 -585.101C328.9 -572.701 317.9 -558.601 314.7 -542.201C314.5 -541.101 314.3 -540.001 314.2 -538.901C312.1 -521.101 322.3 -502.301 338.9 -492.401C354.8 -482.901 374.1 -480.801 393 -480.701C408.7 -480.701 424.8 -482.101 440.6 -485.101C457.1 -488.201 473.4 -492.701 489.1 -498.501C515.3 -508.101 540.1 -521.201 565.1 -530.801M444.6 -692.201C438.2 -683.601 429 -676.001 421.2 -667.601C416.2 -662.301 411.7 -656.601 407.3 -650.901C391.7 -630.801 375.5 -610.201 358 -591.901C346.3 -579.601 336.3 -565.601 333.6 -549.601C333.4 -548.501 333.3 -547.401 333.2 -546.401C331.6 -529.201 341.5 -511.001 357.9 -501.901C373.2 -493.401 391.5 -492.101 409.3 -492.701C423.7 -493.201 438.4 -494.801 452.8 -497.901C467.9 -501.101 482.7 -505.501 497.1 -511.001C521 -520.101 543.5 -532.401 566 -542.001M453.9 -688.001C447.6 -680.601 439.3 -673.801 432.1 -666.401C427.5 -661.701 423.3 -656.701 419.1 -651.701C404.6 -634.001 389.8 -615.601 374.7 -598.601C363.8 -586.301 354.7 -572.501 352.6 -556.901C352.5 -555.901 352.3 -554.801 352.3 -553.801C351.1 -537.101 360.8 -519.601 377 -511.201C391.6 -503.601 409 -503.201 425.6 -504.501C438.7 -505.501 452.1 -507.401 465.1 -510.501C478.7 -513.801 492.1 -518.001 505.1 -523.301C526.6 -532.001 547 -543.401 567 -553.101M463.1 -683.801C457 -677.601 449.6 -671.601 443 -665.301C438.8 -661.201 434.8 -656.901 431 -652.501C417.5 -637.101 404.2 -620.901 391.4 -605.301C381.4 -593.101 373.2 -579.301 371.6 -564.301C371.5 -563.301 371.4 -562.301 371.4 -561.301C370.7 -545.101 380.1 -528.201 396 -520.601C410 -514.001 426.4 -514.401 441.9 -516.301C453.7 -517.701 465.7 -519.901 477.3 -523.101C489.5 -526.401 501.4 -530.601 513 -535.601C532.2 -543.901 550.3 -554.401 567.8 -564.201M472.4 -679.601C466.4 -674.501 459.9 -669.501 453.9 -664.101C450 -660.601 446.4 -657.001 442.9 -653.301C430.4 -640.301 418.8 -626.201 408.2 -612.101C399.1 -599.901 391.8 -586.301 390.6 -571.701C390.5 -570.701 390.5 -569.701 390.5 -568.801C390.2 -553.201 399.3 -536.901 415.1 -530.101C428.4 -524.401 443.9 -525.701 458.3 -528.301C468.9 -530.201 479.4 -532.701 489.7 -535.901C500.5 -539.301 511 -543.401 521.1 -548.101C538 -556.001 553.9 -565.601 568.9 -575.501M481.6 -675.401C458.7 -660.101 439.2 -640.801 424.8 -618.801C416.2 -605.801 409.3 -591.301 409.5 -576.201C409.7 -561.101 418.5 -545.401 434.1 -539.401C446.8 -534.601 461.3 -536.801 474.6 -540.101C509.8 -548.901 542.6 -564.901 569.8 -586.701M150.2 -644.901C131.4 -606.701 109.7 -569.701 85.2 -534.101C77.3 -522.601 69.0001 -511.201 58.9001 -501.201C29.6001 -471.901 -12.8 -455.901 -46.7 -430.801C-68.1 -415.001 -90.3 -394.001 -118 -396.801C-125.2 -397.501 -133.8 -402.801 -131.1 -408.801C-130.1 -411.001 -127.8 -412.501 -125.6 -413.801C-88.2 -436.101 -41.6 -449.501 -16.7 -482.801C-1.89998 -502.701 3.00005 -527.301 1.90005 -551.201C0.800055 -575.001 -5.79999 -598.301 -12.4 -621.401C-15.4 -631.901 -18.5999 -642.901 -26.5999 -651.101M9.30002 -625.401C15.1 -593.101 17.3 -560.401 16 -527.701C15.6 -518.701 15.0001 -509.501 17.4001 -500.701C17.9001 -498.801 18.6 -496.801 20.1 -495.401C25.2 -490.501 34.4 -494.401 40.1 -498.701C85.7 -533.301 112.1 -587.001 109.6 -640.301M-655.7 37.9993C-603 -10.5007 -517.3 -43.9008 -449.3 -73.7008C-377.1 -105.401 -295.1 -127.401 -243.3 -182.301C-209 -218.601 -191.8 -265.801 -158.3 -302.701C-141.7 -321.001 -120.1 -339.601 -121.6 -363.001C-121.9 -368.301 -123.7 -373.801 -127.9 -377.701C-134 -383.401 -144.2 -384.301 -152.6 -381.801C-161 -379.301 -167.8 -373.901 -173.9 -368.101C-208 -335.801 -223 -291.601 -240 -249.901C-257 -208.201 -279.3 -164.901 -321.6 -141.401C-356.2 -122.201 -399.1 -119.101 -435.8 -103.401C-460.8 -92.8008 -482.2 -76.7007 -505.6 -63.5007C-552.7 -36.7007 -608.4 -21.5008 -664.6 -20.2008M325.5 149.299C255.2 156.499 187.1 180.199 129.9 217.199C107.6 231.599 86.7 248.199 62.5 259.999C39.4 271.299 13.9 277.999 -10.3 287.299C-40.1 298.899 -67.8 314.399 -94.7 330.799C-127 350.399 -158.4 371.199 -188.8 393.099C-211.7 409.599 -234.1 426.799 -252.2 447.499C-271.7 469.799 -285.7 495.599 -297.9 521.699C-324.8 579.299 -343.4 646.699 -311.9 702.499M321.7 135.499C276.4 144.699 231.4 155.199 186.8 167.099C141.7 179.199 96.6 192.799 56.5 214.799C29.3 229.699 4.89998 248.299 -20.3 265.799C-74.4 303.299 -132.4 336.199 -186.4 373.799C-240.4 411.399 -290.9 454.699 -324.6 507.799C-358.3 560.899 -373.9 625.199 -355.9 684.099M331.4 126.099C275 134.799 218.5 143.599 161.3 145.499C133.6 146.399 105.6 145.699 78.5 140.499C43.5 133.699 10.9 119.499 -20.3 103.699C-74.6 76.2992 -125.6 43.8992 -172.5 7.29919C-217.7 -28.1008 -262.8 -69.2008 -322 -78.7008C-371 -86.5008 -420.7 -70.9008 -466.6 -53.7008C-536.8 -27.4008 -604.3 16.2992 -670 50.7992M181.6 -209.101C86.4 -213.201 -1.59995 -253.401 -94.0999 -273.601C-112.7 -277.701 -133 -280.801 -150.5 -273.901C-161.4 -269.601 -170.1 -261.801 -178 -253.801C-207.5 -224.101 -231.4 -187.201 -230.8 -147.501C-230.3 -111.301 -209.5 -77.8008 -185.5 -48.7008C-128.1 20.7992 -47.9 75.3992 43.1 105.199C134.1 134.999 235.4 139.599 328.9 116.999C432.5 91.8992 525.7 32.8992 584.2 -47.3008C607.7 -79.6008 625.9 -116.001 628.4 -154.401C630.8 -192.801 615.6 -233.301 582 -257.501C529.5 -295.201 465.5 -267.101 410.5 -250.101C336.9 -227.401 260.4 -205.701 181.6 -209.101ZM330.1 110.799C387 97.1992 440.9 73.0992 487 40.4992C521.3 16.1992 551.5 -12.7008 575.7 -45.4008C598.4 -76.2008 616.2 -111.001 618.8 -147.701C621.5 -184.401 607.3 -223.401 575.2 -246.701C525.5 -282.901 464.5 -256.201 411.9 -240.201C341.9 -218.701 268.9 -198.101 193.8 -201.201C103.1 -204.901 19.2 -242.801 -68.9 -261.801C-86.7 -265.601 -106 -268.601 -122.7 -262.001C-133.1 -257.901 -141.4 -250.501 -149 -242.901C-177.4 -214.701 -200.4 -179.501 -200.2 -141.801C-200 -107.301 -180.8 -75.3008 -158 -47.4008C-104 18.8992 -27.7 70.7992 58.7 99.1992C145.1 127.699 241.3 131.999 330.1 110.799ZM331.4 104.699C385.9 91.8992 437.6 69.2992 481.9 38.2992C514.7 15.2992 543.8 -12.2008 567.3 -43.4008C589.3 -72.7008 606.5 -105.901 609.3 -140.901C612.2 -176.001 599 -213.301 568.5 -235.701C521.5 -270.301 463.5 -245.201 413.5 -230.101C347 -209.801 277.6 -190.301 206.1 -193.101C119.8 -196.501 40 -232.101 -43.6 -249.901C-60.5 -253.501 -78.8 -256.201 -94.7 -250.001C-104.6 -246.101 -112.5 -239.101 -119.7 -231.901C-146.8 -205.001 -169.1 -171.801 -169.4 -135.901C-169.6 -103.201 -151.8 -72.6008 -130.4 -45.9008C-79.7 17.0992 -7.50005 66.3992 74.3 93.4992C156.1 120.499 247.1 124.399 331.4 104.699ZM332.6 98.5992C384.6 86.6992 434.3 65.4992 476.8 36.0992C508.2 14.3992 536.2 -11.8008 558.9 -41.4008C580.1 -69.2008 596.8 -100.801 599.8 -134.101C602.9 -167.601 590.8 -203.201 561.9 -224.801C517.7 -257.801 462.7 -234.301 415.2 -220.101C352.1 -201.101 286.3 -182.601 218.5 -185.101C136.7 -188.101 60.9 -221.401 -18.3 -238.001C-34.3 -241.301 -51.7 -243.901 -66.7 -238.001C-76.1 -234.301 -83.6 -227.701 -90.4 -220.901C-116.5 -195.401 -138 -164.001 -138.6 -130.001C-139.2 -99.0008 -122.9 -69.8008 -102.8 -44.4008C-55.5 15.3992 12.8 61.8992 90 87.6992C167.1 113.299 253 116.799 332.6 98.5992ZM333.8 92.3992C383.4 81.2992 430.9 61.5992 471.6 33.7992C501.5 13.3992 528.5 -11.4007 550.4 -39.5007C570.8 -65.9007 587 -95.8008 590.2 -127.401C593.5 -159.201 582.5 -193.201 555.1 -214.001C513.6 -245.401 461.6 -223.401 416.6 -210.201C357 -192.401 294.8 -175.001 230.7 -177.201C153.3 -179.901 81.7 -211.001 6.89999 -226.301C-8.20001 -229.401 -24.7001 -231.701 -38.9001 -226.101C-47.8001 -222.601 -54.9001 -216.301 -61.4001 -210.001C-86.2001 -186.001 -106.9 -156.401 -107.9 -124.301C-108.9 -95.0008 -94.1 -67.3007 -75.2 -43.1007C-31.2 13.3993 33.1 57.2992 105.7 81.6992C178.1 106.099 258.8 109.299 333.8 92.3992ZM335 86.2992C382.2 75.9992 427.5 57.6992 466.4 31.5992C494.8 12.4992 520.8 -10.9008 541.9 -37.4008C561.6 -62.3008 577.2 -90.6008 580.7 -120.501C584.2 -150.701 574.3 -183.001 548.4 -202.901C509.7 -232.801 460.6 -212.401 418.2 -200.001C362.1 -183.601 303.4 -167.101 243 -169.001C170.1 -171.301 102.5 -200.201 32.2 -214.201C17.9 -217.001 2.40001 -219.101 -10.9 -213.901C-19.3 -210.601 -25.9999 -204.701 -32.0999 -198.801C-55.6999 -176.201 -75.6999 -148.501 -77.0999 -118.301C-78.4999 -90.7008 -65.0999 -64.5008 -47.5999 -41.5008C-6.99995 11.7992 53.3001 52.9992 121.4 76.0992C189.1 98.7992 264.7 101.699 335 86.2992ZM336.3 80.1992C381 70.6992 424.3 53.8993 461.3 29.3993C488.3 11.5993 513.1 -10.4008 533.5 -35.4008C552.5 -58.8008 567.5 -85.5008 571.2 -113.701C574.9 -142.201 566.1 -172.901 541.8 -192.001C505.8 -220.301 459.7 -201.501 419.8 -190.001C367.2 -174.801 312.1 -159.401 255.3 -161.001C186.8 -163.001 123.3 -189.601 57.5 -202.301C44.1 -204.901 29.6 -206.801 17 -201.901C9.10003 -198.801 2.80001 -193.301 -2.89999 -187.801C-25.3 -166.601 -44.5 -140.701 -46.3 -112.401C-48.1 -86.5008 -36.2 -61.8007 -20 -40.1007C17.3 9.89929 73.6 48.4992 137.1 70.1992C200.1 91.5992 270.5 94.1992 336.3 80.1992ZM337.5 74.0992C379.8 65.3992 420.9 49.9992 456.1 27.1992C481.6 10.6992 505.4 -9.90082 525 -33.4008C543.2 -55.3008 557.7 -80.3008 561.6 -106.901C565.5 -133.801 557.7 -162.801 535 -181.001C501.7 -207.701 458.7 -190.501 421.3 -179.901C372.1 -166.001 320.6 -151.601 267.5 -153.001C203.5 -154.601 144.1 -179.001 82.6 -190.501C70.1 -192.901 56.5 -194.501 44.8 -190.001C37.4 -187.101 31.6 -182.001 26.1 -176.901C4.90001 -157.101 -13.5 -133.101 -15.8 -106.701C-17.9 -82.5008 -7.49998 -59.2008 7.30002 -38.8008C41.3 7.89922 93.5001 43.9992 152.4 64.2992C211 84.4992 276.4 86.6992 337.5 74.0992ZM338.7 67.9993C378.6 60.0993 417.5 46.1993 450.9 24.9993C475 9.69927 497.7 -9.40076 516.5 -31.4008C534 -51.8008 547.9 -75.2007 552 -100.101C556.2 -125.301 549.4 -152.701 528.2 -170.101C497.6 -195.201 457.6 -179.501 422.8 -169.901C377.1 -157.201 329.2 -143.901 279.8 -145.001C220.2 -146.301 164.9 -168.301 107.9 -178.601C96.2001 -180.701 83.6 -182.201 72.8 -178.001C65.9 -175.301 60.5001 -170.601 55.4001 -165.901C35.3001 -147.501 17.8 -125.301 15.1 -100.801C12.6 -78.3008 21.5 -56.5008 35.1 -37.3008C65.7 6.09922 113.9 39.5993 168.3 58.4993C222 77.2993 282.3 79.1993 338.7 67.9993ZM339.9 61.8992C377.3 54.7992 414.1 42.3992 445.7 22.7992C468.3 8.79919 489.9 -8.90082 508 -29.4008C524.7 -48.3008 538.1 -70.1008 542.4 -93.3008C546.8 -116.901 541.1 -142.601 521.5 -159.201C493.7 -182.701 456.6 -168.601 424.3 -159.901C382.1 -148.501 337.7 -136.201 292 -137.001C236.9 -137.901 185.6 -157.701 133.1 -166.801C122.3 -168.701 110.7 -169.901 100.6 -166.001C94.2 -163.501 89.2001 -159.201 84.4001 -154.901C65.5001 -137.901 48.7 -117.601 45.6 -95.0008C42.8 -74.2008 50.1001 -53.9008 62.4001 -35.9008C89.7001 4.19918 133.9 35.0992 183.7 52.6992C233 70.1992 288.2 71.6992 339.9 61.8992ZM341.2 55.7992C376.2 49.4992 410.9 38.4992 440.7 20.5992C461.8 7.89918 482.4 -8.40078 499.7 -27.3008C515.6 -44.8008 528.6 -64.9008 533.1 -86.4008C537.7 -108.401 533.1 -132.401 515 -148.101C489.9 -169.901 455.9 -157.501 426.1 -149.701C387.4 -139.501 346.6 -128.301 304.5 -128.801C253.9 -129.401 206.7 -146.901 158.6 -154.701C148.6 -156.301 138 -157.401 128.8 -153.801C122.9 -151.501 118.3 -147.601 113.9 -143.701C96.0001 -128.301 80 -109.801 76.5 -89.0008C73.3 -69.9008 79.2 -51.1008 90.1 -34.3008C114.1 2.49922 154.2 30.7992 199.5 46.9992C244 62.9992 294.1 64.1992 341.2 55.7992ZM342.4 49.6992C375 44.2992 407.5 34.6993 435.5 18.3993C455.2 6.99929 474.7 -7.90078 491.2 -25.3008C506.4 -41.3008 518.8 -59.8007 523.5 -79.6007C528.3 -99.9007 524.8 -122.301 508.2 -137.201C485.8 -157.401 454.8 -146.601 427.5 -139.701C392.3 -130.801 355 -120.701 316.6 -120.801C270.4 -121.101 227.3 -136.301 183.6 -142.801C174.5 -144.201 164.8 -145.001 156.4 -141.801C151 -139.701 146.8 -136.101 142.8 -132.701C126.2 -118.601 111.1 -101.901 107.1 -83.0007C103.5 -65.7007 107.9 -48.3008 117.5 -32.7008C138.2 0.799194 174.3 26.4993 215 41.3993C255 55.7993 300 56.6992 342.4 49.6992ZM343.6 43.4992C373.8 38.8992 404.1 30.6992 430.3 16.0992C448.5 5.99918 466.9 -7.50082 482.7 -23.4008C497.1 -37.9008 509 -54.8008 513.9 -72.9008C518.9 -91.6008 516.4 -112.301 501.5 -126.301C481.8 -144.901 453.8 -135.701 429.1 -129.701C397.4 -122.001 363.7 -113.001 328.9 -112.801C287.2 -112.701 248.1 -125.601 208.9 -131.001C200.7 -132.101 191.9 -132.801 184.4 -129.901C179.5 -128.001 175.7 -124.801 172 -121.801C156.6 -109.101 142.2 -94.3008 137.9 -77.3008C133.9 -61.7008 136.8 -45.8008 145.2 -31.4008C162.6 -1.30082 194.6 21.8992 230.7 35.3992C266 48.5992 305.9 49.2992 343.6 43.4992ZM344.8 37.3992C372.6 33.5992 400.7 26.8992 425.1 13.8992C441.8 4.99923 459.2 -7.10082 474.2 -21.4008C487.8 -34.4008 499.2 -49.7008 504.3 -66.1008C509.6 -83.1008 508.1 -102.101 494.7 -115.401C477.7 -132.301 452.8 -124.701 430.5 -119.701C402.3 -113.301 372.1 -105.301 341.1 -104.901C303.8 -104.501 268.8 -115.101 234.1 -119.201C226.7 -120.101 219 -120.501 212.3 -118.001C207.9 -116.301 204.5 -113.501 201.2 -110.901C187 -99.6008 173.4 -86.6008 168.7 -71.5008C164.3 -57.6008 165.8 -43.3008 172.8 -30.1008C187 -3.40077 214.9 17.2992 246.4 29.4992C277 41.3992 311.8 41.8992 344.8 37.3992ZM346 31.2992C371.5 28.3992 397.3 22.9992 419.9 11.6992C435.1 4.09922 451.4 -6.60082 465.7 -19.4008C478.6 -31.0008 489.5 -44.6008 494.7 -59.3008C500.2 -74.7008 499.8 -92.0008 487.9 -104.501C473.5 -119.701 451.7 -113.801 432 -109.701C407.3 -104.501 380.7 -97.6008 353.3 -96.9008C320.5 -96.1008 289.5 -104.501 259.3 -107.301C252.8 -107.901 246 -108.201 240.1 -105.901C236.2 -104.401 233.2 -102.001 230.2 -99.8008C217.1 -89.9008 204.3 -78.8008 199.2 -65.6008C194.5 -53.4008 194.4 -40.6008 200.1 -28.6008C211.1 -5.30077 234.8 12.8992 261.8 23.6992C288 34.1992 317.8 34.5992 346 31.2992ZM347.3 25.1992C370.4 23.1992 394 19.1993 414.8 9.49927C428.5 3.09927 443.8 -6.10076 457.3 -17.4008C469.4 -27.5008 479.8 -39.5007 485.3 -52.5007C491 -66.2007 491.6 -81.8008 481.4 -93.5008C469.7 -107.001 451 -102.801 433.8 -99.6008C412.6 -95.7008 389.5 -89.8008 365.8 -88.8008C337.4 -87.7008 310.5 -93.7008 284.8 -95.4008C279.2 -95.8008 273.3 -95.8008 268.3 -93.9008C264.9 -92.6008 262.2 -90.6008 259.7 -88.8008C247.7 -80.4008 235.8 -71.0008 230.3 -59.7008C225.2 -49.2008 223.7 -38.0007 228.1 -27.1007C236 -7.40071 255.5 8.49929 277.9 17.8993C299 26.8993 323.8 27.2992 347.3 25.1992ZM348.5 19.0992C369.3 17.9992 390.6 15.2992 409.6 7.29919C421.8 2.19919 436 -5.60078 448.8 -15.3008C460.1 -23.9008 470.1 -34.3008 475.7 -45.6008C481.7 -57.7008 483.2 -71.5008 474.6 -82.5008C465.5 -94.2008 449.9 -91.7008 435.2 -89.5008C417.5 -86.8008 397.9 -82.0008 377.9 -80.7008C354 -79.2008 331.1 -82.9008 309.8 -83.4008C305 -83.5008 300.2 -83.4008 295.9 -81.8008C293 -80.7008 290.7 -79.1008 288.6 -77.7008C277.7 -70.7008 266.6 -63.2008 260.7 -53.8008C255.2 -45.0008 252.3 -35.5008 255.3 -25.6008C260.2 -9.50077 275.3 3.99922 293.2 12.1992C310 19.6992 329.8 20.0992 348.5 19.0992ZM349.7 12.9992C368.2 12.8992 387.2 11.3992 404.5 5.09918C415.2 1.19918 428.4 -5.10078 440.4 -13.3008C450.9 -20.4008 460.4 -29.2008 466.2 -38.8008C472.5 -49.2008 474.9 -61.2008 467.9 -71.6008C461.3 -81.5008 449 -80.8008 436.8 -79.5008C422.6 -78.0008 406.6 -74.3008 390.3 -72.7008C370.8 -70.9008 352 -72.2008 335.2 -71.6008C331.3 -71.5008 327.4 -71.1008 324 -69.9008C321.6 -69.0008 319.7 -67.8008 317.9 -66.8008C308.1 -61.3008 297.9 -55.5008 291.6 -48.0008C285.7 -40.9008 281.5 -33.1008 283 -24.2008C285.2 -11.8008 295.7 -0.500806 309 6.29919C321 12.4992 335.8 13.0992 349.7 12.9992ZM350.9 6.89923C367.1 8.09923 383.7 7.39923 399.3 2.89923C408.5 0.199231 420.6 -4.70078 431.9 -11.3008C441.6 -17.0008 450.7 -24.1008 456.6 -32.1008C463.1 -40.9008 466.3 -51.0008 461.2 -60.7008C457 -68.7008 448 -69.8008 438.3 -69.5008C427.6 -69.1008 415.1 -66.6008 402.5 -64.7008C387.5 -62.5008 372.7 -61.4008 360.4 -59.7008C357.3 -59.3008 354.4 -58.7008 351.9 -57.9008C350 -57.3008 348.5 -56.4008 347.1 -55.8008C338.3 -51.9008 329 -47.8008 322.3 -42.2008C316 -36.8008 308.6 -30.5008 310.5 -22.8008C312.7 -14.3008 315.8 -5.10079 324.5 0.499207C332 5.19921 341.8 6.19923 350.9 6.89923ZM376.2 -44.8008C360.9 -40.6008 343.5 -34.8008 338.1 -21.3008C335.9 -16.0008 336.2 -9.60078 340.2 -5.30078C343.1 -2.10078 347.7 -0.400806 352.1 0.799194C365.7 4.29919 380.3 3.39922 394.1 0.699219C415.7 -3.50078 463.2 -23.0008 454.5 -49.7008C447 -72.9008 390.9 -48.8008 376.2 -44.8008ZM133.8 751.399C159 743.899 183.3 733.899 206.5 722.199C293 678.699 364.1 611.299 407.5 531.799C450.9 452.299 466.4 360.899 451.4 273.499C445.4 238.399 431.7 200.499 397.3 182.599C378.1 172.599 355 170.299 332.8 171.099C305.6 172.099 278.6 177.399 253.5 186.599C189.7 210.099 140.9 257.499 80.5 287.199C49.1 302.699 14.9 313.199 -17.7 326.599C-139.3 376.599 -238.3 468.699 -288.8 579.099C-295.1 592.799 -300.7 607.199 -299.4 621.899C-298.1 636.699 -289.8 650.199 -280.5 662.599C-213.7 751.099 -94.6 785.999 20 769.599C58.5 764.199 96.1 762.699 133.8 751.399ZM-3.89999 338.499C-119.4 386.999 -213.2 474.399 -260.8 579.399C-266.7 592.399 -272 606.099 -270.7 620.099C-269.4 634.199 -261.4 647.099 -252.5 658.799C-188.5 742.999 -74.6999 775.999 34.9001 760.199C71.8001 754.899 107.7 753.399 143.7 742.599C167.8 735.399 191 725.799 213.2 714.599C295.8 672.899 363.8 608.499 405.3 532.499C446.9 456.399 462 368.399 447.5 284.799C441.6 251.199 428.4 215.099 395.3 198.099C376.8 188.699 354.6 186.599 333.2 187.499C307 188.599 281 193.699 256.8 202.699C195.4 225.499 148.3 271.099 90.2 299.999C77.2 306.499 63.7 312.099 50.1 317.399C31.9 324.499 13.7 331.099 -3.89999 338.499ZM9.90005 350.399C-99.4999 397.499 -188.1 480.199 -232.8 579.799C-238.3 592.099 -243.3 605.199 -242 618.399C-240.7 631.699 -233.1 643.999 -224.5 655.099C-163.2 734.999 -54.7 766.199 49.7 750.899C84.9 745.799 119.1 744.299 153.4 733.899C176.4 726.999 198.5 717.799 219.6 707.099C298.4 667.299 363.2 605.799 402.9 533.299C442.7 460.599 457.5 375.999 443.3 296.199C437.6 264.099 424.8 229.699 392.9 213.699C375.1 204.799 353.7 202.899 333.1 203.899C307.9 204.999 282.9 210.099 259.7 218.799C200.6 240.799 155.2 284.699 99.6 312.699C87.1 318.999 74.2 324.399 61.1 329.599C44 336.599 26.7001 343.199 9.90005 350.399ZM23.8 362.199C-79.4 407.799 -162.9 485.799 -204.7 580.099C-209.9 591.799 -214.5 604.099 -213.2 616.699C-211.9 629.299 -204.6 640.899 -196.5 651.399C-138 726.899 -34.7 756.299 64.6 741.599C98.1 736.599 130.7 735.099 163.3 725.299C185.2 718.699 206.2 709.899 226.3 699.699C301.3 661.699 363 603.199 400.8 534.199C438.8 464.899 453.2 383.799 439.5 307.699C434 277.099 421.6 244.499 390.9 229.399C373.7 221.099 353.2 219.399 333.5 220.399C309.3 221.599 285.4 226.599 263 234.999C206.3 256.299 162.6 298.399 109.3 325.599C97.3 331.699 85 336.999 72.5 342.099C56.1 348.599 39.6 355.199 23.8 362.199ZM37.6 373.999C-59.5 418.099 -137.8 491.399 -176.7 580.299C-181.5 591.299 -185.8 602.899 -184.5 614.799C-183.2 626.699 -176.2 637.599 -168.5 647.499C-112.8 718.699 -14.8 746.299 79.5 732.199C111.3 727.399 142.2 725.899 173.1 716.499C193.9 710.199 213.8 701.799 232.9 692.199C304.1 656.099 362.6 600.499 398.6 534.999C434.8 469.099 448.8 391.399 435.6 318.999C430.3 289.899 418.3 258.899 388.9 244.899C372.4 237.099 352.7 235.599 333.8 236.699C310.6 237.999 287.7 242.799 266.2 250.899C211.8 271.499 169.9 311.799 119 338.099C107.6 343.999 95.8001 349.199 83.9001 354.099C68.1001 360.699 52.6 367.199 37.6 373.999ZM51.5 385.799C-39.5 428.399 -112.6 496.999 -148.5 580.599C-153 590.899 -157 601.899 -155.6 612.999C-154.3 624.199 -147.7 634.399 -140.3 643.699C-87.3 710.599 5.40001 736.299 94.6 722.799C124.7 718.199 153.9 716.699 183.2 707.699C202.8 701.699 221.7 693.799 239.8 684.599C307.1 650.299 362.5 597.699 396.6 535.699C431 473.199 444.6 398.899 431.8 330.299C426.6 302.699 415.1 273.499 386.9 260.499C371.1 253.199 352.3 251.999 334.2 253.099C312 254.499 290.1 259.199 269.6 266.999C217.6 286.899 177.4 325.399 128.8 350.899C117.9 356.599 106.7 361.599 95.3 366.499C80.2 372.799 65.5 379.199 51.5 385.799ZM65.3 397.699C-19.5 438.799 -87.5 502.699 -120.5 580.899C-124.6 590.599 -128.3 600.799 -127 611.199C-125.7 621.699 -119.4 631.299 -112.4 639.999C-62.2 702.499 25.3 726.399 109.4 713.499C137.8 709.099 165.3 707.599 192.9 699.099C211.4 693.399 229.2 685.899 246.2 677.199C309.7 644.799 362 595.099 394.2 536.599C426.8 477.599 440 406.599 427.7 341.799C422.7 315.699 411.6 288.199 384.7 276.199C369.6 269.499 351.6 268.399 334.3 269.599C313.1 270.999 292.2 275.599 272.6 283.199C222.9 302.299 184.4 339.099 138.2 363.699C127.8 369.199 117.2 374.099 106.4 378.799C92.3 384.799 78.5 391.299 65.3 397.699ZM79.1 409.499C0.400009 449.099 -62.4 508.299 -92.5 581.199C-96.2 590.199 -99.6 599.799 -98.3 609.499C-97 619.299 -91 628.199 -84.4 636.299C-37 694.499 45.2 716.599 124.2 704.199C150.8 699.999 176.7 698.499 202.7 690.399C220.1 684.999 236.8 677.899 252.8 669.699C312.5 639.099 361.6 592.399 392 537.399C422.8 481.799 435.6 414.199 423.7 353.199C418.9 328.599 408.2 302.799 382.5 291.799C368 285.599 350.9 284.799 334.5 285.999C314.4 287.499 294.4 291.999 275.8 299.199C228.5 317.599 191.7 352.599 147.9 376.299C138.1 381.599 128 386.399 117.8 390.899C104.3 396.899 91.4 403.299 79.1 409.499ZM93 421.299C20.5 459.399 -37.2001 513.899 -64.4001 581.399C-67.8001 589.799 -70.8 598.599 -69.5 607.599C-68.2 616.599 -62.6 624.899 -56.3 632.399C-11.7 686.299 65.3 706.499 139.2 694.699C164.1 690.699 188.4 689.199 212.6 681.499C228.9 676.399 244.5 669.699 259.5 661.999C315.3 633.199 361.4 589.499 389.9 537.999C418.9 485.799 431.3 421.599 419.9 364.399C415.3 341.299 405.1 317.199 380.6 307.199C366.8 301.599 350.5 300.899 334.9 302.199C315.8 303.799 296.8 308.199 279.1 315.099C234.2 332.799 199.1 365.999 157.6 388.899C148.3 393.999 138.7 398.599 129.1 403.099C116.4 408.999 104.4 415.299 93 421.299ZM106.8 433.099C40.4 469.699 -12.1 519.499 -36.3 581.699C-39.3 589.399 -42 597.499 -40.7 605.799C-39.4 614.099 -34.1 621.699 -28.3 628.599C13.6 678.099 85.3 696.599 154.1 685.299C177.3 681.499 199.9 679.899 222.5 672.799C237.7 667.999 252.2 661.699 266.2 654.499C318.2 627.599 361.1 586.799 387.7 538.799C414.9 489.999 427 429.199 416 375.699C411.5 354.099 401.8 331.699 378.5 322.699C365.4 317.599 350 317.199 335.2 318.499C317.1 320.199 299.1 324.399 282.3 331.099C239.7 347.999 206.3 379.499 167.3 401.499C158.5 406.399 149.5 410.899 140.5 415.199C128.5 421.099 117.4 427.299 106.8 433.099ZM120.7 444.899C60.5 479.899 13.1 525.199 -8.20004 581.899C-10.9 588.899 -13.2001 596.399 -11.9001 603.899C-10.6001 611.499 -5.70004 618.399 -0.200043 624.699C38.9 669.899 105.3 686.499 169.1 675.799C190.6 672.199 211.5 670.599 232.4 663.899C246.4 659.399 259.9 653.599 272.8 646.799C321 621.699 360.7 583.899 385.5 539.399C411 493.999 422.6 436.699 412 386.899C407.7 366.799 398.4 346.199 376.3 338.099C363.8 333.499 349.3 333.299 335.3 334.699C318.2 336.399 301.2 340.599 285.4 346.999C245.2 363.199 213.5 392.899 176.8 414.099C168.6 418.899 160.1 423.199 151.7 427.299C140.5 433.099 130.3 439.299 120.7 444.899ZM134.5 456.799C80.5 490.199 38.4 530.899 19.8 582.299C17.5 588.699 15.5 595.399 16.8 602.199C18.1 609.099 22.7 615.399 27.8 620.999C64.1 661.899 125.3 676.699 183.9 666.499C203.7 663.099 222.9 661.499 242.1 655.299C255 651.099 267.4 645.699 279.3 639.499C323.6 616.299 360.3 581.399 383.2 540.399C406.9 498.399 418.1 444.499 408 398.499C403.9 379.899 395 360.999 374.2 353.899C362.4 349.899 348.7 349.899 335.6 351.299C319.5 353.099 303.6 357.099 288.6 363.199C250.7 378.699 220.8 406.599 186.4 426.899C178.7 431.499 170.8 435.599 162.9 439.699C152.6 445.199 143.3 451.299 134.5 456.799ZM148.4 468.599C100.6 500.299 63.6001 536.499 47.9001 582.599C46.0001 588.299 44.3 594.299 45.5 600.499C46.8 606.699 51.1 612.299 55.8 617.399C89.5 653.899 145.3 666.899 198.8 657.299C216.9 654.099 234.4 652.499 252 646.699C263.8 642.799 275.1 637.799 286 632.099C326.5 610.699 360 578.799 381 541.299C402.9 502.699 413.7 452.199 404.1 409.999C400.2 392.899 391.6 375.699 372.1 369.599C361 366.099 348.1 366.299 335.8 367.799C320.7 369.699 305.8 373.599 291.8 379.399C256.3 394.099 228 420.299 196.1 439.799C188.9 444.199 181.6 448.199 174.3 452.099C164.7 457.299 156.3 463.299 148.4 468.599ZM162.2 480.399C120.6 510.399 88.7 542.099 75.9 582.799C74.3 587.799 72.9 593.199 74.2 598.599C75.5 603.999 79.4 608.999 83.8 613.499C114.7 645.699 165.2 656.799 213.7 647.799C230.1 644.799 246 643.199 261.8 637.799C272.5 634.199 282.7 629.599 292.6 624.399C329.3 604.899 359.6 575.899 378.8 541.999C398.9 506.899 409.3 459.699 400.1 421.299C396.3 405.699 388.2 390.199 370 385.199C359.5 382.299 347.6 382.699 336.1 384.199C322 386.199 308.1 389.999 295 395.499C261.8 409.499 235.3 433.899 205.7 452.499C199.1 456.699 192.3 460.599 185.6 464.399C176.7 469.399 169.3 475.299 162.2 480.399ZM176.1 492.199C140.7 520.299 113.9 547.699 104.1 583.099C102.9 587.499 101.8 592.099 103.1 596.799C104.4 601.499 108 605.799 111.9 609.699C140 637.499 185.3 646.899 228.7 638.399C243.3 635.599 257.6 633.999 271.8 629.099C281.3 625.799 290.5 621.599 299.3 616.899C332.1 599.199 359.3 573.099 376.7 542.799C394.9 510.999 405 467.299 396.3 432.599C392.7 418.499 385 404.799 368 400.699C358.2 398.299 347.1 398.899 336.4 400.599C323.3 402.599 310.4 406.299 298.3 411.499C267.5 424.799 242.7 447.399 215.5 465.199C209.4 469.199 203.2 472.899 197 476.599C188.8 481.399 182.2 487.299 176.1 492.199ZM189.9 503.999C160.6 530.199 139 553.399 132.1 583.299C131.2 586.999 130.5 590.899 131.8 594.899C133.1 598.899 136.4 602.499 139.9 605.799C165.3 629.299 205.2 636.799 243.6 628.999C256.5 626.299 269.1 624.799 281.6 620.299C290 617.299 298.1 613.599 305.9 609.299C334.9 593.499 358.9 570.299 374.5 543.499C390.9 515.099 400.7 474.799 392.4 443.899C389 431.299 381.7 419.299 366 416.199C356.9 414.399 346.6 415.199 336.8 416.899C324.7 418.999 312.8 422.599 301.6 427.499C273.2 439.999 250.1 460.899 225.2 477.799C219.6 481.599 214 485.199 208.4 488.699C200.9 493.499 195.2 499.299 189.9 503.999ZM203.8 515.899C180.6 539.999 164.2 559.099 160.2 583.699C159.7 586.799 159.3 589.999 160.6 593.299C161.9 596.599 164.8 599.599 168 602.199C190.6 621.299 225.3 627.099 258.5 619.799C269.7 617.299 280.6 615.699 291.5 611.799C298.8 609.099 305.9 605.799 312.6 601.999C337.8 587.999 358.7 567.799 372.3 544.499C386.9 519.599 396.3 482.599 388.4 455.499C385.2 444.399 378.3 434.199 363.8 431.999C355.3 430.699 346 431.699 336.9 433.499C325.8 435.699 314.9 439.099 304.6 443.799C278.5 455.599 257.1 474.699 234.7 490.699C229.7 494.299 224.6 497.699 219.6 501.199C212.9 505.599 208.2 511.199 203.8 515.899ZM217.6 527.699C200.4 549.399 189.3 564.699 188.2 583.899C188.1 586.299 188 588.799 189.3 591.399C190.6 593.999 193.2 596.299 196 598.299C215.8 613.099 245.3 616.999 273.4 610.299C282.9 607.999 292.1 606.399 301.3 602.899C307.5 600.499 313.5 597.599 319.2 594.399C340.5 582.299 358.3 564.999 370.1 545.199C382.9 523.699 391.9 490.199 384.5 466.799C381.4 457.199 375 448.699 361.8 447.499C354 446.799 345.5 447.899 337.3 449.799C327.2 451.999 317.3 455.399 308 459.799C284.3 470.899 264.6 488.199 244.5 503.399C240 506.799 235.5 510.099 231 513.399C225 517.599 221.2 523.099 217.6 527.699ZM231.4 539.499C216.3 556.599 214.5 570.199 216.3 584.199C216.5 585.899 216.8 587.799 218 589.599C219.3 591.499 221.6 593.099 224 594.599C241.1 605.099 265.2 607.099 288.3 600.999C296.1 598.899 303.7 597.299 311.2 594.199C316.3 592.099 321.2 589.599 325.8 586.899C343.3 576.599 357.9 562.299 367.9 545.999C378.9 527.899 387.5 497.799 380.5 478.199C377.6 470.099 371.6 463.399 359.6 463.099C352.4 462.999 344.8 464.299 337.4 466.199C328.3 468.499 319.4 471.799 311 475.799C289.6 486.099 271.7 501.699 253.9 515.999C249.9 519.199 246 522.399 242.1 525.599C237.1 529.699 233.2 534.599 231.4 539.499ZM245.3 551.299C239.1 567.699 239.7 575.799 244.4 584.399C245 585.499 245.6 586.599 246.8 587.699C248.1 588.799 250 589.799 252 590.699C266.3 596.799 285.2 597.099 303.2 591.499C309.3 589.599 315.2 587.999 321 585.399C324.9 583.599 328.8 581.499 332.4 579.299C346.1 570.899 357.6 559.499 365.6 546.699C374.8 531.999 383 505.299 376.5 489.399C373.8 482.799 368.2 477.799 357.4 478.499C350.9 478.899 344.1 480.399 337.5 482.399C329.4 484.799 321.6 487.899 314.1 491.699C295.1 501.299 278.8 515.099 263.5 528.599C260.1 531.599 256.7 534.599 253.4 537.699C249.1 541.799 247 546.799 245.3 551.299ZM259.1 563.099C254.1 576.099 264.6 581.399 272.4 584.699C273.3 585.099 274.2 585.499 275.5 585.899C276.8 586.299 278.4 586.599 280 586.899C291.4 588.699 305.2 587.099 318.1 582.099C322.5 580.399 326.7 578.799 330.8 576.599C333.6 575.099 336.4 573.499 339 571.699C348.8 565.099 357.2 556.699 363.4 547.399C370.8 536.099 378.6 512.799 372.6 500.699C370.1 495.599 364.9 492.399 355.4 493.999C349.6 494.999 343.7 496.699 337.9 498.699C330.8 501.199 324 504.199 317.4 507.699C300.7 516.599 286.2 528.599 273.2 541.199C270.3 543.999 267.5 546.899 264.7 549.799C261.2 553.899 260.8 558.799 259.1 563.099ZM353.4 509.699C322.3 519.299 294.8 537.999 276.2 562.199C273.3 565.899 272 570.499 273 574.999C275.6 586.599 289.7 587.199 300.5 585.099C324.4 580.299 347.9 566.799 361.3 548.299C369.5 537.099 380.9 501.199 353.4 509.699ZM-384.1 604.199C-383.4 574.799 -381.1 545.199 -371.8 516.999C-351.6 455.599 -299.9 405.999 -242.6 367.399C-185.3 328.799 -121 298.999 -62.3 261.999C-36.8 245.899 -11.6 227.699 3.10001 203.099C7.40001 195.899 10.8 188.099 10.5 179.899C9.40003 154.299 -24.6 142.299 -51.9 134.199C-137.5 108.799 -214.7 61.1992 -271.4 -1.20081C-289.6 -21.2008 -306.6 -43.3008 -332 -55.5008C-376.1 -76.6008 -430.6 -61.2008 -475.9 -42.1008C-561.4 -6.20077 -642 43.2992 -695.9 112.399C-772.8 210.899 -787.3 337.099 -788.7 456.999C-789.4 514.299 -787.4 572.599 -767.7 627.199C-759.1 650.999 -746.9 674.199 -727.7 692.399C-707.1 711.999 -679.5 724.699 -651 733.599C-587.1 753.599 -516.2 754.599 -451.2 737.999C-431 732.899 -376.3 721.099 -370.9 700.799C-368.1 690.299 -380.3 667.899 -381.9 655.999C-384.3 638.899 -384.5 621.499 -384.1 604.199ZM-343.8 -42.1007C-386.5 -62.4007 -439 -47.6007 -482.8 -29.2007C-565.4 5.49926 -643.3 53.3992 -695.4 120.099C-713.6 143.399 -728.2 168.399 -739.8 194.399C-775.7 274.699 -783.9 365.599 -784.9 453.099C-785.5 508.499 -783.6 564.799 -764.5 617.599C-756.2 640.599 -744.4 662.999 -725.9 680.599C-706 699.499 -679.3 711.899 -651.8 720.499C-590 739.799 -521.5 740.799 -458.7 724.899C-439.2 719.899 -386.3 708.699 -381.1 688.999C-378.4 678.799 -390.2 657.199 -391.6 645.799C-393.8 629.199 -393.9 612.499 -393.5 595.799C-392.8 567.399 -390.5 538.799 -381.5 511.499C-365.7 463.699 -330.2 423.199 -288.1 389.699C-277.9 381.599 -267.4 373.999 -256.7 366.699C-201.3 329.399 -139.4 300.499 -82.9 264.699C-58.3 249.099 -34.1 231.499 -19.8 207.799C-15.7 200.899 -12.4 193.299 -12.7 185.399C-13.3 172.699 -22.1 163.499 -34.2 156.399C-45.7 149.699 -60.0999 144.999 -73.0999 141.099C-155.9 116.499 -230.5 70.4993 -285.4 10.1993C-302.7 -9.00072 -319.2 -30.4007 -343.8 -42.1007ZM-355.6 -28.7007C-396.8 -48.3007 -447.5 -34.0007 -489.7 -16.2007C-569.4 17.2993 -644.5 63.4993 -694.8 127.799C-712.4 150.299 -726.4 174.399 -737.7 199.499C-772.3 276.999 -780.2 364.799 -781.1 449.199C-781.7 502.699 -779.8 556.999 -761.3 607.899C-753.3 630.099 -741.9 651.699 -724 668.699C-704.7 686.999 -679 698.899 -652.4 707.199C-592.7 725.899 -526.6 726.899 -465.9 711.499C-447.1 706.699 -396 695.899 -390.9 676.899C-388.2 667.099 -399.6 646.199 -401 635.199C-403.1 619.199 -403.1 603.099 -402.7 586.999C-402 559.599 -399.7 531.999 -391 505.699C-375.7 459.599 -341.4 420.499 -300.8 388.099C-291 380.299 -280.9 372.899 -270.5 365.899C-217.2 329.799 -157.5 301.999 -103.1 267.299C-79.3999 252.199 -56.1 235.199 -42.4 212.299C-38.4 205.599 -35.2999 198.299 -35.5999 190.699C-36.1999 178.499 -44.7 169.499 -56.4 162.699C-67.5 156.199 -81.5 151.599 -93.9 147.899C-173.8 124.099 -245.9 79.6993 -299 21.4993C-315.9 3.19927 -331.8 -17.4007 -355.6 -28.7007ZM-367.4 -15.3008C-407.1 -34.2008 -455.9 -20.4008 -496.6 -3.30078C-573.3 28.9992 -645.7 73.3992 -694.2 135.499C-711.1 157.199 -724.7 180.399 -735.5 204.699C-768.9 279.399 -776.4 363.999 -777.2 445.399C-777.7 496.899 -775.8 549.299 -758 598.399C-750.3 619.799 -739.3 640.599 -722 656.999C-703.4 674.599 -678.6 686.099 -653 694.199C-595.5 712.199 -531.7 713.299 -473.1 698.499C-454.9 693.899 -405.7 683.499 -400.7 665.199C-398.1 655.799 -409 635.699 -410.3 625.099C-412.3 609.699 -412.3 594.099 -411.9 578.699C-411.1 552.399 -408.9 525.799 -400.5 500.399C-385.7 455.899 -352.6 418.299 -313.5 386.999C-304.1 379.499 -294.3 372.299 -284.4 365.599C-233.1 330.799 -175.8 303.899 -123.5 270.499C-100.7 255.999 -78.3 239.599 -65.2 217.499C-61.4 211.099 -58.3 203.999 -58.7 196.699C-59.3 184.899 -67.5 176.299 -78.8 169.699C-89.5 163.399 -103 158.999 -115 155.399C-192.1 132.399 -261.6 89.5992 -312.8 33.4992C-329.1 15.4992 -344.4 -4.40078 -367.4 -15.3008ZM-379.2 -1.90082C-417.4 -20.1008 -464.4 -6.80082 -503.5 9.59918C-577.3 40.6992 -647 83.4992 -693.6 143.199C-709.9 164.099 -722.9 186.399 -733.3 209.799C-765.4 281.699 -772.6 363.199 -773.3 441.599C-773.7 491.199 -771.9 541.599 -754.8 588.899C-747.3 609.499 -736.7 629.499 -720.1 645.299C-702.2 662.299 -678.3 673.399 -653.6 681.099C-598.2 698.499 -536.8 699.499 -480.4 685.299C-462.9 680.899 -415.5 670.899 -410.7 653.399C-408.2 644.299 -418.6 624.999 -419.9 614.799C-421.7 599.999 -421.8 584.999 -421.3 570.199C-420.5 544.899 -418.3 519.299 -410.2 494.899C-395.8 452.099 -364 415.899 -326.4 385.699C-317.3 378.499 -308 371.599 -298.4 365.099C-249.1 331.599 -194.1 305.599 -143.9 273.399C-122 259.399 -100.5 243.599 -87.9 222.399C-84.2 216.199 -81.3 209.399 -81.7 202.399C-82.3 190.999 -90.1999 182.799 -101.1 176.399C-111.4 170.399 -124.4 166.099 -135.9 162.599C-210 140.299 -277 98.9992 -326.4 44.9992C-342.2 27.7992 -357 8.59918 -379.2 -1.90082ZM-390.9 11.5992C-427.6 -5.80082 -472.7 6.89922 -510.3 22.6992C-581.3 52.3992 -648.2 93.4993 -693 150.899C-708.7 170.999 -721.2 192.499 -731.2 214.899C-762 284.099 -768.9 362.299 -769.5 437.699C-769.9 485.399 -768.1 533.799 -751.6 579.199C-744.4 598.999 -734.2 618.299 -718.3 633.399C-701.1 649.699 -678.1 660.399 -654.4 667.899C-601.1 684.699 -542 685.699 -487.8 672.099C-470.9 667.899 -425.4 658.299 -420.7 641.499C-418.3 632.799 -428.3 614.299 -429.4 604.499C-431.1 590.299 -431.1 575.899 -430.6 561.699C-429.8 537.399 -427.6 512.799 -419.7 489.399C-405.8 448.299 -375.2 413.399 -339.1 384.299C-330.4 377.299 -321.4 370.699 -312.2 364.399C-264.9 332.099 -212.2 307.099 -164.1 276.199C-143.2 262.699 -122.6 247.599 -110.5 227.099C-107 221.099 -104.2 214.599 -104.6 207.799C-105.2 196.899 -112.8 188.899 -123.2 182.799C-133.1 176.999 -145.6 172.899 -156.7 169.499C-228.1 148.099 -292.5 108.399 -340 56.4993C-355.4 39.9993 -369.7 21.5992 -390.9 11.5992ZM-402.7 24.9992C-437.9 8.29921 -481.2 20.4992 -517.2 35.5992C-585.3 64.0992 -649.4 103.599 -692.3 158.499C-707.3 177.799 -719.3 198.399 -728.9 219.899C-758.4 286.299 -765 361.399 -765.5 433.699C-765.8 479.499 -764.1 525.899 -748.2 569.499C-741.3 588.499 -731.5 606.999 -716.2 621.499C-699.7 637.199 -677.6 647.399 -654.8 654.599C-603.6 670.699 -546.9 671.699 -494.8 658.799C-478.6 654.799 -434.9 645.599 -430.4 629.499C-428 621.199 -437.6 603.399 -438.7 594.099C-440.3 580.499 -440.3 566.699 -439.8 552.999C-439 529.699 -436.8 506.199 -429.2 483.699C-415.8 444.299 -386.4 410.799 -351.9 382.799C-343.6 376.099 -335 369.699 -326.2 363.699C-280.9 332.699 -230.6 308.699 -184.6 278.899C-164.6 265.999 -144.9 251.399 -133.4 231.799C-130.1 226.099 -127.4 219.799 -127.7 213.299C-128.3 202.799 -135.6 195.199 -145.6 189.299C-155.1 183.699 -167.1 179.799 -177.8 176.599C-246.3 155.999 -308.2 117.899 -353.9 68.0992C-368.5 52.2992 -382.3 34.6992 -402.7 24.9992ZM-414.5 38.3992C-448.2 22.3992 -489.6 34.0992 -524.1 48.5992C-589.2 75.8992 -650.7 113.599 -691.8 166.299C-706.2 184.799 -717.7 204.499 -726.8 225.199C-755 288.799 -761.3 360.799 -761.7 429.999C-762 473.799 -760.3 518.399 -745 559.999C-738.4 578.199 -729 595.899 -714.3 609.799C-698.4 624.799 -677.3 634.699 -655.4 641.599C-606.4 657.099 -552 658.099 -502.1 645.699C-486.5 641.899 -444.7 633.099 -440.3 617.699C-438 609.799 -447.1 592.799 -448.1 583.799C-449.6 570.799 -449.5 557.599 -449 544.499C-448.1 522.199 -446 499.699 -438.7 478.199C-425.8 440.499 -397.6 408.299 -364.6 381.499C-356.7 375.099 -348.4 368.999 -340 363.199C-296.8 333.499 -248.7 310.399 -204.8 281.899C-185.7 269.499 -166.9 255.499 -155.9 236.699C-152.7 231.199 -150.2 225.199 -150.5 218.999C-151.1 208.999 -158.1 201.599 -167.7 195.999C-176.8 190.599 -188.3 186.799 -198.5 183.799C-264.2 163.999 -323.5 127.399 -367.4 79.7992C-381.7 64.4992 -394.9 47.6992 -414.5 38.3992ZM-426.3 51.8992C-458.5 36.6992 -498.1 47.7992 -531.1 61.5992C-593.3 87.5992 -652 123.699 -691.2 173.999C-705 191.699 -715.9 210.599 -724.6 230.299C-751.5 291.099 -757.4 359.899 -757.8 426.099C-758 467.999 -756.3 510.599 -741.7 550.399C-735.3 567.699 -726.4 584.699 -712.3 597.999C-697.1 612.399 -676.9 621.799 -656 628.399C-609.1 643.199 -557.1 644.199 -509.3 632.499C-494.4 628.899 -454.4 620.499 -450.2 605.799C-448 598.199 -456.6 581.999 -457.6 573.499C-459 561.099 -458.9 548.499 -458.4 535.999C-457.5 514.699 -455.4 493.199 -448.4 472.699C-436 436.699 -409 405.899 -377.5 380.099C-369.9 373.899 -362.1 368.099 -354.1 362.499C-312.9 333.999 -267.1 311.899 -225.4 284.599C-207.2 272.699 -189.3 259.399 -178.9 241.399C-175.9 236.199 -173.5 230.399 -173.8 224.499C-174.4 214.899 -181.1 207.899 -190.3 202.499C-199.1 197.399 -210 193.699 -219.8 190.799C-282.6 171.799 -339.4 136.799 -381.4 91.2992C-394.9 76.7992 -407.5 60.6992 -426.3 51.8992ZM-438 65.2992C-468.7 50.7992 -506.4 61.3992 -537.9 74.4992C-597.3 99.3992 -653.2 133.699 -690.6 181.599C-703.7 198.499 -714.2 216.499 -722.5 235.299C-748.1 293.299 -753.7 358.999 -754 422.099C-754.2 462.099 -752.5 502.699 -738.6 540.699C-732.5 557.199 -723.9 573.399 -710.5 586.099C-696 599.799 -676.7 608.799 -656.7 615.199C-611.9 629.399 -562.3 630.299 -516.6 619.299C-502.3 615.799 -464.2 607.899 -460.1 593.999C-458 586.799 -466.2 571.399 -467 563.199C-468.3 551.399 -468.2 539.399 -467.6 527.499C-466.7 507.199 -464.7 486.699 -457.9 467.199C-446 432.799 -420.2 403.399 -390.2 378.799C-383 372.899 -375.5 367.299 -367.9 361.999C-328.8 334.699 -285.3 313.699 -245.6 287.599C-228.3 276.299 -211.4 263.499 -201.5 246.399C-198.6 241.399 -196.4 235.899 -196.7 230.199C-197.2 220.999 -203.7 214.399 -212.5 209.199C-220.9 204.299 -231.3 200.799 -240.7 197.999C-300.7 179.799 -354.8 146.399 -395.1 102.999C-408 88.9992 -420.1 73.6992 -438 65.2992ZM-449.8 78.6992C-479 64.9992 -514.9 74.9992 -544.8 87.4992C-601.2 111.099 -654.5 143.699 -690 189.299C-702.5 205.399 -712.4 222.499 -720.3 240.499C-744.6 295.799 -749.9 358.199 -750.1 418.299C-750.2 456.299 -748.6 494.999 -735.3 531.099C-729.5 546.799 -721.3 562.199 -708.6 574.299C-694.8 587.399 -676.4 595.999 -657.4 601.999C-614.7 615.499 -567.5 616.499 -524 605.999C-510.4 602.699 -474.1 595.199 -470.1 581.999C-468 575.199 -475.8 560.499 -476.6 552.799C-477.8 541.599 -477.6 530.199 -477.1 518.899C-476.2 499.599 -474.2 480.199 -467.6 461.599C-456.1 428.899 -431.6 400.899 -403.1 377.399C-396.3 371.799 -389.2 366.399 -382 361.399C-344.9 335.399 -303.7 315.299 -266.2 290.399C-249.9 279.599 -233.8 267.399 -224.5 251.099C-221.8 246.299 -219.7 241.099 -220 235.699C-220.5 226.999 -226.7 220.599 -235 215.699C-243 210.999 -252.9 207.699 -261.8 204.999C-318.9 187.599 -370.5 155.699 -409 114.499C-421.2 101.299 -432.8 86.6992 -449.8 78.6992ZM-461.6 92.0992C-489.3 79.0992 -523.3 88.5992 -551.7 100.399C-605.2 122.799 -655.7 153.799 -689.4 196.999C-701.3 212.199 -710.6 228.599 -718.1 245.599C-741.2 298.099 -746.1 357.399 -746.2 414.399C-746.3 450.499 -744.7 487.199 -732 521.499C-726.5 536.399 -718.7 550.999 -706.6 562.499C-693.5 574.899 -676 583.099 -657.9 588.799C-617.4 601.699 -572.5 602.599 -531.1 592.799C-518.1 589.699 -483.7 582.599 -479.9 570.099C-477.9 563.599 -485.2 549.799 -485.9 542.499C-486.9 531.899 -486.8 521.099 -486.2 510.399C-485.2 492.199 -483.3 473.699 -477 456.099C-466 425.099 -442.8 398.499 -415.8 375.999C-409.3 370.599 -402.6 365.499 -395.8 360.699C-360.7 335.899 -321.8 316.799 -286.4 293.199C-271 282.899 -255.8 271.399 -247 255.899C-244.5 251.399 -242.5 246.399 -242.8 241.299C-243.3 232.999 -249.2 226.999 -257.1 222.299C-264.7 217.799 -274.1 214.699 -282.6 212.099C-336.9 195.499 -385.9 165.199 -422.5 125.999C-434.3 113.599 -445.4 99.7992 -461.6 92.0992ZM-473.4 105.599C-499.6 93.2992 -531.8 102.299 -558.6 113.499C-609.2 134.599 -657 163.799 -688.8 204.699C-700 219.099 -708.9 234.599 -716 250.699C-737.8 300.399 -742.4 356.499 -742.5 410.499C-742.5 444.699 -741 479.399 -728.9 511.799C-723.7 525.899 -716.3 539.799 -704.8 550.599C-692.3 562.399 -675.8 570.099 -658.7 575.599C-620.3 587.899 -577.8 588.799 -538.5 579.499C-526.2 576.599 -493.6 569.899 -489.9 558.099C-488 551.999 -494.8 538.899 -495.5 531.999C-496.4 521.999 -496.2 511.799 -495.6 501.699C-494.6 484.499 -492.7 466.999 -486.7 450.299C-476.2 420.999 -454.2 395.699 -428.7 374.399C-422.6 369.299 -416.3 364.499 -409.9 359.899C-376.9 336.399 -340.2 318.199 -307 295.799C-292.5 286.099 -278.2 275.099 -270 260.399C-267.6 256.099 -265.7 251.399 -266.1 246.599C-266.6 238.799 -272.2 232.999 -279.7 228.599C-286.9 224.399 -295.8 221.399 -303.8 218.899C-355.2 203.099 -401.7 174.399 -436.5 137.299C-447.5 125.799 -458 112.799 -473.4 105.599ZM-485.2 118.999C-509.9 107.399 -540.2 115.799 -565.5 126.399C-613.2 146.299 -658.3 173.899 -688.3 212.399C-698.9 225.999 -707.2 240.599 -713.9 255.799C-734.4 302.699 -738.7 355.699 -738.7 406.599C-738.7 438.799 -737.1 471.599 -725.7 502.199C-720.7 515.499 -713.8 528.599 -702.9 538.799C-691.1 549.899 -675.5 557.299 -659.3 562.399C-623 573.999 -582.8 574.899 -545.8 566.299C-534.2 563.599 -503.4 557.299 -499.9 546.299C-498.1 540.599 -504.4 528.299 -505 521.799C-505.8 512.399 -505.6 502.799 -505 493.299C-504 477.099 -502.1 460.699 -496.4 444.899C-486.4 417.299 -465.6 393.399 -441.6 373.199C-435.9 368.399 -429.9 363.799 -423.9 359.499C-392.9 337.299 -358.6 320.099 -327.4 298.899C-313.8 289.699 -300.5 279.299 -292.8 265.499C-290.6 261.499 -288.8 256.999 -289.2 252.499C-289.7 245.099 -295 239.699 -302.1 235.499C-308.9 231.499 -317.3 228.599 -324.9 226.299C-373.4 211.299 -417.4 184.099 -450.3 149.199C-460.7 138.099 -470.6 125.799 -485.2 118.999ZM-496.9 132.399C-520.1 121.599 -548.6 129.399 -572.3 139.299C-617.2 157.999 -659.5 183.899 -687.7 220.099C-697.6 232.899 -705.5 246.699 -711.7 260.999C-730.9 305.099 -734.9 354.999 -734.8 402.799C-734.7 433.099 -733.2 463.899 -722.4 492.699C-717.7 505.199 -711.1 517.499 -700.9 527.099C-689.8 537.599 -675 544.499 -659.8 549.399C-625.6 560.399 -587.8 561.299 -552.9 553.299C-541.9 550.799 -513 544.999 -509.6 534.599C-507.8 529.199 -513.8 517.699 -514.3 511.599C-515 502.799 -514.7 493.799 -514.1 484.899C-513.1 469.699 -511.2 454.299 -505.8 439.499C-496.3 413.599 -476.7 390.999 -454.2 371.899C-448.8 367.299 -443.3 362.999 -437.6 358.899C-408.6 337.899 -376.6 321.699 -347.5 301.699C-334.8 292.999 -322.4 283.299 -315.2 270.299C-313.1 266.499 -311.5 262.299 -311.8 257.999C-312.3 250.999 -317.3 245.899 -324 241.999C-330.4 238.199 -338.3 235.499 -345.5 233.299C-391.2 219.099 -432.6 193.499 -463.7 160.699C-473.8 150.299 -483.2 138.799 -496.9 132.399ZM-508.7 145.799C-530.4 135.699 -557 142.999 -579.2 152.299C-621.1 169.699 -660.7 193.899 -687 227.799C-696.3 239.799 -703.6 252.699 -709.4 266.099C-727.3 307.499 -731 354.099 -730.8 398.899C-730.7 427.299 -729.2 456.099 -719.1 482.999C-714.7 494.699 -708.5 506.199 -699 515.199C-688.6 524.999 -674.7 531.499 -660.5 536.099C-628.5 546.399 -593 547.299 -560.2 539.899C-549.9 537.599 -522.8 532.199 -519.6 522.499C-517.9 517.499 -523.4 506.799 -523.8 501.099C-524.4 492.899 -524.1 484.499 -523.5 476.199C-522.4 461.999 -520.6 447.599 -515.5 433.799C-506.5 409.499 -488.1 388.399 -467.1 370.399C-462.1 366.099 -456.9 362.099 -451.7 358.199C-424.7 338.499 -395 323.199 -368.1 304.499C-356.4 296.299 -344.8 287.199 -338.2 274.999C-336.3 271.399 -334.8 267.499 -335.1 263.499C-335.6 256.999 -340.3 252.199 -346.5 248.499C-352.5 244.999 -359.9 242.399 -366.6 240.299C-409.4 226.899 -448.3 202.899 -477.6 172.199C-487 162.599 -495.8 151.799 -508.7 145.799ZM-520.5 159.299C-540.7 149.899 -565.5 156.699 -586.1 165.299C-625.1 181.499 -661.9 203.999 -686.4 235.499C-695.1 246.699 -701.9 258.699 -707.3 271.199C-723.9 309.799 -727.3 353.299 -727 395.099C-726.8 421.499 -725.4 448.399 -715.9 473.499C-711.8 484.399 -706 495.099 -697.1 503.499C-687.4 512.699 -674.4 518.799 -661.1 523.099C-631.2 532.799 -598.1 533.699 -567.5 526.899C-557.8 524.799 -532.6 519.799 -529.5 510.799C-527.9 506.199 -532.9 496.199 -533.3 490.999C-533.8 483.399 -533.5 475.599 -532.8 467.899C-531.7 454.699 -529.9 441.399 -525 428.499C-516.4 405.899 -499.3 386.199 -479.9 369.299C-475.3 365.299 -470.5 361.499 -465.6 357.899C-440.7 339.399 -413.3 325.199 -388.4 307.599C-377.6 299.999 -366.9 291.499 -360.9 280.099C-359.1 276.799 -357.8 273.099 -358.1 269.399C-358.6 263.299 -363 258.899 -368.8 255.399C-374.4 252.099 -381.3 249.699 -387.6 247.699C-427.6 235.099 -463.9 212.599 -491.3 184.099C-500.1 174.799 -508.4 164.799 -520.5 159.299ZM-532.3 172.699C-551 164.099 -573.9 170.299 -593.1 178.299C-629.2 193.299 -663.3 214.099 -686 243.299C-694 253.699 -700.3 264.799 -705.3 276.499C-720.6 312.299 -723.7 352.599 -723.3 391.399C-723.1 415.899 -721.6 440.799 -712.8 463.999C-708.9 474.099 -703.6 483.999 -695.3 491.799C-686.2 500.299 -674.2 505.999 -661.9 509.999C-634.1 519.099 -603.4 519.899 -574.9 513.799C-565.9 511.799 -542.5 507.299 -539.6 498.999C-538.1 494.699 -542.6 485.499 -542.9 480.699C-543.3 473.699 -542.9 466.499 -542.3 459.399C-541.2 447.199 -539.4 434.899 -534.8 422.999C-526.7 402.099 -510.8 383.699 -492.9 367.899C-488.6 364.099 -484.2 360.599 -479.8 357.299C-456.9 340.099 -431.8 326.799 -409.1 310.499C-399.2 303.399 -389.4 295.499 -383.9 284.899C-382.3 281.799 -381.1 278.399 -381.4 274.999C-381.9 269.399 -386 265.199 -391.4 261.999C-396.6 258.899 -403.1 256.699 -408.9 254.799C-446 242.999 -479.8 222.099 -505.4 195.599C-513.3 187.099 -521.1 177.899 -532.3 172.699ZM-544 186.099C-561.2 178.199 -582.3 183.899 -599.9 191.199C-633.1 204.899 -664.5 224.099 -685.3 250.899C-692.7 260.499 -698.5 270.799 -703 281.499C-717 314.499 -719.7 351.699 -719.3 387.399C-719 409.999 -717.6 432.899 -709.4 454.299C-705.8 463.599 -700.9 472.699 -693.2 479.899C-684.8 487.799 -673.7 492.999 -662.3 496.799C-636.6 505.199 -608.3 506.099 -581.9 500.499C-573.5 498.699 -552 494.599 -549.2 487.099C-547.7 483.199 -551.9 474.799 -552 470.399C-552.3 463.999 -551.9 457.399 -551.2 450.899C-550.1 439.799 -548.3 428.399 -544 417.499C-536.4 398.299 -521.7 381.299 -505.3 366.599C-501.4 363.099 -497.4 359.799 -493.3 356.699C-472.4 340.699 -449.6 328.399 -429 313.299C-420 306.699 -411.2 299.399 -406.2 289.699C-404.8 286.899 -403.7 283.699 -404 280.499C-404.5 275.299 -408.3 271.499 -413.3 268.499C-418.1 265.599 -424.1 263.599 -429.4 261.799C-463.7 250.799 -494.9 231.499 -518.7 207.099C-526.5 199.299 -533.7 190.899 -544 186.099ZM-555.8 199.499C-571.5 192.299 -590.7 197.499 -606.8 204.099C-637.1 216.599 -665.7 233.999 -684.7 258.499C-691.5 267.299 -696.7 276.699 -700.8 286.499C-713.6 316.699 -715.9 350.699 -715.4 383.399C-715.1 404.099 -713.7 424.999 -706.1 444.599C-702.8 453.099 -698.2 461.399 -691.3 467.999C-683.6 475.199 -673.4 480.099 -663 483.499C-639.5 491.299 -613.4 492.099 -589.3 487.199C-581.6 485.599 -561.9 481.899 -559.2 475.099C-557.8 471.599 -561.5 463.899 -561.6 459.899C-561.7 453.999 -561.3 448.099 -560.6 442.199C-559.4 432.099 -557.7 421.799 -553.7 411.799C-546.6 394.299 -533.1 378.699 -518.2 365.099C-514.7 361.899 -511 358.899 -507.4 355.999C-488.6 341.299 -468 329.899 -449.6 316.099C-441.5 310.099 -433.6 303.399 -429.2 294.499C-427.9 291.899 -426.9 288.999 -427.3 286.099C-427.8 281.299 -431.3 277.799 -435.9 275.099C-440.3 272.499 -445.8 270.499 -450.7 268.899C-482.1 258.699 -510.8 240.899 -532.7 218.699C-539.6 211.599 -546.3 203.899 -555.8 199.499ZM-567.6 212.999C-581.8 206.599 -599.2 211.199 -613.7 217.199C-641.1 228.499 -667 244.199 -684.1 266.299C-690.2 274.299 -694.9 282.799 -698.7 291.699C-710.2 319.199 -712.2 349.999 -711.6 379.599C-711.2 398.299 -709.9 417.299 -702.9 434.999C-699.9 442.699 -695.7 450.299 -689.4 456.199C-682.4 462.799 -673.1 467.199 -663.6 470.399C-642.2 477.499 -618.5 478.399 -596.5 473.999C-589.4 472.599 -571.6 469.299 -569.1 463.199C-567.8 459.999 -571 453.199 -571 449.599C-571 444.299 -570.6 438.999 -569.9 433.699C-568.7 424.599 -567 415.299 -563.3 406.299C-556.7 390.399 -544.4 376.199 -531 363.699C-527.9 360.699 -524.6 357.999 -521.3 355.399C-504.5 341.999 -486.3 331.599 -469.9 318.899C-462.8 313.399 -455.7 307.299 -451.9 299.199C-450.8 296.799 -449.9 294.299 -450.3 291.599C-450.8 287.299 -454 284.099 -458.2 281.599C-462.2 279.199 -467.2 277.399 -471.6 275.899C-500.2 266.499 -526.3 250.299 -546.4 230.199C-552.8 223.899 -558.9 216.899 -567.6 212.999ZM-579.4 226.399C-592.1 220.699 -607.6 224.799 -620.6 230.099C-645.1 240.099 -668.2 254.199 -683.5 273.999C-689 281.199 -693.2 288.899 -696.5 296.899C-706.7 321.599 -708.4 349.299 -707.7 375.799C-707.3 392.599 -706 409.599 -699.7 425.499C-697 432.399 -693.2 439.199 -687.5 444.499C-681.1 450.399 -672.8 454.399 -664.2 457.299C-644.9 463.799 -623.6 464.599 -603.8 460.899C-597.4 459.699 -581.4 456.799 -579 451.399C-577.8 448.599 -580.5 442.499 -580.5 439.299C-580.4 434.599 -580 429.899 -579.2 425.099C-578 416.999 -576.3 408.699 -572.8 400.699C-566.7 386.499 -555.6 373.699 -543.8 362.299C-541 359.599 -538.1 357.099 -535.3 354.699C-520.5 342.499 -504.6 333.099 -490.4 321.699C-484.2 316.699 -478 311.199 -474.7 303.999C-473.7 301.899 -473 299.599 -473.3 297.199C-473.8 293.299 -476.7 290.499 -480.4 288.199C-484 285.999 -488.5 284.399 -492.5 283.099C-518.2 274.499 -541.8 259.899 -560 241.899C-565.9 236.099 -571.5 229.899 -579.4 226.399ZM-591.1 239.799C-602.4 234.799 -616 238.399 -627.4 243.099C-649 251.899 -669.4 264.199 -682.9 281.699C-687.8 287.999 -691.4 294.899 -694.3 301.999C-703.2 323.899 -704.6 348.399 -703.8 371.899C-703.3 386.799 -702 401.799 -696.4 415.799C-693.9 421.899 -690.6 427.899 -685.5 432.599C-679.8 437.899 -672.4 441.499 -664.8 444.099C-647.6 449.899 -628.7 450.799 -611 447.699C-605.2 446.699 -591.1 444.199 -588.9 439.499C-587.8 437.099 -590.1 431.799 -589.9 428.999C-589.7 424.899 -589.2 420.799 -588.5 416.599C-587.2 409.499 -585.6 402.199 -582.4 395.199C-576.8 382.699 -566.9 371.299 -556.6 360.999C-554.2 358.599 -551.7 356.299 -549.2 354.199C-536.5 343.299 -522.8 334.799 -510.7 324.599C-505.4 320.199 -500.1 315.299 -497.4 308.799C-496.6 306.899 -496 304.899 -496.3 302.799C-496.8 299.399 -499.4 296.799 -502.7 294.799C-505.9 292.799 -509.9 291.399 -513.5 290.199C-536.4 282.399 -557.4 269.399 -573.8 253.499C-579.1 248.399 -584.1 242.899 -591.1 239.799ZM-602.9 253.299C-612.7 248.999 -624.4 252.099 -634.3 256.099C-653 263.699 -670.7 274.299 -682.3 289.399C-686.5 294.899 -689.7 300.899 -692.2 307.099C-699.8 326.199 -700.9 347.599 -700 367.999C-699.5 380.899 -698.2 393.999 -693.2 406.199C-691 411.499 -688.1 416.699 -683.6 420.799C-678.6 425.399 -672.1 428.599 -665.4 430.899C-650.4 436.099 -633.8 436.899 -618.2 434.399C-613.1 433.599 -600.8 431.499 -598.7 427.599C-597.6 425.599 -599.5 420.999 -599.3 418.699C-599 415.199 -598.5 411.699 -597.7 408.099C-596.4 401.999 -594.8 395.799 -591.9 389.599C-586.7 378.799 -578.1 368.799 -569.3 359.499C-567.3 357.399 -565.1 355.399 -563 353.499C-552.3 343.799 -541 336.399 -530.9 327.399C-526.5 323.499 -522.2 319.199 -520 313.599C-519.4 311.999 -518.9 310.199 -519.2 308.299C-519.7 305.299 -522 303.099 -524.9 301.299C-527.7 299.599 -531.2 298.299 -534.3 297.199C-554.3 290.199 -572.8 278.699 -587.4 264.999C-592.2 260.599 -596.7 255.899 -602.9 253.299ZM-614.7 266.699C-623 263.199 -632.9 265.699 -641.2 268.999C-657 275.299 -672 284.299 -681.7 296.999C-685.3 301.699 -687.9 306.899 -690 312.199C-696.3 328.599 -697.1 346.699 -696.2 364.099C-695.6 375.099 -694.4 386.199 -690 396.599C-688.1 401.099 -685.5 405.499 -681.8 408.999C-677.5 412.999 -671.9 415.699 -666.2 417.799C-653.3 422.399 -639.1 423.199 -625.7 421.299C-621.3 420.699 -610.8 418.999 -608.9 415.799C-607.9 414.099 -609.3 410.399 -609 408.399C-608.6 405.499 -608 402.599 -607.3 399.599C-606 394.599 -604.4 389.299 -601.8 384.099C-597.1 374.999 -589.7 366.299 -582.4 358.199C-580.7 356.299 -579 354.599 -577.3 352.899C-568.6 344.499 -559.6 337.999 -551.7 330.199C-548.2 326.799 -544.8 323.099 -543.1 318.399C-542.6 316.999 -542.3 315.499 -542.6 313.899C-543.1 311.299 -545.1 309.399 -547.6 307.899C-550 306.399 -553 305.299 -555.7 304.299C-572.9 298.099 -588.8 288.199 -601.5 276.499C-605.4 272.899 -609.4 268.999 -614.7 266.699ZM-626.5 280.099C-633.3 277.299 -641.3 279.299 -648.1 281.999C-661 287.099 -673.2 294.399 -681.1 304.799C-684.1 308.699 -686.2 312.999 -687.8 317.399C-692.8 330.999 -693.3 345.999 -692.3 360.299C-691.7 369.399 -690.5 378.499 -686.7 386.999C-685.1 390.699 -682.9 394.299 -679.8 397.199C-676.2 400.499 -671.5 402.899 -666.7 404.599C-655.9 408.499 -644 409.399 -632.8 408.099C-629 407.699 -620.4 406.399 -618.6 403.899C-617.7 402.599 -618.6 399.599 -618.3 398.099C-617.8 395.799 -617.2 393.499 -616.4 391.099C-615.1 387.099 -613.5 382.799 -611.2 378.599C-607 371.099 -600.8 363.899 -595 356.899C-593.7 355.299 -592.4 353.799 -591 352.399C-584.4 345.299 -577.6 339.699 -571.8 333.199C-569.3 330.399 -566.7 327.299 -565.6 323.299C-565.3 322.099 -565.1 320.899 -565.4 319.599C-565.9 317.499 -567.6 315.899 -569.7 314.599C-571.7 313.299 -574.2 312.299 -576.5 311.499C-590.8 306.099 -604.2 297.799 -615.1 288.199C-618.6 285.099 -622 281.999 -626.5 280.099ZM-638.2 293.499C-643.4 291.399 -649.6 292.899 -655 294.899C-665 298.799 -674.5 304.299 -680.5 312.399C-682.8 315.499 -684.4 318.899 -685.6 322.399C-689.3 333.199 -689.5 344.999 -688.4 356.299C-687.7 363.399 -686.6 370.599 -683.5 377.299C-682.1 380.199 -680.4 382.999 -677.9 385.299C-675 387.999 -671.2 389.899 -667.4 391.299C-658.7 394.599 -649.2 395.399 -640.1 394.699C-637 394.499 -630.2 393.599 -628.6 391.799C-627.8 390.899 -628.3 388.699 -627.8 387.499C-627.2 385.899 -626.5 384.099 -625.7 382.299C-624.3 379.299 -622.8 376.099 -620.7 372.799C-617 366.999 -612 361.199 -607.8 355.199C-606.9 353.899 -605.9 352.599 -605 351.499C-600.4 345.699 -596 340.999 -592.3 335.699C-590.7 333.399 -589 330.899 -588.5 327.799C-588.3 326.899 -588.3 325.899 -588.6 324.899C-589.1 323.199 -590.5 321.999 -592.1 320.899C-593.8 319.899 -595.7 318.999 -597.5 318.299C-609 313.899 -619.8 307.199 -628.8 299.799C-631.7 297.399 -634.6 294.999 -638.2 293.499ZM-650 306.999C-653.7 305.599 -658.1 306.599 -661.9 307.999C-669 310.599 -675.7 314.499 -680 320.199C-681.7 322.499 -682.8 325.099 -683.6 327.599C-686.1 335.599 -685.9 344.299 -684.7 352.499C-684 357.699 -682.8 362.899 -680.4 367.699C-679.3 369.799 -678 371.899 -676.1 373.499C-673.8 375.499 -671 376.999 -668.1 378.199C-661.6 380.799 -654.4 381.699 -647.5 381.599C-645 381.599 -640.1 381.199 -638.6 380.099C-637.8 379.499 -637.9 378.199 -637.4 377.399C-636.7 376.399 -636 375.199 -635.2 373.999C-633.8 371.999 -632.3 369.799 -630.5 367.499C-627.3 363.399 -623.5 358.999 -620.8 354.099C-620.2 353.099 -619.7 352.099 -619.1 351.099C-616.5 346.599 -614.4 342.899 -612.8 338.799C-612.1 336.999 -611.4 335.099 -611.3 332.899C-611.3 332.199 -611.4 331.499 -611.7 330.699C-612.2 329.499 -613.3 328.499 -614.5 327.699C-615.8 326.899 -617.2 326.199 -618.6 325.599C-627.2 321.799 -635.5 316.599 -642.7 311.299C-644.9 309.699 -647.2 307.999 -650 306.999ZM-661.8 320.399C-664 319.699 -666.5 320.099 -668.8 320.899C-673 322.299 -677 324.499 -679.4 327.899C-680.5 329.399 -681 331.099 -681.4 332.799C-682.6 337.999 -682.1 343.599 -680.8 348.799C-680 352.099 -678.9 355.299 -677.1 358.299C-676.3 359.599 -675.4 360.899 -674.1 361.899C-672.5 363.299 -670.6 364.399 -668.6 365.199C-664.2 367.199 -659.3 368.099 -654.6 368.499C-652.7 368.699 -649.7 368.699 -648.3 368.299C-647.6 368.099 -647.3 367.499 -646.6 367.199C-645.9 366.799 -645.1 366.199 -644.2 365.599C-642.8 364.599 -641.3 363.399 -639.8 362.099C-637 359.699 -634.5 356.799 -633.3 352.899C-633.1 352.099 -632.9 351.399 -632.8 350.699C-632.2 347.499 -632.4 344.699 -633 341.799C-633.2 340.599 -633.4 339.299 -633.9 337.799C-634.1 337.399 -634.2 336.899 -634.6 336.399C-635.1 335.599 -635.9 334.999 -636.7 334.399C-637.6 333.799 -638.5 333.299 -639.4 332.799C-645.2 329.799 -650.9 326.199 -656.3 322.999C-658 321.899 -659.8 320.999 -661.8 320.399ZM-659 340.899C-663.2 337.599 -668 334.299 -673.6 333.799C-675.6 333.599 -677.9 333.999 -678.8 335.499C-679.2 336.199 -679.3 336.999 -679.2 337.799C-679 342.499 -676.1 346.799 -672.2 349.899C-668.3 352.999 -663.3 354.899 -658.3 356.299C-654 357.499 -644.9 357.499 -646.2 351.299C-647 347.499 -655.8 343.499 -659 340.899Z" stroke="url(#paint0_radial_4286_1799)" stroke-miterlimit="10" stroke-linecap="round" stroke-linejoin="round"/>
</g>
<defs>
<radialGradient id="paint0_radial_4286_1799" cx="0" cy="0" r="1" gradientUnits="userSpaceOnUse" gradientTransform="translate(-96.5965 -3.38942) rotate(90.0383) scale(604.39 564.194)">
<stop stop-color="#F48124"/>
<stop offset="0.5" stop-color="#002B49"/>
<stop offset="1" stop-color="#D40000"/>
</radialGradient>
</defs>
</svg>
