<svg width="298" height="606" viewBox="0 0 298 606" fill="none" xmlns="http://www.w3.org/2000/svg">
<mask id="mask0_4286_1759" style="mask-type:alpha" maskUnits="userSpaceOnUse" x="0" y="0" width="298" height="606">
<path d="M278 0H20C8.9543 0 0 8.9543 0 20V586C0 597.046 8.9543 606 20 606H278C289.046 606 298 597.046 298 586V20C298 8.9543 289.046 0 278 0Z" fill="#FFE98A"/>
</mask>
<g mask="url(#mask0_4286_1759)">
<path d="M-173.8 434.999C-184.2 410.499 -191.7 384.799 -197.7 359.299C-204.4 330.699 -205 300.799 -206.6 271.699C-208.1 245.499 -202.2 219.399 -197.8 193.499C-182.5 102.699 -184.8 8.99922 -153.9 -78.6008M-173.8 434.999C-178.3 424.399 -179.5 412.399 -177.6 399.299C-169.6 395.699 -152.2 386.699 -137.9 365.799C-131 355.599 -125.5 343.099 -119.3 331.799C-117.8 328.899 -116.1 326.099 -114.3 323.399C-104.5 308.899 -91.4 298.599 -80.5 283.399C-71.7 271.299 -65.3 256.599 -60.8 241.199C-58.7 233.799 -57 226.299 -55.6 218.799C-53 204.599 -51.3 189.899 -46.4 176.499C-40.2 159.399 -29.7 145.599 -20 131.599C-12.7 120.999 -5.60001 110.099 1.29999 98.7992C4.49999 93.4992 7.69999 87.9992 10.1 81.9992C16.3 66.2992 15.4 48.1992 12.7 31.8992C10 15.5992 5.6 -0.100779 0.199997 -14.5008C-8.8 -38.6008 -22.3 -57.4008 -33.4 -75.6008C-38.7 -84.3008 -44.1 -92.5008 -49.3 -100.301M-173.8 434.999C-174.1 434.299 -170.7 432.099 -163.2 427.899C-146.3 435.499 -115.3 434.299 -89.9 412.599C-77.6 401.999 -67.9 387.499 -56.9 374.899C-54.1 371.699 -51.2 368.599 -48.1 365.799C-31.3 350.299 -10 341.999 7.3 325.299C21.1 311.999 30.7 294.299 37.1 275.399C40.2 266.399 42.5 257.099 44.3 247.899C47.7 230.299 49.7 212.099 57.3 195.899C66.9 175.399 84 160.399 99.7 145.099C111.6 133.499 123.1 121.299 134.2 108.699C139.4 102.699 144.7 96.4992 148.4 89.2992C158.1 70.4992 155.7 47.5992 150 27.6992C144.3 7.69922 135.8 -11.0008 125.1 -27.7008C107.3 -55.5008 81.4 -74.3008 58.7 -92.2008C47.7 -100.801 36.6 -108.701 25.5 -115.801M-173.8 434.999C-168.2 448.299 -157.5 458.599 -143.1 467.999C-111.4 488.699 -63.6 500.699 -22.7 477.999C-2.9 466.899 12.7 449.499 30.3 435.099C34.8 431.399 39.5 427.999 44.4 424.899C71 408.099 103.9 402.599 130 383.999C151 369.099 165 347.199 174.1 323.299C178.5 311.899 181.7 300.199 184.1 288.499C188.7 266.199 191.1 242.899 202.5 222.899C217 197.399 243.3 180.899 267.4 163.799C285.6 150.899 303.3 137.099 320.3 122.499C328.4 115.599 336.4 108.399 342 99.4992C356.6 76.3992 352 46.7992 342.2 21.7992C332.4 -3.10077 317.9 -26.2008 299.9 -46.0008C269.9 -79.0008 226.4 -97.7008 187.6 -115.301C168.8 -123.801 149.6 -131.301 130.3 -137.501M-173.8 434.999C-160.6 466.099 -142.6 495.199 -117.2 519.399C-71.7 562.699 2.90001 586.199 63.7 562.099C100.6 547.399 127.7 517.899 163.5 501.099C202.8 482.699 250.5 480.799 288 459.599C332.4 434.499 354 386.899 363.9 340.899C369.9 312.599 372.9 282.899 389.1 257.899C409.7 226.199 447.9 207.599 482.8 188.199C509.3 173.499 534.9 157.499 559.5 140.399C571.1 132.299 582.7 123.699 590.8 112.699C611.8 84.0992 604.5 45.7992 589.3 14.3992C574.2 -17.0008 552 -45.6008 524.6 -69.5008C478.9 -109.301 412.8 -127.801 353.2 -144.901C324.3 -153.301 294.8 -160.201 264.9 -165.301M-139 -81.7008C-140.9 -73.2008 -142.4 -64.5008 -143.8 -55.8008C-146.7 -37.3008 -148.1 -18.4008 -149.6 1.29922C-150.5 12.9992 -151.2 24.9992 -152.1 37.0992C-153 49.0992 -153.9 61.4992 -155.8 73.4992C-156.5 78.0992 -157.4 82.5992 -158.2 87.1992C-160 96.6992 -161.8 106.299 -163.6 115.699C-166.1 128.199 -168.7 140.599 -170.8 153.499C-172.5 163.699 -173.8 173.999 -175.4 184.199C-176.2 189.599 -177.2 194.999 -178.2 200.399C-180.4 211.599 -183 222.599 -185.7 233.299C-189.1 246.699 -192.3 259.499 -193.6 272.899C-193.8 275.399 -194 277.899 -194.1 280.399C-194.5 290.199 -194.9 300.199 -195.4 309.899C-196.5 329.799 -197.8 348.199 -194.7 365.099C-190.4 388.899 -183.2 412.599 -173.7 435.099M-124.1 -84.8008C-124.8 -76.4008 -125.2 -67.8008 -125.4 -59.1008C-125.9 -40.6008 -124.9 -21.8008 -124.6 -1.40079C-124.4 10.7992 -124.3 23.2992 -124.6 36.0992C-124.9 48.8992 -125.5 62.0992 -128.1 74.7992C-129.1 79.6992 -130.4 84.2992 -131.6 88.9992C-134.2 98.7992 -136.9 108.599 -139.7 118.199C-143.4 130.899 -147.3 143.599 -150.1 157.199C-152.3 167.899 -153.7 178.899 -155.5 189.799C-156.4 195.599 -157.5 201.299 -158.7 206.999C-161.2 218.899 -164.5 230.499 -168.2 241.499C-172.8 255.199 -177.7 267.599 -180.4 281.199C-180.9 283.699 -181.3 286.199 -181.7 288.799C-183.1 298.799 -184.3 309.299 -185.9 319.099C-189.2 339.199 -193.7 355.999 -192 370.699C-189.4 392.799 -182.6 414.499 -173.9 434.999M-173.9 434.999C-180.1 420.499 -183 404.599 -183.4 387.899C-179 379.799 -167.1 367.799 -157.2 347.199C-152.4 337.199 -148.6 325.499 -144.3 314.699C-143.2 311.899 -142.1 309.199 -140.8 306.599C-133.8 292.399 -124 281.299 -115.6 266.699C-108.9 255.099 -103.7 241.599 -100 227.599C-98.2 220.899 -96.8 214.099 -95.6 207.299C-93.3 194.399 -91.7 181.299 -87.9 168.899C-83 153.199 -75.2 139.799 -67.9 126.299C-62.4 115.999 -57.1 105.599 -51.9 94.8992C-49.5 89.8992 -47 84.7992 -45.2 79.1992C-40.4 64.7992 -40.7 48.5992 -42.2 33.6992C-43.7 18.6992 -46.4 4.29922 -49.7 -9.20078C-55.3 -31.9008 -63.7 -50.7008 -70.2 -69.0008C-73.3 -77.7008 -76.4 -86.1008 -79.2 -94.1008M-173.9 434.999C-171.7 440.299 -165.5 443.999 -154.7 445.099C-132.4 459.299 -93.2 462.699 -61.2 440.599C-45.7 429.799 -33.5 413.999 -19.6 400.699C-16 397.299 -12.4 393.999 -8.5 391.099C12.6 375.099 38.8 367.999 59.9 350.499C76.9 336.499 88.3 316.899 95.9 295.899C99.5 285.899 102.3 275.599 104.3 265.299C108.2 245.699 110.4 225.299 119.6 207.499C131.3 184.799 152.3 169.199 171.6 153.099C186.2 140.899 200.4 128.099 214 114.599C220.4 108.199 226.9 101.599 231.4 93.6992C243.2 73.0992 239.8 47.2992 232.4 25.1992C224.9 3.09922 213.8 -17.5008 200 -35.5008C177 -65.6008 143.5 -84.3008 113.9 -102.101C99.6 -110.601 85 -118.401 70.4 -125.101M-173.9 434.999C-170.8 442.299 -163.8 447.899 -151.8 450.799C-127.7 467.299 -85.8 472.299 -51.6 449.999C-35 439.199 -21.9 422.999 -7.10001 409.399C-3.30001 405.999 0.599997 402.699 4.7 399.699C27.2 383.499 55.1 376.799 77.4 358.999C95.3 344.799 107.4 324.599 115.4 302.899C119.2 292.499 122.1 281.799 124.2 271.199C128.3 250.899 130.6 229.799 140.3 211.399C152.6 187.999 175 172.099 195.5 155.799C211 143.399 226 130.399 240.5 116.599C247.4 110.099 254.2 103.399 259 95.1992C271.5 73.9992 267.8 47.1992 259.8 24.3992C251.8 1.59922 239.8 -19.6008 225 -38.1008C200.3 -69.0008 164.3 -87.7008 132.4 -105.401C116.9 -113.901 101.2 -121.601 85.4 -128.201M-173.9 434.999C-167.4 450.299 -155.9 462.699 -140.3 473.699C-107.2 497.099 -56.3 510.299 -13.2 487.399C7.7 476.299 24.1 458.399 42.8 443.799C47.5 440.099 52.4 436.599 57.6 433.499C85.7 416.499 120.2 411.399 147.6 392.499C169.6 377.299 184.2 354.799 193.7 330.199C198.3 318.499 201.6 306.399 204.1 294.399C208.8 271.499 211.3 247.499 223.2 226.899C238.4 200.699 266 183.899 291.3 166.599C310.5 153.399 329.1 139.399 346.9 124.499C355.3 117.499 363.7 110.099 369.6 100.999C384.9 77.2992 380 46.6992 369.6 20.9992C359.2 -4.60078 343.8 -28.3008 324.8 -48.6008C293.1 -82.5008 247 -101.001 205.9 -118.601C186 -127.001 165.7 -134.501 145.2 -140.601M-109.1 -87.9008C-108.6 -79.6008 -107.8 -71.1008 -107 -62.4008C-105.2 -44.0008 -101.7 -25.2008 -99.7 -4.00078C-98.5 8.59922 -97.5 21.7992 -97.2 35.2992C-96.9 48.7992 -97.2 62.9992 -100.5 76.1992C-101.8 81.2992 -103.4 86.0992 -105.1 90.8992C-108.6 100.999 -112.1 110.999 -115.8 120.799C-120.7 133.799 -125.9 146.699 -129.4 160.999C-132.2 172.299 -133.6 183.999 -135.5 195.599C-136.5 201.699 -137.7 207.799 -139.1 213.899C-142 226.499 -145.9 238.699 -150.6 249.899C-156.5 263.899 -163 275.899 -167.1 289.599C-167.9 292.099 -168.5 294.699 -169.1 297.399C-171.4 307.699 -173.5 318.599 -176.2 328.399C-181.7 348.699 -191.8 364.099 -189 376.299C-184.4 396.199 -181.6 416.399 -173.7 434.899C-174.8 432.299 -172.4 428.099 -166 422.099C-150.9 427.399 -122.6 424.599 -99.4 403.099C-88.2 392.699 -79.3 378.499 -69.3 366.199C-66.8 362.999 -64.1 359.999 -61.3 357.199C-45.9 341.999 -26.2 333.199 -10.2 316.899C2.59999 303.799 11.6 286.699 17.6 268.499C20.5 259.799 22.7 250.899 24.4 241.999C27.6 224.999 29.5 207.499 36.6 191.899C45.5 172.099 61.3 157.299 75.8 142.299C86.8 130.899 97.4 119.099 107.6 106.699C112.4 100.899 117.2 94.8992 120.7 87.8992C129.7 69.7992 127.6 47.7992 122.5 28.5992C117.4 9.29923 109.7 -8.80078 100.1 -25.0008C84.1 -52.1008 60.7 -70.9008 40.3 -88.8008C30.5 -97.5008 20.5 -105.401 10.6 -112.701M-94.2 -91.0008C-92.5 -82.9008 -90.6 -74.4008 -88.6 -65.7008C-84.4 -47.3008 -78.5 -28.5008 -74.7 -6.60077C-72.4 6.49923 -70.6 20.2992 -69.7 34.4992C-68.8 48.6992 -68.8 63.8992 -72.8 77.6992C-74.4 82.9992 -76.4 87.9992 -78.4 92.8992C-82.7 103.299 -87.2 113.499 -91.8 123.599C-97.9 136.799 -104.4 149.999 -108.6 164.999C-111.9 176.799 -113.4 189.299 -115.5 201.499C-116.6 207.999 -117.9 214.399 -119.5 220.799C-122.8 234.099 -127.3 246.899 -133.1 258.399C-140.3 272.699 -148.4 284.299 -153.9 298.199C-154.9 300.799 -155.8 303.399 -156.7 306.099C-160 316.699 -162.9 327.899 -166.7 337.899C-174.4 358.299 -188.8 371.899 -186.2 382.199C-181.7 400.199 -180.8 418.499 -173.8 435.099M-173.8 435.099C-164.8 456.199 -150.9 474.999 -131.6 490.899C-93.9 521.899 -34 538.799 15.7 515.399C39.8 504.099 58.7 484.899 80.3 469.599C85.8 465.699 91.4 461.999 97.4 458.799C129.7 441.299 169.1 437.399 200.3 417.599C225.3 401.699 241.8 377.399 252.5 350.699C257.6 337.999 261.4 324.899 264.1 311.799C269.3 286.899 272 260.699 285.5 238.499C302.7 210.299 334.3 192.799 363.2 174.699C385.1 160.999 406.3 146.199 426.7 130.499C436.4 122.999 446 115.199 452.7 105.399C470.1 79.7992 464.3 46.2992 452.1 18.4992C439.9 -9.20078 422 -34.8008 399.8 -56.4008C362.8 -92.4008 309.3 -111.001 261.2 -128.401C237.9 -136.801 214.1 -144.101 190.1 -149.801M-173.8 435.099C-162.3 462.199 -146 487.199 -123 508.099C-80.7 546.499 -12 567.299 44.4 543.499C71.8 531.999 93.3 511.599 117.7 495.499C123.9 491.399 130.3 487.599 137 484.299C173.6 466.199 217.9 463.599 252.9 442.899C281 426.299 299.4 400.099 311.2 371.299C316.8 357.599 320.9 343.399 323.9 329.299C329.6 302.299 332.5 273.999 347.6 250.099C366.8 219.699 402.4 201.599 434.9 182.699C459.6 168.399 483.4 152.999 506.3 136.399C517.2 128.599 528 120.299 535.5 109.799C555.1 82.3993 548.4 45.9992 534.4 15.9992C520.5 -14.0008 500 -41.3008 474.6 -64.3008C432.5 -102.501 371.4 -121.101 316.4 -138.301C289.8 -146.701 262.5 -153.801 235 -159.101M-64.2 -97.2008C-60.2 -89.3008 -55.9 -81.0008 -51.7 -72.3008C-42.9 -54.1008 -32 -35.3008 -24.7 -11.8008C-20.3 2.19922 -16.8 17.1992 -14.7 32.8992C-12.6 48.4992 -12 65.6992 -17.5 80.6992C-19.6 86.4992 -22.4 91.7992 -25.3 96.9992C-31.3 107.899 -37.5 118.699 -43.9 129.099C-52.4 142.899 -61.6 156.499 -67.1 172.799C-71.5 185.699 -73.1 199.599 -75.5 213.199C-76.8 220.299 -78.3 227.499 -80.3 234.599C-84.4 249.299 -90.2 263.399 -97.9 275.299C-107.6 290.199 -119 300.899 -127.4 315.299C-128.9 317.899 -130.4 320.699 -131.7 323.499C-136.9 334.599 -141.6 346.699 -147.4 356.699C-159.5 377.399 -174.2 387.899 -180.4 393.799C-181.2 408.699 -179.1 422.599 -173.7 435.199M-34.3 -103.401C-27.9 -95.8008 -21.4 -87.6008 -14.9 -78.9008C-1.49999 -60.8008 14.4 -42.0008 25.2 -17.1008C31.7 -2.20077 36.8 13.9992 40.1 31.0992C43.4 48.1992 44.6 67.1992 37.7 83.4992C35.1 89.7992 31.4 95.2992 27.8 100.799C20.1 112.299 12.1 123.499 3.90001 134.299C-6.99999 148.599 -18.8 162.599 -25.7 180.399C-31.1 194.399 -32.9 209.699 -35.6 224.699C-37 232.499 -38.9 240.399 -41.2 248.099C-46.1 264.199 -53.1 279.499 -62.9 291.799C-75.1 307.299 -89.8 317.199 -101 331.899C-103.1 334.599 -105 337.499 -106.8 340.399C-113.9 351.999 -120.3 364.899 -128.3 375.099C-144.8 396.099 -164.9 403.599 -174.7 404.899C-177.7 416.199 -177.5 426.299 -173.8 434.899M-19.3 -106.501C-11.8 -99.0008 -4.1 -90.9008 3.5 -82.2008C19.3 -64.2008 37.7 -45.4008 50.2 -19.7008C57.7 -4.40077 63.7 12.4992 67.6 30.2992C71.5 47.9992 73 68.0992 65.4 84.9992C62.5 91.4992 58.5 97.1992 54.4 102.799C45.9 114.599 37 125.999 27.9 136.999C15.8 151.499 2.69999 165.799 -4.90001 184.299C-10.9 198.799 -12.7 214.899 -15.6 230.499C-17.1 238.699 -19.1 246.899 -21.6 254.899C-26.8 271.699 -34.5 287.599 -45.3 300.199C-58.8 315.899 -75.2 325.499 -87.7 340.399C-90 343.099 -92.2 346.099 -94.2 349.099C-102.3 360.899 -109.5 374.299 -118.6 384.499C-137.4 405.699 -160.2 411.599 -171.7 410.699C-175.8 420.199 -176.5 428.299 -173.7 434.999M-173.7 434.999C-169 446.199 -159.2 454.299 -145.9 462.199C-115.8 480.099 -71 491.199 -32.3 468.599C-13.6 457.599 1.19999 440.599 17.9 426.499C22.1 422.899 26.5 419.499 31.2 416.499C56.5 399.999 87.7 393.999 112.5 375.599C132.5 360.899 145.9 339.599 154.6 316.399C158.8 305.399 161.9 293.999 164.2 282.699C168.6 260.999 171 238.499 181.8 218.999C195.5 194.299 220.5 177.899 243.4 161.099C260.8 148.399 277.6 134.799 293.7 120.499C301.3 113.699 308.9 106.599 314.3 97.9992C328.2 75.4992 323.9 46.7992 314.7 22.5992C305.5 -1.60077 291.8 -24.0008 274.9 -43.4008C246.7 -75.7008 205.7 -94.4008 169.2 -112.001C151.5 -120.501 133.4 -128.001 115.3 -134.401M-173.7 434.999C-165.6 454.199 -152.4 470.799 -134.4 485.099C-98.3 513.599 -41.4 529.199 6.10001 505.999C29.1 494.699 47.2 475.999 67.6 460.999C72.8 457.199 78.2 453.599 83.9 450.399C114.8 433.099 152.6 428.799 182.5 409.299C206.5 393.599 222.4 369.899 232.7 343.899C237.6 331.499 241.2 318.699 243.9 305.999C249 281.699 251.6 256.299 264.6 234.599C281.1 207.099 311.4 189.799 339.1 171.999C360.2 158.499 380.5 143.899 400 128.499C409.3 121.199 418.5 113.599 424.9 103.999C441.6 78.9992 436.1 46.4992 424.5 19.3992C412.9 -7.70078 395.8 -32.6008 374.7 -53.8008C339.5 -89.1008 288.4 -107.601 242.7 -125.101C220.6 -133.501 197.9 -140.801 175.1 -146.701M-4.39999 -109.601C4.30001 -102.201 13.2 -94.2008 21.9 -85.5008C40 -67.5008 60.9 -48.7008 75.2 -22.3008C83.7 -6.60078 90.6 10.8992 95 29.3992C99.5 47.8992 101.3 68.8992 93 86.3992C89.8 93.0992 85.4 98.9992 80.9 104.699C71.5 116.799 61.8 128.399 51.7 139.599C38.4 154.399 24 168.899 15.7 188.099C9.30001 203.299 7.4 219.999 4.3 236.299C2.7 244.799 0.600009 253.399 -2.09999 261.799C-7.69999 279.299 -16 295.799 -27.9 308.599C-42.6 324.599 -60.7 333.799 -74.7 348.799C-77.3 351.599 -79.7 354.499 -82 357.599C-91.1 369.699 -99.1 383.399 -109.2 393.799C-130.2 415.099 -155.7 419.499 -169.1 416.399C-174.3 424.199 -175.9 430.299 -173.9 434.899M40.5 -118.901C52.7 -111.901 65 -104.101 77.1 -95.5008C102.1 -77.7008 130.6 -58.9008 150 -30.3008C161.7 -13.2008 171.1 6.19922 177.4 26.7992C183.7 47.3992 186.4 71.2992 176 90.6992C172 98.1992 166.4 104.499 160.7 110.599C148.8 123.499 136.4 135.899 123.6 147.699C106.7 163.199 88.3 178.399 78 199.699C69.9 216.399 67.8 235.399 64.2 253.699C62.3 263.299 59.9 272.899 56.6 282.299C49.8 301.899 39.6 320.199 24.7 333.799C6.2 350.699 -16.8 358.599 -35 374.299C-38.4 377.199 -41.5 380.299 -44.5 383.599C-56.4 396.399 -67 411.399 -80.4 421.999C-108 443.799 -141.7 443.499 -160.4 433.699C-169 436.099 -173.3 436.399 -173.9 435.099C-169.9 444.399 -161.1 450.199 -148.9 456.599C-120.2 471.699 -78.5 481.799 -42 459.399C-24.3 448.499 -10.4 431.799 5.39999 417.999C9.49999 414.499 13.6 411.099 18 408.099C41.9 391.799 71.4 385.499 95 367.399C113.9 352.899 126.7 332.099 135 309.699C139 298.999 142 287.999 144.2 276.999C148.4 256.099 150.7 234.199 161 215.299C174 191.299 197.7 175.199 219.4 158.599C235.9 146.099 251.8 132.699 267.1 118.699C274.3 111.999 281.5 105.099 286.6 96.6992C299.8 74.7992 295.8 47.0992 287.2 23.5992C278.6 -0.000772476 265.8 -21.8008 249.9 -40.7008C223.5 -72.3008 185 -91.0008 150.7 -108.701C134.1 -117.201 117.3 -124.801 100.3 -131.301M55.5 -122.001C68.9 -115.101 82.4 -107.301 95.6 -98.8008C122.8 -81.0008 153.8 -62.2008 175 -32.9008C187.8 -15.3008 198 4.59922 204.9 25.9992C211.8 47.3992 214.8 72.1992 203.7 92.1992C199.4 99.8992 193.4 106.399 187.4 112.599C174.6 125.799 161.4 138.399 147.7 150.399C129.6 166.199 109.9 181.599 98.9 203.599C90.2 220.899 88.1 240.599 84.4 259.499C82.4 269.399 79.8 279.399 76.4 289.099C69.2 309.399 58.4 328.299 42.5 342.099C22.7 359.299 -1.9 366.799 -21.5 382.599C-25.1 385.499 -28.5 388.699 -31.8 391.999C-44.7 405.099 -56.1 420.499 -70.5 431.099C-100.3 453.099 -136.8 451.199 -157.2 439.199C-166.9 439.899 -172.1 438.199 -173.5 434.799M160.2 -143.601C181.9 -137.601 203.3 -130.201 224.4 -121.801C267.8 -104.301 316.4 -85.7008 349.8 -51.2008C369.9 -30.5008 386.1 -6.20078 397.1 20.1992C408.1 46.5992 413.3 78.1992 397.3 102.499C391.1 111.799 382.3 119.399 373.5 126.499C354.8 141.699 335.4 155.899 315.3 169.299C288.8 186.899 259.8 203.899 244 230.799C231.6 251.899 229 276.599 224.1 300.299C221.5 312.699 218 325.099 213.3 337.099C203.4 362.399 188.2 385.499 165.1 400.899C136.4 420.099 100.3 424.799 70.8 441.899C65.4 445.099 60.2 448.599 55.2 452.399C35.6 467.199 18.3 485.499 -3.7 496.699C-49 519.799 -102.9 505.399 -137.5 479.399C-154.3 466.799 -166.6 452.199 -174 434.999M205.1 -152.901C230.3 -147.301 255.2 -140.101 279.6 -131.701C330 -114.401 386 -95.9008 424.7 -59.1008C447.9 -37.0008 466.7 -10.9008 479.5 17.5992C492.3 46.0992 498.4 80.5993 480.2 106.799C473.2 116.899 463.2 124.799 453.2 132.399C432 148.399 409.9 163.399 387.1 177.299C357 195.599 324.1 213.399 306.2 242.299C292.2 265.099 289.4 291.899 284 317.599C281.2 330.999 277.3 344.499 272.1 357.499C261 384.899 243.9 409.799 217.8 425.999C185.4 446.099 144.3 449.599 110.6 467.199C104.4 470.499 98.5 474.199 92.8 478.099C70.3 493.699 50.5 513.199 25.3 524.599C-26.6 548.099 -89.5 529.999 -128.7 496.399C-149.2 478.899 -163.9 457.999 -173.8 434.799M220 -156.001C246.4 -150.501 272.4 -143.401 298 -135.001C350.7 -117.701 409.3 -99.2008 449.7 -61.6008C474 -39.1008 493.6 -12.3008 507 16.8992C520.4 46.1992 526.8 81.5992 507.9 108.399C500.6 118.699 490.2 126.799 479.8 134.499C457.8 150.799 434.8 165.999 411 180.099C379.7 198.699 345.5 216.699 326.9 246.299C312.3 269.599 309.5 297.199 303.9 323.499C301 337.299 297 351.099 291.6 364.499C280.2 392.599 262.4 418.199 235.3 434.499C201.6 454.899 158.9 457.999 123.7 475.799C117.2 479.099 111.1 482.799 105.1 486.899C81.6 502.699 61 522.699 34.7 534.199C-19.5 557.899 -85.3 538.399 -126 502.399C-147.7 483.199 -163.3 460.299 -174 435.099C-161.6 464.199 -144.5 491.299 -120.3 513.799C-76.4 554.599 -4.7 576.799 53.9 552.799C82.3 541.099 104.6 520.399 130 503.999C136.5 499.799 143.1 495.999 150.1 492.599C188 474.299 234.1 472.099 270.3 451.099C299.5 434.299 318.5 407.499 330.7 377.999C336.5 364.099 340.7 349.399 343.8 334.999C349.7 307.299 352.6 278.299 368.3 253.899C388.2 222.799 425.1 204.399 458.8 185.299C484.4 170.799 509.2 155.099 532.9 138.299C544.1 130.399 555.3 121.999 563.1 111.199C583.4 83.1992 576.4 45.8992 561.8 15.1992C547.3 -15.5008 526 -43.5008 499.6 -66.9008C455.7 -105.901 392.1 -124.401 334.8 -141.601C307 -150.001 278.6 -157.001 249.9 -162.201M865.6 -165.301C856.5 -132.301 828.9 -106.301 808.3 -77.6008C795.1 -59.2008 784.7 -39.3008 774.1 -19.6008C736.9 49.7992 694.4 121.099 622.9 164.099C596.1 180.299 564.1 193.599 550.5 219.799C535.1 249.499 549.9 285.299 573.4 310.499C601.1 340.099 640.2 360.399 681.8 371.499C723.3 382.599 767.2 385.099 810.5 383.399C855.8 381.499 900.9 375.099 944.6 364.199C1017.3 346.099 1086.6 315.699 1161.5 307.799M874.8 -161.101C865.8 -129.201 839.1 -104.101 819.1 -76.4008C806.3 -58.6008 796.1 -39.4008 785.8 -20.3008C749.6 46.6992 708.3 115.499 639.4 157.499C613.3 173.399 582.3 186.899 569.2 212.599C568.3 214.299 567.5 216.099 566.9 217.899C556.2 245.899 570.3 278.299 592.2 301.299C619.3 329.999 657.5 349.299 697.8 359.799C738 370.399 780.6 372.699 822.5 370.899C866.4 368.999 910 362.599 952.3 351.999C1022.6 334.299 1089.7 304.799 1162.1 296.799M884.1 -156.901C875.2 -126.201 849.4 -101.901 830.1 -75.2008C817.7 -58.0008 807.8 -39.5008 797.8 -21.1008C762.6 43.5992 722.5 109.799 656.3 150.799C630.9 166.499 601 179.999 588.4 205.199C587.6 206.899 586.8 208.599 586.2 210.399C575.9 237.899 589.9 269.499 611.5 291.799C638.1 319.399 675.2 337.799 714.4 347.899C753.4 357.899 794.5 359.999 835 358.099C877.4 356.099 919.6 349.899 960.5 339.499C1028.5 322.299 1093.4 293.599 1163.3 285.499M893.3 -152.701C884.6 -123.201 859.6 -99.8008 840.9 -74.0008C828.9 -57.4008 819.3 -39.6008 809.6 -21.9008C775.5 40.3992 736.5 104.099 672.9 143.999C648.2 159.499 619.4 173.099 607.3 197.799C606.5 199.499 605.8 201.199 605.1 202.899C595.3 229.799 609.1 260.799 630.3 282.399C656.4 308.999 692.4 326.499 730.5 335.999C768.2 345.399 807.9 347.399 847.1 345.399C888.1 343.399 928.9 337.199 968.4 327.099C1034.1 310.299 1096.7 282.499 1164.1 274.299M902.5 -148.501C893.9 -120.101 869.8 -97.6008 851.7 -72.8008C840.1 -56.9008 830.8 -39.7008 821.3 -22.6008C788.2 37.3992 750.4 98.5992 689.5 137.399C665.5 152.699 637.7 166.299 626.2 190.599C625.4 192.199 624.7 193.899 624.1 195.599C614.7 221.999 628.4 252.199 649.3 273.099C674.8 298.599 709.9 315.299 746.8 324.199C783.2 332.999 821.5 334.799 859.3 332.799C898.9 330.699 938.2 324.599 976.3 314.799C1039.7 298.399 1100.1 271.499 1165 263.299M911.8 -144.301C903.3 -117.101 880.1 -95.4008 862.6 -71.6008C851.3 -56.3008 842.3 -39.8008 833.2 -23.4008C801.1 34.1992 764.6 92.8992 706.3 130.599C683 145.699 656.3 159.399 645.3 183.099C644.6 184.699 643.9 186.299 643.3 187.999C634.4 213.899 647.8 243.399 668.5 263.599C693.5 288.099 727.5 303.799 763.3 312.299C798.4 320.599 835.3 322.199 871.8 320.099C909.9 317.899 947.8 311.999 984.5 302.399C1045.5 286.399 1103.7 260.399 1166.2 252.099M921 -140.101C912.7 -114.101 890.3 -93.3008 873.4 -70.4008C862.5 -55.7008 853.8 -39.9008 845 -24.2008C814 31.0992 778.6 87.2992 722.9 123.899C700.3 138.799 674.7 152.499 664.2 175.799C663.5 177.399 662.9 178.999 662.3 180.599C653.8 205.899 667.1 234.699 687.4 254.299C711.8 277.799 744.8 292.599 779.5 300.499C813.3 308.199 848.9 309.599 883.9 307.499C920.6 305.299 957 299.399 992.3 290.099C1051 274.599 1107 249.399 1166.9 240.999M930.3 -135.901C922.1 -111.001 900.6 -91.1008 884.3 -69.2008C873.8 -55.1008 865.4 -40.0008 856.8 -24.9008C826.8 27.9992 792.6 81.6992 739.6 117.299C717.7 131.999 693.1 145.799 683.2 168.499C682.5 169.999 681.9 171.599 681.4 173.199C673.4 197.999 686.5 225.999 706.5 244.899C730.3 267.399 762.3 281.299 795.9 288.599C828.5 295.699 862.6 296.999 896.2 294.799C931.4 292.499 966.4 286.699 1000.3 277.699C1056.7 262.599 1110.4 238.299 1167.9 229.799M939.5 -131.701C931.4 -108.001 910.8 -89.0008 895.1 -68.0008C885 -54.6008 876.8 -40.1008 868.6 -25.7008C839.6 24.8992 806.7 76.0992 756.2 110.499C735 124.999 711.5 138.799 702.1 161.099C701.5 162.599 700.9 164.099 700.4 165.699C692.9 189.899 705.7 217.299 725.5 235.499C748.7 256.899 779.7 269.999 812.1 276.799C843.4 283.399 876.1 284.399 908.4 282.199C942.2 279.799 975.8 274.199 1008.3 265.299C1062.4 250.599 1113.9 227.099 1168.8 218.599M948.7 -127.501C940.7 -104.901 921 -86.8008 906 -66.8008C896.3 -54.0008 888.4 -40.2008 880.5 -26.5008C852.6 21.6992 820.8 70.4992 773 103.799C752.5 118.099 730.1 131.999 721.1 153.799C720.5 155.299 720 156.799 719.5 158.299C712.4 181.999 725.1 208.599 744.6 226.099C767.3 246.499 797.3 258.699 828.5 264.899C858.5 270.899 889.8 271.799 920.7 269.499C953.1 267.099 985.2 261.499 1016.3 252.899C1068 238.599 1117.3 215.999 1169.8 207.399M958 -123.301C950.2 -101.901 931.3 -84.6008 916.9 -65.6008C907.6 -53.4008 900 -40.3008 892.3 -27.2008C865.4 18.5992 834.8 64.8992 789.6 96.9992C769.8 111.099 748.4 124.999 740 146.299C739.4 147.699 738.9 149.199 738.5 150.699C731.9 173.899 744.3 199.699 763.5 216.599C785.6 235.999 814.6 247.199 844.7 252.899C873.4 258.299 903.3 258.999 932.9 256.599C963.8 254.099 994.5 248.599 1024.2 240.299C1073.6 226.499 1120.7 204.699 1170.6 195.999M967.2 -119.101C959.5 -98.9008 941.6 -82.5008 927.7 -64.5008C918.8 -52.9008 911.5 -40.5008 904.1 -28.1008C878.2 15.3992 848.9 59.2992 806.3 90.2992C787.2 104.199 766.9 118.099 759 138.999C758.5 140.399 758 141.799 757.6 143.299C751.4 165.899 763.7 191.099 782.6 207.299C804.1 225.699 832.1 235.999 861.1 241.199C888.5 246.099 917 246.599 945.2 244.099C974.7 241.499 1003.9 236.199 1032.2 228.099C1079.3 214.699 1124.1 193.799 1171.6 184.999M976.5 -114.901C968.9 -95.8008 951.9 -80.3008 938.6 -63.3008C930.1 -52.3008 923 -40.6008 916 -28.9008C891.1 12.2992 863 53.7992 823 83.5992C804.6 97.2992 785.4 111.299 778 131.599C777.5 132.999 777.1 134.399 776.7 135.799C771 157.899 783 182.299 801.7 197.799C822.6 215.199 849.6 224.599 877.5 229.199C903.6 233.499 930.8 233.799 957.6 231.299C985.6 228.699 1013.4 223.399 1040.4 215.599C1085.2 202.599 1127.8 182.599 1172.7 173.699M985.7 -110.701C978.3 -92.8008 962.1 -78.1008 949.4 -62.1008C941.3 -51.8008 934.5 -40.7008 927.7 -29.6008C903.9 9.19923 877 48.2992 839.6 76.8992C821.9 90.3992 803.7 104.399 796.9 124.299C796.4 125.599 796 126.999 795.7 128.299C790.4 149.899 802.3 173.599 820.6 188.399C840.9 204.799 866.9 213.299 893.7 217.299C918.5 221.099 944.3 221.199 969.7 218.599C996.3 215.899 1022.7 210.699 1048.2 203.199C1090.6 190.599 1131 171.499 1173.5 162.499M994.9 -106.501C987.6 -89.8008 972.3 -76.0008 960.2 -60.9008C952.5 -51.2008 946 -40.8008 939.5 -30.4008C916.7 6.09921 891.1 42.7992 856.2 70.1992C839.3 83.4992 822.1 97.5992 815.8 116.999C815.4 118.299 815 119.599 814.7 120.899C809.9 141.899 821.5 164.899 839.6 178.999C859.3 194.399 884.3 201.999 910 205.499C933.5 208.699 957.9 208.599 981.9 205.999C1007.1 203.199 1032 198.199 1056.1 190.899C1096.2 178.799 1134.4 160.499 1174.3 151.399M1004.2 -102.401C997 -86.8008 982.6 -73.9008 971.1 -59.8008C963.7 -50.7008 957.6 -41.0008 951.4 -31.3008C929.7 2.89922 905.3 37.1992 873 63.3992C856.8 76.4992 840.7 90.5992 834.9 109.499C834.5 110.799 834.2 112.099 833.9 113.299C829.5 133.799 840.9 156.099 858.8 169.499C877.9 183.899 901.9 190.599 926.4 193.499C948.6 196.199 971.6 195.899 994.3 193.199C1018 190.399 1041.5 185.399 1064.2 178.399C1102 166.699 1137.9 149.299 1175.4 140.099M1013.4 -98.2008C1006.4 -83.8008 992.8 -71.8008 982 -58.6008C975 -50.1008 969.1 -41.1008 963.2 -32.1008C942.5 -0.30077 919.5 31.6992 889.7 56.5992C874.2 69.5992 859.1 83.6992 853.8 102.099C853.4 103.299 853.1 104.599 852.9 105.799C849 125.699 860.2 147.299 877.7 160.099C896.2 173.499 919.3 179.299 942.6 181.599C963.5 183.699 985.1 183.199 1006.4 180.499C1028.7 177.599 1050.7 172.699 1072 165.999C1107.5 154.699 1141.2 138.199 1176.1 128.899M1022.7 -94.0008C1015.8 -80.8008 1003.1 -69.6008 992.9 -57.4008C986.3 -49.6008 980.7 -41.2008 975.1 -32.8008C955.4 -3.30078 933.6 26.2992 906.3 49.9992C891.5 62.7992 877.5 76.8992 872.7 94.8992C872.4 96.0992 872.1 97.2992 871.9 98.4992C868.5 117.899 879.4 138.799 896.7 150.799C914.5 163.199 936.7 168.099 958.9 169.899C978.5 171.499 998.8 170.799 1018.7 167.999C1039.5 165.099 1060.1 160.299 1080.1 153.799C1113.3 142.999 1144.7 127.299 1177.2 117.899M1031.9 -89.8008C1025.1 -77.7008 1013.3 -67.4008 1003.7 -56.2008C997.5 -49.0008 992.2 -41.3008 986.9 -33.6008C968.3 -6.50077 947.9 20.8992 923.1 43.1992C909 55.9992 896 69.9992 891.7 87.4992C891.4 88.6992 891.2 89.8992 891 90.9992C888 109.899 898.7 130.099 915.8 141.399C933 152.799 954.2 156.799 975.3 157.999C993.6 158.999 1012.5 158.099 1031 155.199C1050.4 152.199 1069.5 147.499 1088.1 141.299C1118.9 130.899 1148.2 115.999 1178.2 106.599M1041.2 -85.6008C1034.5 -74.7008 1023.6 -65.3008 1014.6 -55.0008C1008.8 -48.4008 1003.7 -41.4008 998.7 -34.4008C981.1 -9.60079 962 15.3992 939.7 36.4992C926.4 49.0992 914.4 63.0992 910.7 80.0992C910.4 81.1992 910.2 82.3992 910.1 83.4992C907.6 101.799 918 121.299 934.9 131.899C951.5 142.299 971.7 145.399 991.7 145.999C1008.7 146.499 1026.2 145.399 1043.4 142.399C1061.4 139.299 1079.1 134.799 1096.2 128.699C1124.7 118.699 1151.7 104.699 1179.2 95.1992M1050.4 -81.4008C1043.9 -71.7008 1033.8 -63.1008 1025.4 -53.8008C1020 -47.8008 1015.2 -41.5008 1010.5 -35.1008C993.9 -12.7008 976.3 10.0992 956.4 29.8992C943.9 42.2992 932.9 56.3992 929.7 72.7992C929.5 73.8992 929.3 74.9992 929.2 76.0992C927.1 93.8992 937.3 112.699 953.9 122.599C969.8 132.099 989.1 134.199 1008 134.299C1023.7 134.299 1039.8 132.899 1055.6 129.899C1072.1 126.799 1088.4 122.299 1104.1 116.499C1130.3 106.899 1155.1 93.7992 1180.1 84.1992M1059.6 -77.2008C1053.2 -68.6008 1044 -61.0008 1036.2 -52.6008C1031.2 -47.3008 1026.7 -41.6008 1022.3 -35.9008C1006.7 -15.8008 990.5 4.79921 973 23.0992C961.3 35.3992 951.3 49.3992 948.6 65.3992C948.4 66.4992 948.3 67.5992 948.2 68.5992C946.6 85.7992 956.5 103.999 972.9 113.099C988.2 121.599 1006.5 122.899 1024.3 122.299C1038.7 121.799 1053.4 120.199 1067.8 117.099C1082.9 113.899 1097.7 109.499 1112.1 103.999C1136 94.8992 1158.5 82.5992 1181 72.9992M1068.9 -73.0008C1062.6 -65.6008 1054.3 -58.8008 1047.1 -51.4008C1042.5 -46.7008 1038.3 -41.7008 1034.1 -36.7008C1019.6 -19.0008 1004.8 -0.600769 989.7 16.3992C978.8 28.6992 969.7 42.4992 967.6 58.0992C967.5 59.0992 967.3 60.1992 967.3 61.1992C966.1 77.8992 975.8 95.3992 992 103.799C1006.6 111.399 1024 111.799 1040.6 110.499C1053.7 109.499 1067.1 107.599 1080.1 104.499C1093.7 101.199 1107.1 96.9992 1120.1 91.6992C1141.6 82.9992 1162 71.5992 1182 61.8992M1078.1 -68.8008C1072 -62.6008 1064.6 -56.6008 1058 -50.3008C1053.8 -46.2008 1049.8 -41.9008 1046 -37.5008C1032.5 -22.1008 1019.2 -5.90078 1006.4 9.69922C996.4 21.8992 988.2 35.6992 986.6 50.6992C986.5 51.6992 986.4 52.6992 986.4 53.6992C985.7 69.8992 995.1 86.7992 1011 94.3992C1025 100.999 1041.4 100.599 1056.9 98.6992C1068.7 97.2992 1080.7 95.0992 1092.3 91.8992C1104.5 88.5992 1116.4 84.3992 1128 79.3992C1147.2 71.0992 1165.3 60.5992 1182.8 50.7992M1087.4 -64.6008C1081.4 -59.5008 1074.9 -54.5008 1068.9 -49.1008C1065 -45.6008 1061.4 -42.0008 1057.9 -38.3008C1045.4 -25.3008 1033.8 -11.2008 1023.2 2.89923C1014.1 15.0992 1006.8 28.6992 1005.6 43.2992C1005.5 44.2992 1005.5 45.2992 1005.5 46.1992C1005.2 61.7992 1014.3 78.0992 1030.1 84.8992C1043.4 90.5992 1058.9 89.2992 1073.3 86.6992C1083.9 84.7992 1094.4 82.2992 1104.7 79.0992C1115.5 75.6992 1126 71.5992 1136.1 66.8992C1153 58.9992 1168.9 49.3992 1183.9 39.4992M1096.6 -60.4008C1073.7 -45.1008 1054.2 -25.8008 1039.8 -3.80078C1031.2 9.19922 1024.3 23.6992 1024.5 38.7992C1024.7 53.8992 1033.5 69.5992 1049.1 75.5992C1061.8 80.3992 1076.3 78.1992 1089.6 74.8992C1124.8 66.0992 1157.6 50.0992 1184.8 28.2992M765.2 -29.9008C746.4 8.29923 724.7 45.2992 700.2 80.8992C692.3 92.3992 684 103.799 673.9 113.799C644.6 143.099 602.2 159.099 568.3 184.199C546.9 199.999 524.7 220.999 497 218.199C489.8 217.499 481.2 212.199 483.9 206.199C484.9 203.999 487.2 202.499 489.4 201.199C526.8 178.899 573.4 165.499 598.3 132.199C613.1 112.299 618 87.6992 616.9 63.7992C615.8 39.9992 609.2 16.6992 602.6 -6.40077C599.6 -16.9008 596.4 -27.9008 588.4 -36.1008M624.3 -10.4008C630.1 21.8992 632.3 54.5992 631 87.2992C630.6 96.2992 630 105.499 632.4 114.299C632.9 116.199 633.6 118.199 635.1 119.599C640.2 124.499 649.4 120.599 655.1 116.299C700.7 81.6992 727.1 27.9992 724.6 -25.3008M-40.7 652.999C12 604.499 97.7 571.099 165.7 541.299C237.9 509.599 319.9 487.599 371.7 432.699C406 396.399 423.2 349.199 456.7 312.299C473.3 293.999 494.9 275.399 493.4 251.999C493.1 246.699 491.3 241.199 487.1 237.299C481 231.599 470.8 230.699 462.4 233.199C454 235.699 447.2 241.099 441.1 246.899C407 279.199 392 323.399 375 365.099C358 406.799 335.7 450.099 293.4 473.599C258.8 492.799 215.9 495.899 179.2 511.599C154.2 522.199 132.8 538.299 109.4 551.499C62.3 578.299 6.60001 593.499 -49.6 594.799M940.5 764.299C870.2 771.499 802.1 795.199 744.9 832.199C722.6 846.599 701.7 863.199 677.5 874.999C654.4 886.299 628.9 892.999 604.7 902.299C574.9 913.899 547.2 929.399 520.3 945.799C488 965.399 456.6 986.199 426.2 1008.1C403.3 1024.6 380.9 1041.8 362.8 1062.5C343.3 1084.8 329.3 1110.6 317.1 1136.7C290.2 1194.3 271.6 1261.7 303.1 1317.5M936.7 750.499C891.4 759.699 846.4 770.199 801.8 782.099C756.7 794.199 711.6 807.799 671.5 829.799C644.3 844.699 619.9 863.299 594.7 880.799C540.6 918.299 482.6 951.199 428.6 988.799C374.6 1026.4 324.1 1069.7 290.4 1122.8C256.7 1175.9 241.1 1240.2 259.1 1299.1M946.4 741.099C890 749.799 833.5 758.599 776.3 760.499C748.6 761.399 720.6 760.699 693.5 755.499C658.5 748.699 625.9 734.499 594.7 718.699C540.4 691.299 489.4 658.899 442.5 622.299C397.3 586.899 352.2 545.799 293 536.299C244 528.499 194.3 544.099 148.4 561.299C78.2 587.599 10.7 631.299 -55 665.799M796.6 405.899C701.4 401.799 613.4 361.599 520.9 341.399C502.3 337.299 482 334.199 464.5 341.099C453.6 345.399 444.9 353.199 437 361.199C407.5 390.899 383.6 427.799 384.2 467.499C384.7 503.699 405.5 537.199 429.5 566.299C486.9 635.799 567.1 690.399 658.1 720.199C749.1 749.999 850.4 754.599 943.9 731.999C1047.5 706.899 1140.7 647.899 1199.2 567.699C1222.7 535.399 1240.9 498.999 1243.4 460.599C1245.8 422.199 1230.6 381.699 1197 357.499C1144.5 319.799 1080.5 347.899 1025.5 364.899C951.9 387.599 875.4 409.299 796.6 405.899ZM945.1 725.799C1002 712.199 1055.9 688.099 1102 655.499C1136.3 631.199 1166.5 602.299 1190.7 569.599C1213.4 538.799 1231.2 503.999 1233.8 467.299C1236.5 430.599 1222.3 391.599 1190.2 368.299C1140.5 332.099 1079.5 358.799 1026.9 374.799C956.9 396.299 883.9 416.899 808.8 413.799C718.1 410.099 634.2 372.199 546.1 353.199C528.3 349.399 509 346.399 492.3 352.999C481.9 357.099 473.6 364.499 466 372.099C437.6 400.299 414.6 435.499 414.8 473.199C415 507.699 434.2 539.699 457 567.599C511 633.899 587.3 685.799 673.7 714.199C760.1 742.699 856.3 746.999 945.1 725.799ZM946.4 719.699C1000.9 706.899 1052.6 684.299 1096.9 653.299C1129.7 630.299 1158.8 602.799 1182.3 571.599C1204.3 542.299 1221.5 509.099 1224.3 474.099C1227.2 438.999 1214 401.699 1183.5 379.299C1136.5 344.699 1078.5 369.799 1028.5 384.899C962 405.199 892.6 424.699 821.1 421.899C734.8 418.499 655 382.899 571.4 365.099C554.5 361.499 536.2 358.799 520.3 364.999C510.4 368.899 502.5 375.899 495.3 383.099C468.2 409.999 445.9 443.199 445.6 479.099C445.4 511.799 463.2 542.399 484.6 569.099C535.3 632.099 607.5 681.399 689.3 708.499C771.1 735.499 862.1 739.399 946.4 719.699ZM947.6 713.599C999.6 701.699 1049.3 680.499 1091.8 651.099C1123.2 629.399 1151.2 603.199 1173.9 573.599C1195.1 545.799 1211.8 514.199 1214.8 480.899C1217.9 447.399 1205.8 411.799 1176.9 390.199C1132.7 357.199 1077.7 380.699 1030.2 394.899C967.1 413.899 901.3 432.399 833.5 429.899C751.7 426.899 675.9 393.599 596.7 376.999C580.7 373.699 563.3 371.099 548.3 376.999C538.9 380.699 531.4 387.299 524.6 394.099C498.5 419.599 477 450.999 476.4 484.999C475.8 515.999 492.1 545.199 512.2 570.599C559.5 630.399 627.8 676.899 705 702.699C782.1 728.299 868 731.799 947.6 713.599ZM948.8 707.399C998.4 696.299 1045.9 676.599 1086.6 648.799C1116.5 628.399 1143.5 603.599 1165.4 575.499C1185.8 549.099 1202 519.199 1205.2 487.599C1208.5 455.799 1197.5 421.799 1170.1 400.999C1128.6 369.599 1076.6 391.599 1031.6 404.799C972 422.599 909.8 439.999 845.7 437.799C768.3 435.099 696.7 403.999 621.9 388.699C606.8 385.599 590.3 383.299 576.1 388.899C567.2 392.399 560.1 398.699 553.6 404.999C528.8 428.999 508.1 458.599 507.1 490.699C506.1 519.999 520.9 547.699 539.8 571.899C583.8 628.399 648.1 672.299 720.7 696.699C793.1 721.099 873.8 724.299 948.8 707.399ZM950 701.299C997.2 690.999 1042.5 672.699 1081.4 646.599C1109.8 627.499 1135.8 604.099 1156.9 577.599C1176.6 552.699 1192.2 524.399 1195.7 494.499C1199.2 464.299 1189.3 431.999 1163.4 412.099C1124.7 382.199 1075.6 402.599 1033.2 414.999C977.1 431.399 918.4 447.899 858 445.999C785.1 443.699 717.5 414.799 647.2 400.799C632.9 397.999 617.4 395.899 604.1 401.099C595.7 404.399 589 410.299 582.9 416.199C559.3 438.799 539.3 466.499 537.9 496.699C536.5 524.299 549.9 550.499 567.4 573.499C608 626.799 668.3 667.999 736.4 691.099C804.1 713.799 879.7 716.699 950 701.299ZM951.3 695.199C996 685.699 1039.3 668.899 1076.3 644.399C1103.3 626.599 1128.1 604.599 1148.5 579.599C1167.5 556.199 1182.5 529.499 1186.2 501.299C1189.9 472.799 1181.1 442.099 1156.8 422.999C1120.8 394.699 1074.7 413.499 1034.8 424.999C982.2 440.199 927.1 455.599 870.3 453.999C801.8 451.999 738.3 425.399 672.5 412.699C659.1 410.099 644.6 408.199 632 413.099C624.1 416.199 617.8 421.699 612.1 427.199C589.7 448.399 570.5 474.299 568.7 502.599C566.9 528.499 578.8 553.199 595 574.899C632.3 624.899 688.6 663.499 752.1 685.199C815.1 706.599 885.5 709.199 951.3 695.199ZM952.5 689.099C994.8 680.399 1035.9 664.999 1071.1 642.199C1096.6 625.699 1120.4 605.099 1140 581.599C1158.2 559.699 1172.7 534.699 1176.6 508.099C1180.5 481.199 1172.7 452.199 1150 433.999C1116.7 407.299 1073.7 424.499 1036.3 435.099C987.1 448.999 935.6 463.399 882.5 461.999C818.5 460.399 759.1 435.999 697.6 424.499C685.1 422.099 671.5 420.499 659.8 424.999C652.4 427.899 646.6 432.999 641.1 438.099C619.9 457.899 601.5 481.899 599.2 508.299C597.1 532.499 607.5 555.799 622.3 576.199C656.3 622.899 708.5 658.999 767.4 679.299C826 699.499 891.4 701.699 952.5 689.099ZM953.7 682.999C993.6 675.099 1032.5 661.199 1065.9 639.999C1090 624.699 1112.7 605.599 1131.5 583.599C1149 563.199 1162.9 539.799 1167 514.899C1171.2 489.699 1164.4 462.299 1143.2 444.899C1112.6 419.799 1072.6 435.499 1037.8 445.099C992.1 457.799 944.2 471.099 894.8 469.999C835.2 468.699 779.9 446.699 722.9 436.399C711.2 434.299 698.6 432.799 687.8 436.999C680.9 439.699 675.5 444.399 670.4 449.099C650.3 467.499 632.8 489.699 630.1 514.199C627.6 536.699 636.5 558.499 650.1 577.699C680.7 621.099 728.9 654.599 783.3 673.499C837 692.299 897.3 694.199 953.7 682.999ZM954.9 676.899C992.3 669.799 1029.1 657.399 1060.7 637.799C1083.3 623.799 1104.9 606.099 1123 585.599C1139.7 566.699 1153.1 544.899 1157.4 521.699C1161.8 498.099 1156.1 472.399 1136.5 455.799C1108.7 432.299 1071.6 446.399 1039.3 455.099C997.1 466.499 952.7 478.799 907 477.999C851.9 477.099 800.6 457.299 748.1 448.199C737.3 446.299 725.7 445.099 715.6 448.999C709.2 451.499 704.2 455.799 699.4 460.099C680.5 477.099 663.7 497.399 660.6 519.999C657.8 540.799 665.1 561.099 677.4 579.099C704.7 619.199 748.9 650.099 798.7 667.699C848 685.199 903.2 686.699 954.9 676.899ZM956.2 670.799C991.2 664.499 1025.9 653.499 1055.7 635.599C1076.8 622.899 1097.4 606.599 1114.7 587.699C1130.6 570.199 1143.6 550.099 1148.1 528.599C1152.7 506.599 1148.1 482.599 1130 466.899C1104.9 445.099 1070.9 457.499 1041.1 465.299C1002.4 475.499 961.6 486.699 919.5 486.199C868.9 485.599 821.7 468.099 773.6 460.299C763.6 458.699 753 457.599 743.8 461.199C737.9 463.499 733.3 467.399 728.9 471.299C711 486.699 695 505.199 691.5 525.999C688.3 545.099 694.2 563.899 705.1 580.699C729.1 617.499 769.2 645.799 814.5 661.999C859 677.999 909.1 679.199 956.2 670.799ZM957.4 664.699C990 659.299 1022.5 649.699 1050.5 633.399C1070.2 621.999 1089.7 607.099 1106.2 589.699C1121.4 573.699 1133.8 555.199 1138.5 535.399C1143.3 515.099 1139.8 492.699 1123.2 477.799C1100.8 457.599 1069.8 468.399 1042.5 475.299C1007.3 484.199 970 494.299 931.6 494.199C885.4 493.899 842.3 478.699 798.6 472.199C789.5 470.799 779.8 469.999 771.4 473.199C766 475.299 761.8 478.899 757.8 482.299C741.2 496.399 726.1 513.099 722.1 531.999C718.5 549.299 722.9 566.699 732.5 582.299C753.2 615.799 789.3 641.499 830 656.399C870 670.799 915 671.699 957.4 664.699ZM958.6 658.499C988.8 653.899 1019.1 645.699 1045.3 631.099C1063.5 620.999 1081.9 607.499 1097.7 591.599C1112.1 577.099 1124 560.199 1128.9 542.099C1133.9 523.399 1131.4 502.699 1116.5 488.699C1096.8 470.099 1068.8 479.299 1044.1 485.299C1012.4 492.999 978.7 501.999 943.9 502.199C902.2 502.299 863.1 489.399 823.9 483.999C815.7 482.899 806.9 482.199 799.4 485.099C794.5 486.999 790.7 490.199 787 493.199C771.6 505.899 757.2 520.699 752.9 537.699C748.9 553.299 751.8 569.199 760.2 583.599C777.6 613.699 809.6 636.899 845.7 650.399C881 663.599 920.9 664.299 958.6 658.499ZM959.8 652.399C987.6 648.599 1015.7 641.899 1040.1 628.899C1056.8 619.999 1074.2 607.899 1089.2 593.599C1102.8 580.599 1114.2 565.299 1119.3 548.899C1124.6 531.899 1123.1 512.899 1109.7 499.599C1092.7 482.699 1067.8 490.299 1045.5 495.299C1017.3 501.699 987.1 509.699 956.1 510.099C918.8 510.499 883.8 499.899 849.1 495.799C841.7 494.899 834 494.499 827.3 496.999C822.9 498.699 819.5 501.499 816.2 504.099C802 515.399 788.4 528.399 783.7 543.499C779.3 557.399 780.8 571.699 787.8 584.899C802 611.599 829.9 632.299 861.4 644.499C892 656.399 926.8 656.899 959.8 652.399ZM961 646.299C986.5 643.399 1012.3 637.999 1034.9 626.699C1050.1 619.099 1066.4 608.399 1080.7 595.599C1093.6 583.999 1104.5 570.399 1109.7 555.699C1115.2 540.299 1114.8 522.999 1102.9 510.499C1088.5 495.299 1066.7 501.199 1047 505.299C1022.3 510.499 995.7 517.399 968.3 518.099C935.5 518.899 904.5 510.499 874.3 507.699C867.8 507.099 861 506.799 855.1 509.099C851.2 510.599 848.2 512.999 845.2 515.199C832.1 525.099 819.3 536.199 814.2 549.399C809.5 561.599 809.4 574.399 815.1 586.399C826.1 609.699 849.8 627.899 876.8 638.699C903 649.199 932.8 649.599 961 646.299ZM962.3 640.199C985.4 638.199 1009 634.199 1029.8 624.499C1043.5 618.099 1058.8 608.899 1072.3 597.599C1084.4 587.499 1094.8 575.499 1100.3 562.499C1106 548.799 1106.6 533.199 1096.4 521.499C1084.7 507.999 1066 512.199 1048.8 515.399C1027.6 519.299 1004.5 525.199 980.8 526.199C952.4 527.299 925.5 521.299 899.8 519.599C894.2 519.199 888.3 519.199 883.3 521.099C879.9 522.399 877.2 524.399 874.7 526.199C862.7 534.599 850.8 543.999 845.3 555.299C840.2 565.799 838.7 576.999 843.1 587.899C851 607.599 870.5 623.499 892.9 632.899C914 641.899 938.8 642.299 962.3 640.199ZM963.5 634.099C984.3 632.999 1005.6 630.299 1024.6 622.299C1036.8 617.199 1051 609.399 1063.8 599.699C1075.1 591.099 1085.1 580.699 1090.7 569.399C1096.7 557.299 1098.2 543.499 1089.6 532.499C1080.5 520.799 1064.9 523.299 1050.2 525.499C1032.5 528.199 1012.9 532.999 992.9 534.299C969 535.799 946.1 532.099 924.8 531.599C920 531.499 915.2 531.599 910.9 533.199C908 534.299 905.7 535.899 903.6 537.299C892.7 544.299 881.6 551.799 875.7 561.199C870.2 569.999 867.3 579.499 870.3 589.399C875.2 605.499 890.3 618.999 908.2 627.199C925 634.699 944.8 635.099 963.5 634.099ZM964.7 627.999C983.2 627.899 1002.2 626.399 1019.5 620.099C1030.2 616.199 1043.4 609.899 1055.4 601.699C1065.9 594.599 1075.4 585.799 1081.2 576.199C1087.5 565.799 1089.9 553.799 1082.9 543.399C1076.3 533.499 1064 534.199 1051.8 535.499C1037.6 536.999 1021.6 540.699 1005.3 542.299C985.8 544.099 967 542.799 950.2 543.399C946.3 543.499 942.4 543.899 939 545.099C936.6 545.999 934.7 547.199 932.9 548.199C923.1 553.699 912.9 559.499 906.6 566.999C900.7 574.099 896.5 581.899 898 590.799C900.2 603.199 910.7 614.499 924 621.299C936 627.499 950.8 628.099 964.7 627.999ZM965.9 621.899C982.1 623.099 998.7 622.399 1014.3 617.899C1023.5 615.199 1035.6 610.299 1046.9 603.699C1056.6 597.999 1065.7 590.899 1071.6 582.899C1078.1 574.099 1081.3 563.999 1076.2 554.299C1072 546.299 1063 545.199 1053.3 545.499C1042.6 545.899 1030.1 548.399 1017.5 550.299C1002.5 552.499 987.7 553.599 975.4 555.299C972.3 555.699 969.4 556.299 966.9 557.099C965 557.699 963.5 558.599 962.1 559.199C953.3 563.099 944 567.199 937.3 572.799C931 578.199 923.6 584.499 925.5 592.199C927.7 600.699 930.8 609.899 939.5 615.499C947 620.199 956.8 621.199 965.9 621.899ZM991.2 570.199C975.9 574.399 958.5 580.199 953.1 593.699C950.9 598.999 951.2 605.399 955.2 609.699C958.1 612.899 962.7 614.599 967.1 615.799C980.7 619.299 995.3 618.399 1009.1 615.699C1030.7 611.499 1078.2 591.999 1069.5 565.299C1062 542.099 1005.9 566.199 991.2 570.199ZM748.8 1366.4C774 1358.9 798.3 1348.9 821.5 1337.2C908 1293.7 979.1 1226.3 1022.5 1146.8C1065.9 1067.3 1081.4 975.899 1066.4 888.499C1060.4 853.399 1046.7 815.499 1012.3 797.599C993.1 787.599 970 785.299 947.8 786.099C920.6 787.099 893.6 792.399 868.5 801.599C804.7 825.099 755.9 872.499 695.5 902.199C664.1 917.699 629.9 928.199 597.3 941.599C475.7 991.599 376.7 1083.7 326.2 1194.1C319.9 1207.8 314.3 1222.2 315.6 1236.9C316.9 1251.7 325.2 1265.2 334.5 1277.6C401.3 1366.1 520.4 1401 635 1384.6C673.5 1379.2 711.1 1377.7 748.8 1366.4ZM611.1 953.499C495.6 1002 401.8 1089.4 354.2 1194.4C348.3 1207.4 343 1221.1 344.3 1235.1C345.6 1249.2 353.6 1262.1 362.5 1273.8C426.5 1358 540.3 1391 649.9 1375.2C686.8 1369.9 722.7 1368.4 758.7 1357.6C782.8 1350.4 806 1340.8 828.2 1329.6C910.8 1287.9 978.8 1223.5 1020.3 1147.5C1061.9 1071.4 1077 983.399 1062.5 899.799C1056.6 866.199 1043.4 830.099 1010.3 813.099C991.8 803.699 969.6 801.599 948.2 802.499C922 803.599 896 808.699 871.8 817.699C810.4 840.499 763.3 886.099 705.2 914.999C692.2 921.499 678.7 927.099 665.1 932.399C646.9 939.499 628.7 946.099 611.1 953.499ZM624.9 965.399C515.5 1012.5 426.9 1095.2 382.2 1194.8C376.7 1207.1 371.7 1220.2 373 1233.4C374.3 1246.7 381.9 1259 390.5 1270.1C451.8 1350 560.3 1381.2 664.7 1365.9C699.9 1360.8 734.1 1359.3 768.4 1348.9C791.4 1342 813.5 1332.8 834.6 1322.1C913.4 1282.3 978.2 1220.8 1017.9 1148.3C1057.7 1075.6 1072.5 990.999 1058.3 911.199C1052.6 879.099 1039.8 844.699 1007.9 828.699C990.1 819.799 968.7 817.899 948.1 818.899C922.9 819.999 897.9 825.099 874.7 833.799C815.6 855.799 770.2 899.699 714.6 927.699C702.1 933.999 689.2 939.399 676.1 944.599C659 951.599 641.7 958.199 624.9 965.399ZM638.8 977.199C535.6 1022.8 452.1 1100.8 410.3 1195.1C405.1 1206.8 400.5 1219.1 401.8 1231.7C403.1 1244.3 410.4 1255.9 418.5 1266.4C477 1341.9 580.3 1371.3 679.6 1356.6C713.1 1351.6 745.7 1350.1 778.3 1340.3C800.2 1333.7 821.2 1324.9 841.3 1314.7C916.3 1276.7 978 1218.2 1015.8 1149.2C1053.8 1079.9 1068.2 998.799 1054.5 922.699C1049 892.099 1036.6 859.499 1005.9 844.399C988.7 836.099 968.2 834.399 948.5 835.399C924.3 836.599 900.4 841.599 878 849.999C821.3 871.299 777.6 913.399 724.3 940.599C712.3 946.699 700 951.999 687.5 957.099C671.1 963.599 654.6 970.199 638.8 977.199ZM652.6 988.999C555.5 1033.1 477.2 1106.4 438.3 1195.3C433.5 1206.3 429.2 1217.9 430.5 1229.8C431.8 1241.7 438.8 1252.6 446.5 1262.5C502.2 1333.7 600.2 1361.3 694.5 1347.2C726.3 1342.4 757.2 1340.9 788.1 1331.5C808.9 1325.2 828.8 1316.8 847.9 1307.2C919.1 1271.1 977.6 1215.5 1013.6 1150C1049.8 1084.1 1063.8 1006.4 1050.6 933.999C1045.3 904.899 1033.3 873.899 1003.9 859.899C987.4 852.099 967.7 850.599 948.8 851.699C925.6 852.999 902.7 857.799 881.2 865.899C826.8 886.499 784.9 926.799 734 953.099C722.6 958.999 710.8 964.199 698.9 969.099C683.1 975.699 667.6 982.199 652.6 988.999ZM666.5 1000.8C575.5 1043.4 502.4 1112 466.5 1195.6C462 1205.9 458 1216.9 459.4 1228C460.7 1239.2 467.3 1249.4 474.7 1258.7C527.7 1325.6 620.4 1351.3 709.6 1337.8C739.7 1333.2 768.9 1331.7 798.2 1322.7C817.8 1316.7 836.7 1308.8 854.8 1299.6C922.1 1265.3 977.5 1212.7 1011.6 1150.7C1046 1088.2 1059.6 1013.9 1046.8 945.299C1041.6 917.699 1030.1 888.499 1001.9 875.499C986.1 868.199 967.3 866.999 949.2 868.099C927 869.499 905.1 874.199 884.6 881.999C832.6 901.899 792.4 940.399 743.8 965.899C732.9 971.599 721.7 976.599 710.3 981.499C695.2 987.799 680.5 994.199 666.5 1000.8ZM680.3 1012.7C595.5 1053.8 527.5 1117.7 494.5 1195.9C490.4 1205.6 486.7 1215.8 488 1226.2C489.3 1236.7 495.6 1246.3 502.6 1255C552.8 1317.5 640.3 1341.4 724.4 1328.5C752.8 1324.1 780.3 1322.6 807.9 1314.1C826.4 1308.4 844.2 1300.9 861.2 1292.2C924.7 1259.8 977 1210.1 1009.2 1151.6C1041.8 1092.6 1055 1021.6 1042.7 956.799C1037.7 930.699 1026.6 903.199 999.7 891.199C984.6 884.499 966.6 883.399 949.3 884.599C928.1 885.999 907.2 890.599 887.6 898.199C837.9 917.299 799.4 954.099 753.2 978.699C742.8 984.199 732.2 989.099 721.4 993.799C707.3 999.799 693.5 1006.3 680.3 1012.7ZM694.1 1024.5C615.4 1064.1 552.6 1123.3 522.5 1196.2C518.8 1205.2 515.4 1214.8 516.7 1224.5C518 1234.3 524 1243.2 530.6 1251.3C578 1309.5 660.2 1331.6 739.2 1319.2C765.8 1315 791.7 1313.5 817.7 1305.4C835.1 1300 851.8 1292.9 867.8 1284.7C927.5 1254.1 976.6 1207.4 1007 1152.4C1037.8 1096.8 1050.6 1029.2 1038.7 968.199C1033.9 943.599 1023.2 917.799 997.5 906.799C983 900.599 965.9 899.799 949.5 900.999C929.4 902.499 909.4 906.999 890.8 914.199C843.5 932.599 806.7 967.599 762.9 991.299C753.1 996.599 743 1001.4 732.8 1005.9C719.3 1011.9 706.4 1018.3 694.1 1024.5ZM708 1036.3C635.5 1074.4 577.8 1128.9 550.6 1196.4C547.2 1204.8 544.2 1213.6 545.5 1222.6C546.8 1231.6 552.4 1239.9 558.7 1247.4C603.3 1301.3 680.3 1321.5 754.2 1309.7C779.1 1305.7 803.4 1304.2 827.6 1296.5C843.9 1291.4 859.5 1284.7 874.5 1277C930.3 1248.2 976.4 1204.5 1004.9 1153C1033.9 1100.8 1046.3 1036.6 1034.9 979.399C1030.3 956.299 1020.1 932.199 995.6 922.199C981.8 916.599 965.5 915.899 949.9 917.199C930.8 918.799 911.8 923.199 894.1 930.099C849.2 947.799 814.1 980.999 772.6 1003.9C763.3 1009 753.7 1013.6 744.1 1018.1C731.4 1024 719.4 1030.3 708 1036.3ZM721.8 1048.1C655.4 1084.7 602.9 1134.5 578.7 1196.7C575.7 1204.4 573 1212.5 574.3 1220.8C575.6 1229.1 580.9 1236.7 586.7 1243.6C628.6 1293.1 700.3 1311.6 769.1 1300.3C792.3 1296.5 814.9 1294.9 837.5 1287.8C852.7 1283 867.2 1276.7 881.2 1269.5C933.2 1242.6 976.1 1201.8 1002.7 1153.8C1029.9 1105 1042 1044.2 1031 990.699C1026.5 969.099 1016.8 946.699 993.5 937.699C980.4 932.599 965 932.199 950.2 933.499C932.1 935.199 914.1 939.399 897.3 946.099C854.7 962.999 821.3 994.499 782.3 1016.5C773.5 1021.4 764.5 1025.9 755.5 1030.2C743.5 1036.1 732.4 1042.3 721.8 1048.1ZM735.7 1059.9C675.5 1094.9 628.1 1140.2 606.8 1196.9C604.1 1203.9 601.8 1211.4 603.1 1218.9C604.4 1226.5 609.3 1233.4 614.8 1239.7C653.9 1284.9 720.3 1301.5 784.1 1290.8C805.6 1287.2 826.5 1285.6 847.4 1278.9C861.4 1274.4 874.9 1268.6 887.8 1261.8C936 1236.7 975.7 1198.9 1000.5 1154.4C1026 1109 1037.6 1051.7 1027 1001.9C1022.7 981.799 1013.4 961.199 991.3 953.099C978.8 948.499 964.3 948.299 950.3 949.699C933.2 951.399 916.2 955.599 900.4 961.999C860.2 978.199 828.5 1007.9 791.8 1029.1C783.6 1033.9 775.1 1038.2 766.7 1042.3C755.5 1048.1 745.3 1054.3 735.7 1059.9ZM749.5 1071.8C695.5 1105.2 653.4 1145.9 634.8 1197.3C632.5 1203.7 630.5 1210.4 631.8 1217.2C633.1 1224.1 637.7 1230.4 642.8 1236C679.1 1276.9 740.3 1291.7 798.9 1281.5C818.7 1278.1 837.9 1276.5 857.1 1270.3C870 1266.1 882.4 1260.7 894.3 1254.5C938.6 1231.3 975.3 1196.4 998.2 1155.4C1021.9 1113.4 1033.1 1059.5 1023 1013.5C1018.9 994.899 1010 975.999 989.2 968.899C977.4 964.899 963.7 964.899 950.6 966.299C934.5 968.099 918.6 972.099 903.6 978.199C865.7 993.699 835.8 1021.6 801.4 1041.9C793.7 1046.5 785.8 1050.6 777.9 1054.7C767.6 1060.2 758.3 1066.3 749.5 1071.8ZM763.4 1083.6C715.6 1115.3 678.6 1151.5 662.9 1197.6C661 1203.3 659.3 1209.3 660.5 1215.5C661.8 1221.7 666.1 1227.3 670.8 1232.4C704.5 1268.9 760.3 1281.9 813.8 1272.3C831.9 1269.1 849.4 1267.5 867 1261.7C878.8 1257.8 890.1 1252.8 901 1247.1C941.5 1225.7 975 1193.8 996 1156.3C1017.9 1117.7 1028.7 1067.2 1019.1 1025C1015.2 1007.9 1006.6 990.699 987.1 984.599C976 981.099 963.1 981.299 950.8 982.799C935.7 984.699 920.8 988.599 906.8 994.399C871.3 1009.1 843 1035.3 811.1 1054.8C803.9 1059.2 796.6 1063.2 789.3 1067.1C779.7 1072.3 771.3 1078.3 763.4 1083.6ZM777.2 1095.4C735.6 1125.4 703.7 1157.1 690.9 1197.8C689.3 1202.8 687.9 1208.2 689.2 1213.6C690.5 1219 694.4 1224 698.8 1228.5C729.7 1260.7 780.2 1271.8 828.7 1262.8C845.1 1259.8 861 1258.2 876.8 1252.8C887.5 1249.2 897.7 1244.6 907.6 1239.4C944.3 1219.9 974.6 1190.9 993.8 1157C1013.9 1121.9 1024.3 1074.7 1015.1 1036.3C1011.3 1020.7 1003.2 1005.2 985 1000.2C974.5 997.299 962.6 997.699 951.1 999.199C937 1001.2 923.1 1005 910 1010.5C876.8 1024.5 850.3 1048.9 820.7 1067.5C814.1 1071.7 807.3 1075.6 800.6 1079.4C791.7 1084.4 784.3 1090.3 777.2 1095.4ZM791.1 1107.2C755.7 1135.3 728.9 1162.7 719.1 1198.1C717.9 1202.5 716.8 1207.1 718.1 1211.8C719.4 1216.5 723 1220.8 726.9 1224.7C755 1252.5 800.3 1261.9 843.7 1253.4C858.3 1250.6 872.6 1249 886.8 1244.1C896.3 1240.8 905.5 1236.6 914.3 1231.9C947.1 1214.2 974.3 1188.1 991.7 1157.8C1009.9 1126 1020 1082.3 1011.3 1047.6C1007.7 1033.5 1000 1019.8 983 1015.7C973.2 1013.3 962.1 1013.9 951.4 1015.6C938.3 1017.6 925.4 1021.3 913.3 1026.5C882.5 1039.8 857.7 1062.4 830.5 1080.2C824.4 1084.2 818.2 1087.9 812 1091.6C803.8 1096.4 797.2 1102.3 791.1 1107.2ZM804.9 1119C775.6 1145.2 754 1168.4 747.1 1198.3C746.2 1202 745.5 1205.9 746.8 1209.9C748.1 1213.9 751.4 1217.5 754.9 1220.8C780.3 1244.3 820.2 1251.8 858.6 1244C871.5 1241.3 884.1 1239.8 896.6 1235.3C905 1232.3 913.1 1228.6 920.9 1224.3C949.9 1208.5 973.9 1185.3 989.5 1158.5C1005.9 1130.1 1015.7 1089.8 1007.4 1058.9C1004 1046.3 996.7 1034.3 981 1031.2C971.9 1029.4 961.6 1030.2 951.8 1031.9C939.7 1034 927.8 1037.6 916.6 1042.5C888.2 1055 865.1 1075.9 840.2 1092.8C834.6 1096.6 829 1100.2 823.4 1103.7C815.9 1108.5 810.2 1114.3 804.9 1119ZM818.8 1130.9C795.6 1155 779.2 1174.1 775.2 1198.7C774.7 1201.8 774.3 1205 775.6 1208.3C776.9 1211.6 779.8 1214.6 783 1217.2C805.6 1236.3 840.3 1242.1 873.5 1234.8C884.7 1232.3 895.6 1230.7 906.5 1226.8C913.8 1224.1 920.9 1220.8 927.6 1217C952.8 1203 973.7 1182.8 987.3 1159.5C1001.9 1134.6 1011.3 1097.6 1003.4 1070.5C1000.2 1059.4 993.3 1049.2 978.8 1047C970.3 1045.7 961 1046.7 951.9 1048.5C940.8 1050.7 929.9 1054.1 919.6 1058.8C893.5 1070.6 872.1 1089.7 849.7 1105.7C844.7 1109.3 839.6 1112.7 834.6 1116.2C827.9 1120.6 823.2 1126.2 818.8 1130.9ZM832.6 1142.7C815.4 1164.4 804.3 1179.7 803.2 1198.9C803.1 1201.3 803 1203.8 804.3 1206.4C805.6 1209 808.2 1211.3 811 1213.3C830.8 1228.1 860.3 1232 888.4 1225.3C897.9 1223 907.1 1221.4 916.3 1217.9C922.5 1215.5 928.5 1212.6 934.2 1209.4C955.5 1197.3 973.3 1180 985.1 1160.2C997.9 1138.7 1006.9 1105.2 999.5 1081.8C996.4 1072.2 990 1063.7 976.8 1062.5C969 1061.8 960.5 1062.9 952.3 1064.8C942.2 1067 932.3 1070.4 923 1074.8C899.3 1085.9 879.6 1103.2 859.5 1118.4C855 1121.8 850.5 1125.1 846 1128.4C840 1132.6 836.2 1138.1 832.6 1142.7ZM846.4 1154.5C831.3 1171.6 829.5 1185.2 831.3 1199.2C831.5 1200.9 831.8 1202.8 833 1204.6C834.3 1206.5 836.6 1208.1 839 1209.6C856.1 1220.1 880.2 1222.1 903.3 1216C911.1 1213.9 918.7 1212.3 926.2 1209.2C931.3 1207.1 936.2 1204.6 940.8 1201.9C958.3 1191.6 972.9 1177.3 982.9 1161C993.9 1142.9 1002.5 1112.8 995.5 1093.2C992.6 1085.1 986.6 1078.4 974.6 1078.1C967.4 1078 959.8 1079.3 952.4 1081.2C943.3 1083.5 934.4 1086.8 926 1090.8C904.6 1101.1 886.7 1116.7 868.9 1131C864.9 1134.2 861 1137.4 857.1 1140.6C852.1 1144.7 848.2 1149.6 846.4 1154.5ZM860.3 1166.3C854.1 1182.7 854.7 1190.8 859.4 1199.4C860 1200.5 860.6 1201.6 861.8 1202.7C863.1 1203.8 865 1204.8 867 1205.7C881.3 1211.8 900.2 1212.1 918.2 1206.5C924.3 1204.6 930.2 1203 936 1200.4C939.9 1198.6 943.8 1196.5 947.4 1194.3C961.1 1185.9 972.6 1174.5 980.6 1161.7C989.8 1147 998 1120.3 991.5 1104.4C988.8 1097.8 983.2 1092.8 972.4 1093.5C965.9 1093.9 959.1 1095.4 952.5 1097.4C944.4 1099.8 936.6 1102.9 929.1 1106.7C910.1 1116.3 893.8 1130.1 878.5 1143.6C875.1 1146.6 871.7 1149.6 868.4 1152.7C864.1 1156.8 862 1161.8 860.3 1166.3ZM874.1 1178.1C869.1 1191.1 879.6 1196.4 887.4 1199.7C888.3 1200.1 889.2 1200.5 890.5 1200.9C891.8 1201.3 893.4 1201.6 895 1201.9C906.4 1203.7 920.2 1202.1 933.1 1197.1C937.5 1195.4 941.7 1193.8 945.8 1191.6C948.6 1190.1 951.4 1188.5 954 1186.7C963.8 1180.1 972.2 1171.7 978.4 1162.4C985.8 1151.1 993.6 1127.8 987.6 1115.7C985.1 1110.6 979.9 1107.4 970.4 1109C964.6 1110 958.7 1111.7 952.9 1113.7C945.8 1116.2 939 1119.2 932.4 1122.7C915.7 1131.6 901.2 1143.6 888.2 1156.2C885.3 1159 882.5 1161.9 879.7 1164.8C876.2 1168.9 875.8 1173.8 874.1 1178.1ZM968.4 1124.7C937.3 1134.3 909.8 1153 891.2 1177.2C888.3 1180.9 887 1185.5 888 1190C890.6 1201.6 904.7 1202.2 915.5 1200.1C939.4 1195.3 962.9 1181.8 976.3 1163.3C984.5 1152.1 995.9 1116.2 968.4 1124.7ZM230.9 1219.2C231.6 1189.8 233.9 1160.2 243.2 1132C263.4 1070.6 315.1 1021 372.4 982.399C429.7 943.799 494 913.999 552.7 876.999C578.2 860.899 603.4 842.699 618.1 818.099C622.4 810.899 625.8 803.099 625.5 794.899C624.4 769.299 590.4 757.299 563.1 749.199C477.5 723.799 400.3 676.199 343.6 613.799C325.4 593.799 308.4 571.699 283 559.499C238.9 538.399 184.4 553.799 139.1 572.899C53.6 608.799 -27 658.299 -80.9 727.399C-157.8 825.899 -172.3 952.099 -173.7 1072C-174.4 1129.3 -172.4 1187.6 -152.7 1242.2C-144.1 1266 -131.9 1289.2 -112.7 1307.4C-92.1 1327 -64.5 1339.7 -36 1348.6C27.9 1368.6 98.8 1369.6 163.8 1353C184 1347.9 238.7 1336.1 244.1 1315.8C246.9 1305.3 234.7 1282.9 233.1 1271C230.7 1253.9 230.5 1236.5 230.9 1219.2ZM271.2 572.899C228.5 552.599 176 567.399 132.2 585.799C49.6 620.499 -28.3 668.399 -80.4 735.099C-98.6 758.399 -113.2 783.399 -124.8 809.399C-160.7 889.699 -168.9 980.599 -169.9 1068.1C-170.5 1123.5 -168.6 1179.8 -149.5 1232.6C-141.2 1255.6 -129.4 1278 -110.9 1295.6C-91 1314.5 -64.3 1326.9 -36.8 1335.5C25 1354.8 93.5 1355.8 156.3 1339.9C175.8 1334.9 228.7 1323.7 233.9 1304C236.6 1293.8 224.8 1272.2 223.4 1260.8C221.2 1244.2 221.1 1227.5 221.5 1210.8C222.2 1182.4 224.5 1153.8 233.5 1126.5C249.3 1078.7 284.8 1038.2 326.9 1004.7C337.1 996.599 347.6 988.999 358.3 981.699C413.7 944.399 475.6 915.499 532.1 879.699C556.7 864.099 580.9 846.499 595.2 822.799C599.3 815.899 602.6 808.299 602.3 800.399C601.7 787.699 592.9 778.499 580.8 771.399C569.3 764.699 554.9 759.999 541.9 756.099C459.1 731.499 384.5 685.499 329.6 625.199C312.3 605.999 295.8 584.599 271.2 572.899ZM259.4 586.299C218.2 566.699 167.5 580.999 125.3 598.799C45.6 632.299 -29.5 678.499 -79.8 742.799C-97.4 765.299 -111.4 789.399 -122.7 814.499C-157.3 891.999 -165.2 979.799 -166.1 1064.2C-166.7 1117.7 -164.8 1172 -146.3 1222.9C-138.3 1245.1 -126.9 1266.7 -109 1283.7C-89.7 1302 -64 1313.9 -37.4 1322.2C22.3 1340.9 88.4 1341.9 149.1 1326.5C167.9 1321.7 219 1310.9 224.1 1291.9C226.8 1282.1 215.4 1261.2 214 1250.2C211.9 1234.2 211.9 1218.1 212.3 1202C213 1174.6 215.3 1147 224 1120.7C239.3 1074.6 273.6 1035.5 314.2 1003.1C324 995.299 334.1 987.899 344.5 980.899C397.8 944.799 457.5 916.999 511.9 882.299C535.6 867.199 558.9 850.199 572.6 827.299C576.6 820.599 579.7 813.299 579.4 805.699C578.8 793.499 570.3 784.499 558.6 777.699C547.5 771.199 533.5 766.599 521.1 762.899C441.2 739.099 369.1 694.699 316 636.499C299.1 618.199 283.2 597.599 259.4 586.299ZM247.6 599.699C207.9 580.799 159.1 594.599 118.4 611.699C41.7 643.999 -30.7 688.399 -79.2 750.499C-96.1 772.199 -109.7 795.399 -120.5 819.699C-153.9 894.399 -161.4 978.999 -162.2 1060.4C-162.7 1111.9 -160.8 1164.3 -143 1213.4C-135.3 1234.8 -124.3 1255.6 -107 1272C-88.4 1289.6 -63.6 1301.1 -38 1309.2C19.5 1327.2 83.3 1328.3 141.9 1313.5C160.1 1308.9 209.3 1298.5 214.3 1280.2C216.9 1270.8 206 1250.7 204.7 1240.1C202.7 1224.7 202.7 1209.1 203.1 1193.7C203.9 1167.4 206.1 1140.8 214.5 1115.4C229.3 1070.9 262.4 1033.3 301.5 1002C310.9 994.499 320.7 987.299 330.6 980.599C381.9 945.799 439.2 918.899 491.5 885.499C514.3 870.999 536.7 854.599 549.8 832.499C553.6 826.099 556.7 818.999 556.3 811.699C555.7 799.899 547.5 791.299 536.2 784.699C525.5 778.399 512 773.999 500 770.399C422.9 747.399 353.4 704.599 302.2 648.499C285.9 630.499 270.6 610.599 247.6 599.699ZM235.8 613.099C197.6 594.899 150.6 608.199 111.5 624.599C37.7 655.699 -32 698.499 -78.6 758.199C-94.9 779.099 -107.9 801.399 -118.3 824.799C-150.4 896.699 -157.6 978.199 -158.3 1056.6C-158.7 1106.2 -156.9 1156.6 -139.8 1203.9C-132.3 1224.5 -121.7 1244.5 -105.1 1260.3C-87.2 1277.3 -63.3 1288.4 -38.6 1296.1C16.8 1313.5 78.2 1314.5 134.6 1300.3C152.1 1295.9 199.5 1285.9 204.3 1268.4C206.8 1259.3 196.4 1240 195.1 1229.8C193.3 1215 193.2 1200 193.7 1185.2C194.5 1159.9 196.7 1134.3 204.8 1109.9C219.2 1067.1 251 1030.9 288.6 1000.7C297.7 993.499 307 986.599 316.6 980.099C365.9 946.599 420.9 920.599 471.1 888.399C493 874.399 514.5 858.599 527.1 837.399C530.8 831.199 533.7 824.399 533.3 817.399C532.7 805.999 524.8 797.799 513.9 791.399C503.6 785.399 490.6 781.099 479.1 777.599C405 755.299 338 713.999 288.6 659.999C272.8 642.799 258 623.599 235.8 613.099ZM224.1 626.599C187.4 609.199 142.3 621.899 104.7 637.699C33.7 667.399 -33.2 708.499 -78 765.899C-93.7 785.999 -106.2 807.499 -116.2 829.899C-147 899.099 -153.9 977.299 -154.5 1052.7C-154.9 1100.4 -153.1 1148.8 -136.6 1194.2C-129.4 1214 -119.2 1233.3 -103.3 1248.4C-86.1 1264.7 -63.1 1275.4 -39.4 1282.9C13.9 1299.7 73 1300.7 127.2 1287.1C144.1 1282.9 189.6 1273.3 194.3 1256.5C196.7 1247.8 186.7 1229.3 185.6 1219.5C183.9 1205.3 183.9 1190.9 184.4 1176.7C185.2 1152.4 187.4 1127.8 195.3 1104.4C209.2 1063.3 239.8 1028.4 275.9 999.299C284.6 992.299 293.6 985.699 302.8 979.399C350.1 947.099 402.8 922.099 450.9 891.199C471.8 877.699 492.4 862.599 504.5 842.099C508 836.099 510.8 829.599 510.4 822.799C509.8 811.899 502.2 803.899 491.8 797.799C481.9 791.999 469.4 787.899 458.3 784.499C386.9 763.099 322.5 723.399 275 671.499C259.6 654.999 245.3 636.599 224.1 626.599ZM212.3 639.999C177.1 623.299 133.8 635.499 97.8 650.599C29.7 679.099 -34.4 718.599 -77.3 773.499C-92.3 792.799 -104.3 813.399 -113.9 834.899C-143.4 901.299 -150 976.399 -150.5 1048.7C-150.8 1094.5 -149.1 1140.9 -133.2 1184.5C-126.3 1203.5 -116.5 1222 -101.2 1236.5C-84.7 1252.2 -62.6 1262.4 -39.8 1269.6C11.4 1285.7 68.1 1286.7 120.2 1273.8C136.4 1269.8 180.1 1260.6 184.6 1244.5C187 1236.2 177.4 1218.4 176.3 1209.1C174.7 1195.5 174.7 1181.7 175.2 1168C176 1144.7 178.2 1121.2 185.8 1098.7C199.2 1059.3 228.6 1025.8 263.1 997.799C271.4 991.099 280 984.699 288.8 978.699C334.1 947.699 384.4 923.699 430.4 893.899C450.4 880.999 470.1 866.399 481.6 846.799C484.9 841.099 487.6 834.799 487.3 828.299C486.7 817.799 479.4 810.199 469.4 804.299C459.9 798.699 447.9 794.799 437.2 791.599C368.7 770.999 306.8 732.899 261.1 683.099C246.5 667.299 232.7 649.699 212.3 639.999ZM200.5 653.399C166.8 637.399 125.4 649.099 90.9 663.599C25.8 690.899 -35.7 728.599 -76.8 781.299C-91.2 799.799 -102.7 819.499 -111.8 840.199C-140 903.799 -146.3 975.799 -146.7 1045C-147 1088.8 -145.3 1133.4 -130 1175C-123.4 1193.2 -114 1210.9 -99.3 1224.8C-83.4 1239.8 -62.3 1249.7 -40.4 1256.6C8.60001 1272.1 63 1273.1 112.9 1260.7C128.5 1256.9 170.3 1248.1 174.7 1232.7C177 1224.8 167.9 1207.8 166.9 1198.8C165.4 1185.8 165.5 1172.6 166 1159.5C166.9 1137.2 169 1114.7 176.3 1093.2C189.2 1055.5 217.4 1023.3 250.4 996.499C258.3 990.099 266.6 983.999 275 978.199C318.2 948.499 366.3 925.399 410.2 896.899C429.3 884.499 448.1 870.499 459.1 851.699C462.3 846.199 464.8 840.199 464.5 833.999C463.9 823.999 456.9 816.599 447.3 810.999C438.2 805.599 426.7 801.799 416.5 798.799C350.8 778.999 291.5 742.399 247.6 694.799C233.3 679.499 220.1 662.699 200.5 653.399ZM188.7 666.899C156.5 651.699 116.9 662.799 83.9 676.599C21.7 702.599 -37 738.699 -76.2 788.999C-90 806.699 -100.9 825.599 -109.6 845.299C-136.5 906.099 -142.4 974.899 -142.8 1041.1C-143 1083 -141.3 1125.6 -126.7 1165.4C-120.3 1182.7 -111.4 1199.7 -97.3 1213C-82.1 1227.4 -61.9 1236.8 -41 1243.4C5.90002 1258.2 57.9 1259.2 105.7 1247.5C120.6 1243.9 160.6 1235.5 164.8 1220.8C167 1213.2 158.4 1197 157.4 1188.5C156 1176.1 156.1 1163.5 156.6 1151C157.5 1129.7 159.6 1108.2 166.6 1087.7C179 1051.7 206 1020.9 237.5 995.099C245.1 988.899 252.9 983.099 260.9 977.499C302.1 948.999 347.9 926.899 389.6 899.599C407.8 887.699 425.7 874.399 436.1 856.399C439.1 851.199 441.5 845.399 441.2 839.499C440.6 829.899 433.9 822.899 424.7 817.499C415.9 812.399 405 808.699 395.2 805.799C332.4 786.799 275.6 751.799 233.6 706.299C220.1 691.799 207.5 675.699 188.7 666.899ZM177 680.299C146.3 665.799 108.6 676.399 77.1 689.499C17.7 714.399 -38.2 748.699 -75.6 796.599C-88.7 813.499 -99.2 831.499 -107.5 850.299C-133.1 908.299 -138.7 973.999 -139 1037.1C-139.2 1077.1 -137.5 1117.7 -123.6 1155.7C-117.5 1172.2 -108.9 1188.4 -95.5 1201.1C-81 1214.8 -61.7 1223.8 -41.7 1230.2C3.1 1244.4 52.7 1245.3 98.4 1234.3C112.7 1230.8 150.8 1222.9 154.9 1209C157 1201.8 148.8 1186.4 148 1178.2C146.7 1166.4 146.8 1154.4 147.4 1142.5C148.3 1122.2 150.3 1101.7 157.1 1082.2C169 1047.8 194.8 1018.4 224.8 993.799C232 987.899 239.5 982.299 247.1 976.999C286.2 949.699 329.7 928.699 369.4 902.599C386.7 891.299 403.6 878.499 413.5 861.399C416.4 856.399 418.6 850.899 418.3 845.199C417.8 835.999 411.3 829.399 402.5 824.199C394.1 819.299 383.7 815.799 374.3 812.999C314.3 794.799 260.2 761.399 219.9 717.999C207 703.999 194.9 688.699 177 680.299ZM165.2 693.699C136 679.999 100.1 689.999 70.2 702.499C13.8 726.099 -39.5 758.699 -75 804.299C-87.5 820.399 -97.4 837.499 -105.3 855.499C-129.6 910.799 -134.9 973.199 -135.1 1033.3C-135.2 1071.3 -133.6 1110 -120.3 1146.1C-114.5 1161.8 -106.3 1177.2 -93.6 1189.3C-79.8 1202.4 -61.4 1211 -42.4 1217C0.300007 1230.5 47.5 1231.5 91 1221C104.6 1217.7 140.9 1210.2 144.9 1197C147 1190.2 139.2 1175.5 138.4 1167.8C137.2 1156.6 137.4 1145.2 137.9 1133.9C138.8 1114.6 140.8 1095.2 147.4 1076.6C158.9 1043.9 183.4 1015.9 211.9 992.399C218.7 986.799 225.8 981.399 233 976.399C270.1 950.399 311.3 930.299 348.8 905.399C365.1 894.599 381.2 882.399 390.5 866.099C393.2 861.299 395.3 856.099 395 850.699C394.5 841.999 388.3 835.599 380 830.699C372 825.999 362.1 822.699 353.2 819.999C296.1 802.599 244.5 770.699 206 729.499C193.8 716.299 182.2 701.699 165.2 693.699ZM153.4 707.099C125.7 694.099 91.7 703.599 63.3 715.399C9.80002 737.799 -40.7 768.799 -74.4 811.999C-86.3 827.199 -95.6 843.599 -103.1 860.599C-126.2 913.099 -131.1 972.399 -131.2 1029.4C-131.3 1065.5 -129.7 1102.2 -117 1136.5C-111.5 1151.4 -103.7 1166 -91.6 1177.5C-78.5 1189.9 -61 1198.1 -42.9 1203.8C-2.39999 1216.7 42.5 1217.6 83.9 1207.8C96.9 1204.7 131.3 1197.6 135.1 1185.1C137.1 1178.6 129.8 1164.8 129.1 1157.5C128.1 1146.9 128.2 1136.1 128.8 1125.4C129.8 1107.2 131.7 1088.7 138 1071.1C149 1040.1 172.2 1013.5 199.2 990.999C205.7 985.599 212.4 980.499 219.2 975.699C254.3 950.899 293.2 931.799 328.6 908.199C344 897.899 359.2 886.399 368 870.899C370.5 866.399 372.5 861.399 372.2 856.299C371.7 847.999 365.8 841.999 357.9 837.299C350.3 832.799 340.9 829.699 332.4 827.099C278.1 810.499 229.1 780.199 192.5 740.999C180.7 728.599 169.6 714.799 153.4 707.099ZM141.6 720.599C115.4 708.299 83.2 717.299 56.4 728.499C5.8 749.599 -42 778.799 -73.8 819.699C-85 834.099 -93.9 849.599 -101 865.699C-122.8 915.399 -127.4 971.499 -127.5 1025.5C-127.5 1059.7 -126 1094.4 -113.9 1126.8C-108.7 1140.9 -101.3 1154.8 -89.8 1165.6C-77.3 1177.4 -60.8 1185.1 -43.7 1190.6C-5.3 1202.9 37.2 1203.8 76.5 1194.5C88.8 1191.6 121.4 1184.9 125.1 1173.1C127 1167 120.2 1153.9 119.5 1147C118.6 1137 118.8 1126.8 119.4 1116.7C120.4 1099.5 122.3 1082 128.3 1065.3C138.8 1036 160.8 1010.7 186.3 989.399C192.4 984.299 198.7 979.499 205.1 974.899C238.1 951.399 274.8 933.199 308 910.799C322.5 901.099 336.8 890.099 345 875.399C347.4 871.099 349.3 866.399 348.9 861.599C348.4 853.799 342.8 847.999 335.3 843.599C328.1 839.399 319.2 836.399 311.2 833.899C259.8 818.099 213.3 789.399 178.5 752.299C167.5 740.799 157 727.799 141.6 720.599ZM129.8 733.999C105.1 722.399 74.8 730.799 49.5 741.399C1.8 761.299 -43.3 788.899 -73.3 827.399C-83.9 840.999 -92.2 855.599 -98.9 870.799C-119.4 917.699 -123.7 970.699 -123.7 1021.6C-123.7 1053.8 -122.1 1086.6 -110.7 1117.2C-105.7 1130.5 -98.8 1143.6 -87.9 1153.8C-76.1 1164.9 -60.5 1172.3 -44.3 1177.4C-8 1189 32.2 1189.9 69.2 1181.3C80.8 1178.6 111.6 1172.3 115.1 1161.3C116.9 1155.6 110.6 1143.3 110 1136.8C109.2 1127.4 109.4 1117.8 110 1108.3C111 1092.1 112.9 1075.7 118.6 1059.9C128.6 1032.3 149.4 1008.4 173.4 988.199C179.1 983.399 185.1 978.799 191.1 974.499C222.1 952.299 256.4 935.099 287.6 913.899C301.2 904.699 314.5 894.299 322.2 880.499C324.4 876.499 326.2 871.999 325.8 867.499C325.3 860.099 320 854.699 312.9 850.499C306.1 846.499 297.7 843.599 290.1 841.299C241.6 826.299 197.6 799.099 164.7 764.199C154.3 753.099 144.4 740.799 129.8 733.999ZM118.1 747.399C94.9 736.599 66.4 744.399 42.7 754.299C-2.19999 772.999 -44.5 798.899 -72.7 835.099C-82.6 847.899 -90.5 861.699 -96.7 875.999C-115.9 920.099 -119.9 969.999 -119.8 1017.8C-119.7 1048.1 -118.2 1078.9 -107.4 1107.7C-102.7 1120.2 -96.1 1132.5 -85.9 1142.1C-74.8 1152.6 -60 1159.5 -44.8 1164.4C-10.6 1175.4 27.2 1176.3 62.1 1168.3C73.1 1165.8 102 1160 105.4 1149.6C107.2 1144.2 101.2 1132.7 100.7 1126.6C100 1117.8 100.3 1108.8 100.9 1099.9C101.9 1084.7 103.8 1069.3 109.2 1054.5C118.7 1028.6 138.3 1006 160.8 986.899C166.2 982.299 171.7 977.999 177.4 973.899C206.4 952.899 238.4 936.699 267.5 916.699C280.2 907.999 292.6 898.299 299.8 885.299C301.9 881.499 303.5 877.299 303.2 872.999C302.7 865.999 297.7 860.899 291 856.999C284.6 853.199 276.7 850.499 269.5 848.299C223.8 834.099 182.4 808.499 151.3 775.699C141.2 765.299 131.8 753.799 118.1 747.399ZM106.3 760.799C84.6 750.699 58 757.999 35.8 767.299C-6.1 784.699 -45.7 808.899 -72 842.799C-81.3 854.799 -88.6 867.699 -94.4 881.099C-112.3 922.499 -116 969.099 -115.8 1013.9C-115.7 1042.3 -114.2 1071.1 -104.1 1098C-99.7 1109.7 -93.5 1121.2 -84 1130.2C-73.6 1140 -59.7 1146.5 -45.5 1151.1C-13.5 1161.4 22 1162.3 54.8 1154.9C65.1 1152.6 92.2 1147.2 95.4 1137.5C97.1 1132.5 91.6 1121.8 91.2 1116.1C90.6 1107.9 90.9 1099.5 91.5 1091.2C92.6 1077 94.4 1062.6 99.5 1048.8C108.5 1024.5 126.9 1003.4 147.9 985.399C152.9 981.099 158.1 977.099 163.3 973.199C190.3 953.499 220 938.199 246.9 919.499C258.6 911.299 270.2 902.199 276.8 889.999C278.7 886.399 280.2 882.499 279.9 878.499C279.4 871.999 274.7 867.199 268.5 863.499C262.5 859.999 255.1 857.399 248.4 855.299C205.6 841.899 166.7 817.899 137.4 787.199C128 777.599 119.2 766.799 106.3 760.799ZM94.5 774.299C74.3 764.899 49.5 771.699 28.9 780.299C-10.1 796.499 -46.9 818.999 -71.4 850.499C-80.1 861.699 -86.9 873.699 -92.3 886.199C-108.9 924.799 -112.3 968.299 -112 1010.1C-111.8 1036.5 -110.4 1063.4 -100.9 1088.5C-96.8 1099.4 -91 1110.1 -82.1 1118.5C-72.4 1127.7 -59.4 1133.8 -46.1 1138.1C-16.2 1147.8 16.9 1148.7 47.5 1141.9C57.2 1139.8 82.4 1134.8 85.5 1125.8C87.1 1121.2 82.1 1111.2 81.7 1106C81.2 1098.4 81.5 1090.6 82.2 1082.9C83.3 1069.7 85.1 1056.4 90 1043.5C98.6 1020.9 115.7 1001.2 135.1 984.299C139.7 980.299 144.5 976.499 149.4 972.899C174.3 954.399 201.7 940.199 226.6 922.599C237.4 914.999 248.1 906.499 254.1 895.099C255.9 891.799 257.2 888.099 256.9 884.399C256.4 878.299 252 873.899 246.2 870.399C240.6 867.099 233.7 864.699 227.4 862.699C187.4 850.099 151.1 827.599 123.7 799.099C114.9 789.799 106.6 779.799 94.5 774.299ZM82.7 787.699C64 779.099 41.1 785.299 21.9 793.299C-14.2 808.299 -48.3 829.099 -71 858.299C-79 868.699 -85.3 879.799 -90.3 891.499C-105.6 927.299 -108.7 967.599 -108.3 1006.4C-108.1 1030.9 -106.6 1055.8 -97.8 1079C-93.9 1089.1 -88.6 1099 -80.3 1106.8C-71.2 1115.3 -59.2 1121 -46.9 1125C-19.1 1134.1 11.6 1134.9 40.1 1128.8C49.1 1126.8 72.5 1122.3 75.4 1114C76.9 1109.7 72.4 1100.5 72.1 1095.7C71.7 1088.7 72.1 1081.5 72.7 1074.4C73.8 1062.2 75.6 1049.9 80.2 1038C88.3 1017.1 104.2 998.699 122.1 982.899C126.4 979.099 130.8 975.599 135.2 972.299C158.1 955.099 183.2 941.799 205.9 925.499C215.8 918.399 225.6 910.499 231.1 899.899C232.7 896.799 233.9 893.399 233.6 889.999C233.1 884.399 229 880.199 223.6 876.999C218.4 873.899 211.9 871.699 206.1 869.799C169 857.999 135.2 837.099 109.6 810.599C101.7 802.099 93.9 792.899 82.7 787.699ZM71 801.099C53.8 793.199 32.7 798.899 15.1 806.199C-18.1 819.899 -49.5 839.099 -70.3 865.899C-77.7 875.499 -83.5 885.799 -88 896.499C-102 929.499 -104.7 966.699 -104.3 1002.4C-104 1025 -102.6 1047.9 -94.4 1069.3C-90.8 1078.6 -85.9 1087.7 -78.2 1094.9C-69.8 1102.8 -58.7 1108 -47.3 1111.8C-21.6 1120.2 6.70001 1121.1 33.1 1115.5C41.5 1113.7 63 1109.6 65.8 1102.1C67.3 1098.2 63.1 1089.8 63 1085.4C62.7 1079 63.1 1072.4 63.8 1065.9C64.9 1054.8 66.7 1043.4 71 1032.5C78.6 1013.3 93.3 996.299 109.7 981.599C113.6 978.099 117.6 974.799 121.7 971.699C142.6 955.699 165.4 943.399 186 928.299C195 921.699 203.8 914.399 208.8 904.699C210.2 901.899 211.3 898.699 211 895.499C210.5 890.299 206.7 886.499 201.7 883.499C196.9 880.599 190.9 878.599 185.6 876.799C151.3 865.799 120.1 846.499 96.3 822.099C88.5 814.299 81.3 805.899 71 801.099ZM59.2 814.499C43.5 807.299 24.3 812.499 8.2 819.099C-22.1 831.599 -50.7 848.999 -69.7 873.499C-76.5 882.299 -81.7 891.699 -85.8 901.499C-98.6 931.699 -100.9 965.699 -100.4 998.399C-100.1 1019.1 -98.7 1040 -91.1 1059.6C-87.8 1068.1 -83.2 1076.4 -76.3 1083C-68.6 1090.2 -58.4 1095.1 -48 1098.5C-24.5 1106.3 1.6 1107.1 25.7 1102.2C33.4 1100.6 53.1 1096.9 55.8 1090.1C57.2 1086.6 53.5 1078.9 53.4 1074.9C53.3 1069 53.7 1063.1 54.4 1057.2C55.6 1047.1 57.3 1036.8 61.3 1026.8C68.4 1009.3 81.9 993.699 96.8 980.099C100.3 976.899 104 973.899 107.6 970.999C126.4 956.299 147 944.899 165.4 931.099C173.5 925.099 181.4 918.399 185.8 909.499C187.1 906.899 188.1 903.999 187.7 901.099C187.2 896.299 183.7 892.799 179.1 890.099C174.7 887.499 169.2 885.499 164.3 883.899C132.9 873.699 104.2 855.899 82.3 833.699C75.4 826.599 68.7 818.899 59.2 814.499ZM47.4 827.999C33.2 821.599 15.8 826.199 1.3 832.199C-26.1 843.499 -52 859.199 -69.1 881.299C-75.2 889.299 -79.9 897.799 -83.7 906.699C-95.2 934.199 -97.2 964.999 -96.6 994.599C-96.2 1013.3 -94.9 1032.3 -87.9 1050C-84.9 1057.7 -80.7 1065.3 -74.4 1071.2C-67.4 1077.8 -58.1 1082.2 -48.6 1085.4C-27.2 1092.5 -3.5 1093.4 18.5 1089C25.6 1087.6 43.4 1084.3 45.9 1078.2C47.2 1075 44 1068.2 44 1064.6C44 1059.3 44.4 1054 45.1 1048.7C46.3 1039.6 48 1030.3 51.7 1021.3C58.3 1005.4 70.6 991.199 84 978.699C87.1 975.699 90.4 972.999 93.7 970.399C110.5 956.999 128.7 946.599 145.1 933.899C152.2 928.399 159.3 922.299 163.1 914.199C164.2 911.799 165.1 909.299 164.7 906.599C164.2 902.299 161 899.099 156.8 896.599C152.8 894.199 147.8 892.399 143.4 890.899C114.8 881.499 88.7 865.299 68.6 845.199C62.2 838.899 56.1 831.899 47.4 827.999ZM35.6 841.399C22.9 835.699 7.40001 839.799 -5.59999 845.099C-30.1 855.099 -53.2 869.199 -68.5 888.999C-74 896.199 -78.2 903.899 -81.5 911.899C-91.7 936.599 -93.4 964.299 -92.7 990.799C-92.3 1007.6 -91 1024.6 -84.7 1040.5C-82 1047.4 -78.2 1054.2 -72.5 1059.5C-66.1 1065.4 -57.8 1069.4 -49.2 1072.3C-29.9 1078.8 -8.6 1079.6 11.2 1075.9C17.6 1074.7 33.6 1071.8 36 1066.4C37.2 1063.6 34.5 1057.5 34.5 1054.3C34.6 1049.6 35 1044.9 35.8 1040.1C37 1032 38.7 1023.7 42.2 1015.7C48.3 1001.5 59.4 988.699 71.2 977.299C74 974.599 76.9 972.099 79.7 969.699C94.5 957.499 110.4 948.099 124.6 936.699C130.8 931.699 137 926.199 140.3 918.999C141.3 916.899 142 914.599 141.7 912.199C141.2 908.299 138.3 905.499 134.6 903.199C131 900.999 126.5 899.399 122.5 898.099C96.8 889.499 73.2 874.899 55 856.899C49.1 851.099 43.5 844.899 35.6 841.399ZM23.9 854.799C12.6 849.799 -0.999994 853.399 -12.4 858.099C-34 866.899 -54.4 879.199 -67.9 896.699C-72.8 902.999 -76.4 909.899 -79.3 916.999C-88.2 938.899 -89.6 963.399 -88.8 986.899C-88.3 1001.8 -87 1016.8 -81.4 1030.8C-78.9 1036.9 -75.6 1042.9 -70.5 1047.6C-64.8 1052.9 -57.4 1056.5 -49.8 1059.1C-32.6 1064.9 -13.7 1065.8 4 1062.7C9.8 1061.7 23.9 1059.2 26.1 1054.5C27.2 1052.1 24.9 1046.8 25.1 1044C25.3 1039.9 25.8 1035.8 26.5 1031.6C27.8 1024.5 29.4 1017.2 32.6 1010.2C38.2 997.699 48.1 986.299 58.4 975.999C60.8 973.599 63.3 971.299 65.8 969.199C78.5 958.299 92.2 949.799 104.3 939.599C109.6 935.199 114.9 930.299 117.6 923.799C118.4 921.899 119 919.899 118.7 917.799C118.2 914.399 115.6 911.799 112.3 909.799C109.1 907.799 105.1 906.399 101.5 905.199C78.6 897.399 57.6 884.399 41.2 868.499C35.9 863.399 30.9 857.899 23.9 854.799ZM12.1 868.299C2.30001 863.999 -9.39999 867.099 -19.3 871.099C-38 878.699 -55.7 889.299 -67.3 904.399C-71.5 909.899 -74.7 915.899 -77.2 922.099C-84.8 941.199 -85.9 962.599 -85 982.999C-84.5 995.899 -83.2 1009 -78.2 1021.2C-76 1026.5 -73.1 1031.7 -68.6 1035.8C-63.6 1040.4 -57.1 1043.6 -50.4 1045.9C-35.4 1051.1 -18.8 1051.9 -3.2 1049.4C1.9 1048.6 14.2 1046.5 16.3 1042.6C17.4 1040.6 15.5 1036 15.7 1033.7C16 1030.2 16.5 1026.7 17.3 1023.1C18.6 1017 20.2 1010.8 23.1 1004.6C28.3 993.799 36.9 983.799 45.7 974.499C47.7 972.399 49.9 970.399 52 968.499C62.7 958.799 74 951.399 84.1 942.399C88.5 938.499 92.8 934.199 95 928.599C95.6 926.999 96.1 925.199 95.8 923.299C95.3 920.299 93 918.099 90.1 916.299C87.3 914.599 83.8 913.299 80.7 912.199C60.7 905.199 42.2 893.699 27.6 879.999C22.8 875.599 18.3 870.899 12.1 868.299ZM0.300003 881.699C-8 878.199 -17.9 880.699 -26.2 883.999C-42 890.299 -57 899.299 -66.7 911.999C-70.3 916.699 -72.9 921.899 -75 927.199C-81.3 943.599 -82.1 961.699 -81.2 979.099C-80.6 990.099 -79.4 1001.2 -75 1011.6C-73.1 1016.1 -70.5 1020.5 -66.8 1024C-62.5 1028 -56.9 1030.7 -51.2 1032.8C-38.3 1037.4 -24.1 1038.2 -10.7 1036.3C-6.3 1035.7 4.20001 1034 6.10001 1030.8C7.10001 1029.1 5.7 1025.4 6 1023.4C6.4 1020.5 7.00001 1017.6 7.70001 1014.6C9.00001 1009.6 10.6 1004.3 13.2 999.099C17.9 989.999 25.3 981.299 32.6 973.199C34.3 971.299 36 969.599 37.7 967.899C46.4 959.499 55.4 952.999 63.3 945.199C66.8 941.799 70.2 938.099 71.9 933.399C72.4 931.999 72.7 930.499 72.4 928.899C71.9 926.299 69.9 924.399 67.4 922.899C65 921.399 62 920.299 59.3 919.299C42.1 913.099 26.2 903.199 13.5 891.499C9.6 887.899 5.6 883.999 0.300003 881.699ZM-11.5 895.099C-18.3 892.299 -26.3 894.299 -33.1 896.999C-46 902.099 -58.2 909.399 -66.1 919.799C-69.1 923.699 -71.2 927.999 -72.8 932.399C-77.8 945.999 -78.3 960.999 -77.3 975.299C-76.7 984.399 -75.5 993.499 -71.7 1002C-70.1 1005.7 -67.9 1009.3 -64.8 1012.2C-61.2 1015.5 -56.5 1017.9 -51.7 1019.6C-40.9 1023.5 -29 1024.4 -17.8 1023.1C-14 1022.7 -5.40001 1021.4 -3.60001 1018.9C-2.70001 1017.6 -3.6 1014.6 -3.3 1013.1C-2.8 1010.8 -2.19999 1008.5 -1.39999 1006.1C-0.0999939 1002.1 1.5 997.799 3.8 993.599C8 986.099 14.2 978.899 20 971.899C21.3 970.299 22.6 968.799 24 967.399C30.6 960.299 37.4 954.699 43.2 948.199C45.7 945.399 48.3 942.299 49.4 938.299C49.7 937.099 49.9 935.899 49.6 934.599C49.1 932.499 47.4 930.899 45.3 929.599C43.3 928.299 40.8 927.299 38.5 926.499C24.2 921.099 10.8 912.799 -0.100006 903.199C-3.60001 900.099 -7 896.999 -11.5 895.099ZM-23.2 908.499C-28.4 906.399 -34.6 907.899 -40 909.899C-50 913.799 -59.5 919.299 -65.5 927.399C-67.8 930.499 -69.4 933.899 -70.6 937.399C-74.3 948.199 -74.5 959.999 -73.4 971.299C-72.7 978.399 -71.6 985.599 -68.5 992.299C-67.1 995.199 -65.4 997.999 -62.9 1000.3C-60 1003 -56.2 1004.9 -52.4 1006.3C-43.7 1009.6 -34.2 1010.4 -25.1 1009.7C-22 1009.5 -15.2 1008.6 -13.6 1006.8C-12.8 1005.9 -13.3 1003.7 -12.8 1002.5C-12.2 1000.9 -11.5 999.099 -10.7 997.299C-9.3 994.299 -7.8 991.099 -5.7 987.799C-2 981.999 3.00001 976.199 7.20001 970.199C8.10001 968.899 9.1 967.599 10 966.499C14.6 960.699 19 955.999 22.7 950.699C24.3 948.399 26 945.899 26.5 942.799C26.7 941.899 26.7 940.899 26.4 939.899C25.9 938.199 24.5 936.999 22.9 935.899C21.2 934.899 19.3 933.999 17.5 933.299C6 928.899 -4.8 922.199 -13.8 914.799C-16.7 912.399 -19.6 909.999 -23.2 908.499ZM-35 921.999C-38.7 920.599 -43.1 921.599 -46.9 922.999C-54 925.599 -60.7 929.499 -65 935.199C-66.7 937.499 -67.8 940.099 -68.6 942.599C-71.1 950.599 -70.9 959.299 -69.7 967.499C-69 972.699 -67.8 977.899 -65.4 982.699C-64.3 984.799 -63 986.899 -61.1 988.499C-58.8 990.499 -56 991.999 -53.1 993.199C-46.6 995.799 -39.4 996.699 -32.5 996.599C-30 996.599 -25.1 996.199 -23.6 995.099C-22.8 994.499 -22.9 993.199 -22.4 992.399C-21.7 991.399 -21 990.199 -20.2 988.999C-18.8 986.999 -17.3 984.799 -15.5 982.499C-12.3 978.399 -8.49999 973.999 -5.79999 969.099C-5.19999 968.099 -4.69999 967.099 -4.09999 966.099C-1.49999 961.599 0.600012 957.899 2.20001 953.799C2.90001 951.999 3.60001 950.099 3.70001 947.899C3.70001 947.199 3.6 946.499 3.3 945.699C2.8 944.499 1.7 943.499 0.5 942.699C-0.8 941.899 -2.19999 941.199 -3.59999 940.599C-12.2 936.799 -20.5 931.599 -27.7 926.299C-29.9 924.699 -32.2 922.999 -35 921.999ZM-46.8 935.399C-49 934.699 -51.5 935.099 -53.8 935.899C-58 937.299 -62 939.499 -64.4 942.899C-65.5 944.399 -66 946.099 -66.4 947.799C-67.6 952.999 -67.1 958.599 -65.8 963.799C-65 967.099 -63.9 970.299 -62.1 973.299C-61.3 974.599 -60.4 975.899 -59.1 976.899C-57.5 978.299 -55.6 979.399 -53.6 980.199C-49.2 982.199 -44.3 983.099 -39.6 983.499C-37.7 983.699 -34.7 983.699 -33.3 983.299C-32.6 983.099 -32.3 982.499 -31.6 982.199C-30.9 981.799 -30.1 981.199 -29.2 980.599C-27.8 979.599 -26.3 978.399 -24.8 977.099C-22 974.699 -19.5 971.799 -18.3 967.899C-18.1 967.099 -17.9 966.399 -17.8 965.699C-17.2 962.499 -17.4 959.699 -18 956.799C-18.2 955.599 -18.4 954.299 -18.9 952.799C-19.1 952.399 -19.2 951.899 -19.6 951.399C-20.1 950.599 -20.9 949.999 -21.7 949.399C-22.6 948.799 -23.5 948.299 -24.4 947.799C-30.2 944.799 -35.9 941.199 -41.3 937.999C-43 936.899 -44.8 935.999 -46.8 935.399ZM-44 955.899C-48.2 952.599 -53 949.299 -58.6 948.799C-60.6 948.599 -62.9 948.999 -63.8 950.499C-64.2 951.199 -64.3 951.999 -64.2 952.799C-64 957.499 -61.1 961.799 -57.2 964.899C-53.3 967.999 -48.3 969.899 -43.3 971.299C-39 972.499 -29.9 972.499 -31.2 966.299C-32 962.499 -40.8 958.499 -44 955.899Z" stroke="url(#paint0_radial_4286_1759)" stroke-miterlimit="10" stroke-linecap="round" stroke-linejoin="round"/>
</g>
<defs>
<radialGradient id="paint0_radial_4286_1759" cx="0" cy="0" r="1" gradientUnits="userSpaceOnUse" gradientTransform="translate(518.403 611.611) rotate(90.0383) scale(604.39 564.194)">
<stop stop-color="#F48124"/>
<stop offset="0.5" stop-color="#002B49"/>
<stop offset="1" stop-color="#D40000"/>
</radialGradient>
</defs>
</svg>
